<svg xmlns="http://www.w3.org/2000/svg" width="278.04" height="307.94" viewBox="0 0 278.04 307.94">
  <defs>
    <style>
      .cls-1 {
        isolation: isolate;
      }

      .cls-2 {
        fill: #ff0;
      }

      .cls-3 {
        fill: #93c223;
      }

      .cls-4 {
        fill: #348ba3;
      }

      .cls-5 {
        fill: #c3cbcf;
        mix-blend-mode: multiply;
      }

      .cls-6 {
        fill: #8dc7cc;
      }

      .cls-7 {
        fill: #cce7e9;
      }

      .cls-8 {
        fill: #256880;
      }

      .cls-9 {
        mix-blend-mode: overlay;
        opacity: 0.3;
      }

      .cls-10 {
        fill: #115c7d;
      }

      .cls-11 {
        fill: #eff3f1;
      }

      .cls-12 {
        fill: #f0dfbd;
      }

      .cls-13 {
        fill: #0188aa;
      }

      .cls-14 {
        fill: #08a2c9;
      }

      .cls-15 {
        fill: #946a28;
      }

      .cls-16 {
        fill: #785311;
      }

      .cls-17 {
        fill: #789d14;
      }
    </style>
  </defs>
  <g class="cls-1">
    <g id="Layer_1" data-name="Layer 1">
      <g>
        <path class="cls-2" d="M266.23,271V14c0-.07,0-.14,0-.22s0-.36,0-.55,0-.23-.05-.35,0-.21,0-.32,0-.11,0-.16,0-.2-.07-.3a4.84,4.84,0,0,0-.14-.51,2.58,2.58,0,0,0-.08-.26c-.07-.19-.14-.38-.23-.57l-.06-.16a7.83,7.83,0,0,0-.83-1.4L264.53,9a5.71,5.71,0,0,0-.39-.47L264,8.39c-.14-.14-.28-.28-.43-.41a1.14,1.14,0,0,1-.11-.11l-.06,0-.32-.26-.24-.18-.35-.23L262.21,7l-.4-.22c-.07,0-.14-.08-.22-.11a5.31,5.31,0,0,0-.55-.23l-.09,0A8.27,8.27,0,0,0,257,6L185.48,16.51H153.19a8.05,8.05,0,0,0-4.8,1.58L139,25l-.21.16-.2.17c-.14.12-.28.24-.41.37l-.11.11a5,5,0,0,0-.49.54l-.08.09c-.12.15-.24.31-.35.47l-.14.22c-.08.12-.16.25-.23.38l-.15.26-.18.39c0,.09-.09.18-.12.27a6.56,6.56,0,0,0-.23.62c0,.09-.05.18-.07.26s-.08.3-.12.45a2.74,2.74,0,0,0-.05.28c0,.16-.06.32-.08.48l0,.24c0,.25,0,.51,0,.76V44.21a8.07,8.07,0,0,0-5.62-2.28H130l-.22-.25-.12-.14a6.77,6.77,0,0,0-.56-.51s0,0,0,0c-.18-.15-.36-.29-.56-.43l-.2-.12-.43-.28-.33-.16a3.84,3.84,0,0,0-.35-.18l-.42-.17-.29-.11c-.16-.06-.33-.1-.49-.15l-.26-.07c-.16,0-.33-.06-.5-.09l-.25,0h-.1l-33.8-4.7a6.91,6.91,0,0,0-1.11-.08,6.83,6.83,0,0,0-1.11.08L55,39.17h-.09l-.28.06-.47.08-.28.08-.46.14c-.11,0-.21.08-.32.12l-.39.16-.39.19-.29.15-.48.31-.16.1a7.64,7.64,0,0,0-1.15,1,1.07,1.07,0,0,0-.14.16l-.21.22h-.13A8.09,8.09,0,0,0,43,45.61H38.6a8.08,8.08,0,0,0-8.06,7.56h-5.6a8.08,8.08,0,0,0-8.08,8.08V269.33A17.54,17.54,0,0,0,20.64,304H258a17.54,17.54,0,0,0,8.28-33Z"/>
        <g>
          <rect class="cls-3" x="11.18" y="277" width="256.23" height="18.92" rx="7.03"/>
          <g>
            <g>
              <rect class="cls-4" x="176.75" y="31.48" width="81.4" height="253.8"/>
              <polygon class="cls-4" points="258.15 31.48 258.15 13.99 186.07 24.59 176.75 31.48 258.15 31.48"/>
              <polygon class="cls-5" points="258.15 13.99 186.07 24.59 176.75 31.48 258.15 13.99"/>
              <rect class="cls-4" x="174.19" y="106.06" width="81.36" height="3.85"/>
              <rect class="cls-4" x="174.19" y="131.96" width="81.36" height="3.85"/>
              <rect class="cls-4" x="174.19" y="157.87" width="81.36" height="3.86"/>
              <rect class="cls-4" x="174.19" y="209.71" width="81.36" height="3.84"/>
              <rect class="cls-4" x="174.19" y="235.62" width="81.36" height="3.85"/>
              <rect class="cls-4" x="143.82" y="31.5" width="32.9" height="253.78"/>
              <polygon class="cls-4" points="176.72 31.5 186.08 24.59 153.19 24.59 143.82 31.5 176.72 31.5"/>
              <polygon class="cls-5" points="176.72 31.5 186.08 24.59 153.19 24.59 143.82 31.5 176.72 31.5"/>
              <g>
                <g>
                  <g>
                    <rect class="cls-6" x="150.07" y="42.84" width="103.11" height="1.58"/>
                    <rect class="cls-7" x="150.07" y="46.86" width="103.11" height="1.58"/>
                    <rect class="cls-8" x="150.07" y="38.85" width="103.11" height="1.59"/>
                    <rect class="cls-6" x="150.07" y="34.87" width="103.11" height="1.58"/>
                    <rect class="cls-6" x="150.07" y="50.88" width="103.11" height="1.59"/>
                    <rect class="cls-6" x="150.07" y="54.91" width="103.11" height="1.58"/>
                    <rect class="cls-6" x="150.07" y="58.93" width="103.11" height="1.58"/>
                    <rect class="cls-7" x="150.07" y="62.94" width="103.11" height="1.6"/>
                    <rect class="cls-8" x="150.07" y="66.97" width="103.11" height="1.58"/>
                    <rect class="cls-6" x="150.07" y="70.99" width="103.11" height="1.59"/>
                    <rect class="cls-7" x="150.07" y="75.02" width="103.11" height="1.58"/>
                  </g>
                  <rect class="cls-4" x="150.07" y="53.77" width="103.11" height="3.85"/>
                  <rect class="cls-4" x="150.07" y="77.75" width="103.11" height="3.86"/>
                </g>
                <g>
                  <g>
                    <rect class="cls-6" x="150.07" y="90.65" width="103.11" height="1.58"/>
                    <rect class="cls-7" x="150.07" y="94.68" width="103.11" height="1.58"/>
                    <rect class="cls-8" x="150.07" y="86.67" width="103.11" height="1.58"/>
                    <rect class="cls-6" x="150.07" y="82.68" width="103.11" height="1.59"/>
                    <rect class="cls-6" x="150.07" y="98.69" width="103.11" height="1.6"/>
                    <rect class="cls-6" x="150.07" y="102.71" width="103.11" height="1.59"/>
                    <rect class="cls-6" x="150.07" y="106.74" width="103.11" height="1.58"/>
                    <rect class="cls-7" x="150.07" y="110.76" width="103.11" height="1.58"/>
                    <rect class="cls-8" x="150.07" y="114.79" width="103.11" height="1.58"/>
                    <rect class="cls-6" x="150.07" y="118.81" width="103.11" height="1.58"/>
                    <rect class="cls-7" x="150.07" y="122.82" width="103.11" height="1.59"/>
                  </g>
                  <rect class="cls-4" x="150.07" y="101.58" width="103.11" height="3.84"/>
                  <rect class="cls-4" x="150.07" y="125.56" width="103.11" height="3.84"/>
                </g>
                <g>
                  <g>
                    <rect class="cls-6" x="150.07" y="138.47" width="103.11" height="1.58"/>
                    <rect class="cls-7" x="150.07" y="142.49" width="103.11" height="1.58"/>
                    <rect class="cls-8" x="150.07" y="134.48" width="103.11" height="1.58"/>
                    <rect class="cls-6" x="150.07" y="130.49" width="103.11" height="1.58"/>
                    <rect class="cls-6" x="150.07" y="146.5" width="103.11" height="1.6"/>
                    <rect class="cls-6" x="150.07" y="150.53" width="103.11" height="1.58"/>
                    <rect class="cls-6" x="150.07" y="154.55" width="103.11" height="1.58"/>
                    <rect class="cls-7" x="150.07" y="158.58" width="103.11" height="1.58"/>
                    <rect class="cls-6" x="150.07" y="162.59" width="103.11" height="1.59"/>
                    <rect class="cls-8" x="150.07" y="166.63" width="103.11" height="1.57"/>
                    <rect class="cls-7" x="150.07" y="170.64" width="103.11" height="1.58"/>
                  </g>
                  <rect class="cls-4" x="150.07" y="149.38" width="103.11" height="3.86"/>
                  <rect class="cls-4" x="150.07" y="173.37" width="103.11" height="3.86"/>
                </g>
                <g>
                  <g>
                    <rect class="cls-6" x="150.07" y="186.27" width="103.11" height="1.58"/>
                    <rect class="cls-7" x="150.07" y="190.3" width="103.11" height="1.58"/>
                    <rect class="cls-8" x="150.07" y="182.29" width="103.11" height="1.58"/>
                    <rect class="cls-6" x="150.07" y="178.31" width="103.11" height="1.58"/>
                    <rect class="cls-6" x="150.07" y="194.32" width="103.11" height="1.57"/>
                    <rect class="cls-6" x="150.07" y="198.35" width="103.11" height="1.58"/>
                    <rect class="cls-6" x="150.07" y="202.37" width="103.11" height="1.58"/>
                    <rect class="cls-7" x="150.07" y="206.38" width="103.11" height="1.58"/>
                    <rect class="cls-6" x="150.07" y="210.41" width="103.11" height="1.58"/>
                    <rect class="cls-6" x="150.07" y="214.44" width="103.11" height="1.57"/>
                    <rect class="cls-7" x="150.07" y="218.46" width="103.11" height="1.58"/>
                  </g>
                  <rect class="cls-4" x="150.07" y="197.2" width="103.11" height="3.86"/>
                  <rect class="cls-4" x="150.07" y="221.18" width="103.11" height="3.85"/>
                </g>
                <g>
                  <g>
                    <rect class="cls-6" x="150.07" y="234.08" width="103.11" height="1.59"/>
                    <rect class="cls-7" x="150.07" y="238.11" width="103.11" height="1.58"/>
                    <rect class="cls-8" x="150.07" y="230.11" width="103.11" height="1.58"/>
                    <rect class="cls-6" x="150.07" y="226.13" width="103.11" height="1.58"/>
                    <rect class="cls-6" x="150.07" y="242.14" width="103.11" height="1.58"/>
                    <rect class="cls-6" x="150.07" y="246.15" width="103.11" height="1.58"/>
                    <rect class="cls-6" x="150.07" y="250.18" width="103.11" height="1.57"/>
                    <rect class="cls-7" x="150.07" y="254.2" width="103.11" height="1.58"/>
                    <rect class="cls-6" x="150.07" y="258.22" width="103.11" height="1.59"/>
                    <rect class="cls-8" x="150.07" y="262.24" width="103.11" height="1.6"/>
                    <rect class="cls-7" x="150.07" y="266.26" width="103.11" height="1.58"/>
                  </g>
                  <rect class="cls-4" x="150.07" y="245.02" width="103.11" height="3.85"/>
                  <rect class="cls-4" x="150.07" y="269" width="103.11" height="3.86"/>
                </g>
              </g>
              <rect class="cls-4" x="215.62" y="34.48" width="2.31" height="244.32"/>
              <rect class="cls-5" x="143.82" y="31.5" width="32.9" height="253.78"/>
            </g>
            <g class="cls-9">
              <rect class="cls-4" x="176.75" y="31.48" width="81.4" height="253.8"/>
              <polygon class="cls-4" points="258.15 31.48 258.15 13.99 186.07 24.59 176.75 31.48 258.15 31.48"/>
              <polygon class="cls-5" points="258.15 13.99 186.07 24.59 176.75 31.48 258.15 13.99"/>
              <rect class="cls-4" x="174.19" y="106.06" width="81.36" height="3.85"/>
              <rect class="cls-4" x="174.19" y="131.96" width="81.36" height="3.85"/>
              <rect class="cls-4" x="174.19" y="157.87" width="81.36" height="3.86"/>
              <rect class="cls-4" x="174.19" y="209.71" width="81.36" height="3.84"/>
              <rect class="cls-4" x="174.19" y="235.62" width="81.36" height="3.85"/>
              <rect class="cls-4" x="143.82" y="31.5" width="32.9" height="253.78"/>
              <polygon class="cls-4" points="176.72 31.5 186.08 24.59 153.19 24.59 143.82 31.5 176.72 31.5"/>
              <polygon class="cls-5" points="176.72 31.5 186.08 24.59 153.19 24.59 143.82 31.5 176.72 31.5"/>
              <g>
                <g>
                  <g>
                    <rect class="cls-6" x="150.07" y="42.84" width="103.11" height="1.58"/>
                    <rect class="cls-7" x="150.07" y="46.86" width="103.11" height="1.58"/>
                    <rect class="cls-8" x="150.07" y="38.85" width="103.11" height="1.59"/>
                    <rect class="cls-6" x="150.07" y="34.87" width="103.11" height="1.58"/>
                    <rect class="cls-6" x="150.07" y="50.88" width="103.11" height="1.59"/>
                    <rect class="cls-6" x="150.07" y="54.91" width="103.11" height="1.58"/>
                    <rect class="cls-6" x="150.07" y="58.93" width="103.11" height="1.58"/>
                    <rect class="cls-7" x="150.07" y="62.94" width="103.11" height="1.6"/>
                    <rect class="cls-8" x="150.07" y="66.97" width="103.11" height="1.58"/>
                    <rect class="cls-6" x="150.07" y="70.99" width="103.11" height="1.59"/>
                    <rect class="cls-7" x="150.07" y="75.02" width="103.11" height="1.58"/>
                  </g>
                  <rect class="cls-4" x="150.07" y="53.77" width="103.11" height="3.85"/>
                  <rect class="cls-4" x="150.07" y="77.75" width="103.11" height="3.86"/>
                </g>
                <g>
                  <g>
                    <rect class="cls-6" x="150.07" y="90.65" width="103.11" height="1.58"/>
                    <rect class="cls-7" x="150.07" y="94.68" width="103.11" height="1.58"/>
                    <rect class="cls-8" x="150.07" y="86.67" width="103.11" height="1.58"/>
                    <rect class="cls-6" x="150.07" y="82.68" width="103.11" height="1.59"/>
                    <rect class="cls-6" x="150.07" y="98.69" width="103.11" height="1.6"/>
                    <rect class="cls-6" x="150.07" y="102.71" width="103.11" height="1.59"/>
                    <rect class="cls-6" x="150.07" y="106.74" width="103.11" height="1.58"/>
                    <rect class="cls-7" x="150.07" y="110.76" width="103.11" height="1.58"/>
                    <rect class="cls-8" x="150.07" y="114.79" width="103.11" height="1.58"/>
                    <rect class="cls-6" x="150.07" y="118.81" width="103.11" height="1.58"/>
                    <rect class="cls-7" x="150.07" y="122.82" width="103.11" height="1.59"/>
                  </g>
                  <rect class="cls-4" x="150.07" y="101.58" width="103.11" height="3.84"/>
                  <rect class="cls-4" x="150.07" y="125.56" width="103.11" height="3.84"/>
                </g>
                <g>
                  <g>
                    <rect class="cls-6" x="150.07" y="138.47" width="103.11" height="1.58"/>
                    <rect class="cls-7" x="150.07" y="142.49" width="103.11" height="1.58"/>
                    <rect class="cls-8" x="150.07" y="134.48" width="103.11" height="1.58"/>
                    <rect class="cls-6" x="150.07" y="130.49" width="103.11" height="1.58"/>
                    <rect class="cls-6" x="150.07" y="146.5" width="103.11" height="1.6"/>
                    <rect class="cls-6" x="150.07" y="150.53" width="103.11" height="1.58"/>
                    <rect class="cls-6" x="150.07" y="154.55" width="103.11" height="1.58"/>
                    <rect class="cls-7" x="150.07" y="158.58" width="103.11" height="1.58"/>
                    <rect class="cls-6" x="150.07" y="162.59" width="103.11" height="1.59"/>
                    <rect class="cls-8" x="150.07" y="166.63" width="103.11" height="1.57"/>
                    <rect class="cls-7" x="150.07" y="170.64" width="103.11" height="1.58"/>
                  </g>
                  <rect class="cls-4" x="150.07" y="149.38" width="103.11" height="3.86"/>
                  <rect class="cls-4" x="150.07" y="173.37" width="103.11" height="3.86"/>
                </g>
                <g>
                  <g>
                    <rect class="cls-6" x="150.07" y="186.27" width="103.11" height="1.58"/>
                    <rect class="cls-7" x="150.07" y="190.3" width="103.11" height="1.58"/>
                    <rect class="cls-8" x="150.07" y="182.29" width="103.11" height="1.58"/>
                    <rect class="cls-6" x="150.07" y="178.31" width="103.11" height="1.58"/>
                    <rect class="cls-6" x="150.07" y="194.32" width="103.11" height="1.57"/>
                    <rect class="cls-6" x="150.07" y="198.35" width="103.11" height="1.58"/>
                    <rect class="cls-6" x="150.07" y="202.37" width="103.11" height="1.58"/>
                    <rect class="cls-7" x="150.07" y="206.38" width="103.11" height="1.58"/>
                    <rect class="cls-6" x="150.07" y="210.41" width="103.11" height="1.58"/>
                    <rect class="cls-6" x="150.07" y="214.44" width="103.11" height="1.57"/>
                    <rect class="cls-7" x="150.07" y="218.46" width="103.11" height="1.58"/>
                  </g>
                  <rect class="cls-4" x="150.07" y="197.2" width="103.11" height="3.86"/>
                  <rect class="cls-4" x="150.07" y="221.18" width="103.11" height="3.85"/>
                </g>
                <g>
                  <g>
                    <rect class="cls-6" x="150.07" y="234.08" width="103.11" height="1.59"/>
                    <rect class="cls-7" x="150.07" y="238.11" width="103.11" height="1.58"/>
                    <rect class="cls-8" x="150.07" y="230.11" width="103.11" height="1.58"/>
                    <rect class="cls-6" x="150.07" y="226.13" width="103.11" height="1.58"/>
                    <rect class="cls-6" x="150.07" y="242.14" width="103.11" height="1.58"/>
                    <rect class="cls-6" x="150.07" y="246.15" width="103.11" height="1.58"/>
                    <rect class="cls-6" x="150.07" y="250.18" width="103.11" height="1.57"/>
                    <rect class="cls-7" x="150.07" y="254.2" width="103.11" height="1.58"/>
                    <rect class="cls-6" x="150.07" y="258.22" width="103.11" height="1.59"/>
                    <rect class="cls-8" x="150.07" y="262.24" width="103.11" height="1.6"/>
                    <rect class="cls-7" x="150.07" y="266.26" width="103.11" height="1.58"/>
                  </g>
                  <rect class="cls-4" x="150.07" y="245.02" width="103.11" height="3.85"/>
                  <rect class="cls-4" x="150.07" y="269" width="103.11" height="3.86"/>
                </g>
              </g>
              <rect class="cls-4" x="215.62" y="34.48" width="2.31" height="244.32"/>
              <rect class="cls-5" x="143.82" y="31.5" width="32.9" height="253.78"/>
            </g>
          </g>
          <g>
            <g>
              <rect class="cls-10" x="38.6" y="53.69" width="102.67" height="23.03"/>
              <rect class="cls-10" x="49.75" y="50.01" width="80.36" height="18.02"/>
              <polygon class="cls-10" points="56.03 65.21 123.84 65.21 123.84 47.19 89.41 46.3 56.03 47.19 56.03 65.21"/>
              <polygon class="cls-11" points="123.84 47.19 89.94 42.47 56.03 47.19 123.84 47.19"/>
            </g>
            <rect class="cls-12" x="24.94" y="61.25" width="128.94" height="224.03"/>
            <rect class="cls-13" x="24.94" y="61.25" width="128.94" height="6.86"/>
            <g>
              <g>
                <g>
                  <rect class="cls-10" x="92.75" y="76.35" width="15.32" height="14.57"/>
                  <rect class="cls-12" x="99.8" y="76.35" width="0.62" height="14.57"/>
                </g>
                <rect class="cls-12" x="92.75" y="90.92" width="15.32" height="0.59"/>
              </g>
              <g>
                <g>
                  <rect class="cls-10" x="70.77" y="76.35" width="15.31" height="14.57"/>
                  <rect class="cls-12" x="77.8" y="76.35" width="0.63" height="14.57"/>
                </g>
                <rect class="cls-12" x="70.77" y="90.92" width="15.31" height="0.59"/>
              </g>
              <g>
                <g>
                  <rect class="cls-10" x="92.75" y="94.44" width="15.32" height="14.57"/>
                  <rect class="cls-12" x="99.8" y="94.44" width="0.62" height="14.57"/>
                </g>
                <rect class="cls-12" x="92.75" y="109.01" width="15.32" height="0.6"/>
              </g>
              <g>
                <g>
                  <rect class="cls-10" x="70.77" y="94.44" width="15.31" height="14.57"/>
                  <rect class="cls-12" x="77.8" y="94.44" width="0.63" height="14.57"/>
                </g>
                <rect class="cls-12" x="70.77" y="109.01" width="15.31" height="0.6"/>
              </g>
              <g>
                <g>
                  <rect class="cls-10" x="92.75" y="112.54" width="15.32" height="14.56"/>
                  <rect class="cls-12" x="99.8" y="112.54" width="0.62" height="14.56"/>
                </g>
                <rect class="cls-12" x="92.75" y="127.1" width="15.32" height="0.6"/>
              </g>
              <g>
                <g>
                  <rect class="cls-10" x="70.77" y="112.54" width="15.31" height="14.56"/>
                  <rect class="cls-12" x="77.8" y="112.54" width="0.63" height="14.56"/>
                </g>
                <rect class="cls-12" x="70.77" y="127.1" width="15.31" height="0.6"/>
              </g>
              <g>
                <g>
                  <rect class="cls-10" x="92.75" y="130.64" width="15.32" height="14.57"/>
                  <rect class="cls-12" x="99.8" y="130.64" width="0.62" height="14.57"/>
                </g>
                <rect class="cls-12" x="92.75" y="145.21" width="15.32" height="0.59"/>
              </g>
              <g>
                <g>
                  <rect class="cls-10" x="70.77" y="130.64" width="15.31" height="14.57"/>
                  <rect class="cls-12" x="77.8" y="130.64" width="0.63" height="14.57"/>
                </g>
                <rect class="cls-12" x="70.77" y="145.21" width="15.31" height="0.59"/>
              </g>
              <g>
                <g>
                  <rect class="cls-10" x="92.75" y="148.74" width="15.32" height="14.56"/>
                  <rect class="cls-12" x="99.8" y="148.74" width="0.62" height="14.56"/>
                </g>
                <rect class="cls-12" x="92.75" y="163.3" width="15.32" height="0.6"/>
              </g>
              <g>
                <g>
                  <rect class="cls-10" x="70.77" y="148.74" width="15.31" height="14.56"/>
                  <rect class="cls-12" x="77.8" y="148.74" width="0.63" height="14.56"/>
                </g>
                <rect class="cls-12" x="70.77" y="163.3" width="15.31" height="0.6"/>
              </g>
              <g>
                <g>
                  <rect class="cls-10" x="92.75" y="166.84" width="15.32" height="14.55"/>
                  <rect class="cls-12" x="99.8" y="166.84" width="0.62" height="14.55"/>
                </g>
                <rect class="cls-12" x="92.75" y="181.39" width="15.32" height="0.6"/>
              </g>
              <g>
                <g>
                  <rect class="cls-10" x="70.77" y="166.84" width="15.31" height="14.55"/>
                  <rect class="cls-12" x="77.8" y="166.84" width="0.63" height="14.55"/>
                </g>
                <rect class="cls-12" x="70.77" y="181.39" width="15.31" height="0.6"/>
              </g>
              <g>
                <g>
                  <rect class="cls-10" x="92.75" y="184.94" width="15.32" height="14.56"/>
                  <rect class="cls-12" x="99.8" y="184.94" width="0.62" height="14.56"/>
                </g>
                <rect class="cls-12" x="92.75" y="199.5" width="15.32" height="0.59"/>
              </g>
              <g>
                <g>
                  <rect class="cls-10" x="70.77" y="184.94" width="15.31" height="14.56"/>
                  <rect class="cls-12" x="77.8" y="184.94" width="0.63" height="14.56"/>
                </g>
                <rect class="cls-12" x="70.77" y="199.5" width="15.31" height="0.59"/>
              </g>
              <g>
                <g>
                  <rect class="cls-10" x="92.75" y="203.04" width="15.32" height="14.55"/>
                  <rect class="cls-12" x="99.8" y="203.04" width="0.62" height="14.55"/>
                </g>
                <rect class="cls-12" x="92.75" y="217.59" width="15.32" height="0.6"/>
              </g>
              <g>
                <g>
                  <rect class="cls-10" x="70.77" y="203.04" width="15.31" height="14.55"/>
                  <rect class="cls-12" x="77.8" y="203.04" width="0.63" height="14.55"/>
                </g>
                <rect class="cls-12" x="70.77" y="217.59" width="15.31" height="0.6"/>
              </g>
              <g>
                <g>
                  <rect class="cls-10" x="92.75" y="221.14" width="15.32" height="14.55"/>
                  <rect class="cls-12" x="99.8" y="221.14" width="0.62" height="14.55"/>
                </g>
                <rect class="cls-12" x="92.75" y="235.69" width="15.32" height="0.59"/>
              </g>
              <g>
                <g>
                  <rect class="cls-10" x="70.77" y="221.14" width="15.31" height="14.55"/>
                  <rect class="cls-12" x="77.8" y="221.14" width="0.63" height="14.55"/>
                </g>
                <rect class="cls-12" x="70.77" y="235.69" width="15.31" height="0.59"/>
              </g>
              <g>
                <g>
                  <rect class="cls-10" x="92.75" y="239.22" width="15.32" height="14.57"/>
                  <rect class="cls-12" x="99.8" y="239.22" width="0.62" height="14.57"/>
                </g>
                <rect class="cls-12" x="92.75" y="253.8" width="15.32" height="0.59"/>
              </g>
              <g>
                <g>
                  <rect class="cls-10" x="70.77" y="239.22" width="15.31" height="14.57"/>
                  <rect class="cls-12" x="77.8" y="239.22" width="0.63" height="14.57"/>
                </g>
                <rect class="cls-12" x="70.77" y="253.8" width="15.31" height="0.59"/>
              </g>
              <g>
                <g>
                  <rect class="cls-10" x="92.75" y="257.33" width="15.32" height="14.55"/>
                  <rect class="cls-12" x="99.8" y="257.33" width="0.62" height="14.55"/>
                </g>
                <rect class="cls-12" x="92.75" y="271.89" width="15.32" height="0.59"/>
              </g>
              <g>
                <g>
                  <rect class="cls-10" x="70.77" y="257.33" width="15.31" height="14.55"/>
                  <rect class="cls-12" x="77.8" y="257.33" width="0.63" height="14.55"/>
                </g>
                <rect class="cls-12" x="70.77" y="271.89" width="15.31" height="0.59"/>
              </g>
            </g>
            <g>
              <rect class="cls-14" x="37.3" y="76.35" width="14.43" height="14.57"/>
              <rect class="cls-14" x="37.3" y="94.44" width="14.43" height="14.57"/>
              <rect class="cls-14" x="37.3" y="112.54" width="14.43" height="14.56"/>
              <rect class="cls-14" x="37.3" y="130.64" width="14.43" height="14.57"/>
              <rect class="cls-14" x="37.3" y="148.74" width="14.43" height="14.56"/>
              <rect class="cls-14" x="37.3" y="166.84" width="14.43" height="14.55"/>
              <rect class="cls-14" x="37.3" y="184.94" width="14.43" height="14.56"/>
              <rect class="cls-14" x="37.3" y="203.04" width="14.43" height="14.55"/>
              <rect class="cls-14" x="37.3" y="221.14" width="14.43" height="14.55"/>
              <rect class="cls-14" x="37.3" y="239.22" width="14.43" height="14.57"/>
              <rect class="cls-14" x="37.3" y="257.33" width="14.43" height="14.55"/>
            </g>
            <g>
              <rect class="cls-14" x="127.89" y="76.35" width="14.44" height="14.57"/>
              <rect class="cls-14" x="127.89" y="94.44" width="14.44" height="14.57"/>
              <rect class="cls-14" x="127.89" y="112.54" width="14.44" height="14.56"/>
              <rect class="cls-14" x="127.89" y="130.64" width="14.44" height="14.57"/>
              <rect class="cls-14" x="127.89" y="148.74" width="14.44" height="14.56"/>
              <rect class="cls-14" x="127.89" y="166.84" width="14.44" height="14.55"/>
              <rect class="cls-14" x="127.89" y="184.94" width="14.44" height="14.56"/>
              <rect class="cls-14" x="127.89" y="203.04" width="14.44" height="14.55"/>
              <rect class="cls-14" x="127.89" y="221.14" width="14.44" height="14.55"/>
              <rect class="cls-14" x="127.89" y="239.22" width="14.44" height="14.57"/>
              <rect class="cls-14" x="127.89" y="257.33" width="14.44" height="14.55"/>
            </g>
            <rect class="cls-11" x="70.77" y="89.53" width="37.3" height="2.57"/>
            <rect class="cls-11" x="70.77" y="107.63" width="37.3" height="2.57"/>
            <rect class="cls-11" x="70.77" y="125.72" width="37.3" height="2.56"/>
            <rect class="cls-11" x="70.77" y="143.82" width="37.3" height="2.57"/>
            <rect class="cls-11" x="70.77" y="161.92" width="37.3" height="2.57"/>
            <rect class="cls-11" x="70.77" y="180.02" width="37.3" height="2.56"/>
            <rect class="cls-11" x="70.77" y="198.11" width="37.3" height="2.57"/>
            <rect class="cls-11" x="70.77" y="216.21" width="37.3" height="2.56"/>
            <rect class="cls-11" x="70.77" y="234.31" width="37.3" height="2.57"/>
            <rect class="cls-11" x="70.77" y="252.4" width="37.3" height="2.57"/>
            <rect class="cls-11" x="70.77" y="270.51" width="37.3" height="2.56"/>
          </g>
          <g>
            <g>
              <rect class="cls-15" x="44.99" y="222.76" width="2.89" height="56.72"/>
              <rect class="cls-16" x="44.99" y="222.76" width="1.38" height="56.72"/>
              <g>
                <polygon class="cls-15" points="37.31 249 38.18 248.01 46.37 256.2 46.33 258.1 37.31 249"/>
                <polygon class="cls-16" points="37.73 248.53 46.35 257.17 46.33 258.1 37.31 249 37.73 248.53"/>
              </g>
              <g>
                <polygon class="cls-15" points="36.22 230.57 36.92 229.48 46.43 236.37 46.37 238 36.22 230.57"/>
                <polygon class="cls-16" points="36.56 230.07 46.37 237.19 46.37 238 36.22 230.57 36.56 230.07"/>
              </g>
              <g>
                <polygon class="cls-15" points="56.84 236.96 57.59 238.06 46.85 246.41 45.71 245.63 56.84 236.96"/>
                <polygon class="cls-16" points="57.19 237.48 46.24 246.03 45.71 245.63 56.84 236.96 57.19 237.48"/>
              </g>
              <g>
                <polygon class="cls-15" points="56.84 253.08 57.59 254.15 46.37 262.88 46.33 261.25 56.84 253.08"/>
                <polygon class="cls-16" points="57.19 253.59 46.24 262.12 45.71 261.74 56.84 253.08 57.19 253.59"/>
              </g>
              <g>
                <g>
                  <path class="cls-3" d="M49.27,253.05a6.6,6.6,0,0,0,6.88,6.84,6.83,6.83,0,1,0,0-13.65A6.63,6.63,0,0,0,49.27,253.05Z"/>
                  <path class="cls-3" d="M44.13,253.1c0,2.66,2.27,4.79,5.88,4.79s5.9-2.13,5.9-4.79-2.27-4.78-5.9-4.78S44.13,250.47,44.13,253.1Z"/>
                  <path class="cls-3" d="M58.55,253.3c0,2.07,1.67,3.74,4.32,3.74s4.33-1.67,4.33-3.74-1.67-3.75-4.33-3.75S58.55,251.24,58.55,253.3Z"/>
                </g>
                <path class="cls-17" d="M50,248.32c.33,0,.63,0,.94.06h0a3.39,3.39,0,0,0-3.1,3.3c0,1.87,1.49,3.37,3.83,3.37a5.12,5.12,0,0,0,1-.12,6.3,6.3,0,0,0,8.23-.16,3.87,3.87,0,0,0,2.41.76c2.25,0,3.62-1.41,3.62-3.16a2.33,2.33,0,0,0,0-.38,3.56,3.56,0,0,1,.26,1.31c0,2.07-1.65,3.74-4.33,3.74a5.86,5.86,0,0,1-1-.07,6.62,6.62,0,0,1-5.76,2.92,6.81,6.81,0,0,1-5.08-2.07,7.26,7.26,0,0,1-1.06.07c-3.61,0-5.88-2.13-5.88-4.79S46.45,248.32,50,248.32Z"/>
              </g>
              <g>
                <path class="cls-3" d="M51,238a6.28,6.28,0,0,0,6.61,6.44,6.44,6.44,0,1,0,0-12.88A6.32,6.32,0,0,0,51,238Z"/>
                <path class="cls-17" d="M56,231.74a4.41,4.41,0,0,0-3,4.49c0,2.65,2.08,4.82,5.34,5.08s5.53-1.86,5.53-4.78a3.75,3.75,0,0,0-.25-1.39,6.63,6.63,0,0,1,.64,2.86,6.25,6.25,0,0,1-6.62,6.44A6.43,6.43,0,0,1,56,231.74Z"/>
              </g>
              <g>
                <path class="cls-3" d="M35.05,209.73a7.6,7.6,0,0,1,1,.09c2-4.76,5.92-8,11.07-7.84a11,11,0,0,1,9.21,5.32,8.93,8.93,0,0,1,1.27-.05c6.39.16,10.29,5.47,10.13,11.84S63.48,230.59,57,230.41a10,10,0,0,1-3.95-.86A11.23,11.23,0,0,1,39.58,229a7.94,7.94,0,0,1-5,1.56c-5.33-.15-9.58-4.18-9.58-10.64A9.81,9.81,0,0,1,35.05,209.73Z"/>
                <g>
                  <path class="cls-17" d="M36,209.76l0,0h0Z"/>
                  <path class="cls-17" d="M35.05,209.73a6.67,6.67,0,0,1,.92.09A6.33,6.33,0,0,0,31.14,216c0,4.18,3.54,6.86,8,6.51a7.42,7.42,0,0,0,3.73-1.29,9.15,9.15,0,0,0,12.61,2.57,8.36,8.36,0,0,0,4.76,1.41c4.78,0,7.43-3.88,7.05-8.73a11.1,11.1,0,0,0-1.6-4.88,12.73,12.73,0,0,1,2,7.46c-.15,6.44-4.22,11.5-10.69,11.32a10,10,0,0,1-3.95-.86A11.23,11.23,0,0,1,39.58,229a7.94,7.94,0,0,1-5,1.56c-5.33-.15-9.58-4.18-9.58-10.64A9.81,9.81,0,0,1,35.05,209.73Z"/>
                </g>
              </g>
              <g>
                <path class="cls-3" d="M31.68,230.07a4.3,4.3,0,0,0,4.54,4.41,4.41,4.41,0,1,0,0-8.82A4.34,4.34,0,0,0,31.68,230.07Z"/>
                <path class="cls-17" d="M35.1,225.78A3,3,0,0,0,33,228.85a3.61,3.61,0,0,0,3.66,3.48,3.22,3.22,0,0,0,3.78-3.27,2.83,2.83,0,0,0-.15-.95,4.85,4.85,0,0,1,.43,2,4.28,4.28,0,0,1-4.53,4.41,4.41,4.41,0,0,1-1.12-8.7Z"/>
              </g>
              <g>
                <path class="cls-3" d="M39.42,245.26a6.67,6.67,0,0,0,7,6.85,6.84,6.84,0,1,0,0-13.67A6.7,6.7,0,0,0,39.42,245.26Z"/>
                <path class="cls-17" d="M44.71,238.63c-1.94.46-3.21,2.5-3.21,4.75,0,2.82,2.22,5.13,5.67,5.4s5.87-2,5.87-5.08a4.27,4.27,0,0,0-.25-1.47,7.11,7.11,0,0,1,.66,3,6.64,6.64,0,0,1-7,6.85,6.83,6.83,0,0,1-1.73-13.48Z"/>
              </g>
              <g>
                <path class="cls-3" d="M26.58,246.81a6.28,6.28,0,0,1,7.4-5.32,7.21,7.21,0,0,1,1.76.48,7.36,7.36,0,0,1,4.26-.58A6.53,6.53,0,0,1,45.84,249a6.61,6.61,0,0,1-7.92,5.61,7.85,7.85,0,0,1-2.57-.84,7,7,0,0,1-3.33.27A6.15,6.15,0,0,1,26.58,246.81Z"/>
                <path class="cls-17" d="M26.58,246.81a6.28,6.28,0,0,1,7.4-5.32,7.21,7.21,0,0,1,1.76.48l.13-.05-.13.07a4.68,4.68,0,0,0-1.64-.3,4.57,4.57,0,1,0,0,9.13,4.91,4.91,0,0,0,1.89-.39,5.81,5.81,0,0,0,3,.84,5.37,5.37,0,0,0,5.59-5.13,5,5,0,0,0-1.9-3.84A6.43,6.43,0,0,1,45.84,249a6.61,6.61,0,0,1-7.92,5.61,7.85,7.85,0,0,1-2.57-.84,7,7,0,0,1-3.33.27A6.15,6.15,0,0,1,26.58,246.81Z"/>
              </g>
            </g>
            <g>
              <g>
                <path class="cls-17" d="M43.58,286.46a8.3,8.3,0,0,1-2.73-6c0-5.05,4.86-9.15,10.85-9.15s10.84,4.1,10.84,9.15a8.33,8.33,0,0,1-2.72,6Z"/>
                <path class="cls-17" d="M54.47,286.46a6.18,6.18,0,0,1-.72-2.88c0-3.86,3.71-7,8.32-7s8.32,3.14,8.32,7a6.07,6.07,0,0,1-.73,2.88Z"/>
                <path class="cls-17" d="M21.45,286.46c.29-3.13,3.38-5.59,7.15-5.59s6.87,2.46,7.17,5.59Z"/>
                <path class="cls-17" d="M32.15,286.46a6.48,6.48,0,0,1-1.1-3.56c0-4,3.9-7.35,8.72-7.35s8.71,3.3,8.71,7.35a6.46,6.46,0,0,1-1.08,3.56Z"/>
                <path class="cls-17" d="M68.86,286.46a4.26,4.26,0,0,1-.09-.8c0-2.37,2.3-4.29,5.11-4.29S79,283.29,79,285.66a3.57,3.57,0,0,1-.09.8Z"/>
              </g>
              <path class="cls-3" d="M67.22,283.8a4.51,4.51,0,0,0-2.91,1c0-.14,0-.29,0-.44,0-3.6-3.48-6.54-7.77-6.54a9.27,9.27,0,0,0-2.13.25,7.54,7.54,0,0,0-5.7-2.36c-3.38,0-6.19,1.91-6.76,4.41a8.24,8.24,0,0,0-4.49-1.27c-4,0-6.33,2.59-6.4,5.81a6.83,6.83,0,0,0-3.55-1.06,5.76,5.76,0,0,0-5.34,2.84h-.74c.29-3.13,3.38-5.59,7.15-5.59a8.26,8.26,0,0,1,2.67.44c.86-3.29,4.33-5.76,8.5-5.76a10.44,10.44,0,0,1,2.53.32,11.32,11.32,0,0,1,9.4-4.6,11.07,11.07,0,0,1,9.83,5.32h.54c4.2,0,7.66,2.62,8.23,6a5.59,5.59,0,0,1,3.58-1.24c2.8,0,5.08,1.92,5.08,4.29a3.57,3.57,0,0,1-.09.8H72.08C71.64,284.93,69.16,283.8,67.22,283.8Z"/>
            </g>
          </g>
          <g>
            <g>
              <rect class="cls-15" x="230.24" y="221.98" width="2.89" height="56.72"/>
              <rect class="cls-16" x="230.24" y="221.98" width="1.38" height="56.72"/>
              <g>
                <polygon class="cls-15" points="222.56 248.21 223.43 247.22 231.62 255.42 231.59 257.31 222.56 248.21"/>
                <polygon class="cls-16" points="222.98 247.74 231.6 256.38 231.59 257.31 222.56 248.21 222.98 247.74"/>
              </g>
              <g>
                <polygon class="cls-15" points="221.47 229.79 222.17 228.69 231.68 235.58 231.62 237.21 221.47 229.79"/>
                <polygon class="cls-16" points="221.81 229.28 231.62 236.4 231.62 237.21 221.47 229.79 221.81 229.28"/>
              </g>
              <g>
                <polygon class="cls-15" points="242.09 236.17 242.84 237.28 232.1 245.62 230.96 244.84 242.09 236.17"/>
                <polygon class="cls-16" points="242.44 236.69 231.49 245.24 230.96 244.84 242.09 236.17 242.44 236.69"/>
              </g>
              <g>
                <polygon class="cls-15" points="242.09 252.29 242.84 253.36 231.62 262.09 231.59 260.46 242.09 252.29"/>
                <polygon class="cls-16" points="242.44 252.8 231.49 261.33 230.96 260.95 242.09 252.29 242.44 252.8"/>
              </g>
              <g>
                <g>
                  <path class="cls-3" d="M234.52,252.27a6.88,6.88,0,1,0,6.88-6.82A6.6,6.6,0,0,0,234.52,252.27Z"/>
                  <path class="cls-3" d="M229.38,252.31c0,2.66,2.27,4.79,5.88,4.79s5.9-2.13,5.9-4.79-2.27-4.78-5.9-4.78S229.38,249.68,229.38,252.31Z"/>
                  <path class="cls-3" d="M243.8,252.51c0,2.08,1.67,3.74,4.32,3.74s4.33-1.66,4.33-3.74-1.67-3.75-4.33-3.75S243.8,250.45,243.8,252.51Z"/>
                </g>
                <path class="cls-17" d="M235.26,247.53a9.1,9.1,0,0,1,.94.06h0a3.39,3.39,0,0,0-3.1,3.3c0,1.87,1.49,3.38,3.83,3.38a4.44,4.44,0,0,0,1.05-.13,6.3,6.3,0,0,0,8.23-.16,3.9,3.9,0,0,0,2.41.77c2.25,0,3.62-1.42,3.62-3.17a2.45,2.45,0,0,0,0-.38,3.6,3.6,0,0,1,.26,1.31c0,2.08-1.64,3.74-4.33,3.74a5.94,5.94,0,0,1-1-.07,6.6,6.6,0,0,1-5.76,2.92,6.77,6.77,0,0,1-5.08-2.07,7.26,7.26,0,0,1-1.06.07c-3.61,0-5.88-2.13-5.88-4.79S231.7,247.53,235.26,247.53Z"/>
              </g>
              <g>
                <path class="cls-3" d="M236.23,237.21a6.62,6.62,0,1,0,6.61-6.44A6.28,6.28,0,0,0,236.23,237.21Z"/>
                <path class="cls-17" d="M241.22,231a4.42,4.42,0,0,0-3,4.49c0,2.65,2.08,4.82,5.34,5.08s5.53-1.85,5.53-4.78a3.78,3.78,0,0,0-.25-1.39,6.63,6.63,0,0,1,.64,2.86,6.62,6.62,0,1,1-8.24-6.26Z"/>
              </g>
              <g>
                <path class="cls-3" d="M220.3,208.94a7.6,7.6,0,0,1,1,.09c2-4.76,5.93-8,11.08-7.83a11,11,0,0,1,9.2,5.31,10.7,10.7,0,0,1,1.27,0c6.39.17,10.29,5.47,10.13,11.84s-4.22,11.5-10.69,11.33a10.17,10.17,0,0,1-3.95-.87,11.23,11.23,0,0,1-13.48-.57,7.94,7.94,0,0,1-5,1.56c-5.33-.15-9.58-4.18-9.58-10.64A9.81,9.81,0,0,1,220.3,208.94Z"/>
                <g>
                  <path class="cls-17" d="M221.3,209a0,0,0,0,1,0,0h0S221.28,209,221.3,209Z"/>
                  <path class="cls-17" d="M220.3,208.94a6.67,6.67,0,0,1,.92.09,6.34,6.34,0,0,0-4.83,6.22c0,4.19,3.54,6.86,8,6.51a7.5,7.5,0,0,0,3.73-1.28,9.27,9.27,0,0,0,7.62,4.05,9.18,9.18,0,0,0,5-1.49,8.36,8.36,0,0,0,4.76,1.41c4.78,0,7.43-3.88,7-8.73a11.14,11.14,0,0,0-1.6-4.88,12.73,12.73,0,0,1,2,7.46c-.15,6.44-4.22,11.5-10.69,11.33a10.17,10.17,0,0,1-3.95-.87,11.23,11.23,0,0,1-13.48-.57,7.94,7.94,0,0,1-5,1.56c-5.33-.15-9.58-4.18-9.58-10.64A9.81,9.81,0,0,1,220.3,208.94Z"/>
                </g>
              </g>
              <g>
                <path class="cls-3" d="M216.93,229.28a4.54,4.54,0,1,0,4.54-4.41A4.31,4.31,0,0,0,216.93,229.28Z"/>
                <path class="cls-17" d="M220.35,225a3,3,0,0,0-2.07,3.08,3.6,3.6,0,0,0,3.66,3.47,3.22,3.22,0,0,0,3.78-3.27,2.6,2.6,0,0,0-.15-1,4.69,4.69,0,0,1,.43,2,4.54,4.54,0,1,1-5.65-4.29Z"/>
              </g>
              <g>
                <path class="cls-3" d="M224.67,244.47a7,7,0,1,0,7-6.82A6.66,6.66,0,0,0,224.67,244.47Z"/>
                <path class="cls-17" d="M230,237.84a4.69,4.69,0,0,0-3.21,4.76c0,2.81,2.22,5.12,5.67,5.39s5.87-2,5.87-5.08a4.27,4.27,0,0,0-.25-1.47,7.11,7.11,0,0,1,.67,3,7,7,0,1,1-8.75-6.63Z"/>
              </g>
              <g>
                <path class="cls-3" d="M211.83,246a6.28,6.28,0,0,1,7.4-5.32,7.21,7.21,0,0,1,1.76.48,7.36,7.36,0,0,1,4.26-.58,6.52,6.52,0,0,1,5.84,7.64,6.61,6.61,0,0,1-7.92,5.61,7.72,7.72,0,0,1-2.56-.84,7,7,0,0,1-3.34.27A6.14,6.14,0,0,1,211.83,246Z"/>
                <path class="cls-17" d="M211.83,246a6.28,6.28,0,0,1,7.4-5.32,7.21,7.21,0,0,1,1.76.48l.13-.05-.12.08a4.56,4.56,0,0,0-1.65-.31,4.57,4.57,0,1,0,0,9.13,4.73,4.73,0,0,0,1.89-.39,5.81,5.81,0,0,0,3,.84,5.37,5.37,0,0,0,5.59-5.13,5,5,0,0,0-1.9-3.84,6.43,6.43,0,0,1,3.13,6.73,6.61,6.61,0,0,1-7.92,5.61,7.72,7.72,0,0,1-2.56-.84,7,7,0,0,1-3.34.27A6.14,6.14,0,0,1,211.83,246Z"/>
              </g>
            </g>
            <g>
              <g>
                <path class="cls-17" d="M228.83,285.67a8.34,8.34,0,0,1-2.73-6c0-5.05,4.86-9.15,10.85-9.15s10.84,4.1,10.84,9.15a8.29,8.29,0,0,1-2.72,6Z"/>
                <path class="cls-17" d="M239.72,285.67a6.18,6.18,0,0,1-.72-2.88c0-3.86,3.72-7,8.33-7s8.31,3.14,8.31,7a6.07,6.07,0,0,1-.73,2.88Z"/>
                <path class="cls-17" d="M206.7,285.67c.29-3.13,3.38-5.59,7.15-5.59s6.88,2.46,7.17,5.59Z"/>
                <path class="cls-17" d="M217.4,285.67a6.47,6.47,0,0,1-1.1-3.55c0-4.06,3.9-7.36,8.72-7.36s8.71,3.3,8.71,7.36a6.45,6.45,0,0,1-1.08,3.55Z"/>
                <path class="cls-17" d="M254.11,285.67a4.26,4.26,0,0,1-.09-.8c0-2.37,2.3-4.29,5.11-4.29s5.08,1.92,5.08,4.29a4.26,4.26,0,0,1-.08.8Z"/>
              </g>
              <path class="cls-3" d="M252.47,283a4.51,4.51,0,0,0-2.91,1c0-.14,0-.29,0-.43,0-3.61-3.48-6.55-7.76-6.55a9.29,9.29,0,0,0-2.14.25,7.54,7.54,0,0,0-5.7-2.36c-3.38,0-6.19,1.91-6.76,4.41a8.33,8.33,0,0,0-4.49-1.27c-4,0-6.33,2.59-6.4,5.81a6.78,6.78,0,0,0-3.55-1.06,5.76,5.76,0,0,0-5.34,2.84h-.74c.29-3.13,3.38-5.59,7.15-5.59a8.26,8.26,0,0,1,2.67.44c.86-3.28,4.33-5.76,8.5-5.76a10.37,10.37,0,0,1,2.53.32,11.32,11.32,0,0,1,9.4-4.6,11.1,11.1,0,0,1,9.83,5.32h.55c4.19,0,7.65,2.62,8.22,6a5.64,5.64,0,0,1,3.58-1.24c2.8,0,5.08,1.92,5.08,4.29a4.26,4.26,0,0,1-.08.8h-6.8C256.89,284.14,254.41,283,252.47,283Z"/>
            </g>
          </g>
        </g>
      </g>
    </g>
  </g>
</svg>
