<svg id="Layer_1" data-name="Layer 1" xmlns="http://www.w3.org/2000/svg" xmlns:xlink="http://www.w3.org/1999/xlink" width="178.31" height="367.06" viewBox="0 0 178.31 367.06">
  <defs>
    <style>
      .cls-1 {
        fill: none;
      }

      .cls-2 {
        opacity: 0.3;
      }

      .cls-3 {
        fill: #fff;
      }

      .cls-4 {
        fill: url(#linear-gradient);
      }

      .cls-5 {
        fill: #281b18;
      }

      .cls-6 {
        fill: #21201e;
      }

      .cls-7 {
        fill: url(#linear-gradient-2);
      }

      .cls-8 {
        fill: #82706e;
      }

      .cls-9 {
        fill: url(#linear-gradient-3);
      }

      .cls-10 {
        fill: #191918;
      }

      .cls-11 {
        opacity: 0.25;
      }

      .cls-12 {
        fill: url(#linear-gradient-4);
      }

      .cls-13, .cls-14, .cls-20, .cls-25 {
        fill: #ffb871;
      }

      .cls-13, .cls-18, .cls-23, .cls-25 {
        stroke: #a67c52;
      }

      .cls-13, .cls-18, .cls-20, .cls-23, .cls-25 {
        stroke-miterlimit: 10;
      }

      .cls-13 {
        stroke-width: 0.25px;
      }

      .cls-15 {
        fill: #a67c52;
      }

      .cls-16 {
        fill: #42210b;
      }

      .cls-17 {
        fill: url(#linear-gradient-5);
      }

      .cls-18, .cls-20, .cls-23, .cls-25 {
        stroke-width: 0.5px;
      }

      .cls-18 {
        fill: url(#linear-gradient-6);
      }

      .cls-19 {
        fill: url(#linear-gradient-7);
      }

      .cls-20 {
        stroke: #603813;
      }

      .cls-21 {
        fill: #110a07;
      }

      .cls-22 {
        fill: url(#linear-gradient-8);
      }

      .cls-23 {
        fill: url(#linear-gradient-9);
      }

      .cls-24 {
        fill: url(#linear-gradient-10);
      }

      .cls-26 {
        clip-path: url(#clip-path);
      }

      .cls-27 {
        fill: url(#linear-gradient-11);
      }

      .cls-28 {
        fill: url(#linear-gradient-12);
      }

      .cls-29 {
        fill: url(#linear-gradient-13);
      }

      .cls-30 {
        fill: url(#linear-gradient-14);
      }

      .cls-31 {
        fill: url(#linear-gradient-15);
      }

      .cls-32 {
        fill: url(#linear-gradient-16);
      }

      .cls-33 {
        fill: #f9f82d;
      }

      .cls-34 {
        fill: #b2b1b6;
      }

      .cls-35 {
        fill: #36383d;
      }

      .cls-36 {
        fill: #45464b;
      }

      .cls-37 {
        fill: #9a9c9e;
      }

      .cls-38 {
        fill: #2c2b29;
      }

      .cls-39 {
        fill: url(#linear-gradient-17);
      }

      .cls-40 {
        fill: url(#linear-gradient-18);
      }

      .cls-41 {
        fill: url(#linear-gradient-19);
      }

      .cls-42 {
        fill: url(#linear-gradient-20);
      }

      .cls-43 {
        opacity: 0.14;
      }
    </style>
    <linearGradient id="linear-gradient" x1="77.59" y1="130.96" x2="79.05" y2="245.06" gradientUnits="userSpaceOnUse">
      <stop offset="0" stop-color="#fff"/>
      <stop offset="0.38" stop-color="#f9f82d"/>
      <stop offset="0.39" stop-color="#f7f22d"/>
      <stop offset="0.51" stop-color="#e6c12b"/>
      <stop offset="0.62" stop-color="#d99b29"/>
      <stop offset="0.72" stop-color="#d08028"/>
      <stop offset="0.81" stop-color="#ca6f27"/>
      <stop offset="0.88" stop-color="#c86927"/>
    </linearGradient>
    <linearGradient id="linear-gradient-2" x1="86.03" y1="38.57" x2="86.61" y2="129.77" gradientUnits="userSpaceOnUse">
      <stop offset="0" stop-color="#fff"/>
      <stop offset="0" stop-color="#d9d9d9"/>
      <stop offset="0" stop-color="#b0b0b0"/>
      <stop offset="0" stop-color="#8b8b8a"/>
      <stop offset="0" stop-color="#6a6a6a"/>
      <stop offset="0" stop-color="#4f4f4e"/>
      <stop offset="0" stop-color="#393938"/>
      <stop offset="0" stop-color="#282827"/>
      <stop offset="0" stop-color="#1d1d1c"/>
      <stop offset="0" stop-color="#161615"/>
      <stop offset="0" stop-color="#141413"/>
      <stop offset="0.53" stop-color="#d69129"/>
      <stop offset="0.7" stop-color="#d58f29"/>
      <stop offset="0.86" stop-color="#121212"/>
    </linearGradient>
    <linearGradient id="linear-gradient-3" x1="25.9" y1="187.22" x2="152.97" y2="186.47" gradientUnits="userSpaceOnUse">
      <stop offset="0" stop-color="#fff"/>
      <stop offset="0" stop-color="#d9d9d9"/>
      <stop offset="0" stop-color="#b0b0b0"/>
      <stop offset="0" stop-color="#8b8b8a"/>
      <stop offset="0" stop-color="#6a6a6a"/>
      <stop offset="0" stop-color="#4f4f4e"/>
      <stop offset="0" stop-color="#393938"/>
      <stop offset="0" stop-color="#282827"/>
      <stop offset="0" stop-color="#1d1d1c"/>
      <stop offset="0" stop-color="#161615"/>
      <stop offset="0" stop-color="#141413"/>
      <stop offset="0.7" stop-color="#070707"/>
      <stop offset="1" stop-color="#121212"/>
    </linearGradient>
    <linearGradient id="linear-gradient-4" x1="129.94" y1="188.73" x2="114.92" y2="291.64" gradientUnits="userSpaceOnUse">
      <stop offset="0.31" stop-color="#944d1b"/>
      <stop offset="0.36" stop-color="#864618"/>
      <stop offset="0.47" stop-color="#603212"/>
      <stop offset="0.62" stop-color="#241307"/>
      <stop offset="0.7"/>
    </linearGradient>
    <linearGradient id="linear-gradient-5" x1="122.44" y1="220.87" x2="91.8" y2="273.61" gradientUnits="userSpaceOnUse">
      <stop offset="0.31" stop-color="#892e15"/>
      <stop offset="0.34" stop-color="#822c14"/>
      <stop offset="0.39" stop-color="#6e2511"/>
      <stop offset="0.45" stop-color="#4e1a0c"/>
      <stop offset="0.51" stop-color="#220b05"/>
      <stop offset="0.55"/>
    </linearGradient>
    <linearGradient id="linear-gradient-6" x1="124.88" y1="250.07" x2="149.3" y2="282.35" gradientUnits="userSpaceOnUse">
      <stop offset="0" stop-color="#ffb871"/>
      <stop offset="0.16" stop-color="#df9254"/>
      <stop offset="0.43" stop-color="#ac5528"/>
      <stop offset="0.63" stop-color="#8d2f0c"/>
      <stop offset="0.74" stop-color="#812101"/>
    </linearGradient>
    <linearGradient id="linear-gradient-7" x1="50.53" y1="205.8" x2="62.12" y2="248.08" gradientUnits="userSpaceOnUse">
      <stop offset="0.31" stop-color="#812101"/>
      <stop offset="0.4" stop-color="#7a1f01"/>
      <stop offset="0.54" stop-color="#671a01"/>
      <stop offset="0.71" stop-color="#471201"/>
      <stop offset="0.89" stop-color="#1c0700"/>
      <stop offset="1"/>
    </linearGradient>
    <linearGradient id="linear-gradient-8" x1="63.07" y1="227.93" x2="86.79" y2="248.41" gradientUnits="userSpaceOnUse">
      <stop offset="0.31" stop-color="#944d1b"/>
      <stop offset="0.41" stop-color="#864618"/>
      <stop offset="0.6" stop-color="#603212"/>
      <stop offset="0.86" stop-color="#241307"/>
      <stop offset="1"/>
    </linearGradient>
    <linearGradient id="linear-gradient-9" x1="62.69" y1="247" x2="66.96" y2="272.39" gradientUnits="userSpaceOnUse">
      <stop offset="0.14" stop-color="#ffb871"/>
      <stop offset="0.31" stop-color="#fdb670"/>
      <stop offset="0.4" stop-color="#f4b06c"/>
      <stop offset="0.48" stop-color="#e7a666"/>
      <stop offset="0.54" stop-color="#d3985d"/>
      <stop offset="0.6" stop-color="#b98652"/>
      <stop offset="0.66" stop-color="#9a6f44"/>
      <stop offset="0.71" stop-color="#745433"/>
      <stop offset="0.76" stop-color="#493420"/>
      <stop offset="0.81" stop-color="#19120b"/>
      <stop offset="0.83"/>
    </linearGradient>
    <linearGradient id="linear-gradient-10" x1="81.55" y1="238.4" x2="115.96" y2="238.4" xlink:href="#linear-gradient-8"/>
    <clipPath id="clip-path">
      <path class="cls-1" d="M49.4,198.88s-8.15,19.58,0,23.26-12.47,17.65,0,26.07,82.39,5.95,81.67-19.51S120,198.34,120,198.34,85.86,214.38,49.4,198.88Z"/>
    </clipPath>
    <linearGradient id="linear-gradient-11" x1="66.21" y1="171.12" x2="64.1" y2="205.13" gradientUnits="userSpaceOnUse">
      <stop offset="0" stop-color="#ef913c"/>
      <stop offset="0.35" stop-color="#ed8f3b"/>
      <stop offset="0.51" stop-color="#e68837"/>
      <stop offset="0.63" stop-color="#d97b30"/>
      <stop offset="0.73" stop-color="#c76927"/>
      <stop offset="0.82" stop-color="#b0511a"/>
      <stop offset="0.9" stop-color="#94350b"/>
      <stop offset="0.94" stop-color="#812101"/>
    </linearGradient>
    <linearGradient id="linear-gradient-12" x1="1173.71" y1="55.79" x2="1171" y2="99.4" gradientTransform="translate(-1041.01 -219.59) rotate(15.37)" xlink:href="#linear-gradient-11"/>
    <linearGradient id="linear-gradient-13" x1="90.35" y1="135.07" x2="86.69" y2="193.93" xlink:href="#linear-gradient-11"/>
    <linearGradient id="linear-gradient-14" x1="107.03" y1="152.11" x2="103.54" y2="208.31" xlink:href="#linear-gradient-11"/>
    <linearGradient id="linear-gradient-15" x1="86.87" y1="160.54" x2="81.65" y2="244.66" xlink:href="#linear-gradient-11"/>
    <linearGradient id="linear-gradient-16" x1="82.68" y1="175.09" x2="85.96" y2="276.43" gradientUnits="userSpaceOnUse">
      <stop offset="0" stop-color="#f9f82d"/>
      <stop offset="0.61" stop-color="#e3a32f"/>
      <stop offset="0.94" stop-color="#d87930"/>
    </linearGradient>
    <linearGradient id="linear-gradient-17" x1="84.98" y1="122.07" x2="84.98" y2="9.44" gradientUnits="userSpaceOnUse">
      <stop offset="0" stop-color="#f8d409"/>
      <stop offset="0.08" stop-color="#f7cb0a"/>
      <stop offset="0.22" stop-color="#f6b20e"/>
      <stop offset="0.4" stop-color="#f38914"/>
      <stop offset="0.6" stop-color="#f0521c"/>
      <stop offset="0.78" stop-color="#ec1c24"/>
      <stop offset="1" stop-color="#ec1c24"/>
    </linearGradient>
    <linearGradient id="linear-gradient-18" x1="83.59" y1="122.06" x2="83.59" y2="43.38" gradientUnits="userSpaceOnUse">
      <stop offset="0" stop-color="#f7e88e"/>
      <stop offset="0.06" stop-color="#f7e266"/>
      <stop offset="0.13" stop-color="#f8dd45"/>
      <stop offset="0.19" stop-color="#f8d92b"/>
      <stop offset="0.26" stop-color="#f8d618"/>
      <stop offset="0.33" stop-color="#f8d50d"/>
      <stop offset="0.41" stop-color="#f8d409"/>
      <stop offset="1" stop-color="#ea5f24"/>
    </linearGradient>
    <linearGradient id="linear-gradient-19" x1="75.23" y1="130.94" x2="75.23" y2="81.51" gradientUnits="userSpaceOnUse">
      <stop offset="0" stop-color="#fff"/>
      <stop offset="0.42" stop-color="#fdf7ab"/>
      <stop offset="1" stop-color="#f9ec31"/>
    </linearGradient>
    <linearGradient id="linear-gradient-20" x1="89.39" y1="133.66" x2="89.39" y2="91.1" xlink:href="#linear-gradient-19"/>
  </defs>
  <g>
    <g class="cls-2">
      <path d="M167,129.2a4.14,4.14,0,0,1,3.14,1.74v2.37l-5.65,19.88v10.46H151.38l.27-10.46V146h6l6.82-15.69A3.82,3.82,0,0,1,167,129.2m-2.51,4.11a2,2,0,0,1,2-1.57,6,6,0,0,1,2.91,1.06,6.53,6.53,0,0,0-3.1-1.18c-.84,0-1.55.42-1.82,1.69m-.26.76-.54,1.59.54-1.59.1-.3-.1.3m-4.65,13.55c.29-.83.59-1.72.9-2.62l-.9,2.62m-.88,2.56c.22-.62.46-1.31.71-2.06l-.71,2.06m8.3-26a8.83,8.83,0,0,0-6.12,2.62,5,5,0,0,0-1,1.46L154.4,141h-2.75a5,5,0,0,0-5,5v7.17l-.27,10.39a5,5,0,0,0,5,5.13H164.5a5,5,0,0,0,5-5v-9.76L175,134.67a5.19,5.19,0,0,0,.19-1.36v-2.37a5,5,0,0,0-1.19-3.23,8.94,8.94,0,0,0-7-3.51Z"/>
      <path d="M95.49,13s-7.06,6.27-5.75,13.33,11.76,11.5,10.46,23.79S90.26,64.27,87.39,73.94c-1.08,3.62.08,5,2,5a5.68,5.68,0,0,0,1-.11,8.67,8.67,0,0,0,1.12-.32c5-1.49,7.64-6.72,8.16-11.66,0-.43.09-.84.12-1.25a33.74,33.74,0,0,1,1.39-8.1,32.24,32.24,0,0,1,4.45-8.1s-2.09,3.92-1,11.5,2.94,8.27,1,14.9S101,95.34,104.05,96.35a.86.86,0,0,0,.3.05c1.84,0-.24-7.45,2.32-15.22a31.31,31.31,0,0,1,6.08-10.9s-3.93,6.8-1.57,13.6,6.79,6.79,9.15,15.42c0,0,3.3,0,1-11.76a73.07,73.07,0,0,1,5.1,19.06c20,2,33.38,5.59,33.59,9.7,0-.14,0-.29,0-.44l0,4.2a.77.77,0,0,1,0,.15c0,.05,0,.1,0,.16v.17s0,1.76-3.11,3.56h0a28.46,28.46,0,0,1-5.31,2.35h0v.86h0v10.2l-.1,0c-.15,18.8-.4,57.54-.17,84.62h4.17s-.67,7.56-1,18.09c2.74,1.25,4.24,2.6,4.24,4a2,2,0,0,1-.13.68,2.88,2.88,0,0,1,.79,1.87c0,1.66-1.83,3.24-5.12,4.68a226.44,226.44,0,0,0,1.25,26.65c2.41,24.05,9.25,74.32,9.25,74.32a9.94,9.94,0,0,1-3,.53,4.31,4.31,0,0,1-2.24-.53c-2-1.21-8-71.18-8-71.18s-1.6-17.25-2.19-28a98.65,98.65,0,0,1-10.69,2.39,9.68,9.68,0,0,1-1.05,4.6c-1.69,3.26-5.45,5.67-8.43,5.67a4.27,4.27,0,0,1-2-.46l-.12-.07c0,.11,0,.22,0,.33a90.26,90.26,0,0,1-10.2-7.52c-3,.22-6.12.39-9.32.53l.58,1.89-.3-.25a6.91,6.91,0,0,1,.66,5,8.73,8.73,0,0,1-2.19,2.92,9.15,9.15,0,0,1-5.22,2.14l2.34,37.49s-2.15,2-3.82,2c-.83,0-1.54-.5-1.81-2,0-5.2-1.32-24.86-2.27-38.34a8.6,8.6,0,0,1-.88-.56,6.32,6.32,0,0,1-2.36-3.26s0-.17-.08-.35c0,.11-.08.22-.11.33-.78-2-1.57-4.26-2.32-6.67-4.89,0-9.66-.15-14.24-.36-.57,1.14-1.12,2.27-1.65,3.38-.78,1.47-2.78,2.27-5,2.27a8.18,8.18,0,0,1-5.2-1.76,7.66,7.66,0,0,1-2.51-4.87,158.71,158.71,0,0,1-25-4l-11,105.89H17.93L29.45,251.37c-2.77-1.24-4.46-2.59-4.82-4l-.08,0v-3.83a1.29,1.29,0,0,1,0-.8h0c.55-1.67,4-3.45,4-3.45l0-76.13H16.38V152.73l-5.64-19.89v-2.37a4.13,4.13,0,0,1,3.13-1.74,3.82,3.82,0,0,1,2.51,1.07l6.83,15.69h5.36v-19h0A27,27,0,0,1,23.06,124h0a6,6,0,0,1-1.28-.94,5.81,5.81,0,0,1-1.08-1.18c-.36-.47-.58-.82-.58-.82l0-4.48c0-.05,0-.1,0-.14,0-4.19,13.68-7.84,34.12-9.84a14.2,14.2,0,0,0,2.56-6.74c.52-7.58-1.36-9.75-1.36-9.75s5.4,3.14,4,11c-.38,2.13-.79,3.81-1.13,5.13L61,106c1.61-3.42,3-8.33,1.51-11.9-5.2-12.89,1.61-20,1.61-20s-2.62,9.37,1.57,15.91c3.66,5.73,2.16,13.14,3.15,13.14.17,0,.4-.2.73-.64C72,99.3,64.9,87.8,68.3,76.82a41.27,41.27,0,0,1,9.94-17S74.49,68,76.66,68A2.75,2.75,0,0,0,78,67.44,54.27,54.27,0,0,0,88.13,59c.28-.31.56-.63.82-1,2.41-3,4.51-6.69,3.81-11q-.06-.5-.15-1c-.11-.65-.24-1.29-.38-1.9q-.18-.66-.39-1.32c-2.28-7.43-6-14.37-4.71-19C88.69,18.26,95.49,13,95.49,13M57.75,108.6l2-.19,0-.09c-.67.06-1.34.11-2,.18a.3.3,0,0,0,0,.1m84.62,2.9a130.81,130.81,0,0,0-15.69-2.57V109c5.86.67,11.14,1.5,15.69,2.46m-105,.1c4.44-.95,9.58-1.78,15.29-2.46a.75.75,0,0,0,.07-.12,124.22,124.22,0,0,0-15.36,2.58M11.46,132.33a6.07,6.07,0,0,1,2.92-1.06,2,2,0,0,1,2,1.57c.13.39.32.93.55,1.59l.26.76c-.1-.27-.18-.52-.26-.76l-.55-1.59c-.27-1.27-1-1.69-1.82-1.69a6.57,6.57,0,0,0-3.1,1.18m148.63-16.57v0M95.5,8a5.07,5.07,0,0,0-3.06,1c-.83.64-8.16,6.44-10.12,13.31-1.41,4.93.59,10.32,2.7,16,.71,1.91,1.44,3.89,2,5.85.11.36.22.72.32,1.08.13.56.23,1.05.3,1.5,0,.26.08.52.12.78a1,1,0,0,0,0,.17c.34,2.1-.51,4.3-2.75,7.12-.22.26-.44.52-.67.77-.53.6-1.12,1.2-1.75,1.8a5.07,5.07,0,0,0-1.48-1.69,5,5,0,0,0-6.32.36,44.34,44.34,0,0,0-9,13.18A5.16,5.16,0,0,0,64.15,69a5,5,0,0,0-3.62,1.55c-.27.29-5.05,5.45-4.93,14.49h-.16a5,5,0,0,0-4.12,7.84c.15.36.79,2.2.49,6.57a6.45,6.45,0,0,1-.65,2.37,146.51,146.51,0,0,0-23,4c-6.07,1.71-13,4.46-13,10.55,0,.16,0,.31,0,.45l0,4.15a5.09,5.09,0,0,0,.75,2.66l.26.39a8,8,0,0,0-2.26-.32,9,9,0,0,0-6.95,3.51,5,5,0,0,0-1.18,3.23v2.37a4.8,4.8,0,0,0,.19,1.36l5.45,19.22v9.76a5,5,0,0,0,5,5h7.19l0,68.36A10.17,10.17,0,0,0,20,240.66a4.91,4.91,0,0,0-.34,1,6.24,6.24,0,0,0-.12,2.43v3.3a5,5,0,0,0,.76,2.64,10.56,10.56,0,0,0,3.82,4.12L13,359a5,5,0,0,0,5,5.53h7.24a5,5,0,0,0,5-4.49L40.52,259.81c4.87,1,10.56,1.84,16.84,2.51a11.61,11.61,0,0,0,3.11,4.06,13.05,13.05,0,0,0,8.41,2.93c4.18,0,7.78-1.89,9.38-4.94l.09-.18.19-.4c2.48.09,5,.15,7.56.19.41,1.19.85,2.36,1.29,3.52a5.4,5.4,0,0,0,.62,1.13,11.34,11.34,0,0,0,2.64,3.55c1.36,19.36,2.1,32,2.1,35.69a4.37,4.37,0,0,0,.08.88c.8,4.51,4.13,6.12,6.73,6.12,3.29,0,6.15-2.34,7.23-3.35a5,5,0,0,0,1.58-4l-2.09-33.44a13.65,13.65,0,0,0,6.7-6.68,5.3,5.3,0,0,0,.35-1,12.82,12.82,0,0,0,.31-3l1.53-.1a95.12,95.12,0,0,0,9.19,6.62,4.94,4.94,0,0,0,2.67.78h.14a9.36,9.36,0,0,0,2,.21c4.94,0,10.35-3.52,12.87-8.36a14.06,14.06,0,0,0,1.05-2.65l1.64-.34c.71,10.18,1.8,22,1.82,22.19s1.53,17.69,3.27,35.17c1,10.29,1.92,18.54,2.67,24.54,1.51,12,2,13.82,4.46,15.28a9.17,9.17,0,0,0,4.84,1.26,14.85,14.85,0,0,0,4.74-.84,5,5,0,0,0,3.22-5.37c-.07-.5-6.85-50.45-9.23-74.14a.28.28,0,0,0,0-.09,210.63,210.63,0,0,1-1.21-23c3.4-2.11,5.12-4.7,5.12-7.7a7.48,7.48,0,0,0-.68-3.1c-.18-2.43-1.56-4.54-4.11-6.31.37-8.67.89-14.74.9-14.8a5,5,0,0,0-4.18-5.38c-.16-25.79,0-59.58.19-78.69a4.74,4.74,0,0,0,.11-1v-7.64a28.76,28.76,0,0,0,2.84-1.46c4.88-2.83,5.52-6.33,5.58-7.68,0-.15,0-.33,0-.52s0-.31,0-.44l0-3.86v-.21a5,5,0,0,0-1.09-3.06c-2.18-3.57-7.35-5.49-12-6.79a141.1,141.1,0,0,0-21.19-3.8,79.1,79.1,0,0,0-4.91-16.55,5,5,0,0,0-4.57-3,5.14,5.14,0,0,0-1.49.23,5,5,0,0,0-2.7,2,10.44,10.44,0,0,1-1.28-2.57c-1.54-4.44,1.15-9.41,1.18-9.46a5,5,0,0,0-4.33-7.5,4.9,4.9,0,0,0-2,.43l-.09-.37a46.91,46.91,0,0,1-1-5.15c-.72-5.24.35-8.07.54-8.52a4.88,4.88,0,0,0-1.54-6.53,4.77,4.77,0,0,0-2.75-.85,4.57,4.57,0,0,0-.83.07c-1-6-4.37-10.26-7-13.54-1.66-2.09-3.09-3.89-3.36-5.37-.64-3.43,2.89-7.54,4.17-8.7A5,5,0,0,0,95.5,8ZM23.57,133.79l-2.19-5q1,.55,2.19,1.08v3.94Z"/>
    </g>
    <g>
      <path class="cls-3" d="M163.42,125.61a4.14,4.14,0,0,1,3.14,1.74v2.37l-5.65,19.88v10.46H147.79l.27-10.46v-7.23h6l6.82-15.69a3.82,3.82,0,0,1,2.51-1.07m-2.51,4.11a2,2,0,0,1,2-1.57,6,6,0,0,1,2.91,1.06,6.53,6.53,0,0,0-3.1-1.18c-.84,0-1.55.42-1.82,1.69m-.16.46c-.1.31-.22.67-.36,1.06l.36-1.06m-3.85,11.23-.45,1.33L156,144c.15-.42.29-.85.45-1.29l.45-1.33m-1.7,5-.08.23.08-.23c.19-.56.41-1.17.63-1.83l-.63,1.83m8.22-25.75a8.83,8.83,0,0,0-6.12,2.62,5,5,0,0,0-1,1.46l-5.52,12.68h-2.75a5,5,0,0,0-5,5v7.17l-.27,10.39a5,5,0,0,0,5,5.13h13.12a5,5,0,0,0,5-5V150.3l5.46-19.22a5.19,5.19,0,0,0,.19-1.36v-2.37a5,5,0,0,0-1.19-3.23,9,9,0,0,0-7-3.51Z"/>
      <path class="cls-3" d="M91.9,9.44s-7.06,6.27-5.75,13.33,11.76,11.5,10.46,23.79S86.67,60.68,83.8,70.35c-1.08,3.62.08,5,2,5a5.68,5.68,0,0,0,1-.11A8.67,8.67,0,0,0,88,74.89c5-1.49,7.64-6.72,8.16-11.66,0-.43.09-.84.12-1.25a33.66,33.66,0,0,1,1.39-8.1,32.24,32.24,0,0,1,4.45-8.1s-2.09,3.92-1,11.5,2.94,8.27,1,14.9-4.67,19.57-1.64,20.58a.86.86,0,0,0,.3,0c1.84,0-.24-7.45,2.32-15.22a31.31,31.31,0,0,1,6.08-10.9s-3.93,6.8-1.57,13.6,6.79,6.79,9.15,15.42c0,0,3.3,0,1-11.76a73.07,73.07,0,0,1,5.1,19.06c20,2,33.38,5.59,33.59,9.7,0-.14,0-.29,0-.44l0,4.2s0,.1,0,.15,0,.1,0,.16V117s0,1.76-3.12,3.56h0a28,28,0,0,1-5.3,2.35h0v.86h0v10.2l-.1,0c-.15,18.8-.4,57.54-.17,84.62H152s-.67,7.56-1,18.09c2.73,1.25,4.24,2.6,4.24,4a2,2,0,0,1-.13.68,2.88,2.88,0,0,1,.79,1.87c0,1.66-1.83,3.24-5.12,4.68A226.44,226.44,0,0,0,152,274.54c2.41,24,9.25,74.32,9.25,74.32a9.94,9.94,0,0,1-3,.53,4.31,4.31,0,0,1-2.24-.53c-2-1.21-8-71.18-8-71.18s-1.6-17.25-2.19-28A98.65,98.65,0,0,1,135.06,252a9.68,9.68,0,0,1-1.05,4.6c-1.69,3.26-5.45,5.67-8.43,5.67a4.27,4.27,0,0,1-2-.46l-.12-.07c0,.11,0,.21,0,.33a90.26,90.26,0,0,1-10.2-7.52c-3,.22-6.12.39-9.32.53l.58,1.89-.3-.25a6.91,6.91,0,0,1,.66,5,8.73,8.73,0,0,1-2.19,2.92,9.15,9.15,0,0,1-5.22,2.14l2.34,37.49s-2.15,2-3.82,2c-.83,0-1.54-.5-1.81-2,0-5.2-1.32-24.86-2.27-38.34a8.6,8.6,0,0,1-.88-.56,6.32,6.32,0,0,1-2.36-3.26c0-.05-.05-.17-.08-.35,0,.11-.08.22-.11.33-.78-2-1.57-4.26-2.32-6.67-4.89,0-9.66-.15-14.24-.36-.57,1.14-1.12,2.27-1.65,3.38-.78,1.47-2.79,2.27-5,2.27a8.18,8.18,0,0,1-5.2-1.76,7.66,7.66,0,0,1-2.51-4.87,158.71,158.71,0,0,1-25-4L21.58,356H14.34L25.86,247.78c-2.77-1.24-4.46-2.59-4.82-4l-.08,0V240a1.29,1.29,0,0,1,0-.8h0c.55-1.67,4-3.45,4-3.45l0-76.13H12.79V149.14L7.15,129.25v-2.37a4.13,4.13,0,0,1,3.13-1.74,3.82,3.82,0,0,1,2.51,1.07l6.82,15.69H25v-19h0a27,27,0,0,1-5.54-2.51h0a6,6,0,0,1-1.28-.94,5.81,5.81,0,0,1-1.08-1.18c-.36-.47-.58-.82-.58-.82l0-4.48s0-.1,0-.14c0-4.19,13.68-7.84,34.12-9.85a14.12,14.12,0,0,0,2.56-6.73c.52-7.58-1.36-9.75-1.36-9.75s5.4,3.14,4,11c-.38,2.13-.79,3.81-1.13,5.13l2.72-.22C59.06,99,60.4,94.05,59,90.48c-5.2-12.89,1.61-20,1.61-20S58,79.81,62.14,86.35c3.66,5.73,2.16,13.14,3.15,13.14.17,0,.4-.2.73-.64,2.35-3.14-4.71-14.64-1.31-25.62a41.27,41.27,0,0,1,9.94-17s-3.75,8.2-1.58,8.2a2.75,2.75,0,0,0,1.36-.58,54.27,54.27,0,0,0,10.11-8.44c.28-.31.56-.63.82-1,2.41-3,4.51-6.69,3.81-11.05q-.06-.49-.15-1c-.11-.65-.24-1.29-.38-1.9q-.18-.66-.39-1.32c-2.28-7.43-6-14.37-4.71-19C85.1,14.67,91.9,9.44,91.9,9.44M54.16,105l2-.19a.41.41,0,0,1,.05-.09c-.67.06-1.34.11-2,.18a.3.3,0,0,0,0,.1m84.62,2.9a130.81,130.81,0,0,0-15.69-2.57v.11c5.86.67,11.14,1.5,15.69,2.46m-105,.1c4.44-1,9.58-1.78,15.29-2.46a.75.75,0,0,0,.07-.12A124.22,124.22,0,0,0,33.82,108M7.87,128.74a6.07,6.07,0,0,1,2.92-1.06,2,2,0,0,1,2,1.57l.68,2,.13.36-.13-.36-.68-2c-.27-1.27-1-1.69-1.82-1.69a6.57,6.57,0,0,0-3.1,1.18M156.5,112.17v0M91.91,4.43a5.07,5.07,0,0,0-3.06,1c-.83.64-8.16,6.44-10.12,13.31-1.41,4.93.59,10.32,2.7,16,.71,1.91,1.44,3.89,2,5.85.11.36.22.72.32,1.08.13.56.23,1,.3,1.5,0,.26.08.52.12.78a1,1,0,0,0,0,.17c.34,2.1-.51,4.3-2.75,7.12-.22.26-.44.52-.67.77-.53.6-1.12,1.2-1.75,1.8a5,5,0,0,0-4.41-2.65,5,5,0,0,0-3.39,1.32,44.34,44.34,0,0,0-9,13.18,5.16,5.16,0,0,0-1.68-.29A5,5,0,0,0,56.94,67c-.27.29-5,5.45-4.93,14.49h-.16a5,5,0,0,0-4.12,7.84c.15.36.79,2.19.49,6.57a6.45,6.45,0,0,1-.65,2.37,146.51,146.51,0,0,0-23,4c-6.07,1.71-13,4.46-13,10.55,0,.16,0,.31,0,.45l0,4.15a5.09,5.09,0,0,0,.75,2.66c0,.05.12.19.26.39a8,8,0,0,0-2.26-.32,9,9,0,0,0-6.95,3.51,5,5,0,0,0-1.18,3.23v2.37a4.8,4.8,0,0,0,.19,1.36l5.45,19.22v9.76a5,5,0,0,0,5,5H20l0,68.34a10.75,10.75,0,0,0-3.56,4.1,4.74,4.74,0,0,0-.36,1A6.24,6.24,0,0,0,16,240.5v3.3a5,5,0,0,0,.75,2.64,10.59,10.59,0,0,0,3.83,4.12L9.37,355.42a5,5,0,0,0,5,5.53h7.24a5,5,0,0,0,5-4.49L36.93,256.22c4.87,1,10.56,1.84,16.84,2.51a11.61,11.61,0,0,0,3.11,4.06,13.05,13.05,0,0,0,8.41,2.93c4.18,0,7.78-1.89,9.38-4.94l.09-.18.19-.4c2.48.09,5,.15,7.56.19.41,1.19.85,2.36,1.29,3.51a4.81,4.81,0,0,0,.62,1.14,11.39,11.39,0,0,0,2.64,3.55c1.36,19.36,2.1,32,2.1,35.69a4.37,4.37,0,0,0,.08.88c.8,4.51,4.13,6.12,6.73,6.12,3.29,0,6.15-2.34,7.23-3.35a5,5,0,0,0,1.58-4l-2.09-33.44a13.68,13.68,0,0,0,6.7-6.67,5.63,5.63,0,0,0,.35-1.05,12.82,12.82,0,0,0,.31-3l1.53-.1a91.82,91.82,0,0,0,9.19,6.62,4.94,4.94,0,0,0,2.67.78h.13a10.23,10.23,0,0,0,2,.2c4.94,0,10.35-3.52,12.87-8.36a14.06,14.06,0,0,0,1.05-2.65l1.64-.34c.71,10.18,1.8,22,1.82,22.19s1.53,17.69,3.27,35.17c1,10.29,1.92,18.54,2.67,24.54,1.51,12,2,13.82,4.46,15.28a9.17,9.17,0,0,0,4.84,1.26,14.85,14.85,0,0,0,4.74-.84,5,5,0,0,0,3.22-5.37c-.07-.5-6.85-50.45-9.23-74.14a.28.28,0,0,0,0-.09,210.63,210.63,0,0,1-1.21-23c3.4-2.11,5.12-4.7,5.12-7.7a7.48,7.48,0,0,0-.68-3.1c-.18-2.43-1.56-4.54-4.11-6.31.37-8.67.89-14.74.9-14.8a5,5,0,0,0-4.18-5.38c-.16-25.79,0-59.58.19-78.69a4.74,4.74,0,0,0,.11-1v-7.65a25.79,25.79,0,0,0,2.84-1.45c4.88-2.83,5.52-6.33,5.58-7.68,0-.15,0-.33,0-.52s0-.31,0-.44l0-3.86v-.21a5,5,0,0,0-1.09-3.06c-2.18-3.57-7.35-5.49-12-6.79a141.1,141.1,0,0,0-21.19-3.8,79.1,79.1,0,0,0-4.91-16.55,5,5,0,0,0-4.57-3,5.14,5.14,0,0,0-1.49.23,5,5,0,0,0-2.7,2,10.44,10.44,0,0,1-1.28-2.57c-1.55-4.49,1.17-9.44,1.19-9.49a5,5,0,0,0-4.32-7.48,5,5,0,0,0-2.05.44l-.09-.37a46.91,46.91,0,0,1-1-5.15c-.72-5.24.35-8.07.54-8.52A4.88,4.88,0,0,0,105,41.55a4.77,4.77,0,0,0-2.75-.85,4.57,4.57,0,0,0-.83.07c-1-6.05-4.37-10.26-7-13.55-1.66-2.08-3.09-3.88-3.36-5.36-.64-3.43,2.89-7.54,4.17-8.7a5,5,0,0,0-3.33-8.73ZM20,130.2l-2.19-5q1,.55,2.19,1.08v3.94Z"/>
    </g>
    <g>
      <path class="cls-4" d="M34.58,124.67V235.72S9.71,239,27.84,242.38c26.62,3,107.49,6.86,107.49,6.86V128.93Z"/>
      <path class="cls-5" d="M96.57,252.73l3.22,51.55s-4.83,4.49-5.63,0c0-8.12-3.22-51.55-3.22-51.55Z"/>
      <ellipse class="cls-6" cx="88.4" cy="243.21" rx="67.43" ry="12.23"/>
      <ellipse class="cls-7" cx="86.53" cy="116.62" rx="69.98" ry="13.1"/>
      <path class="cls-8" d="M86.5,101.35c-38.64,0-70,5.13-70,11.46s31.33,11.46,70,11.46,70-5.13,70-11.46S125.15,101.35,86.5,101.35Zm0,20.75c-34,0-61.53-4.16-61.53-9.29s27.55-9.29,61.53-9.29S148,107.68,148,112.81,120.49,122.1,86.5,122.1Z"/>
      <path class="cls-9" d="M148.06,236.13c-.81-31.16,0-113.27,0-113.27s-56.33,13.72-123.09,0l0,113.23s-11.84,6.43,5.61,9.69c17.15,6,95.64,8.34,118.76-.16C160.56,240.13,151.68,237,148.06,236.13Zm-21.72,6h-82l-1.21-2.42v-35.5s0-9.28,10.46-3.23c11.66,4.44,39.81,10.09,59.12-.41,10.45-4.84,12.46-.4,13.67,10.9S126.34,242.09,126.34,242.09Z"/>
      <ellipse class="cls-10" cx="88.12" cy="240.66" rx="67.05" ry="11.46"/>
      <g>
        <ellipse class="cls-11" cx="89.04" cy="233.61" rx="47.59" ry="11.47"/>
        <g>
          <path class="cls-12" d="M104.5,224.47c5.57,2.19,11.46,4.73,17.57,7.7a243.38,243.38,0,0,1,22.51,12.44c-3-2.71-3.07-6.45-1.46-8,1.46-1.42,4.08-.8,4.37-.73-8.09-4.5-16.73-9-25.91-13.39q-8.73-4.17-17.08-7.76S97.21,216,104.5,224.47Z"/>
          <path class="cls-13" d="M142.69,242.52c-2.13-4.45,2.24-11.05,6.07-5.21C151.32,241.7,145.18,247.72,142.69,242.52Z"/>
          <g>
            <path class="cls-14" d="M146.17,239.6s-1.23,2.15-1.23.09,2.91-2.06,2.19,0-2.19,3.84-3.29.89a2.64,2.64,0,0,1,3.29-3.63c1.45.68,2.18,4.11,0,5.49s-3.65.68-4.38-1.38"/>
            <path class="cls-15" d="M146.17,239.6a3.75,3.75,0,0,1-.54.78c-.11.11-.23.26-.43.24a.49.49,0,0,1-.28-.42,1.88,1.88,0,0,1,.49-1.85,1.45,1.45,0,0,1,1-.34,1,1,0,0,1,.9.55,1.44,1.44,0,0,1,.05,1,5.61,5.61,0,0,1-.34.92,3.77,3.77,0,0,1-1.17,1.62,1,1,0,0,1-1.12.08,2,2,0,0,1-.71-.78,4.67,4.67,0,0,1-.61-1.9,2.73,2.73,0,0,1,.6-1.94,3,3,0,0,1,1.77-1,2.17,2.17,0,0,1,2,.51,3.42,3.42,0,0,1,.91,1.79,3.81,3.81,0,0,1-.1,2,3,3,0,0,1-1.18,1.59,4.46,4.46,0,0,1-1.79.76,2.15,2.15,0,0,1-1.85-.52,3.74,3.74,0,0,1-1-1.64,3.64,3.64,0,0,0,1,1.55,2,2,0,0,0,1.72.37,3.41,3.41,0,0,0,2.65-2.22,3.56,3.56,0,0,0-.75-3.33,1.72,1.72,0,0,0-1.57-.37,2.52,2.52,0,0,0-1.47.86,2.22,2.22,0,0,0-.52,1.59,4.5,4.5,0,0,0,.53,1.7c.28.55.75.92,1.2.57a3.78,3.78,0,0,0,1.07-1.42c.24-.55.57-1.17.35-1.66s-1-.52-1.44-.16a1.7,1.7,0,0,0-.52,1.64c0,.14.06.31.18.35s.26-.09.37-.19A4.11,4.11,0,0,0,146.17,239.6Z"/>
          </g>
          <path class="cls-16" d="M105.45,217.87c3.25.95,6.45,2.07,9.61,3.3s6.26,2.56,9.34,4,6.1,2.95,9,4.6,5.85,3.41,8.68,5.26c-2.93-1.69-5.86-3.37-8.86-4.92s-6-3.09-9.08-4.49-6.15-2.79-9.28-4.08S108.65,219,105.45,217.87Z"/>
          <path class="cls-16" d="M107.77,222.38c2.94.78,5.84,1.69,8.71,2.7s5.71,2.11,8.5,3.31a87.62,87.62,0,0,1,8.18,4.06,43.64,43.64,0,0,1,7.46,5.23l-1.82-1.36c-.61-.45-1.27-.83-1.9-1.25s-1.29-.79-1.94-1.18-1.31-.77-2-1.11c-2.65-1.45-5.41-2.73-8.18-3.93s-5.6-2.34-8.44-3.41S110.66,223.33,107.77,222.38Z"/>
          <path class="cls-16" d="M115.09,227.14c2.24.73,4.45,1.55,6.64,2.43s4.34,1.84,6.48,2.83,4.22,2.11,6.25,3.32a25.76,25.76,0,0,1,5.63,4.26,31.46,31.46,0,0,0-5.82-3.93c-2.05-1.13-4.14-2.22-6.27-3.2s-4.27-2-6.42-2.93S117.27,228.05,115.09,227.14Z"/>
        </g>
        <g>
          <path class="cls-17" d="M93.56,230.59a87.38,87.38,0,0,0,8,11.93,88.68,88.68,0,0,0,21.89,19.58c.47-9.61,3.08-16.19,6.43-16.63.75-.09,2.09.05,4,1.94-8-5.28-13.63-6.67-30.82-26.85-1.29-1.52-2.92-2.95-4.54-2.65C95,218.57,93.89,227.28,93.56,230.59Z"/>
          <path class="cls-18" d="M121.74,259.91c-2.33-3.58-1-7.74-.85-8.38a8.76,8.76,0,0,1,3.65-5.1,7.39,7.39,0,0,1,6.55-.73,7.15,7.15,0,0,1,3.65,3.64,10.69,10.69,0,0,1-.73,7.29c-2.11,4.05-7.4,6.79-10.43,5.21A5,5,0,0,1,121.74,259.91Z"/>
          <path class="cls-16" d="M126.43,244.61a22.82,22.82,0,0,1-8.81-3.49,43.25,43.25,0,0,1-7.37-6.05,68.76,68.76,0,0,1-6.19-7.24,70.75,70.75,0,0,1-5.17-8c.83,1.35,1.73,2.66,2.65,3.94s1.85,2.57,2.83,3.81a74.12,74.12,0,0,0,6.23,7.13,45.68,45.68,0,0,0,7.23,6.08,26.72,26.72,0,0,0,4.11,2.31A20.61,20.61,0,0,0,126.43,244.61Z"/>
          <path class="cls-16" d="M97.57,225.34a33.62,33.62,0,0,0,1.72,3.11c.6,1,1.25,2,1.93,3a47.12,47.12,0,0,0,4.45,5.5c.78.89,1.65,1.69,2.49,2.52s1.76,1.57,2.71,2.27c.47.36.93.74,1.41,1.08l1.47,1c1,.7,2,1.22,3,1.84a33.55,33.55,0,0,1-6.15-3.6,36.5,36.5,0,0,1-5.33-4.76,43.46,43.46,0,0,1-4.41-5.62A36.5,36.5,0,0,1,97.57,225.34Z"/>
          <path class="cls-16" d="M99.76,237.68c.66,1,1.36,1.88,2.08,2.77s1.46,1.79,2.22,2.67a66.11,66.11,0,0,0,4.8,5,51,51,0,0,0,5.29,4.44l1.4,1,1.45.94c.94.67,2,1.18,3,1.79a38.47,38.47,0,0,1-6-3.44,47.19,47.19,0,0,1-5.4-4.38,57.22,57.22,0,0,1-4.76-5.09A46.05,46.05,0,0,1,99.76,237.68Z"/>
          <path class="cls-16" d="M97.57,230.53a16.4,16.4,0,0,0,1.92,3.75,26.55,26.55,0,0,0,2.61,3.29,34.86,34.86,0,0,0,3,2.93c1.06.92,2.18,1.78,3.3,2.65-.61-.35-1.21-.73-1.82-1.1s-1.17-.82-1.73-1.26a27.65,27.65,0,0,1-3.14-2.89,22.48,22.48,0,0,1-2.57-3.42A12.33,12.33,0,0,1,97.57,230.53Z"/>
          <g>
            <path class="cls-14" d="M127.88,252.59s.55,3.19-.76,1.93-1.32-3.94,1.46-3.94-.47,9.94-2.32,5.64c-3.23-3-1.69-5.64,1.7-7.64s3.5,4.78,3.5,4.78-2.59,7.24-5.51,5.57-5.69-5-2.23-9"/>
            <path class="cls-15" d="M127.88,252.59a8.45,8.45,0,0,1,.14,1.14,5.43,5.43,0,0,1,0,.57.65.65,0,0,1-.26.52.61.61,0,0,1-.56-.19,2.28,2.28,0,0,1-.4-.42,2.83,2.83,0,0,1-.52-1,2.08,2.08,0,0,1,.6-2.19,2.41,2.41,0,0,1,1.1-.48,5.63,5.63,0,0,1,.59-.05,1.06,1.06,0,0,1,.62.17,1.61,1.61,0,0,1,.59,1.08,5.2,5.2,0,0,1,0,1.18,8.85,8.85,0,0,1-.5,2.28,4.87,4.87,0,0,1-1.21,2,1.35,1.35,0,0,1-.61.3.89.89,0,0,1-.69-.18,2.54,2.54,0,0,1-.73-1l.06.07a7.09,7.09,0,0,1-1.39-1.69,3.54,3.54,0,0,1-.44-2.19,5.58,5.58,0,0,1,2.56-3.49,5,5,0,0,1,2-1,1.61,1.61,0,0,1,1.18.25,3.39,3.39,0,0,1,.45.4c.1.15.22.31.32.47a10.13,10.13,0,0,1,.9,4.24v.08a16.5,16.5,0,0,1-2.36,4.37,4,4,0,0,1-2.06,1.49,2,2,0,0,1-1.3-.19,8.2,8.2,0,0,1-1-.68,6.56,6.56,0,0,1-2.79-4,4.65,4.65,0,0,1,.28-2.45,7.73,7.73,0,0,1,1.33-2.06,7.5,7.5,0,0,0-1.24,2.09,4.41,4.41,0,0,0-.2,2.38,6.47,6.47,0,0,0,2.8,3.79c.66.45,1.36,1,2.1.77a3.65,3.65,0,0,0,1.81-1.39,16.64,16.64,0,0,0,2.26-4.27l0,.08a9.66,9.66,0,0,0-.87-4,1.4,1.4,0,0,0-1.46-.87,4.93,4.93,0,0,0-1.77.92,5.24,5.24,0,0,0-2.38,3.15,3.06,3.06,0,0,0,.38,1.91,6.93,6.93,0,0,0,1.28,1.59l0,0,0,.05a2,2,0,0,0,.57.83.58.58,0,0,0,.78-.1,4.7,4.7,0,0,0,1.12-1.84,8.59,8.59,0,0,0,.52-2.17c.06-.71.07-1.58-.45-2-.25-.2-.65-.13-1-.09a2.21,2.21,0,0,0-1,.4,1.89,1.89,0,0,0-.59,2,2.57,2.57,0,0,0,.46,1,2.1,2.1,0,0,0,.37.42.54.54,0,0,0,.45.19c.15-.07.21-.28.24-.46a2.6,2.6,0,0,0,0-.56A7.3,7.3,0,0,0,127.88,252.59Z"/>
          </g>
        </g>
        <g>
          <path class="cls-19" d="M69.52,216.92a53.64,53.64,0,0,1-5.83,3.64,45.69,45.69,0,0,1-13.85,5.1c-5.61,1-12,.85-13.84,2.92a6.24,6.24,0,0,0-1.46,2.91,5,5,0,0,0,0,1.46c3.42-2.34,4.81-1.63,5.1-1.46,1.83,1.09,1.65,5.73-.73,11.66,2.16-.65,27-8.24,35-13.85,1.35-1,4-2.84,4.37-5.83a6.54,6.54,0,0,0-1.46-5.1,6.12,6.12,0,0,0-4.37-2.18A5.6,5.6,0,0,0,69.52,216.92Z"/>
          <ellipse class="cls-20" cx="38.18" cy="235.86" rx="4.37" ry="7.29"/>
          <path class="cls-15" d="M37.45,236.59a1.78,1.78,0,0,1-1-.77,1.27,1.27,0,0,1,0-1.24,2.32,2.32,0,0,1,2.15-1.21,1.38,1.38,0,0,1,1,.83,3.37,3.37,0,0,1,.34,1.24,3.09,3.09,0,0,1-.69,2.44,2.51,2.51,0,0,1-2.46.52,2.86,2.86,0,0,1-1.93-1.65,4.42,4.42,0,0,1-.12-2.57,5.78,5.78,0,0,1,1.08-2.33,3.17,3.17,0,0,1,2.13-1.43,2.59,2.59,0,0,1,2.13,1.38,7.52,7.52,0,0,1,.88,5,9.56,9.56,0,0,1-.68,2.46,3.31,3.31,0,0,1-1.65,1.91,2.7,2.7,0,0,1-2.41-.6,3.63,3.63,0,0,1-1.31-2.14,3.58,3.58,0,0,0,1.34,2.09,2.61,2.61,0,0,0,2.33.54,3.18,3.18,0,0,0,1.56-1.86,9.31,9.31,0,0,0,.66-2.43,7.36,7.36,0,0,0-.89-4.83A2.38,2.38,0,0,0,38,230.65,3,3,0,0,0,36,232a5.59,5.59,0,0,0-1,2.23,4.22,4.22,0,0,0,.09,2.44,2.65,2.65,0,0,0,1.79,1.55,2.31,2.31,0,0,0,2.29-.46,2.93,2.93,0,0,0,.67-2.31,3.5,3.5,0,0,0-.32-1.19,1.28,1.28,0,0,0-.87-.77,2.21,2.21,0,0,0-2.07,1.12,1.23,1.23,0,0,0,0,1.19A1.78,1.78,0,0,0,37.45,236.59Z"/>
          <path class="cls-21" d="M70.69,217.87a55.73,55.73,0,0,1-13.39,8.32,37.59,37.59,0,0,1-7.56,2.33,22.62,22.62,0,0,1-7.87.06,25.83,25.83,0,0,0,7.8-.44,39.89,39.89,0,0,0,7.44-2.41,61.15,61.15,0,0,0,7-3.55c1.14-.65,2.25-1.35,3.34-2.07S69.64,218.66,70.69,217.87Z"/>
          <path class="cls-21" d="M44.38,234c1.25-.16,2.5-.38,3.73-.63s2.48-.48,3.71-.77a70,70,0,0,0,7.27-2,46.62,46.62,0,0,0,7-2.92,29.33,29.33,0,0,0,6.18-4.32,25.13,25.13,0,0,1-6,4.66,43.56,43.56,0,0,1-7,3.05A60.91,60.91,0,0,1,51.9,233,58.08,58.08,0,0,1,44.38,234Z"/>
          <path class="cls-21" d="M42.55,240.66c2.78-.86,5.53-1.79,8.28-2.73s5.47-1.94,8.16-3,5.36-2.22,7.95-3.5a32,32,0,0,0,7.31-4.66,28.19,28.19,0,0,1-7.13,5,82.45,82.45,0,0,1-8,3.62c-2.71,1-5.45,2-8.22,2.92S45.38,240,42.55,240.66Z"/>
          <path class="cls-21" d="M72.22,219.84a11.79,11.79,0,0,1-3.32,3.61A23.26,23.26,0,0,1,64.67,226a35.41,35.41,0,0,1-4.6,1.75l-2.37.63c-.81.15-1.61.32-2.41.46.78-.25,1.56-.47,2.34-.7l2.33-.75a45.16,45.16,0,0,0,4.5-1.84,27,27,0,0,0,4.22-2.39,18.23,18.23,0,0,0,1.9-1.51A10,10,0,0,0,72.22,219.84Z"/>
          <path class="cls-21" d="M44.38,237.09c0-.22.32-.24.5-.29a3.83,3.83,0,0,1,.59-.1l1.2-.15c.79-.09,1.58-.18,2.37-.29a40.75,40.75,0,0,0,4.68-.92,38.79,38.79,0,0,0,8.87-3.49,25.43,25.43,0,0,1-4.19,2.38,29.31,29.31,0,0,1-4.56,1.59,33.22,33.22,0,0,1-4.75.82c-.8.07-1.61.12-2.41.15l-1.2,0-.59,0C44.71,236.9,44.45,236.89,44.38,237.09Z"/>
        </g>
        <g>
          <path class="cls-22" d="M75.35,216.19a99.89,99.89,0,0,1-5.18,14.51,99.13,99.13,0,0,1-12.31,20.47,9.07,9.07,0,0,1,6.56-.22,9.34,9.34,0,0,1,5.83,7.5c7.28-15.3,18.94-33.52,18.94-33.52S83.36,213.27,75.35,216.19Z"/>
          <path class="cls-23" d="M57.49,253A4.86,4.86,0,0,1,59,250.07c2.16-1.88,5.91-.79,8,.73,2.4,1.73,4.5,5.33,3.28,7.65-1.42,2.69-7,3.14-10.16.51A8.13,8.13,0,0,1,57.49,253Z"/>
          <path class="cls-15" d="M64.29,255.11a6,6,0,0,1,0,1.58,1.69,1.69,0,0,1-.31.73.74.74,0,0,1-.75.19,3.76,3.76,0,0,1-1.31-.89c-.19-.19-.36-.4-.54-.59a3.73,3.73,0,0,1-.4-.7,1.67,1.67,0,0,1,0-1.58,2,2,0,0,1,1.34-.86,3.83,3.83,0,0,1,3,.8,4.91,4.91,0,0,1,1.84,2.57,2.87,2.87,0,0,1-.83,3,1.63,1.63,0,0,1-.79.3,7.2,7.2,0,0,1-.81,0,10.49,10.49,0,0,1-1.57-.26,6.36,6.36,0,0,1-2.85-1.43A3.69,3.69,0,0,1,59.16,255a7,7,0,0,1,.31-1.58,5.08,5.08,0,0,1,.65-1.47,3,3,0,0,1,2.8-1.35,6.19,6.19,0,0,1,3,1.17A9.76,9.76,0,0,1,68.14,254a5.21,5.21,0,0,1,1.12,3,3.77,3.77,0,0,1-1.44,2.75,4.18,4.18,0,0,1-3,.6,4.14,4.14,0,0,0,3-.65,3.69,3.69,0,0,0,1.34-2.71A5,5,0,0,0,68,254.06a9.42,9.42,0,0,0-2.25-2.16,6,6,0,0,0-2.87-1.12,2.79,2.79,0,0,0-2.61,1.28,4.84,4.84,0,0,0-.61,1.42,6,6,0,0,0-.29,1.52,3.46,3.46,0,0,0,1.12,2.74,6,6,0,0,0,2.74,1.38,9.94,9.94,0,0,0,1.54.28,1.91,1.91,0,0,0,1.44-.22,2.66,2.66,0,0,0,.78-2.77,4.73,4.73,0,0,0-1.76-2.49,3.61,3.61,0,0,0-2.89-.78,1.86,1.86,0,0,0-1.26.78,1.56,1.56,0,0,0,0,1.47,3.36,3.36,0,0,0,.37.67,7.31,7.31,0,0,0,.52.59,3.6,3.6,0,0,0,1.26.9.67.67,0,0,0,.7-.16,1.81,1.81,0,0,0,.31-.71A5.89,5.89,0,0,0,64.29,255.11Z"/>
          <path class="cls-16" d="M76.14,218.56A75.93,75.93,0,0,1,74,226.8a72.69,72.69,0,0,1-3,8,42,42,0,0,1-4.24,7.39,16.7,16.7,0,0,1-6.38,5.54,13.24,13.24,0,0,0,3.37-2.53,23.23,23.23,0,0,0,2.7-3.23,45.4,45.4,0,0,0,4.1-7.38,83.47,83.47,0,0,0,3.1-7.87C74.58,224,75.42,221.3,76.14,218.56Z"/>
          <path class="cls-16" d="M79.72,222.75a44.72,44.72,0,0,1-.67,7.82,42.89,42.89,0,0,1-2,7.61,27.33,27.33,0,0,1-3.76,6.92A19.89,19.89,0,0,1,70.55,248a17.21,17.21,0,0,1-3.32,2.1A18,18,0,0,0,73,244.87a28.15,28.15,0,0,0,3.6-6.87,46.12,46.12,0,0,0,2.11-7.5c.26-1.28.47-2.56.64-3.86S79.65,224.05,79.72,222.75Z"/>
          <path class="cls-16" d="M79,218.4l1-1.5.17-.25-.08.29a152.15,152.15,0,0,1-5,15.55c-1,2.53-2,5.06-3.27,7.49a32.86,32.86,0,0,1-2.05,3.54,8.66,8.66,0,0,1-2.85,2.89,8.48,8.48,0,0,0,2.66-3,37.36,37.36,0,0,0,1.91-3.59c1.14-2.45,2.19-5,3.15-7.5,1.94-5.07,3.66-10.23,5.36-15.4l.09.05Z"/>
          <path class="cls-16" d="M81.55,232.75c-.61,1.73-1.32,3.42-2.06,5.09s-1.55,3.32-2.39,4.95-1.76,3.22-2.77,4.75A29,29,0,0,1,71,251.89a45.5,45.5,0,0,0,3-4.55c.94-1.56,1.82-3.16,2.66-4.78s1.67-3.24,2.49-4.88Z"/>
        </g>
        <g>
          <path class="cls-24" d="M81.91,216.92a100.5,100.5,0,0,0,0,16.85,102.09,102.09,0,0,0,6.55,28.33,9.77,9.77,0,0,1,16-5.1c-8-26.24-9.09-31.26-7.83-38.95C87.54,213.6,87,214,81.91,216.92Z"/>
          <path class="cls-25" d="M88.46,259.91c.4-2.89,4.05-5.13,7.2-5.72.6-.11,6.13-1.13,8.47,2.44a6.82,6.82,0,0,1,.73,5.1,8.73,8.73,0,0,1-2.19,2.92,9.37,9.37,0,0,1-5.83,2.18A8.52,8.52,0,0,1,91,265.38a6.32,6.32,0,0,1-2.36-3.26A6,6,0,0,1,88.46,259.91Z"/>
          <g>
            <path class="cls-14" d="M97.65,259.86s-4.5,4-4.06,1,7-5.26,5.74-1-8,5.76-8,2.69,2.7-6.16,6.08-6.92,7.14,3.74,3.23,6.48-8.64,4.28-10,1.21"/>
            <path class="cls-15" d="M97.65,259.86a12.28,12.28,0,0,1-2.92,2.05,1.21,1.21,0,0,1-.92.08.87.87,0,0,1-.34-.86,3,3,0,0,1,.68-1.69,5.82,5.82,0,0,1,3-1.94,2.46,2.46,0,0,1,1.86.12,1.35,1.35,0,0,1,.58.82,2.39,2.39,0,0,1,0,1,5.66,5.66,0,0,1-1.81,3.14,7.26,7.26,0,0,1-3.22,1.69,4.48,4.48,0,0,1-1.86.1,1.83,1.83,0,0,1-1.55-1.16,5.56,5.56,0,0,1,.68-3.62,8.37,8.37,0,0,1,5.76-4.18,4.36,4.36,0,0,1,3.47,1.09,4.69,4.69,0,0,1,1.11,1.49,3.48,3.48,0,0,1,.25,1.86,4.43,4.43,0,0,1-2.26,2.79A20.08,20.08,0,0,1,97,264.29a9.38,9.38,0,0,1-3.49.78,3.73,3.73,0,0,1-1.74-.42,3,3,0,0,1-1.15-1.33,2.85,2.85,0,0,0,1.18,1.27,3.48,3.48,0,0,0,1.71.35,9.1,9.1,0,0,0,3.39-.88,19.46,19.46,0,0,0,3.09-1.72,4.09,4.09,0,0,0,2.06-2.59,3.14,3.14,0,0,0-.25-1.63,4.55,4.55,0,0,0-1-1.34,4,4,0,0,0-3.13-1,7.91,7.91,0,0,0-5.38,4,7,7,0,0,0-.61,1.6,3.78,3.78,0,0,0-.06,1.63,1.35,1.35,0,0,0,1.18.85,4.11,4.11,0,0,0,1.67-.08,6.21,6.21,0,0,0,4.77-4.46,1.3,1.3,0,0,0-.41-1.41,2.18,2.18,0,0,0-1.6-.12,5.65,5.65,0,0,0-2.91,1.79,2.73,2.73,0,0,0-.68,1.55c0,.27,0,.59.22.71a1.1,1.1,0,0,0,.81-.05A12.5,12.5,0,0,0,97.65,259.86Z"/>
          </g>
          <path class="cls-16" d="M94.12,218.56a61,61,0,0,0,.08,9,66.17,66.17,0,0,0,1.23,8.87c.26,1.47.66,2.91,1,4.36s.82,2.87,1.34,4.27a67.29,67.29,0,0,0,3.48,8.27,52.61,52.61,0,0,1-3.84-8.14,55.56,55.56,0,0,1-2.48-8.66,60,60,0,0,1-1.12-8.95A48.21,48.21,0,0,1,94.12,218.56Z"/>
          <path class="cls-16" d="M83.32,218.56c0,1.58,0,3.16,0,4.74s.1,3.15.2,4.73c.21,3.15.47,6.29.94,9.41a76.59,76.59,0,0,0,1.89,9.25,46.6,46.6,0,0,0,3.39,8.81A39.73,39.73,0,0,1,86,246.8a68.63,68.63,0,0,1-2-9.29,93.84,93.84,0,0,1-.83-9.46A88.31,88.31,0,0,1,83.32,218.56Z"/>
          <path class="cls-16" d="M87.77,216.19q-.33,3.08-.54,6.15c-.14,2-.26,4.1-.25,6.15a50.43,50.43,0,0,0,.21,6.15,25.31,25.31,0,0,0,1.2,6,20.18,20.18,0,0,1-1.58-6,44.2,44.2,0,0,1-.33-6.19c0-2.07.15-4.13.37-6.19S87.35,218.21,87.77,216.19Z"/>
          <path class="cls-16" d="M90.29,228.21c-.09,1.82-.09,3.63,0,5.43a54.11,54.11,0,0,0,.46,5.4,38.05,38.05,0,0,0,1.09,5.28,26.86,26.86,0,0,0,2.06,5,20.41,20.41,0,0,1-2.43-4.88,34.71,34.71,0,0,1-1.22-5.34,43.22,43.22,0,0,1-.34-5.45A36.69,36.69,0,0,1,90.29,228.21Z"/>
          <path class="cls-16" d="M91.05,217.87a7,7,0,0,0,.4.7,2.25,2.25,0,0,0,.24.3c.09.1.2.13.2.08l.16,0c-.09,2.91-.12,5.81-.06,8.71,0,1.46.11,2.9.17,4.35s.22,2.9.37,4.35a36.74,36.74,0,0,1-.73-4.32c-.17-1.45-.24-2.91-.29-4.36a60.68,60.68,0,0,1,.37-8.74l.17,0a.22.22,0,0,1-.28.09.54.54,0,0,1-.18-.15,1.86,1.86,0,0,1-.22-.35A4.86,4.86,0,0,1,91.05,217.87Z"/>
        </g>
        <g>
          <path class="cls-14" d="M95.39,265.38a8.33,8.33,0,0,0,8.4-5.1"/>
          <path class="cls-15" d="M95.39,265.38a10.3,10.3,0,0,0,4.92-1.38,8.42,8.42,0,0,0,2-1.62,12.37,12.37,0,0,0,1.52-2.1,10.77,10.77,0,0,1-.5,1.22,7.74,7.74,0,0,1-.72,1.13,6.93,6.93,0,0,1-2,1.8A7.53,7.53,0,0,1,95.39,265.38Z"/>
        </g>
        <g class="cls-26">
          <g>
            <path class="cls-27" d="M66.94,164.8s-6.19,12.43,0,27.92-3.17,3.06-3.17,3.06S55.87,176.06,66.94,164.8Z"/>
            <path class="cls-28" d="M77.07,137.07s-20.54,8.8-5.71,25.84-2.61,19.47-2.61,19.47,16.46-6.94-.67-20.78S77.07,137.07,77.07,137.07Z"/>
            <path class="cls-29" d="M92.68,124.19s-17.23,13.56-2.91,30.15,0,31.28,0,31.28,7.12-20.13-1.5-29S78.83,133,92.68,124.19Z"/>
            <path class="cls-30" d="M110.76,141.82s-12.6,6.08-3.12,23-8.45,35.13-8.45,35.13,12.82-12.79,8.45-25S96.26,148.32,110.76,141.82Z"/>
            <path class="cls-31" d="M67.84,229.33a16.85,16.85,0,0,1-6.93-7c-3-6.18-.23-11.82,0-19,.16-5.14-.93-12.76-7.33-22.37A12.45,12.45,0,0,1,59.5,183c5.26,3.78,5.53,11.17,6.55,11s-.26-7.26,2.19-15.65c1.28-4.36,2.75-6.3,4.08-9.11,2.36-5,4.33-12.91,2-25.27a51.59,51.59,0,0,1,5.3,26.92A50.09,50.09,0,0,1,76.39,185c.67-.17,8.09-2.09,10.74-9.3a15.22,15.22,0,0,0,.07-9.87s8.09,4.57,7,25.33a58.26,58.26,0,0,1,2.56-14.45c1.65-5.27,4.57-11.91,5.7-11.6s.09,7.69,0,8.29c-1.28,8.65-4.64,14.61-4.07,14.91s2.47-4.2,7.33-8.29a28.62,28.62,0,0,1,4.89-3.31c-.71.57-8.34,6.89-7.33,15.74a15.27,15.27,0,0,0,2.44,6.63,6.55,6.55,0,0,0,4.07-.83c3.58-2.18,4.82-8.59,2.45-15.74a38.43,38.43,0,0,1,4.07,19.88c-.26,3.69-1.06,12.92-8.15,20.71a30,30,0,0,1-13,8.29,45.47,45.47,0,0,1-16.29.82A44.32,44.32,0,0,1,67.84,229.33Z"/>
            <path class="cls-32" d="M71.5,225.61A14,14,0,0,1,65,219a14.69,14.69,0,0,1,0-11.6,18.58,18.58,0,0,0,0-5.8c-.34-2.21-1-4-.63-4.2.25-.14.81.41,1.55,1.3a30.37,30.37,0,0,1,4,6.22,47.24,47.24,0,0,1,3.26-29,25.73,25.73,0,0,0,2.44,13.26,24.44,24.44,0,0,0,3.26,5,19.63,19.63,0,0,0,.82-4.14,22.32,22.32,0,0,0,0-3.32,44.79,44.79,0,0,0-.82-5s6.52,8.29,4.89,17.4a11.87,11.87,0,0,0,4.07-5.8c1.17-4,.19-9.7,0-10.77a1.58,1.58,0,0,1,0-.44c.38-.15,6.25,14.16,5.62,20.67a19.24,19.24,0,0,1,1.18-3.9c.11-.27.52-1.3,1.19-2.6A35.37,35.37,0,0,1,100,190a38.15,38.15,0,0,0,0,16.16c0,.81-.09,2.06-.09,2.06s1.69-5.8,3.33-7.46c.72,3.84,1.55,11.68-2.44,19.48-1.37,2.67-3.07,6-6.84,8.12-6.87,3.86-15.24.64-17.58-.26A27.27,27.27,0,0,1,71.5,225.61Z"/>
            <path class="cls-33" d="M72.32,219.81a7.08,7.08,0,0,1-2.45-2.49c-1.92-3.34-.42-7.45,0-7.45.19,0,.18.84,1,1.86a4.27,4.27,0,0,0,.61.62,4,4,0,0,0,1.76.83,20.77,20.77,0,0,1-.88-5.9,16.91,16.91,0,0,1,4-11.5c-.36,1.12-1.81,5.94-.82,9.95A8.15,8.15,0,0,0,77.2,209c.92,1.07,2.19,1.89,2.45,1.66s-1.18-1.61-1.63-4.15a10.8,10.8,0,0,1,0-3.31,28.46,28.46,0,0,1,.81-4.14h0c.81,2.43,1.31,4.42,1.63,5.8s.43,2,.82,3.31a27.49,27.49,0,0,0,1.62,4.14c-.22-8.61-.14-10.76,0-10.77s.48,2.67,1.63,6.63c.75,2.55,1.16,3.29,1.63,3.31.84,0,1.55-2.21,1.63-2.48.56-1.84.09-2.54,0-6.63v-4.14h0s4.89,8.28,2.45,16.57a15.58,15.58,0,0,0,1.62-2.49,15.8,15.8,0,0,0,1.63-5,10.94,10.94,0,0,1,.82,5,10.79,10.79,0,0,1-1.63,5,6.7,6.7,0,0,0,2.44-2.48,6.92,6.92,0,0,0,.82-4.14,6.2,6.2,0,0,1,.75,5.29,5.09,5.09,0,0,1-1.57,2.16l3.26-2.48a24.69,24.69,0,0,1-7.33,7.45c-3,1.92-6.39,4.15-10.59,3.32C75.47,225.44,72.86,220.82,72.32,219.81Z"/>
          </g>
        </g>
      </g>
      <g>
        <polygon class="cls-34" points="148.06 149.6 154.09 149.6 154.09 160.06 147.79 160.06 148.06 149.6"/>
        <polygon class="cls-35" points="154.09 149.6 160.91 129.72 160.91 126.68 154.09 142.37 154.09 149.6"/>
        <path class="cls-36" d="M154.09,160.06h6.82V149.6l5.65-19.88s-4.43-3.53-5.65,0l-6.82,19.88Z"/>
        <polygon class="cls-37" points="148.06 144.1 148.06 149.6 154.09 149.6 154.09 142.37 148.06 142.37 148.06 144.1"/>
        <path class="cls-37" d="M160.91,126.68s2.7-2.81,5.65.67v2.37s-4.85-3.8-5.65,0Z"/>
      </g>
      <g>
        <polygon class="cls-34" points="25.65 149.14 19.61 149.14 19.61 159.59 25.91 159.59 25.65 149.14"/>
        <polygon class="cls-35" points="19.61 149.14 12.79 129.25 12.79 126.21 19.61 141.9 19.61 149.14"/>
        <path class="cls-36" d="M19.61,159.59H12.79V149.14L7.15,129.25s4.43-3.53,5.64,0l6.82,19.89Z"/>
        <polygon class="cls-37" points="25.65 143.63 25.65 149.14 19.61 149.14 19.61 141.9 25.65 141.9 25.65 143.63"/>
        <path class="cls-37" d="M12.79,126.21s-2.69-2.81-5.64.67v2.37s4.85-3.8,5.64,0Z"/>
      </g>
      <path class="cls-5" d="M152,218.56s-2.82,31.92,0,56c2.41,24,9.25,74.32,9.25,74.32s-3.27,1.2-5.25,0-8-71.18-8-71.18-2.42-26.14-2.42-34.19V218.56Z"/>
      <path class="cls-38" d="M16.55,112.81l0,4.62a9.21,9.21,0,0,0,2.94,2.94c.55-5.12,0-4.28,0-4.28A7.69,7.69,0,0,1,16.55,112.81Z"/>
      <path class="cls-38" d="M156.5,112.17l0,4.78s0,1.76-3.12,3.56c.81-5.28.73-4.72.73-4.72A4.22,4.22,0,0,0,156.5,112.17Z"/>
      <g>
        <path class="cls-39" d="M47.2,119.5c-2.16-14.18,5.49-15.69,6-23.27s-1.36-9.75-1.36-9.75,5.4,3.14,4,11c-1.1,6.2-2.51,8.67-1.34,9s6.91-9.81,4.44-16c-5.2-12.89,1.61-20,1.61-20S58,79.81,62.14,86.35,63.67,102,66,98.85s-4.71-14.64-1.31-25.62a41.27,41.27,0,0,1,9.94-17S69.73,67,74.43,63.85a54.27,54.27,0,0,0,10.11-8.44c.28-.31.56-.63.82-1,2.41-3,4.51-6.69,3.81-11.05q-.06-.49-.15-1c-.11-.65-.24-1.29-.38-1.9q-.18-.66-.39-1.32c-2.28-7.43-6-14.37-4.71-19C85.1,14.67,91.9,9.44,91.9,9.44s-7.06,6.27-5.75,13.33,11.76,11.5,10.46,23.79S86.67,60.68,83.8,70.35c-1.26,4.23.53,5.36,3.06,4.86A8.67,8.67,0,0,0,88,74.89c5-1.49,7.64-6.72,8.16-11.66,0-.43.09-.84.12-1.25a33.66,33.66,0,0,1,1.39-8.1,32.24,32.24,0,0,1,4.45-8.1s-2.09,3.92-1,11.5,2.94,8.27,1,14.9-4.67,19.57-1.64,20.58c2.36.78-.06-7,2.62-15.17a31.31,31.31,0,0,1,6.08-10.9s-3.93,6.8-1.57,13.6,6.79,6.79,9.15,15.42c0,0,3.3,0,1-11.76a71.25,71.25,0,0,1,5.32,21.6c0,.3,0,.6,0,.91.1,4.47-1.61,13.23-1.61,13.23S78.86,125.16,47.2,119.5Z"/>
        <path class="cls-40" d="M48.21,119.56a19,19,0,0,1-.29-2.82c-.17-7.24,2.44-10.64,4.36-14.21,0,0-1.22,8.85,2.18,9s6-9.91,6.37-14c.43-5.41-.83-6.46-1.75-9.86a11,11,0,0,1-.34-5.4,24.16,24.16,0,0,0,2.61,6.45c.7,1,2.23,8.15,1.75,11.16-.74,4.61.09,5.6,2.52,5.41,9.68-.79,1.37-15.13,1-24.86-.35-10.63,3.75-15,3.75-15s0,4.4,3,3.48S88.1,57.05,90,51.16C93.09,41.57,89.6,35,89.6,35s6.28,10.12,1.66,19-19.62,21-9,25c7.75,2.89,13.87-4.84,15.3-10.47a43.49,43.49,0,0,0,1.36-11s1.91,5.93,1.52,10.38C100,72.65,89.8,95.28,99.37,99.39c4.27,1.83,5.58-2,5.93-7,.47-6.78-1.74-7.37-.7-12.21,0,0-.87,3.4,4.89,8.9s4.1,16.13,4.1,16.13,4.7-6.1,5.66-7.24c.21.67-1.45,22.38-1.45,22.38S80.45,124.67,48.21,119.56Z"/>
        <path class="cls-41" d="M78.53,119.62c.4,1-4.36-9.59-4-19s-2.44-5.76-2.62-16,3.84-14.3,3.84-14.3-4.19,8.9-1.57,16S79.4,94.85,78,99.74A30,30,0,0,0,78.53,119.62Z"/>
        <path class="cls-42" d="M92.83,80.38c-.35.52-8.37,8.72-6.63,17.61S92,116.3,89.87,122.93c0,0,4.88-12.56.35-21.8S92.83,80.38,92.83,80.38Z"/>
      </g>
      <polygon class="cls-10" points="44.1 125.61 43.09 243.77 25 235.72 24.98 122.86 44.1 125.61"/>
      <path class="cls-10" d="M25,235.72s-5.16,2.63-3.92,4.5c0,2.1,3.79,3.9,5.15,4.1l.82-7.69Z"/>
      <path class="cls-43" d="M25,133.92c9.18,1.83,19,3.36,29.35,4.42a318.55,318.55,0,0,0,93.71-4.42v-10.2S86.91,134.12,25,122.86C25,132.51,25,133.92,25,133.92Z"/>
      <polygon class="cls-5" points="28.82 220.02 14.34 355.95 21.58 355.95 35.65 220.02 28.82 220.02"/>
      <polygon class="cls-10" points="33.3 239.59 42.68 241.87 42.66 243.8 32.98 243.8 33.3 239.59"/>
      <path class="cls-6" d="M21,239.16v4.64l2.42-.65A4.06,4.06,0,0,1,21,239.16Z"/>
    </g>
  </g>
</svg>
