<svg xmlns="http://www.w3.org/2000/svg" width="197.67" height="185.4" viewBox="0 0 197.67 185.4">
  <defs>
    <style>
      .cls-1 {
        isolation: isolate;
      }

      .cls-2, .cls-3 {
        fill: none;
        stroke-linejoin: round;
        stroke-width: 15px;
      }

      .cls-2 {
        stroke: #000;
      }

      .cls-2, .cls-5 {
        opacity: 0.3;
      }

      .cls-3 {
        stroke: #fff;
      }

      .cls-4 {
        fill: #a4a7a7;
      }

      .cls-4, .cls-7, .cls-8 {
        stroke: #49463e;
        stroke-miterlimit: 10;
      }

      .cls-5 {
        fill: #fff;
      }

      .cls-6 {
        fill: #c5c7c9;
        mix-blend-mode: multiply;
      }

      .cls-7 {
        fill: #b26024;
      }

      .cls-8 {
        fill: #284d5e;
      }
    </style>
  </defs>
  <g class="cls-1">
    <g id="Layer_1" data-name="Layer 1">
      <g>
        <path class="cls-2" d="M182.93,57.27c4.27-5.31,7.3-10.56,5-12.91h0a4.86,4.86,0,0,0-.42-.39l0,0a2.82,2.82,0,0,0-.4-.27l0,0a2.1,2.1,0,0,0-.37-.18l-.06,0a2.25,2.25,0,0,0-.35-.09h-.07l-.33,0h-.38l-.1,0-.28,0-.14,0-.13,0c-1,.26-2,.71-3.19-.21h0q-.17-.13-.33-.3c-1.66-1.68-.26-5.59-3.76-9l-8.49-8.49c-3.4-3.51-7.31-2.1-9-3.76-2.4-2.38,1.31-4-1.44-6.66-3.42-3.28-13,4.61-19.9,11.27l-5.8,5.8h0l-16,16,3.77,3.76L12.93,159.66l7.69,14.61h0l0,.07c1.27-.28,2,.66,3.5-.12,1.7-.9.94-2.34,2.64-3.25s2.47.53,4.18-.37.93-2.35,2.64-3.26,2.47.53,4.17-.37.94-2.35,2.65-3.25,2.46.53,4.17-.38.94-2.34,2.64-3.25,2.47.53,4.17-.38.94-2.34,2.65-3.25,2.47.53,4.17-.37.94-2.35,2.64-3.26,2.47.54,4.18-.37.94-2.35,2.64-3.25,2.47.53,4.18-.38.93-2.34,2.64-3.25,2.47.53,4.17-.38.94-2.34,2.65-3.25,2.47.53,4.17-.37.94-2.35,2.64-3.26,2.47.53,4.18-.37.94-2.35,2.64-3.26,2.47.54,4.18-.37.94-2.35,2.64-3.25,2.47.53,4.17-.38.94-2.34,2.65-3.25,2.46.53,4.17-.38.94-2.34,2.64-3.25,2.47.53,4.17-.37.94-2.35,2.65-3.26,2.47.54,4.17-.37.94-2.35,2.65-3.25,2.47.53,4.17-.38.94-2.34,2.65-3.25,2.47.53,4.17-.38.94-2.34,2.64-3.25,2.48.53,4.18-.38.94-2.34,2.64-3.25,2.47.53,4.18-.38.94-2.34,2.64-3.25,2.47.53,4.18-.37.94-2.35,2.64-3.26,2.47.53,4.18-.37,1-2.19,2.38-3.1l-3.13-20.55h0L176.7,64.27l.63-.66c1.87-2,3.8-4.13,5.54-6.27Z"/>
        <path class="cls-3" d="M178.93,54.27c4.27-5.31,7.3-10.56,5-12.91h0a4.86,4.86,0,0,0-.42-.39l0,0a2.82,2.82,0,0,0-.4-.27l0,0a2.1,2.1,0,0,0-.37-.18l-.06,0a2.25,2.25,0,0,0-.35-.09h-.07l-.33,0h-.38l-.1,0-.28,0-.14,0-.13,0c-1,.26-2,.71-3.19-.21h0q-.17-.13-.33-.3c-1.66-1.68-.26-5.59-3.76-9l-8.49-8.49c-3.4-3.51-7.31-2.1-9-3.76-2.4-2.38,1.31-4-1.44-6.66-3.42-3.28-13,4.61-19.9,11.27l-5.8,5.8h0l-16,16,3.77,3.76L8.93,156.66l7.69,14.61h0l0,.07c1.27-.28,2,.66,3.5-.12,1.7-.9.94-2.34,2.64-3.25s2.47.53,4.18-.37.93-2.35,2.64-3.26,2.47.53,4.17-.37.94-2.35,2.65-3.25,2.46.53,4.17-.38.94-2.34,2.64-3.25,2.47.53,4.17-.38.94-2.34,2.65-3.25,2.47.53,4.17-.37.94-2.35,2.64-3.26,2.47.54,4.18-.37.94-2.35,2.64-3.25,2.47.53,4.18-.38.93-2.34,2.64-3.25,2.47.53,4.17-.38.94-2.34,2.65-3.25,2.47.53,4.17-.37.94-2.35,2.64-3.26,2.47.53,4.18-.37.94-2.35,2.64-3.26,2.47.54,4.18-.37.94-2.35,2.64-3.25,2.47.53,4.17-.38.94-2.34,2.65-3.25,2.46.53,4.17-.38.94-2.34,2.64-3.25,2.47.53,4.17-.37.94-2.35,2.65-3.26,2.47.54,4.17-.37.94-2.35,2.65-3.25,2.47.53,4.17-.38.94-2.34,2.65-3.25,2.47.53,4.17-.38.94-2.34,2.64-3.25,2.48.53,4.18-.38.94-2.34,2.64-3.25,2.47.53,4.18-.38.94-2.34,2.64-3.25,2.47.53,4.18-.37.94-2.35,2.64-3.26,2.47.53,4.18-.37,1-2.19,2.38-3.1l-3.13-20.55h0L172.7,61.27l.63-.66c1.87-2,3.8-4.13,5.54-6.27Z"/>
        <g id="saw">
          <path class="cls-4" d="M8.93,156.66l7.73,14.68c1.27-.28,2,.66,3.5-.12,1.7-.9.94-2.34,2.64-3.25s2.47.53,4.18-.37.93-2.35,2.64-3.26,2.47.53,4.17-.37.94-2.35,2.65-3.25,2.46.53,4.17-.38.94-2.34,2.64-3.25,2.47.53,4.17-.38.94-2.34,2.65-3.25,2.47.53,4.17-.37.94-2.35,2.64-3.26,2.47.54,4.18-.37.94-2.35,2.64-3.25,2.47.53,4.18-.38.93-2.34,2.64-3.25,2.47.53,4.17-.38.94-2.34,2.65-3.25,2.47.53,4.17-.37.94-2.35,2.64-3.26,2.47.53,4.18-.37.94-2.35,2.64-3.26,2.47.54,4.18-.37.94-2.35,2.64-3.25,2.47.53,4.17-.38.94-2.34,2.65-3.25,2.47.53,4.17-.38.94-2.34,2.64-3.25,2.47.53,4.17-.37.94-2.35,2.65-3.26,2.47.54,4.17-.37.94-2.35,2.65-3.25,2.47.53,4.17-.38.94-2.34,2.65-3.25,2.47.53,4.17-.38.94-2.34,2.64-3.25,2.48.53,4.18-.38.94-2.34,2.64-3.25,2.47.53,4.18-.38.94-2.34,2.64-3.25,2.47.53,4.18-.37.94-2.35,2.64-3.26,2.47.53,4.18-.37,1-2.19,2.38-3.1l-3.13-20.55L128.39,37.2Z"/>
          <path class="cls-5" d="M126.53,39.06l29,29L154,81.61,16.23,165.67a3.22,3.22,0,0,1-2.5.1l2.93,5.57c1.27-.28,2,.66,3.5-.12,1.7-.9.94-2.34,2.64-3.25s2.47.53,4.18-.37.93-2.35,2.64-3.26,2.47.53,4.17-.37.94-2.35,2.65-3.25,2.46.53,4.17-.38.94-2.34,2.64-3.25,2.47.53,4.17-.38.94-2.34,2.65-3.25,2.47.53,4.17-.37.94-2.35,2.64-3.26,2.47.54,4.18-.37.94-2.35,2.64-3.25,2.47.53,4.18-.38.93-2.34,2.64-3.25,2.47.53,4.17-.38.94-2.34,2.65-3.25,2.47.53,4.17-.37.94-2.35,2.64-3.26,2.47.53,4.18-.37.94-2.35,2.64-3.26,2.47.54,4.18-.37.94-2.35,2.64-3.25,2.47.53,4.17-.38.94-2.34,2.65-3.25,2.47.53,4.17-.38.94-2.34,2.64-3.25,2.47.53,4.17-.37.94-2.35,2.65-3.26,2.47.54,4.17-.37.94-2.35,2.65-3.25,2.47.53,4.17-.38.94-2.34,2.65-3.25,2.47.53,4.17-.38.94-2.34,2.64-3.25,2.48.53,4.18-.38.94-2.34,2.64-3.25,2.47.53,4.18-.38.94-2.34,2.64-3.25,2.47.53,4.18-.37.94-2.35,2.64-3.26,2.47.53,4.18-.37,1-2.19,2.38-3.1l-3.13-20.55L128.39,37.2Z"/>
          <path class="cls-6" d="M117.24,48.35,8.93,156.66l7.69,14.61C22.31,149.85,119.7,50.81,119.7,50.81Z"/>
          <g>
            <path class="cls-7" d="M165.07,22.46c-3.4-3.51-7.31-2.1-9-3.76-2.4-2.38,1.31-4-1.44-6.66-3.42-3.28-13,4.61-19.9,11.27L113,45.11l23.22,23.21C150.9,83.06,161,73,161,73L172.7,61.27c6.66-6.94,14.55-16.49,11.27-19.91-2.63-2.74-4.28,1-6.65-1.43-1.66-1.68-.26-5.59-3.76-9Zm5.34,22.17a5.36,5.36,0,0,1-7.58,7.59l-19-19a5.37,5.37,0,1,1,7.59-7.59Z"/>
            <path class="cls-8" d="M165.07,22.46c-3.4-3.51-7.31-2.1-9-3.76-2.4-2.38,1.31-4-1.44-6.66-3.42-3.28-13,4.61-19.9,11.27l-5.8,5.8s16,28.53,25.93,33.34c6.84,3.31,19.71-.4,29.09-21.09-2.63-2.74-4.28,1-6.65-1.43-1.66-1.68-.26-5.59-3.76-9Zm5.34,22.17a5.36,5.36,0,0,1-7.58,7.59l-19-19a5.37,5.37,0,1,1,7.59-7.59Z"/>
            <path class="cls-6" d="M177.65,40.23l-6.1,6.09a5.36,5.36,0,0,1-1.13,5.9c-1.6,1.6-3.78,1.05-5.9,1.14-6.62,17.66-28.35,15-28.35,15C150.9,83.06,161,73,161,73L172.7,61.27c6.66-6.94,14.55-16.49,11.27-19.91C181.46,38.75,179.85,42,177.65,40.23Z"/>
          </g>
        </g>
      </g>
    </g>
  </g>
</svg>
