<svg id="Layer_1" data-name="Layer 1" xmlns="http://www.w3.org/2000/svg" width="385.28" height="171.83" viewBox="0 0 385.28 171.83">
  <defs>
    <style>
      .cls-1 {
        stroke: #000;
        stroke-miterlimit: 10;
        stroke-width: 10px;
        opacity: 0.5;
      }

      .cls-2 {
        fill: none;
        stroke: #fffa4d;
        stroke-linejoin: round;
        stroke-width: 20px;
      }

      .cls-3 {
        fill: #f69757;
      }

      .cls-4 {
        fill: #a46032;
      }

      .cls-5 {
        fill: #de8b51;
      }

      .cls-6 {
        fill: #92562c;
      }

      .cls-7 {
        fill: #211f1f;
      }

      .cls-8 {
        fill: #fff;
      }

      .cls-9 {
        fill: #60412e;
      }

      .cls-10 {
        fill: #785134;
      }
    </style>
  </defs>
  <g>
    <path class="cls-1" d="M378.05,48.69c-.19-2.23-2.45-2.85-3.38-3-1.23-2.23-3.27-4.73-7.33-7.84-4.36-3.33-8.12-6.55-11.69-9.32-.51-.4-1-.79-1.52-1.16C352.5,26.13,350.9,25,349.32,24c-6.4-4.08-12.63-6.18-20.6-4.92-3.27-1.75-6.83-2.85-8.61-1.89s-2.21,3-2,5.44c-.54.33-1.06.68-1.57,1.06-6.05,3.19-16.36,9.13-25,16.59-5.74,5-9.67,6.54-14.34,5.49-2.69-.6-5.62-2.06-9.28-4.24-4.45-2.64-10-6.35-17.46-10.84C226.23,16.12,155.75,15.58,139,33.59,125.6,47.9,111.84,69.32,111.76,88.13v.22c0,.14,0,.28,0,.42-2.12,0-7.25-.75-6.46,2.68.3,1.32,4,4.54,3,5.49-.67.75-3.18.17-4,.17-2,0-4.58-.54-6.37.47,0,1.24.38,2.66-.08,3.84-.72,1.9-2.63,1.24-4.25,1.24-1.92,0-3.92-.12-5.84,0-1.56.06-1.82.53-1.8,2s.6,2.82-1.16,3.48a16.79,16.79,0,0,1-4.25.16c-2.8,0-5.6,0-8.4,0-1.8,0-3.6,0-5.41-.06a1.15,1.15,0,0,0-1.45.67c-1,1.53.29,3.15,1.31,4.14-.53,1.33-1.7,1.58-3.11,1.92a21.76,21.76,0,0,1-5.2.52c-2.25,0-4.52-.16-6.65-.08a35.72,35.72,0,0,0-8.89,1.43c-1.6.48-3.94.77-5.33,1.74.61,1,2,1.14,2.63,2.08a2.55,2.55,0,0,1-.41,2.67c-.62.5-1.59.16-2.35.54a17.57,17.57,0,0,0-2.54,1.63c-1.83,1.56-3.5,3.28-5.92,3.78a21.15,21.15,0,0,0-3.25.88c-2.45.82-5.55,1.29-7.53,3,.47,1,2.34,2.24,1.75,3.57-.47,1-1.86,1.16-2.5,2.19-1.26,2,.48,1.7,1.1,3.28a9.45,9.45,0,0,1,0,3.48c-.08,1-.87,2.47-.46,3.52.6,1.48,2.2,1,3.42,1.39a.38.38,0,0,1,.19.09,13.89,13.89,0,0,0,5.49,4.22c18.5,8.65,62.92,14.79,53,6.16-8.25-7.2-21.62-12.71-25.83-14.3l-.14-.07c-.25-.1-.5-.16-.75-.27l-.41-.16s-3.74-7.39,13-9.33a76.92,76.92,0,0,1,9.16-.47c13.57,0,27.05-6.67,37.14-13.37,2.42-1.6,4.64-3.19,6.62-4.7,4.17,9.36,11.4,16.54,22.53,16.54,14.31,0,20.54-.39,25.21-1.31s10.27,3.38,7.46,0q-.33-.42-.66-.78l1.29-.23c4.67-.92,10.27,3.38,7.47,0s-4.36-4.61-10.05-4.61-5.82-4.91-2.39-9.21c2.69-3.39,12.57-15.4,14.62-26,11.19-1.54,59.73,8,70.48,13.11a30.62,30.62,0,0,0,5.68,1.92,68.83,68.83,0,0,0,10.12,24.11c4.7,6.74,14.53,5.23,18.64,4a25.12,25.12,0,0,0,4.6-.26c2.32.36,4.1,1.11,3.9.15a4.69,4.69,0,0,0-.32-.93l.29-.08c3.87-1.2,8.44,1.51,8.12,0a8,8,0,0,0-7.07-5.82c-4.59-.22-8.95-8.83-5.08-15.17,2-3.22,4.55-7.6,6.62-11.15a20.94,20.94,0,0,0,6.11-6.15c8.3-13.22,16.44-23.7,25.59-32.12.44,0,.86,0,1.31,0,0,0,28.5,2.49,36.84-4.31,2.94-2.39,5-4.54,5.83-6.79C377.31,52.72,378.21,50.65,378.05,48.69ZM319.48,59.4h0Z"/>
    <path class="cls-2" d="M372.94,43.58c-.18-2.22-2.45-2.85-3.38-3-1.23-2.23-3.27-4.73-7.33-7.83-4.36-3.34-8.12-6.56-11.68-9.33L349,22.24c-1.63-1.22-3.23-2.35-4.8-3.36-6.41-4.08-12.63-6.18-20.6-4.92-3.28-1.75-6.83-2.85-8.62-1.89s-2.21,3-2,5.44c-.54.33-1.07.68-1.58,1.06-6.05,3.19-16.36,9.13-25,16.59-5.74,5-9.67,6.54-14.34,5.49-2.68-.59-5.62-2.06-9.27-4.24-4.46-2.64-10-6.34-17.46-10.83C221.12,11,150.64,10.47,133.84,28.48,120.49,42.79,106.73,64.22,106.65,83v.21c0,.14,0,.28,0,.43-2.12-.06-7.25-.76-6.45,2.68.29,1.31,3.94,4.53,3,5.49-.68.74-3.19.16-4.06.16-2,0-4.58-.54-6.37.47,0,1.25.38,2.66-.08,3.84-.72,1.9-2.62,1.24-4.24,1.24-1.93,0-3.92-.12-5.85,0-1.56.07-1.82.54-1.8,2s.6,2.82-1.16,3.48a17.27,17.27,0,0,1-4.25.17c-2.79,0-5.6,0-8.4,0-1.8,0-3.59,0-5.4-.07a1.18,1.18,0,0,0-1.46.67c-.95,1.53.3,3.15,1.31,4.14-.53,1.33-1.69,1.58-3.1,1.93a22.37,22.37,0,0,1-5.21.51c-2.25,0-4.52-.16-6.65-.07a34.83,34.83,0,0,0-8.89,1.43c-1.6.47-3.94.76-5.33,1.73.61,1,2,1.14,2.64,2.08a2.57,2.57,0,0,1-.42,2.67c-.62.5-1.59.17-2.34.54a17.88,17.88,0,0,0-2.54,1.63c-1.83,1.56-3.51,3.29-5.93,3.78a20.77,20.77,0,0,0-3.24.89c-2.46.81-5.55,1.28-7.54,3,.47,1,2.34,2.23,1.76,3.56-.47,1-1.86,1.16-2.5,2.2-1.27,2,.47,1.69,1.1,3.27a9.91,9.91,0,0,1,0,3.48c-.09,1.06-.88,2.47-.46,3.52.59,1.48,2.19,1,3.42,1.39a.76.76,0,0,1,.18.09,14,14,0,0,0,5.49,4.22c18.51,8.65,62.92,14.8,53,6.16-8.25-7.19-21.62-12.7-25.82-14.3l-.15-.06c-.25-.11-.5-.17-.74-.28l-.42-.15s-3.73-7.39,13-9.34a78.91,78.91,0,0,1,9.15-.47c13.57,0,27.05-6.67,37.14-13.37,2.42-1.59,4.64-3.19,6.63-4.7,4.16,9.37,11.39,16.55,22.52,16.55,14.31,0,20.54-.4,25.21-1.32s10.27,3.38,7.47,0l-.66-.78,1.28-.23c4.67-.92,10.27,3.38,7.47,0s-4.36-4.6-10-4.6-5.82-4.91-2.39-9.22c2.7-3.39,12.57-15.4,14.62-26,11.19-1.54,59.74,8,70.48,13.1a29.9,29.9,0,0,0,5.68,1.92,69.2,69.2,0,0,0,10.12,24.11c4.7,6.75,14.53,5.24,18.65,4a25.06,25.06,0,0,0,4.59-.26c2.32.37,4.1,1.12,3.9.15a5,5,0,0,0-.31-.92l.29-.09c3.86-1.2,8.43,1.51,8.12,0a8,8,0,0,0-7.08-5.81c-4.59-.23-8.94-8.84-5.08-15.17,2-3.22,4.55-7.61,6.63-11.15a21.05,21.05,0,0,0,6.1-6.16c8.3-13.22,16.44-23.7,25.6-32.11.43,0,.86,0,1.3,0,0,0,28.5,2.49,36.84-4.3,2.94-2.4,5-4.55,5.83-6.8C372.2,47.61,373.11,45.54,372.94,43.58Z"/>
    <g>
      <path class="cls-3" d="M106.65,83c.15-4.74,14.46-52.21,42.75-60.92,28.63-8.82,85.42,1.35,99.42,10.5,4.6,3,9.26,6,13.63,8.43A62.65,62.65,0,0,0,271,45.12c5.11,1.89,9.21,2.05,11.41-.87,5-6.59,28-23.29,28-23.29.77-.48,1.49-1,2.19-1.42-.13-.46-.28-.91-.44-1.37-5.91,3.08-16.74,9.22-25.72,17-5.74,5-9.67,6.54-14.34,5.49-2.68-.59-5.62-2.06-9.27-4.24-4.46-2.64-10-6.34-17.46-10.83C221.12,11,150.64,10.47,133.84,28.48,120.49,42.79,106.73,64.22,106.65,83Z"/>
      <path class="cls-3" d="M307.49,22.21c5.12-4.5,17.15-7.1,27.57-3.84a33.13,33.13,0,0,1,6.49,3.16c1.34.81,2.76,1.73,4.22,2.72,4.3,2.92,8.89,6.47,12.93,9.73a67,67,0,0,1,9.73,9.37,14,14,0,0,0,2.48.25c-1.09-3-2.69-6.29-8.68-10.87-4.36-3.34-8.12-6.56-11.68-9.33L349,22.24c-1.63-1.22-3.23-2.35-4.8-3.36-8.14-5.18-16-7.2-27.49-3.14A22.23,22.23,0,0,0,307.49,22.21Z"/>
      <path class="cls-4" d="M60.87,131.7s0,0,0,0a78.91,78.91,0,0,1,9.15-.47c13.57,0,27.05-6.67,37.14-13.37a119.34,119.34,0,0,0,11.29-8.43c0-1.93,0-3,0-3l-2.15-11.62c-3.87,6.24-17.86,25.67-41.93,27.23a93.14,93.14,0,0,0-13.7,1.84c0,.6-.3,1.33-.62,2.8C59.62,128.53,59.22,130.38,60.87,131.7Z"/>
      <path class="cls-5" d="M53.15,110.29a1.59,1.59,0,0,0,.27.12c1.71.68,3.33.3,4.13,2.48a32.12,32.12,0,0,0,.59,5.79c.48.8,1,1.6,1.45,2.4.85,1.54,1.13,2.07,1.06,2.83a93.14,93.14,0,0,1,13.7-1.84c24.07-1.56,38.06-21,41.93-27.23l-2-10.57-.08-.07c-.15-.08-.53-.32-1.1-.7a4.92,4.92,0,0,1-1.27.32,41.1,41.1,0,0,1-5-.15c-2,0-7.52-.89-6.69,2.68.29,1.31,3.94,4.53,3,5.49-.68.74-3.19.16-4.06.16-2,0-4.58-.54-6.37.47,0,1.25.38,2.66-.08,3.84-.72,1.9-2.62,1.24-4.24,1.24-1.93,0-3.92-.12-5.85,0-1.56.07-1.82.54-1.8,2s.6,2.82-1.16,3.48a17.27,17.27,0,0,1-4.25.17c-2.79,0-5.6,0-8.4,0-1.8,0-3.59,0-5.4-.07a1.18,1.18,0,0,0-1.46.67c-.95,1.53.3,3.15,1.31,4.14-.53,1.33-1.69,1.58-3.1,1.93A22.37,22.37,0,0,1,53.15,110.29Z"/>
      <path class="cls-6" d="M262.7,95.16c.64,11.18,6.12,23.56,11,30.5s15.14,5.14,19,3.93,8.43,1.51,8.12,0a8,8,0,0,0-7.08-5.81c-4.59-.23-8.94-8.84-5.08-15.17S298.8,91.39,298.8,91.39c2.17-6.66,1.47-10.68-.92-12.78,0,0-2.16,20.83-18.76,25.12-12.86,3.33-14.83-7.51-13.6-14.44C263.67,91.35,262.6,93.4,262.7,95.16Z"/>
      <path class="cls-6" d="M119.05,103.73c3.19,13.14,11.07,25,25.38,25s20.54-.39,25.2-1.31,10.27,3.38,7.47,0-4.36-4.6-10-4.6-5.82-4.91-2.39-9.22S183,91.18,179,79.51c-2.1-6.07-7.49-9.72-12.18-11.84,0,0,16.54,15.77-4,33.2S117.17,107.73,121,86.71C118.4,92.81,117.91,99.05,119.05,103.73Z"/>
      <path class="cls-5" d="M106.65,83v.21A33.52,33.52,0,0,0,108,92.8c10.88,10.54,47-4.46,47-19.53,0-7.49,4.75-7,12.1-4.38,8.69-1.25,19.29,3.14,28.05,8.84,11.67,7.6,63.75,11.06,63.75,11.06s17,2.35,31.16-.45,24.08-33.72,24.08-33.72c6-8.44,12.24-12.32,17.73-12.44-3.55-10.61-12.82-23-14.88-25.67-.26-.34-.41-.52-.41-.52s-1.68.77-4.39,2.18c.16.46.31.91.44,1.37-.7.46-1.42.94-2.19,1.42,0,0-23,16.7-28,23.29-2.2,2.92-6.3,2.76-11.41.87A62.65,62.65,0,0,1,262.45,41c-4.37-2.44-9-5.43-13.63-8.43-14-9.15-70.79-19.32-99.42-10.5C121.11,30.82,106.8,78.29,106.65,83Z"/>
      <path class="cls-4" d="M109.87,98.87l1.08,5.87s0,.53,0,1.5c1.76-1.46,2.77-2.46,2.77-2.46,9.86,12.46,23.11,6.8,30.69,6.8,8.71,0,29.56-17.87,32.67-22.21s60.83,6.67,72.66,12.27,42.25,5.59,51.61-9.34S319.92,64.92,330.59,56c3.45-2.89,3.19-8.09,1.27-13.82-5.48.1-11.7,4-17.72,12.43,0,0-9.93,30.92-24.08,33.72s-31.16.44-31.16.44-52.08-3.45-63.76-11c-10.54-1.24-20.61-6.14-28-8.84a16.6,16.6,0,0,0-7.9,3.28c-9.33,7.3,11.21,21.31-13.07,25.74s-35.7,0-35.7,0S110.24,98.27,109.87,98.87Z"/>
      <path class="cls-4" d="M167.1,68.89c7.42,2.69,17.5,7.6,28.05,8.84C186.39,72,175.79,67.64,167.1,68.89Z"/>
      <path class="cls-5" d="M108.87,93.54l1,5.33c.37-.6.56-1,.56-1s11.43,4.43,35.7,0,3.74-18.44,13.07-25.74a16.6,16.6,0,0,1,7.9-3.28C159.74,66.23,155,65.77,155,73.27,155,88,120.69,102.58,108.87,93.54Z"/>
      <path class="cls-4" d="M254.6,96.17c.65,11.18,6.13,23.56,11,30.5s15.14,5.14,19,3.93,8.44,1.52,8.12,0a8,8,0,0,0-7.08-5.81c-4.59-.23-8.94-8.83-5.07-15.17S290.7,92.4,290.7,92.4c2.17-6.66,1.47-10.68-.91-12.78,0,0-2.17,20.83-18.77,25.12-12.86,3.34-14.82-7.51-13.6-14.44C255.57,92.36,254.5,94.41,254.6,96.17Z"/>
      <path class="cls-4" d="M111,104.74c3.18,13.14,11.06,25,25.37,25s20.54-.4,25.21-1.32,10.27,3.38,7.47,0-4.36-4.6-10.06-4.6-5.81-4.91-2.39-9.22,18.36-22.4,14.31-34.07c-2.1-6.07-7.48-9.72-12.18-11.84,0,0,16.54,15.77-4,33.2s-45.63,6.86-41.8-14.16C110.3,93.82,109.82,100.07,111,104.74Z"/>
      <path class="cls-5" d="M271,104.74c16.6-4.29,18.77-25.12,18.77-25.12-6.44-5.72-25.2,2.66-32.37,10.68C256.2,97.23,258.16,108.08,271,104.74Z"/>
      <path class="cls-5" d="M154.7,101.88c20.53-17.43,4-33.2,4-33.2a37,37,0,0,0-8.05-2.59c-21.44,0-33,10.59-37.74,21.63C109.07,108.74,134.16,119.31,154.7,101.88Z"/>
      <path class="cls-5" d="M306.45,52.15c4.07,2.07,14.05,3.26,24.62,3.45a136.92,136.92,0,0,0,20.61-1.06c14.94-2.1,16.19-8.15,16.19-8.15a10.52,10.52,0,0,1,3.3-1.92,8.43,8.43,0,0,0-.26-.87,14,14,0,0,1-2.48-.25A67,67,0,0,0,358.7,34c-4-3.26-8.63-6.81-12.93-9.73-1.46-1-2.88-1.91-4.22-2.72a33.13,33.13,0,0,0-6.49-3.16c-10.42-3.26-22.45-.66-27.57,3.84h0l0,0C300.2,30.61,298.18,44,306.45,52.15Z"/>
      <path class="cls-5" d="M337.59,39.22c1,11.2,12.07,5,14.87,0A13.31,13.31,0,0,1,358.7,34c-4-3.26-8.63-6.81-12.93-9.73C341.23,27.44,337,32.41,337.59,39.22Z"/>
      <path class="cls-4" d="M325.59,59.15c.87.05,1.77.07,2.68.07,0,0,28.5,2.49,36.84-4.3,4.47-3.64,6.94-6.72,6.06-10.45a10.52,10.52,0,0,0-3.3,1.92s-1.25,6.06-16.18,8.16a137.12,137.12,0,0,1-20.62,1.05,14.54,14.54,0,0,1-3.19,2.29Z"/>
      <path class="cls-4" d="M306.46,52.16c3.9,3.86,10.1,6.55,19.13,7l2.29-1.26a14.54,14.54,0,0,0,3.19-2.29C320.51,55.41,310.53,54.22,306.46,52.16Z"/>
      <path class="cls-5" d="M317.84,28.3c.4-.51.93-1.14,1.55-1.81-4.55-2.84-5-13.47,1-11.6,4.59,1.45,6.63,4,7.34,5.15.75-.4,1.54-.76,2.36-1.1-2.5-3.41-11.81-8.64-15.1-6.87C310.4,14.56,314.58,25.38,317.84,28.3Z"/>
      <path class="cls-7" d="M369.17,40.51s3.54.27,3.77,3.07-1.7,5.84-3.77,4.2S363.3,39.77,369.17,40.51Z"/>
      <path class="cls-4" d="M319.39,26.49A30.48,30.48,0,0,1,327.74,20c-.71-1.13-2.75-3.7-7.34-5.15C314.43,13,314.84,23.65,319.39,26.49Z"/>
      <circle class="cls-7" cx="345.73" cy="36.54" r="6.66"/>
      <path class="cls-7" d="M341.9,37.31a4.63,4.63,0,1,0,4.62-4.63A4.62,4.62,0,0,0,341.9,37.31Z"/>
      <path class="cls-8" d="M342.88,33.22a1.64,1.64,0,1,1,1.64,1.64A1.65,1.65,0,0,1,342.88,33.22Z"/>
      <path class="cls-9" d="M47.85,141.06s-3.73-7.39,13-9.34c0,0,0,0,0,0-1.65-1.32-1.25-3.17-.84-5,.32-1.47.57-2.2.62-2.8C42.5,127.81,37,136.28,47.85,141.06Z"/>
      <path class="cls-10" d="M13.27,137a9.91,9.91,0,0,1,0,3.48c-.09,1.06-.88,2.47-.46,3.52.59,1.48,2.19,1,3.42,1.39a.76.76,0,0,1,.18.09,14,14,0,0,0,5.49,4.22c18.51,8.65,62.92,14.8,53,6.16-8.25-7.19-21.62-12.7-25.82-14.3l-.15-.06c-.25-.11-.5-.17-.74-.28l-.42-.15c-10.83-4.78-5.35-13.25,12.8-17.15.07-.76-.21-1.29-1.06-2.83-.49-.8-1-1.6-1.45-2.4a32.12,32.12,0,0,1-.59-5.79c-.8-2.18-2.42-1.8-4.13-2.48a1.59,1.59,0,0,1-.27-.12c-2.25,0-4.52-.16-6.65-.07a34.83,34.83,0,0,0-8.89,1.43c-1.6.47-3.94.76-5.33,1.73.61,1,2,1.14,2.64,2.08a2.57,2.57,0,0,1-.42,2.67c-.62.5-1.59.17-2.34.54a17.88,17.88,0,0,0-2.54,1.63c-1.83,1.56-3.51,3.29-5.93,3.78a20.77,20.77,0,0,0-3.24.89c-2.46.81-5.55,1.28-7.54,3,.47,1,2.34,2.23,1.76,3.56-.47,1-1.86,1.16-2.5,2.2C10.9,135.72,12.64,135.41,13.27,137Z"/>
    </g>
  </g>
</svg>
