<svg id="Layer_1" data-name="Layer 1" xmlns="http://www.w3.org/2000/svg" xmlns:xlink="http://www.w3.org/1999/xlink" width="225.52" height="455.69" viewBox="0 0 225.52 455.69">
  <defs>
    <style>
      .cls-1 {
        fill: none;
      }

      .cls-2 {
        fill: #ff0;
      }

      .cls-3 {
        fill: url(#linear-gradient);
      }

      .cls-4 {
        fill: #281b18;
      }

      .cls-5 {
        fill: #21201e;
      }

      .cls-6 {
        fill: url(#linear-gradient-2);
      }

      .cls-7 {
        fill: #82706e;
      }

      .cls-8 {
        fill: url(#linear-gradient-3);
      }

      .cls-9 {
        fill: #191918;
      }

      .cls-10 {
        opacity: 0.25;
      }

      .cls-11 {
        fill: url(#linear-gradient-4);
      }

      .cls-12, .cls-13, .cls-19, .cls-24 {
        fill: #ffb871;
      }

      .cls-12, .cls-17, .cls-22, .cls-24 {
        stroke: #a67c52;
      }

      .cls-12, .cls-17, .cls-19, .cls-22, .cls-24 {
        stroke-miterlimit: 10;
      }

      .cls-12 {
        stroke-width: 0.25px;
      }

      .cls-14 {
        fill: #a67c52;
      }

      .cls-15 {
        fill: #42210b;
      }

      .cls-16 {
        fill: url(#linear-gradient-5);
      }

      .cls-17, .cls-19, .cls-22, .cls-24 {
        stroke-width: 0.5px;
      }

      .cls-17 {
        fill: url(#linear-gradient-6);
      }

      .cls-18 {
        fill: url(#linear-gradient-7);
      }

      .cls-19 {
        stroke: #603813;
      }

      .cls-20 {
        fill: #110a07;
      }

      .cls-21 {
        fill: url(#linear-gradient-8);
      }

      .cls-22 {
        fill: url(#linear-gradient-9);
      }

      .cls-23 {
        fill: url(#linear-gradient-10);
      }

      .cls-25 {
        clip-path: url(#clip-path);
      }

      .cls-26 {
        fill: url(#linear-gradient-11);
      }

      .cls-27 {
        fill: url(#linear-gradient-12);
      }

      .cls-28 {
        fill: url(#linear-gradient-13);
      }

      .cls-29 {
        fill: url(#linear-gradient-14);
      }

      .cls-30 {
        fill: url(#linear-gradient-15);
      }

      .cls-31 {
        fill: url(#linear-gradient-16);
      }

      .cls-32 {
        fill: #f9f82d;
      }

      .cls-33 {
        fill: #b2b1b6;
      }

      .cls-34 {
        fill: #36383d;
      }

      .cls-35 {
        fill: #45464b;
      }

      .cls-36 {
        fill: #9a9c9e;
      }

      .cls-37 {
        fill: #2c2b29;
      }

      .cls-38 {
        fill: url(#linear-gradient-17);
      }

      .cls-39 {
        fill: url(#linear-gradient-18);
      }

      .cls-40 {
        fill: url(#linear-gradient-19);
      }

      .cls-41 {
        fill: url(#linear-gradient-20);
      }

      .cls-42 {
        opacity: 0.14;
      }
    </style>
    <linearGradient id="linear-gradient" x1="100.37" y1="162.17" x2="102.19" y2="304.5" gradientUnits="userSpaceOnUse">
      <stop offset="0" stop-color="#fff"/>
      <stop offset="0.38" stop-color="#f9f82d"/>
      <stop offset="0.39" stop-color="#f7f22d"/>
      <stop offset="0.51" stop-color="#e6c12b"/>
      <stop offset="0.62" stop-color="#d99b29"/>
      <stop offset="0.72" stop-color="#d08028"/>
      <stop offset="0.81" stop-color="#ca6f27"/>
      <stop offset="0.88" stop-color="#c86927"/>
    </linearGradient>
    <linearGradient id="linear-gradient-2" x1="110.9" y1="46.91" x2="111.62" y2="160.68" gradientUnits="userSpaceOnUse">
      <stop offset="0" stop-color="#fff"/>
      <stop offset="0" stop-color="#d9d9d9"/>
      <stop offset="0" stop-color="#b0b0b0"/>
      <stop offset="0" stop-color="#8b8b8a"/>
      <stop offset="0" stop-color="#6a6a6a"/>
      <stop offset="0" stop-color="#4f4f4e"/>
      <stop offset="0" stop-color="#393938"/>
      <stop offset="0" stop-color="#282827"/>
      <stop offset="0" stop-color="#1d1d1c"/>
      <stop offset="0" stop-color="#161615"/>
      <stop offset="0" stop-color="#141413"/>
      <stop offset="0.53" stop-color="#d69129"/>
      <stop offset="0.7" stop-color="#d58f29"/>
      <stop offset="0.86" stop-color="#121212"/>
    </linearGradient>
    <linearGradient id="linear-gradient-3" x1="35.89" y1="232.35" x2="194.41" y2="231.41" gradientUnits="userSpaceOnUse">
      <stop offset="0" stop-color="#fff"/>
      <stop offset="0" stop-color="#d9d9d9"/>
      <stop offset="0" stop-color="#b0b0b0"/>
      <stop offset="0" stop-color="#8b8b8a"/>
      <stop offset="0" stop-color="#6a6a6a"/>
      <stop offset="0" stop-color="#4f4f4e"/>
      <stop offset="0" stop-color="#393938"/>
      <stop offset="0" stop-color="#282827"/>
      <stop offset="0" stop-color="#1d1d1c"/>
      <stop offset="0" stop-color="#161615"/>
      <stop offset="0" stop-color="#141413"/>
      <stop offset="0.7" stop-color="#070707"/>
      <stop offset="1" stop-color="#121212"/>
    </linearGradient>
    <linearGradient id="linear-gradient-4" x1="165.68" y1="234.24" x2="146.93" y2="362.61" gradientUnits="userSpaceOnUse">
      <stop offset="0.31" stop-color="#944d1b"/>
      <stop offset="0.36" stop-color="#864618"/>
      <stop offset="0.47" stop-color="#603212"/>
      <stop offset="0.62" stop-color="#241307"/>
      <stop offset="0.7"/>
    </linearGradient>
    <linearGradient id="linear-gradient-5" x1="156.32" y1="274.33" x2="118.09" y2="340.12" gradientUnits="userSpaceOnUse">
      <stop offset="0.31" stop-color="#892e15"/>
      <stop offset="0.34" stop-color="#822c14"/>
      <stop offset="0.39" stop-color="#6e2511"/>
      <stop offset="0.45" stop-color="#4e1a0c"/>
      <stop offset="0.51" stop-color="#220b05"/>
      <stop offset="0.55"/>
    </linearGradient>
    <linearGradient id="linear-gradient-6" x1="159.36" y1="310.75" x2="189.82" y2="351.02" gradientUnits="userSpaceOnUse">
      <stop offset="0" stop-color="#ffb871"/>
      <stop offset="0.16" stop-color="#df9254"/>
      <stop offset="0.43" stop-color="#ac5528"/>
      <stop offset="0.63" stop-color="#8d2f0c"/>
      <stop offset="0.74" stop-color="#812101"/>
    </linearGradient>
    <linearGradient id="linear-gradient-7" x1="66.61" y1="255.53" x2="81.07" y2="308.27" gradientUnits="userSpaceOnUse">
      <stop offset="0.31" stop-color="#812101"/>
      <stop offset="0.4" stop-color="#7a1f01"/>
      <stop offset="0.54" stop-color="#671a01"/>
      <stop offset="0.71" stop-color="#471201"/>
      <stop offset="0.89" stop-color="#1c0700"/>
      <stop offset="1"/>
    </linearGradient>
    <linearGradient id="linear-gradient-8" x1="82.26" y1="283.14" x2="111.84" y2="308.69" gradientUnits="userSpaceOnUse">
      <stop offset="0.31" stop-color="#944d1b"/>
      <stop offset="0.41" stop-color="#864618"/>
      <stop offset="0.6" stop-color="#603212"/>
      <stop offset="0.86" stop-color="#241307"/>
      <stop offset="1"/>
    </linearGradient>
    <linearGradient id="linear-gradient-9" x1="81.78" y1="306.92" x2="87.1" y2="338.59" gradientUnits="userSpaceOnUse">
      <stop offset="0.14" stop-color="#ffb871"/>
      <stop offset="0.31" stop-color="#fdb670"/>
      <stop offset="0.4" stop-color="#f4b06c"/>
      <stop offset="0.48" stop-color="#e7a666"/>
      <stop offset="0.54" stop-color="#d3985d"/>
      <stop offset="0.6" stop-color="#b98652"/>
      <stop offset="0.66" stop-color="#9a6f44"/>
      <stop offset="0.71" stop-color="#745433"/>
      <stop offset="0.76" stop-color="#493420"/>
      <stop offset="0.81" stop-color="#19120b"/>
      <stop offset="0.83"/>
    </linearGradient>
    <linearGradient id="linear-gradient-10" x1="105.31" y1="296.2" x2="148.23" y2="296.2" xlink:href="#linear-gradient-8"/>
    <clipPath id="clip-path">
      <path class="cls-1" d="M65.19,246.9s-10.15,24.42,0,29-15.55,22,0,32.52,102.78,7.43,101.9-24.34-13.86-37.87-13.86-37.87S110.68,266.23,65.19,246.9Z"/>
    </clipPath>
    <linearGradient id="linear-gradient-11" x1="86.18" y1="212.27" x2="83.54" y2="254.69" gradientUnits="userSpaceOnUse">
      <stop offset="0" stop-color="#ef913c"/>
      <stop offset="0.35" stop-color="#ed8f3b"/>
      <stop offset="0.51" stop-color="#e68837"/>
      <stop offset="0.63" stop-color="#d97b30"/>
      <stop offset="0.73" stop-color="#c76927"/>
      <stop offset="0.82" stop-color="#b0511a"/>
      <stop offset="0.9" stop-color="#94350b"/>
      <stop offset="0.94" stop-color="#812101"/>
    </linearGradient>
    <linearGradient id="linear-gradient-12" x1="1187.38" y1="-43.4" x2="1184" y2="11" gradientTransform="translate(-1058.12 -92.81) rotate(15.37)" xlink:href="#linear-gradient-11"/>
    <linearGradient id="linear-gradient-13" x1="116.29" y1="167.29" x2="111.72" y2="240.72" xlink:href="#linear-gradient-11"/>
    <linearGradient id="linear-gradient-14" x1="137.09" y1="188.55" x2="132.74" y2="258.66" xlink:href="#linear-gradient-11"/>
    <linearGradient id="linear-gradient-15" x1="111.95" y1="199.06" x2="105.43" y2="304" xlink:href="#linear-gradient-11"/>
    <linearGradient id="linear-gradient-16" x1="106.71" y1="217.22" x2="110.81" y2="343.64" gradientUnits="userSpaceOnUse">
      <stop offset="0" stop-color="#f9f82d"/>
      <stop offset="0.61" stop-color="#e3a32f"/>
      <stop offset="0.94" stop-color="#d87930"/>
    </linearGradient>
    <linearGradient id="linear-gradient-17" x1="109.59" y1="151.07" x2="109.59" y2="10.57" gradientUnits="userSpaceOnUse">
      <stop offset="0" stop-color="#f8d409"/>
      <stop offset="0.08" stop-color="#f7cb0a"/>
      <stop offset="0.22" stop-color="#f6b20e"/>
      <stop offset="0.4" stop-color="#f38914"/>
      <stop offset="0.6" stop-color="#f0521c"/>
      <stop offset="0.78" stop-color="#ec1c24"/>
      <stop offset="1" stop-color="#ec1c24"/>
    </linearGradient>
    <linearGradient id="linear-gradient-18" x1="107.85" y1="151.07" x2="107.85" y2="52.91" gradientUnits="userSpaceOnUse">
      <stop offset="0" stop-color="#f7e88e"/>
      <stop offset="0.06" stop-color="#f7e266"/>
      <stop offset="0.13" stop-color="#f8dd45"/>
      <stop offset="0.19" stop-color="#f8d92b"/>
      <stop offset="0.26" stop-color="#f8d618"/>
      <stop offset="0.33" stop-color="#f8d50d"/>
      <stop offset="0.41" stop-color="#f8d409"/>
      <stop offset="1" stop-color="#ea5f24"/>
    </linearGradient>
    <linearGradient id="linear-gradient-19" x1="97.42" y1="162.14" x2="97.42" y2="100.48" gradientUnits="userSpaceOnUse">
      <stop offset="0" stop-color="#fff"/>
      <stop offset="0.42" stop-color="#fdf7ab"/>
      <stop offset="1" stop-color="#f9ec31"/>
    </linearGradient>
    <linearGradient id="linear-gradient-20" x1="115.09" y1="165.53" x2="115.09" y2="112.45" xlink:href="#linear-gradient-19"/>
  </defs>
  <g>
    <g>
      <path class="cls-2" d="M207.44,155.49a5.14,5.14,0,0,1,3.91,2.18v3l-7,24.81v13H187.94l.33-13v-9h7.53l8.51-19.57a4.74,4.74,0,0,1,3.13-1.34m-3.13,5.13a2.52,2.52,0,0,1,2.5-2,7.46,7.46,0,0,1,3.63,1.33,8.08,8.08,0,0,0-3.86-1.48c-1.05,0-1.94.52-2.27,2.11m-.2.58c-.13.37-.28.82-.45,1.32l.45-1.32m-4.8,14-.58,1.67-.55,1.6.55-1.6.58-1.67m-2.22,6.46c.26-.77.56-1.64.88-2.57l-.88,2.57m10.35-36.17a14.71,14.71,0,0,0-10.36,4.43,10.06,10.06,0,0,0-1.94,2.92l-5.9,13.56h-1a10,10,0,0,0-10,10v8.9L178,198.22a10,10,0,0,0,10,10.25h16.37a10,10,0,0,0,10-10V186.82L221,163.34a10,10,0,0,0,.38-2.72v-3a10,10,0,0,0-2.37-6.46,15.11,15.11,0,0,0-11.54-5.72Z"/>
      <path class="cls-2" d="M118.22,10.57S109.41,18.4,111,27.2s14.68,14.35,13,29.68-12.39,17.61-16,29.68c-1.34,4.51.1,6.2,2.51,6.2a6.88,6.88,0,0,0,1.31-.14,11.21,11.21,0,0,0,1.39-.39c6.28-1.87,9.54-8.39,10.19-14.56.06-.54.11-1,.15-1.56A42,42,0,0,1,125.39,66a40.36,40.36,0,0,1,5.55-10.11s-2.61,4.89-1.31,14.35,3.67,10.32,1.31,18.59c-2.42,8.44-5.82,24.41-2,25.67a1,1,0,0,0,.37.07c2.3,0-.3-9.3,2.89-19A39.15,39.15,0,0,1,139.74,82s-4.89,8.48-2,17,8.48,8.48,11.41,19.24c0,0,4.12,0,1.3-14.67a91,91,0,0,1,6.36,23.79c24.94,2.49,41.64,7,41.9,12.09,0-.18,0-.36.05-.55l0,5.24a1.08,1.08,0,0,1,0,.19c0,.06,0,.13,0,.19v.22s0,2.19-3.89,4.44h0a35.31,35.31,0,0,1-6.62,2.93h0s0,.38,0,1.08h0v12.73l-.12,0c-.18,23.45-.49,71.78-.21,105.56h5.2s-.83,9.44-1.28,22.57c3.41,1.56,5.28,3.25,5.28,5a2.76,2.76,0,0,1-.15.84,3.64,3.64,0,0,1,1,2.33c0,2.07-2.28,4-6.39,5.84a286.09,286.09,0,0,0,1.56,33.24c3,30,11.54,92.72,11.54,92.72a12.26,12.26,0,0,1-3.75.67,5.4,5.4,0,0,1-2.8-.67c-2.48-1.51-10-88.8-10-88.8s-2-21.51-2.73-35a123.45,123.45,0,0,1-13.33,3,12.23,12.23,0,0,1-1.31,5.74C168.64,323,164,326,160.24,326a5.39,5.39,0,0,1-2.51-.57l-.14-.1c0,.14,0,.28,0,.42a114.16,114.16,0,0,1-12.74-9.38q-5.62.4-11.62.66c.24.77.47,1.55.72,2.35l-.37-.3a8.56,8.56,0,0,1,.82,6.21,11,11,0,0,1-2.72,3.64,11.39,11.39,0,0,1-6.52,2.67l2.92,46.76s-2.68,2.5-4.76,2.5c-1,0-1.93-.63-2.27-2.5,0-6.48-1.64-31-2.82-47.82a8.81,8.81,0,0,1-1.1-.7,7.91,7.91,0,0,1-2.94-4.07s-.06-.21-.11-.43c0,.14-.09.27-.13.41-1-2.53-2-5.31-2.9-8.32-6.1,0-12-.19-17.76-.45q-1.06,2.13-2.07,4.22C90.24,323,87.74,324,85,324a10.22,10.22,0,0,1-6.49-2.2,9.57,9.57,0,0,1-3.13-6.08c-12.58-1.17-23.33-2.9-31.23-5L30.49,442.83h-9L35.83,307.9c-3.45-1.55-5.55-3.23-6-5l-.1,0v-4.78a1.49,1.49,0,0,1,0-1v0c.69-2.09,5-4.31,5-4.31l0-95H19.53v-13l-7-24.81v-2.95a5.16,5.16,0,0,1,3.91-2.17,4.74,4.74,0,0,1,3.13,1.34L28,175.81h6.69V152.06h.05A34,34,0,0,1,27.86,149h0a7.44,7.44,0,0,1-1.6-1.18,7.44,7.44,0,0,1-1.34-1.46c-.45-.59-.72-1-.72-1l0-5.6c0-.05,0-.11,0-.17,0-5.22,17.07-9.78,42.55-12.28,1.57-2.54,3-5,3.2-8.4.65-9.45-1.7-12.16-1.7-12.16s6.75,3.92,5,13.71c-.48,2.66-1,4.76-1.41,6.39l3.39-.26c2-4.28,3.68-10.4,1.89-14.85-6.49-16.09,2-25,2-25s-3.26,11.7,2,19.86c4.57,7.15,2.7,16.39,3.93,16.39.21,0,.5-.25.91-.8,2.94-3.92-5.87-18.27-1.63-32S96.69,69,96.69,69s-4.67,10.22-2,10.22a3.42,3.42,0,0,0,1.7-.72A68,68,0,0,0,109,67.92c.36-.39.7-.79,1-1.19,3-3.78,5.62-8.35,4.75-13.79q-.07-.63-.18-1.23c-.14-.82-.3-1.61-.48-2.38-.15-.55-.32-1.1-.48-1.64-2.85-9.28-7.55-17.93-5.89-23.75,2-6.85,10.44-13.37,10.44-13.37M71.13,129.79l2.45-.23.07-.12-2.49.22,0,.13m105.56,3.62a163.6,163.6,0,0,0-19.57-3.2s0,.09,0,.13c7.3.84,13.89,1.88,19.56,3.07m-130.92.12c5.53-1.18,11.95-2.21,19.07-3.06l.09-.16a157.38,157.38,0,0,0-19.16,3.22M13.4,159.4A7.56,7.56,0,0,1,17,158.07a2.52,2.52,0,0,1,2.5,2c.22.66.58,1.68,1,2.94l-1-2.94c-.33-1.58-1.22-2.11-2.26-2.11a8.17,8.17,0,0,0-3.87,1.48m185.41-20.67v0M118.29.55a10.09,10.09,0,0,0-6.17,2.1c-1.85,1.42-11.23,9-14,18.55-2.1,7.33.73,15,3.46,22.33.86,2.34,1.76,4.75,2.48,7.09.12.39.23.78.34,1.17.14.59.24,1.11.32,1.58l.12.81c0,.11,0,.22,0,.34.16,1,0,2.57-2.65,5.91l-.12.15a10,10,0,0,0-12.25,1A56.55,56.55,0,0,0,79,76.66a10,10,0,0,0-7.15,3.11C69,82.86,65.47,89,64.82,97.29a10,10,0,0,0-5.11,14.59,20.18,20.18,0,0,1,.28,6,177.65,177.65,0,0,0-26.79,4.83c-5.2,1.47-19,5.37-19,16.78,0,.24,0,.47,0,.71l0,4.85a15.58,15.58,0,0,0-9.34,5.54,10,10,0,0,0-2.37,6.46V160a10.11,10.11,0,0,0,.38,2.73l6.66,23.47v11.65a10,10,0,0,0,10,10h5.21l0,79.69a16,16,0,0,0-4.07,5.29A9.39,9.39,0,0,0,20,295a11.13,11.13,0,0,0-.24,4.14v3.85A10,10,0,0,0,21.12,308a16.14,16.14,0,0,0,4.1,5.08L11.52,441.78a10,10,0,0,0,9.94,11.05h9a10,10,0,0,0,10-9L53,322.89c4.67.83,9.81,1.57,15.33,2.19a18.25,18.25,0,0,0,3.82,4.43A20.07,20.07,0,0,0,85,334c6,0,11.3-2.58,14.21-6.82,1.53,0,3.06.09,4.61.12.25.68.51,1.36.77,2a9.28,9.28,0,0,0,1,1.93,17.2,17.2,0,0,0,2.92,4.23c1.62,23.26,2.5,38.41,2.5,42.84a10.38,10.38,0,0,0,.16,1.76c1.32,7.42,7,10.74,12.11,10.74,5.43,0,9.9-3.62,11.57-5.18a10,10,0,0,0,3.17-7.94l-2.46-39.32a20.21,20.21,0,0,0,2.64-1.95,20.86,20.86,0,0,0,5.22-6.93,9.63,9.63,0,0,0,.44-1.12c2.7,2,5.49,4,8.34,5.78a10,10,0,0,0,5.15,1.54,16,16,0,0,0,2.87.26c5.95,0,12.14-3.15,16.37-8,.73,9.22,1.48,17.32,1.55,18.11s1.94,22.46,4.08,43.94c1.28,12.86,2.41,23.19,3.35,30.7.59,4.64,1.09,8.15,1.54,10.74.7,4,1.48,8.45,5.81,11.08a15.21,15.21,0,0,0,8,2.12,22.17,22.17,0,0,0,7.22-1.29,10,10,0,0,0,6.43-10.73c-.08-.63-8.53-62.88-11.49-92.36,0-.06,0-.11,0-.17a251.22,251.22,0,0,1-1.47-26.32c4.23-3.16,6.37-7,6.37-11.6a13.08,13.08,0,0,0-.93-4.82,13.64,13.64,0,0,0-5-8.68c.44-9.68,1-16.29,1-16.37a10,10,0,0,0-5.22-9.68c-.17-31.64.08-71.92.26-95.16a9.66,9.66,0,0,0,.13-1.62v-7.17c.59-.31,1.16-.62,1.69-.94,7.48-4.34,8.66-10.07,8.8-12.52,0-.32.05-.64.05-.95s0-.46,0-.68l0-4.66v-.32a10,10,0,0,0-2.12-6.05c-4.06-6.19-13-8.72-16.9-9.83a170.81,170.81,0,0,0-24.29-4.53,102.34,102.34,0,0,0-5.86-18.76,10,10,0,0,0-9.13-5.93,9.77,9.77,0,0,0-3,.46c-.2.06-.41.13-.61.21A14,14,0,0,1,148.43,87a10,10,0,0,0-8.37-15c-.18-.9-.36-1.89-.52-3-.68-4.91.08-7.71.34-8.46,2.78-4.45,1.41-10-2.88-13a9.17,9.17,0,0,0-3.93-1.61c-1.92-6.79-5.83-11.69-8.75-15.36-1.3-1.64-3.27-4.11-3.44-5-.36-1.92,2.08-5.56,4-7.36A10,10,0,0,0,118.29.55Z"/>
    </g>
    <g>
      <path class="cls-3" d="M46.72,154.32V292.85s-31,4.13-8.41,8.31c33.21,3.73,134.08,8.56,134.08,8.56V159.64Z"/>
      <path class="cls-4" d="M124,314.07l4,64.3s-6,5.62-7,0c0-10.12-4-64.3-4-64.3Z"/>
      <ellipse class="cls-5" cx="113.85" cy="302.19" rx="84.12" ry="15.26"/>
      <ellipse class="cls-6" cx="111.51" cy="144.28" rx="87.29" ry="16.34"/>
      <path class="cls-7" d="M111.49,125.22c-48.21,0-87.29,6.41-87.29,14.3s39.08,14.3,87.29,14.3,87.29-6.4,87.29-14.3S159.7,125.22,111.49,125.22Zm0,25.89c-42.39,0-76.76-5.19-76.76-11.59s34.37-11.58,76.76-11.58,76.75,5.18,76.75,11.58S153.88,151.11,111.49,151.11Z"/>
      <path class="cls-8" d="M188.27,293.36c-1-38.86,0-141.3,0-141.3s-70.26,17.12-153.54,0l0,141.26s-14.77,8,7,12.08c21.39,7.54,119.31,10.4,148.15-.2C203.87,298.35,192.79,294.48,188.27,293.36Zm-27.09,7.44H58.84l-1.51-3V253.49s0-11.58,13-4C84.93,255,120,262.05,144.12,249c13-6,15.56-.5,17.06,13.59S161.18,300.8,161.18,300.8Z"/>
      <ellipse class="cls-9" cx="113.51" cy="299.02" rx="83.64" ry="14.3"/>
      <g>
        <ellipse class="cls-10" cx="114.65" cy="290.22" rx="59.37" ry="14.31"/>
        <g>
          <path class="cls-11" d="M133.93,278.82c7,2.73,14.3,5.9,21.92,9.6a303.18,303.18,0,0,1,28.08,15.52c-3.67-3.37-3.83-8-1.82-10,1.82-1.77,5.09-1,5.46-.91-10.1-5.62-20.88-11.23-32.33-16.71q-10.87-5.2-21.31-9.67S124.84,268.25,133.93,278.82Z"/>
          <path class="cls-12" d="M181.58,301.33c-2.66-5.55,2.79-13.78,7.57-6.49C192.34,300.31,184.68,307.82,181.58,301.33Z"/>
          <g>
            <path class="cls-13" d="M185.92,297.69s-1.54,2.68-1.54.12,3.64-2.57,2.73,0-2.73,4.79-4.09,1.11a3.3,3.3,0,0,1,4.09-4.54c1.82.86,2.73,5.14,0,6.85s-4.54.86-5.45-1.71"/>
            <path class="cls-14" d="M185.92,297.69a4.59,4.59,0,0,1-.68,1c-.14.13-.29.32-.53.29s-.3-.33-.34-.52a2.32,2.32,0,0,1,.62-2.27,1.74,1.74,0,0,1,1.18-.41,1.27,1.27,0,0,1,1.1.66,1.75,1.75,0,0,1,0,1.27,7,7,0,0,1-.42,1.14,4.77,4.77,0,0,1-1.45,2,1.23,1.23,0,0,1-1.33.1,2.32,2.32,0,0,1-.87-1,5.86,5.86,0,0,1-.76-2.35,3.38,3.38,0,0,1,.75-2.38A3.72,3.72,0,0,1,185.4,294a2.69,2.69,0,0,1,2.42.62,4.24,4.24,0,0,1,1.11,2.21,4.71,4.71,0,0,1-.11,2.44,3.73,3.73,0,0,1-1.45,2,5.63,5.63,0,0,1-2.22.95,2.68,2.68,0,0,1-2.29-.63,4.67,4.67,0,0,1-1.2-2,4.58,4.58,0,0,0,1.28,1.94,2.49,2.49,0,0,0,2.17.48,4.29,4.29,0,0,0,3.34-2.79,4.48,4.48,0,0,0-.95-4.21,2.18,2.18,0,0,0-2-.48,3.26,3.26,0,0,0-1.87,1.09,2.87,2.87,0,0,0-.65,2,5.3,5.3,0,0,0,.67,2.14,2.09,2.09,0,0,0,.69.8.81.81,0,0,0,.89-.08,4.8,4.8,0,0,0,1.34-1.79c.3-.69.71-1.47.42-2.11a1.21,1.21,0,0,0-1.84-.2,2.14,2.14,0,0,0-.65,2.06c0,.19.08.4.23.45s.34-.12.48-.24A5,5,0,0,0,185.92,297.69Z"/>
          </g>
          <path class="cls-15" d="M135.13,270.59c4,1.2,8,2.61,12,4.15s7.81,3.21,11.64,5,7.61,3.67,11.3,5.72,7.31,4.24,10.85,6.53c-3.64-2.13-7.29-4.25-11-6.19s-7.5-3.85-11.33-5.61-7.68-3.47-11.58-5.07S139.11,272,135.13,270.59Z"/>
          <path class="cls-15" d="M138,276.21c3.66,1,7.27,2.15,10.85,3.41s7.11,2.64,10.59,4.15a107.45,107.45,0,0,1,10.21,5A55.76,55.76,0,0,1,179,295.3l-2.27-1.71c-.76-.56-1.58-1-2.36-1.57s-1.61-1-2.42-1.48-1.63-1-2.47-1.39c-3.31-1.82-6.75-3.42-10.21-4.93s-7-2.91-10.53-4.24c-1.77-.67-3.55-1.31-5.34-1.94S139.83,276.79,138,276.21Z"/>
          <path class="cls-15" d="M147.15,282.14c2.78.95,5.54,2,8.26,3.08s5.41,2.31,8.08,3.54,5.27,2.63,7.8,4.13a32.5,32.5,0,0,1,7,5.28c-.56-.47-1.1-1-1.68-1.42l-1.79-1.26L173,294.32c-.62-.38-1.27-.73-1.9-1.1-2.56-1.42-5.16-2.78-7.83-4s-5.32-2.47-8-3.64S149.87,283.26,147.15,282.14Z"/>
        </g>
        <g>
          <path class="cls-16" d="M120.29,286.45a108.8,108.8,0,0,0,10,14.88,110.13,110.13,0,0,0,27.31,24.43c.58-12,3.84-20.2,8-20.74.94-.12,2.61.05,5,2.42-10-6.59-17-8.32-38.45-33.5-1.61-1.89-3.64-3.68-5.66-3.3C122,271.46,120.7,282.32,120.29,286.45Z"/>
          <path class="cls-17" d="M155.45,323c-2.91-4.47-1.32-9.66-1.07-10.46a10.94,10.94,0,0,1,4.55-6.36c1-.62,4.46-2.46,8.18-.91a8.92,8.92,0,0,1,4.55,4.55,13.3,13.3,0,0,1-.91,9.09c-2.63,5.05-9.24,8.47-13,6.5A6.21,6.21,0,0,1,155.45,323Z"/>
          <path class="cls-15" d="M161.29,303.94a28.64,28.64,0,0,1-11-4.39,55,55,0,0,1-9.18-7.55,87.09,87.09,0,0,1-7.72-9,91.09,91.09,0,0,1-6.5-9.93c1,1.68,2.15,3.32,3.29,4.93s2.3,3.21,3.51,4.76a94.25,94.25,0,0,0,7.77,8.91,57.26,57.26,0,0,0,9,7.57,33.35,33.35,0,0,0,5.15,2.88A26.15,26.15,0,0,0,161.29,303.94Z"/>
          <path class="cls-15" d="M125.29,279.9c.63,1.34,1.35,2.63,2.11,3.9s1.56,2.5,2.4,3.72a59.11,59.11,0,0,0,5.55,6.87c1,1.11,2.06,2.11,3.12,3.14s2.19,2,3.38,2.84c.59.44,1.16.91,1.76,1.34l1.85,1.22a20.3,20.3,0,0,0,1.88,1.17l1.93,1.1a42.44,42.44,0,0,1-7.65-4.53,19.2,19.2,0,0,1-1.76-1.36l-1.7-1.44c-1.07-1-2.18-2-3.17-3.14a54.73,54.73,0,0,1-5.51-7A46,46,0,0,1,125.29,279.9Z"/>
          <path class="cls-15" d="M128,295.3c.81,1.2,1.68,2.35,2.58,3.48s1.81,2.24,2.75,3.33a79.7,79.7,0,0,0,6,6.21,65.84,65.84,0,0,0,6.61,5.53l1.75,1.26,1.82,1.17.9.59.94.54,1.88,1.07a48.71,48.71,0,0,1-7.51-4.32,59.76,59.76,0,0,1-6.73-5.47,72.45,72.45,0,0,1-5.94-6.33A60.27,60.27,0,0,1,128,295.3Z"/>
          <path class="cls-15" d="M125.29,286.38a14.41,14.41,0,0,0,1,2.43,23.49,23.49,0,0,0,1.32,2.27,32.35,32.35,0,0,0,3.25,4.12,42.18,42.18,0,0,0,3.79,3.65c.66.58,1.36,1.11,2,1.67l2.11,1.6c-.76-.45-1.51-.93-2.26-1.4s-1.44-1-2.14-1.57a37.08,37.08,0,0,1-3.91-3.61,28.23,28.23,0,0,1-3.2-4.26A15.8,15.8,0,0,1,125.29,286.38Z"/>
          <g>
            <path class="cls-13" d="M163.1,313.89s.69,4-.95,2.41-1.64-4.9,1.82-4.9-.58,12.39-2.88,7c-4-3.7-2.12-7.05,2.11-9.54s4.37,6,4.37,6-3.23,9-6.87,6.95-7.11-6.25-2.78-11.25"/>
            <path class="cls-14" d="M163.1,313.89a11.45,11.45,0,0,1,.17,1.42,5.78,5.78,0,0,1,0,.72.78.78,0,0,1-.32.64.74.74,0,0,1-.68-.23,3.14,3.14,0,0,1-.5-.53,3.28,3.28,0,0,1-.63-1.3,2.56,2.56,0,0,1,.74-2.7,2.86,2.86,0,0,1,1.35-.58,4.63,4.63,0,0,1,.74-.07,1.28,1.28,0,0,1,.75.21,2,2,0,0,1,.72,1.33,6,6,0,0,1,0,1.46,11,11,0,0,1-.62,2.83,6.16,6.16,0,0,1-1.5,2.52,1.57,1.57,0,0,1-.73.36,1.15,1.15,0,0,1-.83-.21,3.17,3.17,0,0,1-.89-1.25l.06.08a9.19,9.19,0,0,1-1.72-2.1,4.45,4.45,0,0,1-.55-2.7,5.19,5.19,0,0,1,1.18-2.49,10.14,10.14,0,0,1,2-1.82,12.2,12.2,0,0,1,1.13-.74,3.6,3.6,0,0,1,1.31-.52,2,2,0,0,1,1.44.3,3.09,3.09,0,0,1,.93,1.08,8.69,8.69,0,0,1,.85,2.58,18.59,18.59,0,0,1,.28,2.68v.08a21,21,0,0,1-2.93,5.44,5,5,0,0,1-2.53,1.86,2.33,2.33,0,0,1-1.6-.24,13.32,13.32,0,0,1-1.31-.84,8.23,8.23,0,0,1-3.49-5,5.67,5.67,0,0,1,.35-3.05,9.45,9.45,0,0,1,1.65-2.58,9.55,9.55,0,0,0-1.57,2.61,5.63,5.63,0,0,0-.26,3,8.14,8.14,0,0,0,3.5,4.76c.83.55,1.7,1.24,2.65,1a4.52,4.52,0,0,0,2.29-1.76,20.84,20.84,0,0,0,2.82-5.34v.08a12.27,12.27,0,0,0-1.09-5,1.84,1.84,0,0,0-1.89-1.13,6.56,6.56,0,0,0-2.22,1.18c-1.39,1-2.74,2.3-3,4a3.89,3.89,0,0,0,.48,2.42,8.79,8.79,0,0,0,1.61,2l0,0,0,0a2.67,2.67,0,0,0,.73,1.06.78.78,0,0,0,1-.12,5.9,5.9,0,0,0,1.41-2.32,10.76,10.76,0,0,0,.65-2.73,5.79,5.79,0,0,0,0-1.38,1.68,1.68,0,0,0-.57-1.14c-.33-.26-.83-.16-1.28-.12a2.66,2.66,0,0,0-1.25.51,2.38,2.38,0,0,0-.74,2.48,3.29,3.29,0,0,0,.58,1.26,2.86,2.86,0,0,0,.46.52c.17.15.39.3.59.24s.26-.36.29-.58a3.35,3.35,0,0,0,0-.71A9.84,9.84,0,0,0,163.1,313.89Z"/>
          </g>
        </g>
        <g>
          <path class="cls-18" d="M90.29,269.39A62.37,62.37,0,0,1,83,273.94a57.29,57.29,0,0,1-17.27,6.36c-7,1.26-15,1.06-17.27,3.64a7.71,7.71,0,0,0-1.82,3.64,6.34,6.34,0,0,0,0,1.81c4.27-2.92,6-2,6.36-1.81,2.29,1.35,2.06,7.14-.91,14.54,2.7-.81,33.72-10.28,43.64-17.27,1.69-1.19,4.92-3.54,5.45-7.27a8.15,8.15,0,0,0-1.81-6.37,7.63,7.63,0,0,0-5.46-2.72A7.2,7.2,0,0,0,90.29,269.39Z"/>
          <ellipse class="cls-19" cx="51.2" cy="293.03" rx="5.45" ry="9.09"/>
          <path class="cls-14" d="M50.3,293.94a2.32,2.32,0,0,1-1.23-1,1.59,1.59,0,0,1,0-1.54,2.91,2.91,0,0,1,2.67-1.5,1.75,1.75,0,0,1,1.2,1,4.36,4.36,0,0,1,.42,1.54,3.82,3.82,0,0,1-.86,3,3,3,0,0,1-3,.64,3.54,3.54,0,0,1-2.4-2,5.43,5.43,0,0,1-.14-3.19,7.13,7.13,0,0,1,1.34-2.9,4,4,0,0,1,2.64-1.77A3.21,3.21,0,0,1,53.54,288a9.34,9.34,0,0,1,1.1,6.19,12.11,12.11,0,0,1-.85,3.06,4.11,4.11,0,0,1-2,2.39,2.41,2.41,0,0,1-1.59,0,6.77,6.77,0,0,1-1.41-.74,4.54,4.54,0,0,1-1.63-2.66,4.51,4.51,0,0,0,1.67,2.61,5.73,5.73,0,0,0,1.4.7,2.26,2.26,0,0,0,1.52,0,4,4,0,0,0,1.95-2.32,11.92,11.92,0,0,0,.83-3,9.21,9.21,0,0,0-1.11-6.05,3,3,0,0,0-2.45-1.59,3.76,3.76,0,0,0-2.46,1.69,6.93,6.93,0,0,0-1.31,2.8,5.15,5.15,0,0,0,.12,3.06A3.3,3.3,0,0,0,49.52,296a2.88,2.88,0,0,0,2.87-.58,3.7,3.7,0,0,0,.84-2.89,4.28,4.28,0,0,0-.4-1.5,1.64,1.64,0,0,0-1.1-1,2.81,2.81,0,0,0-2.59,1.41,1.52,1.52,0,0,0,0,1.5A2.28,2.28,0,0,0,50.3,293.94Z"/>
          <path class="cls-20" d="M91.75,270.59a67.53,67.53,0,0,1-8,5.73A66.53,66.53,0,0,1,75,280.9a47.53,47.53,0,0,1-9.41,2.93,28.86,28.86,0,0,1-9.81.11,31.83,31.83,0,0,0,9.74-.49,49.88,49.88,0,0,0,9.29-3A72.9,72.9,0,0,0,83.56,276c.71-.41,1.41-.83,2.1-1.27s1.39-.87,2.07-1.33C89.1,272.51,90.45,271.58,91.75,270.59Z"/>
          <path class="cls-20" d="M58.93,290.76c1.57-.2,3.12-.46,4.67-.76s3.1-.58,4.63-.95a83.69,83.69,0,0,0,9.08-2.54A58,58,0,0,0,86,282.85a36,36,0,0,0,7.67-5.43,31.47,31.47,0,0,1-7.49,5.77,55.1,55.1,0,0,1-8.7,3.8,78.75,78.75,0,0,1-9.16,2.44A76.17,76.17,0,0,1,58.93,290.76Z"/>
          <path class="cls-20" d="M56.66,299c3.47-1.06,6.91-2.2,10.33-3.37s6.83-2.41,10.19-3.76,6.69-2.77,9.93-4.38a39.15,39.15,0,0,0,9.09-5.84,35.61,35.61,0,0,1-8.92,6.19,106.33,106.33,0,0,1-9.91,4.5c-3.39,1.31-6.8,2.55-10.26,3.65S60.18,298.13,56.66,299Z"/>
          <path class="cls-20" d="M93.66,273.05a15,15,0,0,1-4.16,4.46,30.23,30.23,0,0,1-5.27,3.15,45.08,45.08,0,0,1-5.73,2.19l-3,.8-3,.6,2.94-.84,2.9-.92A55.21,55.21,0,0,0,84,280.21a32.31,32.31,0,0,0,5.27-3,22.45,22.45,0,0,0,2.36-1.89A12.06,12.06,0,0,0,93.66,273.05Z"/>
          <path class="cls-20" d="M58.93,294.56c.08-.27.41-.29.63-.35a6,6,0,0,1,.74-.12l1.49-.18c1-.1,2-.2,3-.34a48.35,48.35,0,0,0,5.85-1.14,46.53,46.53,0,0,0,11-4.4A34.47,34.47,0,0,1,76.41,291a37.77,37.77,0,0,1-5.68,2,42.51,42.51,0,0,1-5.93,1c-1,.09-2,.16-3,.21l-1.5.06-.74.06C59.35,294.32,59,294.31,58.93,294.56Z"/>
        </g>
        <g>
          <path class="cls-21" d="M97.57,268.49a124.13,124.13,0,0,1-6.46,18.1,123.35,123.35,0,0,1-15.36,25.53,11.39,11.39,0,0,1,8.19-.27,11.63,11.63,0,0,1,7.26,9.36c9.09-19.09,23.64-41.82,23.64-41.82S107.57,264.85,97.57,268.49Z"/>
          <path class="cls-22" d="M75.3,314.39a6,6,0,0,1,1.81-3.63c2.69-2.36,7.37-1,10,.91,3,2.16,5.62,6.64,4.09,9.54-1.76,3.35-8.74,3.92-12.67.63C75.45,319.27,75.31,315.23,75.3,314.39Z"/>
          <path class="cls-14" d="M83.78,317a7.23,7.23,0,0,1,0,2,2,2,0,0,1-.38.91.89.89,0,0,1-.93.23A4.68,4.68,0,0,1,80.79,319c-.23-.23-.44-.49-.67-.74a4.89,4.89,0,0,1-.49-.86,2,2,0,0,1,0-2,2.48,2.48,0,0,1,1.66-1.06,4.76,4.76,0,0,1,3.76,1,6.22,6.22,0,0,1,2.29,3.2,3.57,3.57,0,0,1-1,3.7,1.88,1.88,0,0,1-1,.36,6.64,6.64,0,0,1-1,0,14.32,14.32,0,0,1-2-.33,8,8,0,0,1-3.55-1.77,4.55,4.55,0,0,1-1.45-3.64,8.1,8.1,0,0,1,.38-2,6.19,6.19,0,0,1,.81-1.82,3.61,3.61,0,0,1,3.46-1.68,7.68,7.68,0,0,1,3.67,1.45,11.77,11.77,0,0,1,2.83,2.76A6.39,6.39,0,0,1,90,319.31a4.7,4.7,0,0,1-1.77,3.43,5.18,5.18,0,0,1-3.79.74,5.1,5.1,0,0,0,3.75-.79,4.6,4.6,0,0,0,1.69-3.39,6.25,6.25,0,0,0-1.39-3.57,11.66,11.66,0,0,0-2.8-2.72,7.59,7.59,0,0,0-3.59-1.4,3.49,3.49,0,0,0-3.28,1.61A6.06,6.06,0,0,0,78,315a7.85,7.85,0,0,0-.36,1.91,4.3,4.3,0,0,0,1.4,3.44,7.77,7.77,0,0,0,3.43,1.74,15.42,15.42,0,0,0,1.92.34,7.87,7.87,0,0,0,1,0,1.59,1.59,0,0,0,.85-.32,3.34,3.34,0,0,0,1-3.48,6,6,0,0,0-2.2-3.12,4.56,4.56,0,0,0-3.63-1,2.33,2.33,0,0,0-1.58,1,1.94,1.94,0,0,0,0,1.84,5.07,5.07,0,0,0,.47.85c.21.24.42.5.65.73a4.48,4.48,0,0,0,1.58,1.12.82.82,0,0,0,.87-.2,2,2,0,0,0,.39-.89A7.15,7.15,0,0,0,83.78,317Z"/>
          <path class="cls-15" d="M98.55,271.44a96.16,96.16,0,0,1-2.66,10.27,92.72,92.72,0,0,1-3.76,9.92,54,54,0,0,1-5.27,9.22,21.08,21.08,0,0,1-7.93,6.93,16.3,16.3,0,0,0,4.23-3.13,29.49,29.49,0,0,0,3.38-4,56.05,56.05,0,0,0,5.13-9.21,101.19,101.19,0,0,0,3.86-9.83C96.65,278.25,97.69,274.87,98.55,271.44Z"/>
          <path class="cls-15" d="M103,276.67a58.12,58.12,0,0,1-.87,9.75,53.91,53.91,0,0,1-2.53,9.48A34.11,34.11,0,0,1,95,304.52a24.37,24.37,0,0,1-3.39,3.57,21.7,21.7,0,0,1-4.12,2.64,22.24,22.24,0,0,0,7.2-6.44,34.93,34.93,0,0,0,4.51-8.57,57.39,57.39,0,0,0,2.62-9.37c.32-1.6.58-3.2.78-4.82S102.94,278.3,103,276.67Z"/>
          <path class="cls-15" d="M102.08,271.24l1.28-1.86.17-.24-.08.28q-2.65,9.84-6.29,19.37c-1.24,3.17-2.53,6.32-4.07,9.35a42.26,42.26,0,0,1-2.54,4.43A10.66,10.66,0,0,1,87,306.19a10.6,10.6,0,0,0,3.35-3.75,45.45,45.45,0,0,0,2.4-4.46c1.44-3.06,2.74-6.19,3.94-9.36,2.42-6.33,4.57-12.77,6.65-19.22l.09,0Z"/>
          <path class="cls-15" d="M105.31,289.15c-.79,2.14-1.67,4.25-2.61,6.33s-2,4.13-3,6.16-2.19,4-3.44,5.93A38.69,38.69,0,0,1,92.11,313a55,55,0,0,0,3.82-5.66c1.18-1.95,2.28-3.94,3.33-6s2.08-4.05,3.09-6.09S104.35,291.22,105.31,289.15Z"/>
        </g>
        <g>
          <path class="cls-23" d="M105.75,269.39a126.3,126.3,0,0,0,8.18,56.37,12.69,12.69,0,0,1,10-9.32,12.87,12.87,0,0,1,10,2.95c-10-32.72-11.34-39-9.76-48.58C112.78,265.25,112.11,265.76,105.75,269.39Z"/>
          <path class="cls-24" d="M113.93,323c.5-3.61,5-6.41,9-7.13.75-.14,7.64-1.42,10.57,3a8.47,8.47,0,0,1,.9,6.36,11,11,0,0,1-2.72,3.64,11.76,11.76,0,0,1-7.28,2.73,10.72,10.72,0,0,1-7.27-1.82,7.91,7.91,0,0,1-2.94-4.07A7,7,0,0,1,113.93,323Z"/>
          <g>
            <path class="cls-13" d="M125.39,323s-5.61,5-5.06,1.3,8.71-6.58,7.16-1.3-10,7.2-10,3.36,3.38-7.68,7.59-8.64,8.91,4.67,4,8.09-10.78,5.34-12.47,1.51"/>
            <path class="cls-14" d="M125.39,323a15.1,15.1,0,0,1-3.64,2.55,1.45,1.45,0,0,1-1.14.09c-.4-.21-.42-.7-.41-1.06a3.73,3.73,0,0,1,.85-2.08,7.25,7.25,0,0,1,3.76-2.41,3.09,3.09,0,0,1,2.29.16,1.59,1.59,0,0,1,.7,1,2.89,2.89,0,0,1,0,1.17,6.86,6.86,0,0,1-2.25,3.9,9.3,9.3,0,0,1-4,2.1,5.92,5.92,0,0,1-2.3.12,2.26,2.26,0,0,1-1.88-1.41,6.88,6.88,0,0,1,.84-4.47,10.37,10.37,0,0,1,7.13-5.2,5.38,5.38,0,0,1,4.29,1.34A5.67,5.67,0,0,1,131,320.6a4.28,4.28,0,0,1,.31,2.29,4.09,4.09,0,0,1-1,2,7.9,7.9,0,0,1-1.76,1.42,24.45,24.45,0,0,1-3.94,2.11,11.68,11.68,0,0,1-4.35,1,4.38,4.38,0,0,1-2.16-.51,3.66,3.66,0,0,1-1.44-1.65,3.62,3.62,0,0,0,1.47,1.6,4.37,4.37,0,0,0,2.13.44,11.27,11.27,0,0,0,4.25-1.09,24.63,24.63,0,0,0,3.86-2.14A8.07,8.07,0,0,0,130,324.7a3.75,3.75,0,0,0,.92-1.87,3.85,3.85,0,0,0-.31-2.06,5.52,5.52,0,0,0-1.28-1.68,5,5,0,0,0-3.94-1.22,9.93,9.93,0,0,0-6.76,5,8.57,8.57,0,0,0-.76,2,4.71,4.71,0,0,0-.07,2.07,1.78,1.78,0,0,0,1.51,1.11,5.43,5.43,0,0,0,2.12-.1,8.94,8.94,0,0,0,3.81-2,6.56,6.56,0,0,0,2.16-3.64,1.69,1.69,0,0,0-.52-1.81,2.77,2.77,0,0,0-2-.15,7,7,0,0,0-3.65,2.25,3.39,3.39,0,0,0-.85,1.95c0,.34,0,.75.29.91a1.35,1.35,0,0,0,1-.07A15,15,0,0,0,125.39,323Z"/>
          </g>
          <path class="cls-15" d="M121,271.44a73.32,73.32,0,0,0,.05,11.19,81.09,81.09,0,0,0,1.52,11.08c.17.91.36,1.83.59,2.73s.43,1.81.68,2.71c.54,1.79,1,3.59,1.67,5.34a84.59,84.59,0,0,0,4.39,10.29,67.57,67.57,0,0,1-4.75-10.16c-.71-1.74-1.19-3.56-1.75-5.35-.26-.9-.47-1.81-.7-2.72s-.44-1.82-.62-2.74a76.23,76.23,0,0,1-1.42-11.15A62.79,62.79,0,0,1,121,271.44Z"/>
          <path class="cls-15" d="M107.51,271.44c-.05,2,0,3.95,0,5.92s.11,3.93.24,5.9c.24,3.93.57,7.85,1.16,11.74a94.57,94.57,0,0,0,2.36,11.55,57.72,57.72,0,0,0,4.28,11,50.72,50.72,0,0,1-4.65-10.87,87.86,87.86,0,0,1-2.48-11.59c-.55-3.91-.89-7.85-1-11.79A111.33,111.33,0,0,1,107.51,271.44Z"/>
          <path class="cls-15" d="M113.06,268.48c-.31,2.56-.53,5.12-.72,7.67s-.33,5.12-.33,7.69a65.47,65.47,0,0,0,.28,7.67c0,.64.12,1.27.23,1.9s.15,1.28.32,1.9.25,1.25.41,1.87l.58,1.84a26.68,26.68,0,0,1-1.92-7.47,58.55,58.55,0,0,1-.4-7.72c0-2.57.18-5.15.45-7.71S112.57,271,113.06,268.48Z"/>
          <path class="cls-15" d="M116.2,283.48c-.08,1.13-.11,2.27-.11,3.4s0,2.25,0,3.38a63.13,63.13,0,0,0,.55,6.74,48.06,48.06,0,0,0,1.38,6.6,32.29,32.29,0,0,0,2.62,6.22,26,26,0,0,1-3-6.1,44.73,44.73,0,0,1-1.51-6.65,57.35,57.35,0,0,1-.43-6.8A48.2,48.2,0,0,1,116.2,283.48Z"/>
          <path class="cls-15" d="M117.16,270.59q.23.45.48.87a2.28,2.28,0,0,0,.3.38c.11.12.26.18.29.1l.19-.8,0,.84c-.15,3.62-.19,7.25-.12,10.87,0,1.82.14,3.62.23,5.43s.3,3.61.51,5.42a46.89,46.89,0,0,1-.87-5.39c-.2-1.81-.29-3.63-.35-5.45a79.22,79.22,0,0,1,.43-10.89l.16,0a.24.24,0,0,1-.32.1.65.65,0,0,1-.22-.17,3.49,3.49,0,0,1-.28-.43A8.26,8.26,0,0,1,117.16,270.59Z"/>
        </g>
        <g>
          <path class="cls-13" d="M122.57,329.85a10.37,10.37,0,0,0,10.48-6.37"/>
          <path class="cls-14" d="M122.57,329.85a14,14,0,0,0,3.22-.43,11.26,11.26,0,0,0,3-1.24,10.16,10.16,0,0,0,2.45-2,14.31,14.31,0,0,0,1.86-2.67,14.46,14.46,0,0,1-.65,1.52,10.72,10.72,0,0,1-.91,1.39,8.44,8.44,0,0,1-2.5,2.22A9.67,9.67,0,0,1,122.57,329.85Z"/>
        </g>
        <g class="cls-25">
          <g>
            <path class="cls-26" d="M87.08,204.38s-7.72,15.51,0,34.83-4,3.82-4,3.82S73.27,218.43,87.08,204.38Z"/>
            <path class="cls-27" d="M99.72,169.79s-25.63,11-7.13,32.23-3.25,24.29-3.25,24.29,20.53-8.65-.83-25.92S99.72,169.79,99.72,169.79Z"/>
            <path class="cls-28" d="M119.19,153.72s-21.49,16.91-3.63,37.61,0,39,0,39,8.88-25.12-1.87-36.19S101.92,164.66,119.19,153.72Z"/>
            <path class="cls-29" d="M141.75,175.71s-15.72,7.59-3.9,28.67-10.53,43.82-10.53,43.82,16-15.95,10.53-31.23S123.66,183.83,141.75,175.71Z"/>
            <path class="cls-30" d="M88.2,284.89a21.14,21.14,0,0,1-8.64-8.79c-3.79-7.71-.28-14.75,0-23.77.2-6.41-1.16-15.91-9.14-27.9a15.41,15.41,0,0,1,7.38,2.68c6.56,4.72,6.9,13.93,8.17,13.75s-.32-9.06,2.74-19.53c1.58-5.44,3.42-7.86,5.08-11.37,2.95-6.25,5.4-16.09,2.54-31.52a64.53,64.53,0,0,1,6.6,33.59,62.35,62.35,0,0,1-4.06,17.57c.83-.2,10.09-2.61,13.39-11.6a18.89,18.89,0,0,0,.09-12.31s10.1,5.7,8.72,31.6a72.85,72.85,0,0,1,3.2-18c2-6.57,5.69-14.86,7.11-14.46s.11,9.59,0,10.33c-1.59,10.79-5.78,18.23-5.08,18.6s3.09-5.24,9.15-10.33a36.54,36.54,0,0,1,6.09-4.14c-.89.72-10.4,8.59-9.14,19.64a19,19,0,0,0,3,8.27,8.22,8.22,0,0,0,5.08-1c4.46-2.71,6-10.71,3-19.63a48,48,0,0,1,5.09,24.8c-.32,4.6-1.32,16.12-10.17,25.84a37.41,37.41,0,0,1-16.25,10.33,56.32,56.32,0,0,1-34-2.58Z"/>
            <path class="cls-31" d="M92.77,280.24A17.38,17.38,0,0,1,84.64,272a18.26,18.26,0,0,1,0-14.47,23.73,23.73,0,0,0,0-7.23c-.43-2.76-1.3-5-.79-5.25.32-.17,1,.52,1.93,1.63a38.3,38.3,0,0,1,5,7.75,58.79,58.79,0,0,1,4.06-36.17,32.07,32.07,0,0,0,3,16.54,30.11,30.11,0,0,0,4.07,6.2,24.51,24.51,0,0,0,1-5.17,25.89,25.89,0,0,0,0-4.13,55.25,55.25,0,0,0-1-6.2S110,235.8,108,247.17a14.8,14.8,0,0,0,5.08-7.24c1.46-4.94.23-12.1,0-13.43A2.23,2.23,0,0,1,113,226c.48-.19,7.81,17.65,7,25.77a24.42,24.42,0,0,1,1.47-4.87c.14-.33.65-1.61,1.49-3.23a43.34,43.34,0,0,1,5.32-7.83,48.19,48.19,0,0,0-1,12.4,47.64,47.64,0,0,0,1,7.76c0,1-.11,2.57-.11,2.57s2.11-7.23,4.16-9.3c.89,4.79,1.94,14.57-3,24.3-1.7,3.33-3.83,7.48-8.52,10.12-8.58,4.83-19,.81-21.94-.31A33.91,33.91,0,0,1,92.77,280.24Z"/>
            <path class="cls-32" d="M93.79,273a8.71,8.71,0,0,1-3.05-3.1c-2.4-4.17-.53-9.3,0-9.3.24,0,.23,1.06,1.26,2.33a5.64,5.64,0,0,0,.77.77,5.1,5.1,0,0,0,2.2,1,25.66,25.66,0,0,1-1.1-7.37,21.05,21.05,0,0,1,5-14.34c-.44,1.39-2.26,7.4-1,12.4a10.1,10.1,0,0,0,2,4.14c1.15,1.34,2.74,2.36,3.05,2.06s-1.46-2-2-5.16a14,14,0,0,1,0-4.14,33.35,33.35,0,0,1,1-5.16h0c1,3,1.63,5.52,2,7.23.35,1.55.53,2.55,1,4.13a33.9,33.9,0,0,0,2,5.17c-.28-10.75-.18-13.42,0-13.43s.58,3.32,2,8.26c.93,3.19,1.44,4.11,2,4.14,1,0,1.93-2.77,2-3.1.7-2.29.11-3.17,0-8.27v-5.17h0s6.1,10.34,3,20.67a19.15,19.15,0,0,0,2-3.1,19.47,19.47,0,0,0,2-6.2,13.48,13.48,0,0,1-1,12.4,8.3,8.3,0,0,0,3-3.1,8.58,8.58,0,0,0,1-5.17c.23.35,2.17,3.38.94,6.61a6.6,6.6,0,0,1-2,2.7l4.06-3.1a30.93,30.93,0,0,1-9.14,9.3c-3.69,2.39-8,5.17-13.21,4.13C97.72,280,94.46,274.26,93.79,273Z"/>
          </g>
        </g>
      </g>
      <g>
        <polygon class="cls-33" points="188.27 185.43 195.8 185.43 195.8 198.47 187.94 198.47 188.27 185.43"/>
        <polygon class="cls-34" points="195.8 185.43 204.31 160.62 204.31 156.83 195.8 176.4 195.8 185.43"/>
        <path class="cls-35" d="M195.8,198.47h8.51v-13l7-24.81s-5.53-4.41-7,0l-8.51,24.81Z"/>
        <polygon class="cls-36" points="188.27 178.56 188.27 185.43 195.8 185.43 195.8 176.4 188.27 176.4 188.27 178.56"/>
        <path class="cls-36" d="M204.31,156.83s3.36-3.51,7,.84v3s-6-4.75-7,0Z"/>
      </g>
      <g>
        <polygon class="cls-33" points="35.57 184.84 28.04 184.84 28.04 197.88 35.9 197.88 35.57 184.84"/>
        <polygon class="cls-34" points="28.04 184.84 19.53 160.03 19.53 156.25 28.04 175.81 28.04 184.84"/>
        <path class="cls-35" d="M28,197.88H19.53v-13l-7-24.81s5.53-4.4,7,0L28,184.84Z"/>
        <polygon class="cls-36" points="35.57 177.98 35.57 184.84 28.04 184.84 28.04 175.81 35.57 175.81 35.57 177.98"/>
        <path class="cls-36" d="M19.53,156.25s-3.36-3.52-7,.83V160s6-4.74,7,0Z"/>
      </g>
      <path class="cls-4" d="M193.14,271.44s-3.51,39.83,0,69.83c3,30,11.54,92.72,11.54,92.72s-4.07,1.5-6.55,0-10-88.8-10-88.8-3-32.61-3-42.64V271.44Z"/>
      <path class="cls-37" d="M24.22,139.52l0,5.77A11.41,11.41,0,0,0,27.86,149c.69-6.4,0-5.34,0-5.34S26,142.78,24.22,139.52Z"/>
      <path class="cls-37" d="M198.81,138.73l0,6s0,2.19-3.89,4.44c1-6.59.91-5.89.91-5.89S198.84,141.86,198.81,138.73Z"/>
      <g>
        <path class="cls-38" d="M62.45,147.87c-2.68-17.69,6.85-19.57,7.5-29s-1.7-12.17-1.7-12.17,6.75,3.92,5,13.71c-1.38,7.73-3.13,10.82-1.68,11.17s8.63-12.23,5.55-19.89c-6.49-16.09,2-25,2-25s-3.26,11.7,2,19.86c5.33,8.33,1.91,19.5,4.84,15.59s-5.87-18.27-1.63-32S96.69,69,96.69,69s-6.13,13.42-.26,9.5A68,68,0,0,0,109,67.92c.36-.39.7-.79,1-1.19,3-3.78,5.62-8.35,4.75-13.79q-.07-.63-.18-1.23c-.14-.82-.3-1.61-.48-2.38-.15-.55-.32-1.1-.48-1.64-2.85-9.28-7.55-17.93-5.89-23.75,2-6.85,10.44-13.37,10.44-13.37S109.41,18.4,111,27.2s14.68,14.35,13,29.68-12.39,17.61-16,29.68c-1.57,5.28.67,6.69,3.82,6.06a11.21,11.21,0,0,0,1.39-.39c6.28-1.87,9.54-8.39,10.19-14.56.06-.54.11-1,.15-1.56A42,42,0,0,1,125.39,66a40.36,40.36,0,0,1,5.55-10.11s-2.61,4.89-1.31,14.35,3.67,10.32,1.31,18.59c-2.42,8.44-5.82,24.41-2,25.67,2.93,1-.08-8.75,3.26-18.93A39.15,39.15,0,0,1,139.74,82s-4.89,8.48-2,17,8.48,8.48,11.41,19.24c0,0,4.12,0,1.3-14.67,0,0,5.78,13,6.64,26.94,0,.38,0,.76.05,1.15.12,5.58-2,16.5-2,16.5S102,154.94,62.45,147.87Z"/>
        <path class="cls-39" d="M63.71,147.94a22.94,22.94,0,0,1-.35-3.51c-.22-9,3-13.27,5.44-17.73,0,0-1.53,11,2.71,11.2s7.54-12.36,7.95-17.4c.54-6.75-1-8-2.18-12.3a13.78,13.78,0,0,1-.43-6.74,30.16,30.16,0,0,0,3.26,8.05c.87,1.3,2.77,10.17,2.17,13.92-.91,5.75.12,7,3.16,6.75,12.07-1,1.7-18.87,1.3-31-.43-13.27,4.68-18.71,4.68-18.71s0,5.5,3.7,4.36S113.47,70,115.84,62.62c3.87-12-.49-20.12-.49-20.12s7.84,12.62,2.07,23.71S93,92.43,106.22,97.38c9.67,3.61,17.29-6,19.09-13A54.31,54.31,0,0,0,127,70.56s2.4,7.4,1.91,13c-.52,5.92-13.3,34.15-1.36,39.27,5.33,2.28,7-2.45,7.4-8.7.58-8.47-2.18-9.19-.88-15.23,0,0-1.08,4.24,6.1,11.09s5.11,20.13,5.11,20.13,5.87-7.62,7.07-9c.26.83-1.82,27.92-1.82,27.92S103.93,154.32,63.71,147.94Z"/>
        <path class="cls-40" d="M101.54,148c.5,1.28-5.44-12-5-23.72s-3-7.18-3.26-20,4.79-17.84,4.79-17.84-5.22,11.09-2,20,6.53,10.66,4.79,16.76S97.62,138,101.54,148Z"/>
        <path class="cls-41" d="M119.38,99.07c-.44.65-10.44,10.87-8.27,22s7.18,22.84,4.57,31.11c0,0,6.09-15.66.44-27.19S119.38,99.07,119.38,99.07Z"/>
      </g>
      <polygon class="cls-9" points="58.58 155.49 57.33 302.9 34.76 292.85 34.73 152.06 58.58 155.49"/>
      <path class="cls-9" d="M34.76,292.85s-6.44,3.28-4.89,5.62c0,2.62,4.73,4.86,6.43,5.11l1-9.59Z"/>
      <path class="cls-42" d="M34.76,165.86c11.45,2.29,23.68,4.19,36.62,5.52a397.47,397.47,0,0,0,116.89-5.52V153.13s-76.28,13-153.54-1.07C34.73,164.1,34.76,165.86,34.76,165.86Z"/>
      <polygon class="cls-4" points="39.52 273.27 21.46 442.83 30.49 442.83 48.05 273.27 39.52 273.27"/>
      <polygon class="cls-9" points="45.12 297.68 56.82 300.52 56.8 302.94 44.72 302.94 45.12 297.68"/>
      <path class="cls-5" d="M29.73,297.14v5.8l3-.82S29.83,301.16,29.73,297.14Z"/>
    </g>
  </g>
</svg>
