<svg id="Layer_1" data-name="Layer 1" xmlns="http://www.w3.org/2000/svg" xmlns:xlink="http://www.w3.org/1999/xlink" width="207.52" height="260.43" viewBox="0 0 207.52 260.43">
  <defs>
    <style>
      .cls-1, .cls-2, .cls-6 {
        fill: none;
      }

      .cls-1 {
        stroke: #ff0;
        stroke-width: 10px;
      }

      .cls-1, .cls-7, .cls-8 {
        stroke-linejoin: round;
      }

      .cls-3 {
        clip-path: url(#clip-path);
      }

      .cls-4 {
        clip-path: url(#clip-path-2);
      }

      .cls-5 {
        fill: #0a090a;
        opacity: 0.5;
      }

      .cls-6 {
        stroke: #fcfcfc;
        stroke-miterlimit: 10;
        stroke-width: 15px;
      }

      .cls-7, .cls-8 {
        fill: #fcd6c5;
        stroke: #231f20;
        stroke-linecap: round;
      }

      .cls-7 {
        stroke-width: 2px;
      }
    </style>
    <clipPath id="clip-path">
      <rect class="cls-1" x="-355.42" y="-653.98" width="333.64" height="310.61"/>
    </clipPath>
    <clipPath id="clip-path-2">
      <rect class="cls-2" x="-480.55" y="-716.04" width="746.33" height="419.81"/>
    </clipPath>
  </defs>
  <g>
    <g class="cls-3">
      <g class="cls-4">
        <rect class="cls-2" x="15.32" y="-116.54" width="746.33" height="419.81"/>
      </g>
    </g>
    <rect class="cls-1" x="-355.42" y="-653.98" width="333.64" height="310.61"/>
  </g>
  <g>
    <path class="cls-5" d="M34.24,251.38a14.86,14.86,0,0,1,2.51-3.13c-1.62-1.13-2.51-2.67-2.15-3.31A13.45,13.45,0,0,1,38,241.19h0a13.64,13.64,0,0,1,5.87-7.76,45,45,0,0,1,8.52-5q1.76-1.83,3.75-3.78c11.23-11,20.1-58.78,23-67.38,6.17-18,13-33.19,13.92-45.07,1-13.6-6.77-58.72-13.85-89.2h61.41s-4.82,62.32,5.36,87.74c8.26,20.64,33.52,38.75,20.07,54.33-11.37,13.16-28.66,9.86-44.76,23.69-16.26,14-11.39,35.51-29.54,49.75A27.3,27.3,0,0,1,85,242.75a21.69,21.69,0,0,1-4.42,1.46,32.37,32.37,0,0,1-13.22.21c-4.54,2.69-4.69,8-13.87,12.28-8.63,4-14,.63-16.26-2.17C35.21,253.59,33.87,252.06,34.24,251.38Z"/>
    <path class="cls-6" d="M30.22,239.41a14.67,14.67,0,0,1,2.51-3.12c-1.62-1.14-2.52-2.68-2.15-3.32A13.6,13.6,0,0,1,34,229.22h0a13.63,13.63,0,0,1,5.87-7.77,46.1,46.1,0,0,1,8.52-5q1.76-1.83,3.75-3.78c11.23-11,20.1-58.77,23.05-67.38,6.17-18,13-33.19,13.92-45.07,1-13.6-6.77-58.72-13.85-89.2h61.41S131.83,73.36,142,98.78c8.26,20.64,33.52,38.75,20.07,54.33-11.37,13.16-28.66,9.86-44.76,23.69-16.26,14-11.39,35.51-29.54,49.75A27.3,27.3,0,0,1,81,230.78a21.69,21.69,0,0,1-4.42,1.46,32,32,0,0,1-13.22.21c-4.54,2.7-4.69,8-13.87,12.28-8.63,4-14,.63-16.26-2.17C31.19,241.62,29.84,240.09,30.22,239.41Z"/>
    <g>
      <path class="cls-7" d="M75.24,11c7.08,30.48,14.87,75.6,13.85,89.2-.9,11.88-7.75,27.05-13.92,45.07-3,8.61-11.82,56.42-23.05,67.38C49.86,214.9,47.82,217,46,219c0,0-17.33,21.52,17.28,13.48,5.29-1.23,12.11,3.79,24.46-5.9,18.15-14.24,13.28-35.78,29.54-49.75,16.1-13.83,33.39-10.53,44.76-23.69,13.45-15.58-11.81-33.69-20.07-54.33C131.83,73.36,136.65,11,136.65,11"/>
      <g>
        <g>
          <path class="cls-7" d="M51.65,215c-8.35,3.76-8.37,4.21-11.8,6.48a13.7,13.7,0,0,0-5.9,7.87L30.58,233c-.65,1.16,2.77,5.2,7.11,4.64s7.67-5.82,9.38-7.15S53,228.13,53,228.13"/>
          <path class="cls-8" d="M34,229.22s1.34-.21.82,1.33-1.3,2.51-2.36,2.83c-.89.26-1.68.11-1.83-.41A13.6,13.6,0,0,1,34,229.22Z"/>
        </g>
        <g>
          <path class="cls-7" d="M51.41,216.86c-7.58,5.51-7.5,6-10.46,9s-6.46,7.39-7.33,9.83l-3.4,3.76c-.66,1.19,4,5.07,8.25,3.6s7.12-7.26,8.56-9,5.45-3.56,5.45-3.56"/>
          <path class="cls-8" d="M33.63,235.55s1.38-.22.85,1.35-1.3,2.58-2.38,2.92c-.92.28-1.72.12-1.88-.41A13.66,13.66,0,0,1,33.63,235.55Z"/>
        </g>
        <path class="cls-7" d="M62.65,217.25c-5.93,3.12-5.93,3.12-12.84,8s-5.31,5.52-7.62,8.22c-3.26,2.06-9,5.29-10.1,5.92a1.83,1.83,0,0,0-.11,1.08c.59,2.29,6.29,9.48,17.47,4.3,9.18-4.24,9.33-9.58,13.87-12.28,2.94.52,14.43,2.57,24.46-5.9"/>
        <path class="cls-8" d="M42.19,233.43c1.19-.41,2.86.91,2.3,1.36s-8.9,6.25-9.75,5.77a28.61,28.61,0,0,0-2.65-1.21S33.49,236.45,42.19,233.43Z"/>
      </g>
    </g>
  </g>
</svg>
