<svg xmlns="http://www.w3.org/2000/svg" width="214.29" height="236.71" viewBox="0 0 214.29 236.71">
  <defs>
    <style>
      .cls-1 {
        isolation: isolate;
      }

      .cls-2 {
        opacity: 0.5;
      }

      .cls-3 {
        fill: #f8f9f7;
      }

      .cls-4 {
        fill: #93c223;
      }

      .cls-5 {
        fill: #348ba3;
      }

      .cls-6 {
        fill: #c3cbcf;
        mix-blend-mode: multiply;
      }

      .cls-7 {
        fill: #8dc7cc;
      }

      .cls-8 {
        fill: #cce7e9;
      }

      .cls-9 {
        fill: #256880;
      }

      .cls-10 {
        mix-blend-mode: overlay;
        opacity: 0.3;
      }

      .cls-11 {
        fill: #115c7d;
      }

      .cls-12 {
        fill: #eff3f1;
      }

      .cls-13 {
        fill: #f0dfbd;
      }

      .cls-14 {
        fill: #0188aa;
      }

      .cls-15 {
        fill: #08a2c9;
      }

      .cls-16 {
        fill: #946a28;
      }

      .cls-17 {
        fill: #785311;
      }

      .cls-18 {
        fill: #789d14;
      }
    </style>
  </defs>
  <g class="cls-1">
    <g id="Layer_1" data-name="Layer 1">
      <g>
        <path class="cls-2" d="M204.37,207.11V16.18c0-.05,0-.11,0-.16s0-.27,0-.41l0-.26,0-.24,0-.12c0-.07,0-.15-.05-.22s-.07-.26-.11-.38L204,14.2c-.05-.15-.11-.29-.17-.43a.61.61,0,0,0-.05-.12,6.74,6.74,0,0,0-.61-1l-.09-.1c-.09-.12-.19-.24-.29-.35l-.13-.14c-.1-.1-.2-.21-.31-.3l-.09-.08s0,0,0,0l-.24-.19-.18-.13-.26-.17-.18-.12-.3-.16-.16-.08-.41-.17-.07,0a6,6,0,0,0-2.08-.38,6.65,6.65,0,0,0-.88.07l-53.1,7.81h-24a6,6,0,0,0-3.57,1.17l-7,5.14-.15.12-.16.12-.3.28-.09.08c-.12.13-.25.26-.36.4l0,.07-.27.35a1.4,1.4,0,0,1-.1.16,2.75,2.75,0,0,0-.17.29,1.18,1.18,0,0,0-.11.19c0,.09-.09.19-.14.29l-.09.2c-.06.15-.12.3-.17.46s0,.13,0,.19l-.09.33a2.07,2.07,0,0,1,0,.22c0,.11,0,.23,0,.35a1.1,1.1,0,0,0,0,.18,5.44,5.44,0,0,0,0,.57v9.42a6,6,0,0,0-4.18-1.69h-.1l-.17-.19-.09-.1-.41-.38,0,0a4.47,4.47,0,0,0-.41-.32l-.14-.09-.33-.21-.24-.12-.26-.13-.32-.13-.21-.08-.37-.11L100,35l-.38-.07-.18,0h-.08l-25.11-3.5a5.7,5.7,0,0,0-1.65,0l-25.13,3.5h-.06l-.22,0c-.11,0-.23,0-.34.06l-.21.06-.35.1-.23.09a2.52,2.52,0,0,0-.29.12l-.29.14-.22.11-.35.23-.12.07a6,6,0,0,0-.86.73l-.1.12-.15.17h-.11a6,6,0,0,0-5,2.73H35.27a6,6,0,0,0-6,5.62H25.12a6,6,0,0,0-6,6V205.87a13,13,0,0,0,2.81,25.76h176.3a13,13,0,0,0,6.15-24.52Z"/>
        <g>
          <path class="cls-3" d="M198.37,201.11V10.17c0-.05,0-.1,0-.16s0-.27,0-.4,0-.18,0-.27a1.6,1.6,0,0,0,0-.23l0-.13a2.25,2.25,0,0,0-.05-.22c0-.13-.06-.25-.1-.38L198,8.19c-.05-.14-.11-.28-.17-.42l-.05-.12a5.72,5.72,0,0,0-.62-1,.76.76,0,0,1-.08-.11c-.1-.12-.19-.24-.3-.35L196.69,6c-.1-.11-.21-.21-.32-.31l-.08-.08,0,0a2.23,2.23,0,0,0-.24-.19,1.24,1.24,0,0,0-.18-.14l-.25-.17c-.06,0-.12-.08-.19-.11a2.69,2.69,0,0,0-.29-.16l-.17-.09-.41-.17-.06,0a6.07,6.07,0,0,0-2.08-.37,6.51,6.51,0,0,0-.88.06l-53.11,7.82h-24a6,6,0,0,0-3.56,1.17l-7,5.13-.16.13-.15.12-.31.28-.08.08a3.42,3.42,0,0,0-.36.4l-.06.06-.26.36-.1.15-.18.29c0,.07-.07.13-.1.19s-.1.19-.14.29l-.09.2a3.75,3.75,0,0,0-.17.47l-.06.19c0,.11-.06.22-.08.33a1.55,1.55,0,0,0,0,.21l-.06.36a1.1,1.1,0,0,1,0,.18c0,.18,0,.37,0,.56v9.43a6,6,0,0,0-4.17-1.7h-.11L97,30.75l-.09-.1a5.11,5.11,0,0,0-.42-.39l0,0c-.13-.11-.27-.21-.41-.31l-.15-.1a3.62,3.62,0,0,0-.33-.2,1.67,1.67,0,0,0-.23-.12l-.27-.14-.31-.12-.22-.09-.36-.1L94,29l-.37-.07-.19,0h-.07L68.23,25.39a5.77,5.77,0,0,0-1.66,0L41.45,28.88h-.07l-.21,0-.35.07-.21.06-.34.09-.24.1-.29.11-.29.15-.21.11-.36.22-.12.08a5.86,5.86,0,0,0-.85.73,1.31,1.31,0,0,0-.11.12l-.15.16h-.1a6,6,0,0,0-5,2.74H29.26a6,6,0,0,0-6,5.61H19.11a6,6,0,0,0-6,6V199.87a13,13,0,0,0,2.81,25.76h176.3a13,13,0,0,0,6.15-24.52Z"/>
          <g>
            <rect class="cls-4" x="8.89" y="205.57" width="190.35" height="14.06" rx="7.03"/>
            <g>
              <g>
                <rect class="cls-5" x="131.89" y="23.17" width="60.47" height="188.54"/>
                <polygon class="cls-5" points="192.36 23.17 192.36 10.18 138.82 18.05 131.89 23.17 192.36 23.17"/>
                <polygon class="cls-6" points="192.36 10.18 138.82 18.05 131.89 23.17 192.36 10.18"/>
                <rect class="cls-5" x="129.99" y="78.57" width="60.44" height="2.86"/>
                <rect class="cls-5" x="129.99" y="97.82" width="60.44" height="2.86"/>
                <rect class="cls-5" x="129.99" y="117.06" width="60.44" height="2.87"/>
                <rect class="cls-5" x="129.99" y="155.58" width="60.44" height="2.86"/>
                <rect class="cls-5" x="129.99" y="174.82" width="60.44" height="2.86"/>
                <rect class="cls-5" x="107.43" y="23.19" width="24.44" height="188.53"/>
                <polygon class="cls-5" points="131.87 23.19 138.83 18.05 114.39 18.05 107.43 23.19 131.87 23.19"/>
                <polygon class="cls-6" points="131.87 23.19 138.83 18.05 114.39 18.05 107.43 23.19 131.87 23.19"/>
                <g>
                  <g>
                    <g>
                      <rect class="cls-7" x="112.07" y="31.61" width="76.6" height="1.18"/>
                      <rect class="cls-8" x="112.07" y="34.6" width="76.6" height="1.17"/>
                      <rect class="cls-9" x="112.07" y="28.65" width="76.6" height="1.18"/>
                      <rect class="cls-7" x="112.07" y="25.69" width="76.6" height="1.18"/>
                      <rect class="cls-7" x="112.07" y="37.58" width="76.6" height="1.18"/>
                      <rect class="cls-7" x="112.07" y="40.58" width="76.6" height="1.17"/>
                      <rect class="cls-7" x="112.07" y="43.56" width="76.6" height="1.18"/>
                      <rect class="cls-8" x="112.07" y="46.54" width="76.6" height="1.19"/>
                      <rect class="cls-9" x="112.07" y="49.53" width="76.6" height="1.17"/>
                      <rect class="cls-7" x="112.07" y="52.52" width="76.6" height="1.18"/>
                      <rect class="cls-8" x="112.07" y="55.51" width="76.6" height="1.17"/>
                    </g>
                    <rect class="cls-5" x="112.07" y="39.73" width="76.6" height="2.86"/>
                    <rect class="cls-5" x="112.07" y="57.54" width="76.6" height="2.87"/>
                  </g>
                  <g>
                    <g>
                      <rect class="cls-7" x="112.07" y="67.13" width="76.6" height="1.18"/>
                      <rect class="cls-8" x="112.07" y="70.12" width="76.6" height="1.17"/>
                      <rect class="cls-9" x="112.07" y="64.17" width="76.6" height="1.18"/>
                      <rect class="cls-7" x="112.07" y="61.21" width="76.6" height="1.18"/>
                      <rect class="cls-7" x="112.07" y="73.1" width="76.6" height="1.19"/>
                      <rect class="cls-7" x="112.07" y="76.09" width="76.6" height="1.18"/>
                      <rect class="cls-7" x="112.07" y="79.08" width="76.6" height="1.18"/>
                      <rect class="cls-8" x="112.07" y="82.06" width="76.6" height="1.17"/>
                      <rect class="cls-9" x="112.07" y="85.06" width="76.6" height="1.18"/>
                      <rect class="cls-7" x="112.07" y="88.04" width="76.6" height="1.17"/>
                      <rect class="cls-8" x="112.07" y="91.03" width="76.6" height="1.18"/>
                    </g>
                    <rect class="cls-5" x="112.07" y="75.25" width="76.6" height="2.86"/>
                    <rect class="cls-5" x="112.07" y="93.06" width="76.6" height="2.86"/>
                  </g>
                  <g>
                    <g>
                      <rect class="cls-7" x="112.07" y="102.65" width="76.6" height="1.17"/>
                      <rect class="cls-8" x="112.07" y="105.64" width="76.6" height="1.17"/>
                      <rect class="cls-9" x="112.07" y="99.69" width="76.6" height="1.18"/>
                      <rect class="cls-7" x="112.07" y="96.73" width="76.6" height="1.17"/>
                      <rect class="cls-7" x="112.07" y="108.62" width="76.6" height="1.19"/>
                      <rect class="cls-7" x="112.07" y="111.61" width="76.6" height="1.17"/>
                      <rect class="cls-7" x="112.07" y="114.6" width="76.6" height="1.18"/>
                      <rect class="cls-8" x="112.07" y="117.59" width="76.6" height="1.18"/>
                      <rect class="cls-7" x="112.07" y="120.57" width="76.6" height="1.18"/>
                      <rect class="cls-9" x="112.07" y="123.57" width="76.6" height="1.17"/>
                      <rect class="cls-8" x="112.07" y="126.55" width="76.6" height="1.17"/>
                    </g>
                    <rect class="cls-5" x="112.07" y="110.76" width="76.6" height="2.87"/>
                    <rect class="cls-5" x="112.07" y="128.58" width="76.6" height="2.87"/>
                  </g>
                  <g>
                    <g>
                      <rect class="cls-7" x="112.07" y="138.16" width="76.6" height="1.18"/>
                      <rect class="cls-8" x="112.07" y="141.16" width="76.6" height="1.18"/>
                      <rect class="cls-9" x="112.07" y="135.21" width="76.6" height="1.18"/>
                      <rect class="cls-7" x="112.07" y="132.25" width="76.6" height="1.18"/>
                      <rect class="cls-7" x="112.07" y="144.15" width="76.6" height="1.17"/>
                      <rect class="cls-7" x="112.07" y="147.13" width="76.6" height="1.18"/>
                      <rect class="cls-7" x="112.07" y="150.12" width="76.6" height="1.18"/>
                      <rect class="cls-8" x="112.07" y="153.1" width="76.6" height="1.18"/>
                      <rect class="cls-7" x="112.07" y="156.1" width="76.6" height="1.18"/>
                      <rect class="cls-7" x="112.07" y="159.09" width="76.6" height="1.17"/>
                      <rect class="cls-8" x="112.07" y="162.08" width="76.6" height="1.17"/>
                    </g>
                    <rect class="cls-5" x="112.07" y="146.28" width="76.6" height="2.87"/>
                    <rect class="cls-5" x="112.07" y="164.1" width="76.6" height="2.86"/>
                  </g>
                  <g>
                    <g>
                      <rect class="cls-7" x="112.07" y="173.68" width="76.6" height="1.18"/>
                      <rect class="cls-8" x="112.07" y="176.68" width="76.6" height="1.17"/>
                      <rect class="cls-9" x="112.07" y="170.73" width="76.6" height="1.17"/>
                      <rect class="cls-7" x="112.07" y="167.77" width="76.6" height="1.18"/>
                      <rect class="cls-7" x="112.07" y="179.67" width="76.6" height="1.18"/>
                      <rect class="cls-7" x="112.07" y="182.65" width="76.6" height="1.17"/>
                      <rect class="cls-7" x="112.07" y="185.64" width="76.6" height="1.17"/>
                      <rect class="cls-8" x="112.07" y="188.62" width="76.6" height="1.18"/>
                      <rect class="cls-7" x="112.07" y="191.61" width="76.6" height="1.18"/>
                      <rect class="cls-9" x="112.07" y="194.6" width="76.6" height="1.19"/>
                      <rect class="cls-8" x="112.07" y="197.59" width="76.6" height="1.18"/>
                    </g>
                    <rect class="cls-5" x="112.07" y="181.81" width="76.6" height="2.86"/>
                    <rect class="cls-5" x="112.07" y="199.62" width="76.6" height="2.87"/>
                  </g>
                </g>
                <rect class="cls-5" x="160.77" y="25.39" width="1.71" height="181.5"/>
                <rect class="cls-6" x="107.43" y="23.19" width="24.44" height="188.53"/>
              </g>
              <g class="cls-10">
                <rect class="cls-5" x="131.89" y="23.17" width="60.47" height="188.54"/>
                <polygon class="cls-5" points="192.36 23.17 192.36 10.18 138.82 18.05 131.89 23.17 192.36 23.17"/>
                <polygon class="cls-6" points="192.36 10.18 138.82 18.05 131.89 23.17 192.36 10.18"/>
                <rect class="cls-5" x="129.99" y="78.57" width="60.44" height="2.86"/>
                <rect class="cls-5" x="129.99" y="97.82" width="60.44" height="2.86"/>
                <rect class="cls-5" x="129.99" y="117.06" width="60.44" height="2.87"/>
                <rect class="cls-5" x="129.99" y="155.58" width="60.44" height="2.86"/>
                <rect class="cls-5" x="129.99" y="174.82" width="60.44" height="2.86"/>
                <rect class="cls-5" x="107.43" y="23.19" width="24.44" height="188.53"/>
                <polygon class="cls-5" points="131.87 23.19 138.83 18.05 114.39 18.05 107.43 23.19 131.87 23.19"/>
                <polygon class="cls-6" points="131.87 23.19 138.83 18.05 114.39 18.05 107.43 23.19 131.87 23.19"/>
                <g>
                  <g>
                    <g>
                      <rect class="cls-7" x="112.07" y="31.61" width="76.6" height="1.18"/>
                      <rect class="cls-8" x="112.07" y="34.6" width="76.6" height="1.17"/>
                      <rect class="cls-9" x="112.07" y="28.65" width="76.6" height="1.18"/>
                      <rect class="cls-7" x="112.07" y="25.69" width="76.6" height="1.18"/>
                      <rect class="cls-7" x="112.07" y="37.58" width="76.6" height="1.18"/>
                      <rect class="cls-7" x="112.07" y="40.58" width="76.6" height="1.17"/>
                      <rect class="cls-7" x="112.07" y="43.56" width="76.6" height="1.18"/>
                      <rect class="cls-8" x="112.07" y="46.54" width="76.6" height="1.19"/>
                      <rect class="cls-9" x="112.07" y="49.53" width="76.6" height="1.17"/>
                      <rect class="cls-7" x="112.07" y="52.52" width="76.6" height="1.18"/>
                      <rect class="cls-8" x="112.07" y="55.51" width="76.6" height="1.17"/>
                    </g>
                    <rect class="cls-5" x="112.07" y="39.73" width="76.6" height="2.86"/>
                    <rect class="cls-5" x="112.07" y="57.54" width="76.6" height="2.87"/>
                  </g>
                  <g>
                    <g>
                      <rect class="cls-7" x="112.07" y="67.13" width="76.6" height="1.18"/>
                      <rect class="cls-8" x="112.07" y="70.12" width="76.6" height="1.17"/>
                      <rect class="cls-9" x="112.07" y="64.17" width="76.6" height="1.18"/>
                      <rect class="cls-7" x="112.07" y="61.21" width="76.6" height="1.18"/>
                      <rect class="cls-7" x="112.07" y="73.1" width="76.6" height="1.19"/>
                      <rect class="cls-7" x="112.07" y="76.09" width="76.6" height="1.18"/>
                      <rect class="cls-7" x="112.07" y="79.08" width="76.6" height="1.18"/>
                      <rect class="cls-8" x="112.07" y="82.06" width="76.6" height="1.17"/>
                      <rect class="cls-9" x="112.07" y="85.06" width="76.6" height="1.18"/>
                      <rect class="cls-7" x="112.07" y="88.04" width="76.6" height="1.17"/>
                      <rect class="cls-8" x="112.07" y="91.03" width="76.6" height="1.18"/>
                    </g>
                    <rect class="cls-5" x="112.07" y="75.25" width="76.6" height="2.86"/>
                    <rect class="cls-5" x="112.07" y="93.06" width="76.6" height="2.86"/>
                  </g>
                  <g>
                    <g>
                      <rect class="cls-7" x="112.07" y="102.65" width="76.6" height="1.17"/>
                      <rect class="cls-8" x="112.07" y="105.64" width="76.6" height="1.17"/>
                      <rect class="cls-9" x="112.07" y="99.69" width="76.6" height="1.18"/>
                      <rect class="cls-7" x="112.07" y="96.73" width="76.6" height="1.17"/>
                      <rect class="cls-7" x="112.07" y="108.62" width="76.6" height="1.19"/>
                      <rect class="cls-7" x="112.07" y="111.61" width="76.6" height="1.17"/>
                      <rect class="cls-7" x="112.07" y="114.6" width="76.6" height="1.18"/>
                      <rect class="cls-8" x="112.07" y="117.59" width="76.6" height="1.18"/>
                      <rect class="cls-7" x="112.07" y="120.57" width="76.6" height="1.18"/>
                      <rect class="cls-9" x="112.07" y="123.57" width="76.6" height="1.17"/>
                      <rect class="cls-8" x="112.07" y="126.55" width="76.6" height="1.17"/>
                    </g>
                    <rect class="cls-5" x="112.07" y="110.76" width="76.6" height="2.87"/>
                    <rect class="cls-5" x="112.07" y="128.58" width="76.6" height="2.87"/>
                  </g>
                  <g>
                    <g>
                      <rect class="cls-7" x="112.07" y="138.16" width="76.6" height="1.18"/>
                      <rect class="cls-8" x="112.07" y="141.16" width="76.6" height="1.18"/>
                      <rect class="cls-9" x="112.07" y="135.21" width="76.6" height="1.18"/>
                      <rect class="cls-7" x="112.07" y="132.25" width="76.6" height="1.18"/>
                      <rect class="cls-7" x="112.07" y="144.15" width="76.6" height="1.17"/>
                      <rect class="cls-7" x="112.07" y="147.13" width="76.6" height="1.18"/>
                      <rect class="cls-7" x="112.07" y="150.12" width="76.6" height="1.18"/>
                      <rect class="cls-8" x="112.07" y="153.1" width="76.6" height="1.18"/>
                      <rect class="cls-7" x="112.07" y="156.1" width="76.6" height="1.18"/>
                      <rect class="cls-7" x="112.07" y="159.09" width="76.6" height="1.17"/>
                      <rect class="cls-8" x="112.07" y="162.08" width="76.6" height="1.17"/>
                    </g>
                    <rect class="cls-5" x="112.07" y="146.28" width="76.6" height="2.87"/>
                    <rect class="cls-5" x="112.07" y="164.1" width="76.6" height="2.86"/>
                  </g>
                  <g>
                    <g>
                      <rect class="cls-7" x="112.07" y="173.68" width="76.6" height="1.18"/>
                      <rect class="cls-8" x="112.07" y="176.68" width="76.6" height="1.17"/>
                      <rect class="cls-9" x="112.07" y="170.73" width="76.6" height="1.17"/>
                      <rect class="cls-7" x="112.07" y="167.77" width="76.6" height="1.18"/>
                      <rect class="cls-7" x="112.07" y="179.67" width="76.6" height="1.18"/>
                      <rect class="cls-7" x="112.07" y="182.65" width="76.6" height="1.17"/>
                      <rect class="cls-7" x="112.07" y="185.64" width="76.6" height="1.17"/>
                      <rect class="cls-8" x="112.07" y="188.62" width="76.6" height="1.18"/>
                      <rect class="cls-7" x="112.07" y="191.61" width="76.6" height="1.18"/>
                      <rect class="cls-9" x="112.07" y="194.6" width="76.6" height="1.19"/>
                      <rect class="cls-8" x="112.07" y="197.59" width="76.6" height="1.18"/>
                    </g>
                    <rect class="cls-5" x="112.07" y="181.81" width="76.6" height="2.86"/>
                    <rect class="cls-5" x="112.07" y="199.62" width="76.6" height="2.87"/>
                  </g>
                </g>
                <rect class="cls-5" x="160.77" y="25.39" width="1.71" height="181.5"/>
                <rect class="cls-6" x="107.43" y="23.19" width="24.44" height="188.53"/>
              </g>
            </g>
            <g>
              <g>
                <rect class="cls-11" x="29.26" y="39.67" width="76.28" height="17.11"/>
                <rect class="cls-11" x="37.55" y="36.94" width="59.7" height="13.39"/>
                <polygon class="cls-11" points="42.21 48.23 92.59 48.23 92.59 34.84 67.01 34.18 42.21 34.84 42.21 48.23"/>
                <polygon class="cls-12" points="92.59 34.84 67.4 31.33 42.21 34.84 92.59 34.84"/>
              </g>
              <rect class="cls-13" x="19.11" y="45.28" width="95.79" height="166.43"/>
              <rect class="cls-14" x="19.11" y="45.28" width="95.79" height="5.1"/>
              <g>
                <g>
                  <g>
                    <rect class="cls-11" x="69.49" y="56.5" width="11.38" height="10.82"/>
                    <rect class="cls-13" x="74.72" y="56.5" width="0.46" height="10.82"/>
                  </g>
                  <rect class="cls-13" x="69.49" y="67.32" width="11.38" height="0.44"/>
                </g>
                <g>
                  <g>
                    <rect class="cls-11" x="53.16" y="56.5" width="11.37" height="10.82"/>
                    <rect class="cls-13" x="58.38" y="56.5" width="0.47" height="10.82"/>
                  </g>
                  <rect class="cls-13" x="53.16" y="67.32" width="11.37" height="0.44"/>
                </g>
                <g>
                  <g>
                    <rect class="cls-11" x="69.49" y="69.94" width="11.38" height="10.82"/>
                    <rect class="cls-13" x="74.72" y="69.94" width="0.46" height="10.82"/>
                  </g>
                  <rect class="cls-13" x="69.49" y="80.76" width="11.38" height="0.44"/>
                </g>
                <g>
                  <g>
                    <rect class="cls-11" x="53.16" y="69.94" width="11.37" height="10.82"/>
                    <rect class="cls-13" x="58.38" y="69.94" width="0.47" height="10.82"/>
                  </g>
                  <rect class="cls-13" x="53.16" y="80.76" width="11.37" height="0.44"/>
                </g>
                <g>
                  <g>
                    <rect class="cls-11" x="69.49" y="83.39" width="11.38" height="10.82"/>
                    <rect class="cls-13" x="74.72" y="83.39" width="0.46" height="10.82"/>
                  </g>
                  <rect class="cls-13" x="69.49" y="94.21" width="11.38" height="0.44"/>
                </g>
                <g>
                  <g>
                    <rect class="cls-11" x="53.16" y="83.39" width="11.37" height="10.82"/>
                    <rect class="cls-13" x="58.38" y="83.39" width="0.47" height="10.82"/>
                  </g>
                  <rect class="cls-13" x="53.16" y="94.21" width="11.37" height="0.44"/>
                </g>
                <g>
                  <g>
                    <rect class="cls-11" x="69.49" y="96.83" width="11.38" height="10.82"/>
                    <rect class="cls-13" x="74.72" y="96.83" width="0.46" height="10.82"/>
                  </g>
                  <rect class="cls-13" x="69.49" y="107.66" width="11.38" height="0.44"/>
                </g>
                <g>
                  <g>
                    <rect class="cls-11" x="53.16" y="96.83" width="11.37" height="10.82"/>
                    <rect class="cls-13" x="58.38" y="96.83" width="0.47" height="10.82"/>
                  </g>
                  <rect class="cls-13" x="53.16" y="107.66" width="11.37" height="0.44"/>
                </g>
                <g>
                  <g>
                    <rect class="cls-11" x="69.49" y="110.28" width="11.38" height="10.82"/>
                    <rect class="cls-13" x="74.72" y="110.28" width="0.46" height="10.82"/>
                  </g>
                  <rect class="cls-13" x="69.49" y="121.1" width="11.38" height="0.44"/>
                </g>
                <g>
                  <g>
                    <rect class="cls-11" x="53.16" y="110.28" width="11.37" height="10.82"/>
                    <rect class="cls-13" x="58.38" y="110.28" width="0.47" height="10.82"/>
                  </g>
                  <rect class="cls-13" x="53.16" y="121.1" width="11.37" height="0.44"/>
                </g>
                <g>
                  <g>
                    <rect class="cls-11" x="69.49" y="123.73" width="11.38" height="10.81"/>
                    <rect class="cls-13" x="74.72" y="123.73" width="0.46" height="10.81"/>
                  </g>
                  <rect class="cls-13" x="69.49" y="134.54" width="11.38" height="0.44"/>
                </g>
                <g>
                  <g>
                    <rect class="cls-11" x="53.16" y="123.73" width="11.37" height="10.81"/>
                    <rect class="cls-13" x="58.38" y="123.73" width="0.47" height="10.81"/>
                  </g>
                  <rect class="cls-13" x="53.16" y="134.54" width="11.37" height="0.44"/>
                </g>
                <g>
                  <g>
                    <rect class="cls-11" x="69.49" y="137.17" width="11.38" height="10.82"/>
                    <rect class="cls-13" x="74.72" y="137.17" width="0.46" height="10.82"/>
                  </g>
                  <rect class="cls-13" x="69.49" y="147.99" width="11.38" height="0.44"/>
                </g>
                <g>
                  <g>
                    <rect class="cls-11" x="53.16" y="137.17" width="11.37" height="10.82"/>
                    <rect class="cls-13" x="58.38" y="137.17" width="0.47" height="10.82"/>
                  </g>
                  <rect class="cls-13" x="53.16" y="147.99" width="11.37" height="0.44"/>
                </g>
                <g>
                  <g>
                    <rect class="cls-11" x="69.49" y="150.62" width="11.38" height="10.81"/>
                    <rect class="cls-13" x="74.72" y="150.62" width="0.46" height="10.81"/>
                  </g>
                  <rect class="cls-13" x="69.49" y="161.43" width="11.38" height="0.44"/>
                </g>
                <g>
                  <g>
                    <rect class="cls-11" x="53.16" y="150.62" width="11.37" height="10.81"/>
                    <rect class="cls-13" x="58.38" y="150.62" width="0.47" height="10.81"/>
                  </g>
                  <rect class="cls-13" x="53.16" y="161.43" width="11.37" height="0.44"/>
                </g>
                <g>
                  <g>
                    <rect class="cls-11" x="69.49" y="164.06" width="11.38" height="10.81"/>
                    <rect class="cls-13" x="74.72" y="164.06" width="0.46" height="10.81"/>
                  </g>
                  <rect class="cls-13" x="69.49" y="174.88" width="11.38" height="0.44"/>
                </g>
                <g>
                  <g>
                    <rect class="cls-11" x="53.16" y="164.06" width="11.37" height="10.81"/>
                    <rect class="cls-13" x="58.38" y="164.06" width="0.47" height="10.81"/>
                  </g>
                  <rect class="cls-13" x="53.16" y="174.88" width="11.37" height="0.44"/>
                </g>
                <g>
                  <g>
                    <rect class="cls-11" x="69.49" y="177.5" width="11.38" height="10.83"/>
                    <rect class="cls-13" x="74.72" y="177.5" width="0.46" height="10.83"/>
                  </g>
                  <rect class="cls-13" x="69.49" y="188.33" width="11.38" height="0.44"/>
                </g>
                <g>
                  <g>
                    <rect class="cls-11" x="53.16" y="177.5" width="11.37" height="10.83"/>
                    <rect class="cls-13" x="58.38" y="177.5" width="0.47" height="10.83"/>
                  </g>
                  <rect class="cls-13" x="53.16" y="188.33" width="11.37" height="0.44"/>
                </g>
                <g>
                  <g>
                    <rect class="cls-11" x="69.49" y="190.96" width="11.38" height="10.81"/>
                    <rect class="cls-13" x="74.72" y="190.96" width="0.46" height="10.81"/>
                  </g>
                  <rect class="cls-13" x="69.49" y="201.77" width="11.38" height="0.44"/>
                </g>
                <g>
                  <g>
                    <rect class="cls-11" x="53.16" y="190.96" width="11.37" height="10.81"/>
                    <rect class="cls-13" x="58.38" y="190.96" width="0.47" height="10.81"/>
                  </g>
                  <rect class="cls-13" x="53.16" y="201.77" width="11.37" height="0.44"/>
                </g>
              </g>
              <g>
                <rect class="cls-15" x="28.29" y="56.5" width="10.72" height="10.82"/>
                <rect class="cls-15" x="28.29" y="69.94" width="10.72" height="10.82"/>
                <rect class="cls-15" x="28.29" y="83.39" width="10.72" height="10.82"/>
                <rect class="cls-15" x="28.29" y="96.83" width="10.72" height="10.82"/>
                <rect class="cls-15" x="28.29" y="110.28" width="10.72" height="10.82"/>
                <rect class="cls-15" x="28.29" y="123.73" width="10.72" height="10.81"/>
                <rect class="cls-15" x="28.29" y="137.17" width="10.72" height="10.82"/>
                <rect class="cls-15" x="28.29" y="150.62" width="10.72" height="10.81"/>
                <rect class="cls-15" x="28.29" y="164.06" width="10.72" height="10.81"/>
                <rect class="cls-15" x="28.29" y="177.5" width="10.72" height="10.83"/>
                <rect class="cls-15" x="28.29" y="190.96" width="10.72" height="10.81"/>
              </g>
              <g>
                <rect class="cls-15" x="95.59" y="56.5" width="10.73" height="10.82"/>
                <rect class="cls-15" x="95.59" y="69.94" width="10.73" height="10.82"/>
                <rect class="cls-15" x="95.59" y="83.39" width="10.73" height="10.82"/>
                <rect class="cls-15" x="95.59" y="96.83" width="10.73" height="10.82"/>
                <rect class="cls-15" x="95.59" y="110.28" width="10.73" height="10.82"/>
                <rect class="cls-15" x="95.59" y="123.73" width="10.73" height="10.81"/>
                <rect class="cls-15" x="95.59" y="137.17" width="10.73" height="10.82"/>
                <rect class="cls-15" x="95.59" y="150.62" width="10.73" height="10.81"/>
                <rect class="cls-15" x="95.59" y="164.06" width="10.73" height="10.81"/>
                <rect class="cls-15" x="95.59" y="177.5" width="10.73" height="10.83"/>
                <rect class="cls-15" x="95.59" y="190.96" width="10.73" height="10.81"/>
              </g>
              <rect class="cls-12" x="53.16" y="66.29" width="27.71" height="1.91"/>
              <rect class="cls-12" x="53.16" y="79.74" width="27.71" height="1.91"/>
              <rect class="cls-12" x="53.16" y="93.18" width="27.71" height="1.9"/>
              <rect class="cls-12" x="53.16" y="106.62" width="27.71" height="1.91"/>
              <rect class="cls-12" x="53.16" y="120.07" width="27.71" height="1.91"/>
              <rect class="cls-12" x="53.16" y="133.52" width="27.71" height="1.9"/>
              <rect class="cls-12" x="53.16" y="146.96" width="27.71" height="1.91"/>
              <rect class="cls-12" x="53.16" y="160.41" width="27.71" height="1.9"/>
              <rect class="cls-12" x="53.16" y="173.85" width="27.71" height="1.91"/>
              <rect class="cls-12" x="53.16" y="187.29" width="27.71" height="1.91"/>
              <rect class="cls-12" x="53.16" y="200.74" width="27.71" height="1.9"/>
            </g>
            <g>
              <g>
                <rect class="cls-16" x="34.01" y="165.27" width="2.14" height="42.14"/>
                <rect class="cls-17" x="34.01" y="165.27" width="1.02" height="42.14"/>
                <g>
                  <polygon class="cls-16" points="28.3 184.76 28.95 184.03 35.03 190.12 35.01 191.53 28.3 184.76"/>
                  <polygon class="cls-17" points="28.61 184.42 35.02 190.84 35.01 191.53 28.3 184.76 28.61 184.42"/>
                </g>
                <g>
                  <polygon class="cls-16" points="27.49 171.08 28.02 170.26 35.08 175.38 35.03 176.59 27.49 171.08"/>
                  <polygon class="cls-17" points="27.75 170.7 35.03 175.99 35.03 176.59 27.49 171.08 27.75 170.7"/>
                </g>
                <g>
                  <polygon class="cls-16" points="42.81 175.82 43.37 176.64 35.39 182.84 34.54 182.26 42.81 175.82"/>
                  <polygon class="cls-17" points="43.07 176.21 34.94 182.56 34.54 182.26 42.81 175.82 43.07 176.21"/>
                </g>
                <g>
                  <polygon class="cls-16" points="42.81 187.79 43.37 188.59 35.03 195.08 35.01 193.86 42.81 187.79"/>
                  <polygon class="cls-17" points="43.07 188.17 34.94 194.51 34.54 194.22 42.81 187.79 43.07 188.17"/>
                </g>
                <g>
                  <g>
                    <path class="cls-4" d="M37.19,187.78a4.9,4.9,0,0,0,5.11,5.07,5.07,5.07,0,1,0,0-10.14A4.93,4.93,0,0,0,37.19,187.78Z"/>
                    <path class="cls-4" d="M33.37,187.81c0,2,1.69,3.56,4.37,3.56s4.38-1.59,4.38-3.56-1.69-3.55-4.38-3.55S33.37,185.86,33.37,187.81Z"/>
                    <path class="cls-4" d="M44.08,188c0,1.54,1.24,2.78,3.21,2.78s3.22-1.24,3.22-2.78a2.91,2.91,0,0,0-3.22-2.79A2.93,2.93,0,0,0,44.08,188Z"/>
                  </g>
                  <path class="cls-18" d="M37.74,184.26a5.24,5.24,0,0,1,.7.05h0a2.51,2.51,0,0,0-2.3,2.45,2.58,2.58,0,0,0,2.84,2.5,3.88,3.88,0,0,0,.78-.09,4.68,4.68,0,0,0,6.12-.12,2.86,2.86,0,0,0,1.79.57,2.42,2.42,0,0,0,2.68-2.35,2.83,2.83,0,0,0,0-.29,2.89,2.89,0,0,1,.19,1c0,1.54-1.22,2.78-3.22,2.78a4,4,0,0,1-.71-.06,4.88,4.88,0,0,1-4.28,2.17,5,5,0,0,1-3.77-1.53,6.84,6.84,0,0,1-.79.05c-2.68,0-4.37-1.59-4.37-3.56S35.1,184.26,37.74,184.26Z"/>
                </g>
                <g>
                  <path class="cls-4" d="M38.46,176.59a4.66,4.66,0,0,0,4.91,4.78,4.78,4.78,0,1,0,0-9.56A4.7,4.7,0,0,0,38.46,176.59Z"/>
                  <path class="cls-18" d="M42.16,171.94a3.28,3.28,0,0,0-2.24,3.34c0,2,1.55,3.58,4,3.77A3.52,3.52,0,0,0,48,175.5a2.74,2.74,0,0,0-.19-1,4.81,4.81,0,0,1,.47,2.12,4.64,4.64,0,0,1-4.91,4.78,4.78,4.78,0,0,1-1.21-9.43Z"/>
                </g>
                <g>
                  <path class="cls-4" d="M26.62,155.59a5.65,5.65,0,0,1,.73.07c1.45-3.54,4.4-5.91,8.22-5.82a8.15,8.15,0,0,1,6.84,3.95,5.94,5.94,0,0,1,1,0c4.74.12,7.64,4.06,7.52,8.79s-3.14,8.55-7.94,8.42a7.5,7.5,0,0,1-2.94-.65,8.07,8.07,0,0,1-5,1.47A8,8,0,0,1,30,169.89a5.88,5.88,0,0,1-3.74,1.16c-3.95-.11-7.11-3.11-7.11-7.91A7.29,7.29,0,0,1,26.62,155.59Z"/>
                  <g>
                    <path class="cls-18" d="M27.36,155.61l0,0h0Z"/>
                    <path class="cls-18" d="M26.62,155.59a5,5,0,0,1,.69.07,4.7,4.7,0,0,0-3.59,4.62c0,3.11,2.63,5.09,5.92,4.83a5.47,5.47,0,0,0,2.77-1,6.86,6.86,0,0,0,5.66,3,6.75,6.75,0,0,0,3.71-1.11,6.15,6.15,0,0,0,3.54,1.05c3.54,0,5.51-2.88,5.23-6.48A8.33,8.33,0,0,0,49.37,157a9.51,9.51,0,0,1,1.51,5.54c-.11,4.79-3.14,8.55-7.94,8.42a7.5,7.5,0,0,1-2.94-.65,8.07,8.07,0,0,1-5,1.47A8,8,0,0,1,30,169.89a5.88,5.88,0,0,1-3.74,1.16c-3.95-.11-7.11-3.11-7.11-7.91A7.29,7.29,0,0,1,26.62,155.59Z"/>
                  </g>
                </g>
                <g>
                  <path class="cls-4" d="M24.12,170.7A3.2,3.2,0,0,0,27.49,174a3.28,3.28,0,1,0,0-6.56A3.22,3.22,0,0,0,24.12,170.7Z"/>
                  <path class="cls-18" d="M26.66,167.51a2.26,2.26,0,0,0-1.54,2.29,2.68,2.68,0,0,0,2.72,2.58A2.39,2.39,0,0,0,30.65,170a1.91,1.91,0,0,0-.11-.7,3.46,3.46,0,0,1,.32,1.45A3.18,3.18,0,0,1,27.49,174a3.28,3.28,0,0,1-.83-6.47Z"/>
                </g>
                <g>
                  <path class="cls-4" d="M29.87,182a5,5,0,0,0,5.21,5.08,5.08,5.08,0,1,0,0-10.15A5,5,0,0,0,29.87,182Z"/>
                  <path class="cls-18" d="M33.8,177.06a3.48,3.48,0,0,0-2.38,3.53c0,2.09,1.64,3.81,4.21,4S40,183.14,40,180.83a3.07,3.07,0,0,0-.19-1.09,5.26,5.26,0,0,1,.5,2.25,4.93,4.93,0,0,1-5.22,5.08,5.07,5.07,0,0,1-1.28-10Z"/>
                </g>
                <g>
                  <path class="cls-4" d="M20.33,183.14a4.67,4.67,0,0,1,5.5-3.95,5.24,5.24,0,0,1,1.31.35,5.46,5.46,0,0,1,3.16-.43,4.85,4.85,0,0,1,4.34,5.67A4.91,4.91,0,0,1,28.76,189a5.8,5.8,0,0,1-1.91-.62,5.29,5.29,0,0,1-2.48.2A4.57,4.57,0,0,1,20.33,183.14Z"/>
                  <path class="cls-18" d="M20.33,183.14a4.67,4.67,0,0,1,5.5-3.95,5.24,5.24,0,0,1,1.31.35l.09,0-.09.05a3.53,3.53,0,0,0-1.22-.23,3.4,3.4,0,1,0,0,6.79,3.61,3.61,0,0,0,1.4-.29,4.36,4.36,0,0,0,2.25.62,4,4,0,0,0,4.15-3.81,3.68,3.68,0,0,0-1.4-2.85,4.77,4.77,0,0,1,2.32,5A4.91,4.91,0,0,1,28.76,189a5.8,5.8,0,0,1-1.91-.62,5.29,5.29,0,0,1-2.48.2A4.57,4.57,0,0,1,20.33,183.14Z"/>
                </g>
              </g>
              <g>
                <g>
                  <path class="cls-18" d="M33,212.59a6.16,6.16,0,0,1-2-4.48c0-3.76,3.61-6.8,8.06-6.8s8.06,3,8.06,6.8a6.19,6.19,0,0,1-2,4.48Z"/>
                  <path class="cls-18" d="M41.05,212.59a4.57,4.57,0,0,1-.53-2.13c0-2.87,2.76-5.21,6.18-5.21s6.18,2.34,6.18,5.21a4.46,4.46,0,0,1-.54,2.13Z"/>
                  <path class="cls-18" d="M16.52,212.59c.22-2.32,2.51-4.15,5.32-4.15s5.1,1.83,5.32,4.15Z"/>
                  <path class="cls-18" d="M24.47,212.59a4.81,4.81,0,0,1-.82-2.64c0-3,2.9-5.46,6.48-5.46s6.47,2.45,6.47,5.46a4.8,4.8,0,0,1-.8,2.64Z"/>
                  <path class="cls-18" d="M51.74,212.59a3.8,3.8,0,0,1-.06-.59c0-1.76,1.7-3.19,3.79-3.19s3.78,1.43,3.78,3.19a2.88,2.88,0,0,1-.07.59Z"/>
                </g>
                <path class="cls-4" d="M50.52,210.62a3.38,3.38,0,0,0-2.16.75c0-.1,0-.21,0-.32,0-2.68-2.59-4.86-5.77-4.86a6.35,6.35,0,0,0-1.59.19,5.59,5.59,0,0,0-4.23-1.76c-2.51,0-4.6,1.42-5,3.28a6.14,6.14,0,0,0-3.33-.94c-2.95,0-4.7,1.92-4.76,4.31a5.06,5.06,0,0,0-2.63-.79,4.28,4.28,0,0,0-4,2.11h-.55c.22-2.32,2.51-4.15,5.32-4.15a6,6,0,0,1,2,.33c.64-2.44,3.23-4.28,6.32-4.28a8.13,8.13,0,0,1,1.88.23,8.42,8.42,0,0,1,7-3.41,8.25,8.25,0,0,1,7.31,3.95h.4c3.12,0,5.69,1.95,6.11,4.48a4.18,4.18,0,0,1,2.66-.92c2.08,0,3.78,1.43,3.78,3.19a2.88,2.88,0,0,1-.07.59h-5C53.8,211.46,52,210.62,50.52,210.62Z"/>
              </g>
            </g>
            <g>
              <g>
                <rect class="cls-16" x="171.63" y="164.69" width="2.14" height="42.14"/>
                <rect class="cls-17" x="171.63" y="164.69" width="1.02" height="42.14"/>
                <g>
                  <polygon class="cls-16" points="165.93 184.18 166.57 183.44 172.65 189.53 172.63 190.94 165.93 184.18"/>
                  <polygon class="cls-17" points="166.24 183.83 172.64 190.25 172.63 190.94 165.93 184.18 166.24 183.83"/>
                </g>
                <g>
                  <polygon class="cls-16" points="165.11 170.49 165.64 169.68 172.7 174.79 172.65 176.01 165.11 170.49"/>
                  <polygon class="cls-17" points="165.37 170.12 172.65 175.41 172.65 176.01 165.11 170.49 165.37 170.12"/>
                </g>
                <g>
                  <polygon class="cls-16" points="180.44 175.23 180.99 176.06 173.01 182.26 172.16 181.68 180.44 175.23"/>
                  <polygon class="cls-17" points="180.7 175.62 172.56 181.97 172.16 181.68 180.44 175.23 180.7 175.62"/>
                </g>
                <g>
                  <polygon class="cls-16" points="180.44 187.21 180.99 188.01 172.65 194.49 172.63 193.28 180.44 187.21"/>
                  <polygon class="cls-17" points="180.7 187.59 172.56 193.93 172.16 193.64 180.44 187.21 180.7 187.59"/>
                </g>
                <g>
                  <g>
                    <path class="cls-4" d="M174.81,187.19a5.11,5.11,0,1,0,5.11-5.07A4.91,4.91,0,0,0,174.81,187.19Z"/>
                    <path class="cls-4" d="M171,187.22c0,2,1.69,3.57,4.37,3.57s4.39-1.59,4.39-3.57-1.69-3.54-4.39-3.54S171,185.27,171,187.22Z"/>
                    <path class="cls-4" d="M181.7,187.37a2.9,2.9,0,0,0,3.21,2.78c2,0,3.22-1.24,3.22-2.78s-1.24-2.78-3.22-2.78A2.92,2.92,0,0,0,181.7,187.37Z"/>
                  </g>
                  <path class="cls-18" d="M175.36,183.68c.25,0,.47,0,.7,0h0a2.52,2.52,0,0,0-2.3,2.45,2.59,2.59,0,0,0,2.84,2.51,4.07,4.07,0,0,0,.79-.09,4.7,4.7,0,0,0,6.11-.12,2.94,2.94,0,0,0,1.79.56,2.43,2.43,0,0,0,2.69-2.35,2.66,2.66,0,0,0,0-.28,2.89,2.89,0,0,1,.19,1c0,1.54-1.22,2.78-3.22,2.78a4.17,4.17,0,0,1-.71-.05,4.91,4.91,0,0,1-4.28,2.17,5,5,0,0,1-3.77-1.54,5,5,0,0,1-.79.06c-2.68,0-4.37-1.59-4.37-3.57S172.72,183.68,175.36,183.68Z"/>
                </g>
                <g>
                  <path class="cls-4" d="M176.08,176a4.92,4.92,0,1,0,4.91-4.79A4.66,4.66,0,0,0,176.08,176Z"/>
                  <path class="cls-18" d="M179.79,171.36a3.28,3.28,0,0,0-2.25,3.33c0,2,1.55,3.58,4,3.77a3.5,3.5,0,0,0,4.11-3.55,2.74,2.74,0,0,0-.18-1,5,5,0,0,1,.47,2.13,4.92,4.92,0,1,1-6.12-4.65Z"/>
                </g>
                <g>
                  <path class="cls-4" d="M164.25,155a5.66,5.66,0,0,1,.72.07c1.46-3.54,4.4-5.91,8.23-5.82A8.2,8.2,0,0,1,180,153.2a7.31,7.31,0,0,1,.94,0c4.74.12,7.64,4.07,7.52,8.8s-3.13,8.54-7.94,8.41a7.45,7.45,0,0,1-2.93-.64,8.18,8.18,0,0,1-5,1.46,8,8,0,0,1-5-1.88,6,6,0,0,1-3.75,1.15c-4-.1-7.11-3.1-7.11-7.9A7.3,7.3,0,0,1,164.25,155Z"/>
                  <g>
                    <path class="cls-18" d="M165,155h0Z"/>
                    <path class="cls-18" d="M164.25,155a5.05,5.05,0,0,1,.68.07,4.71,4.71,0,0,0-3.59,4.62c0,3.11,2.63,5.1,5.92,4.84a5.52,5.52,0,0,0,2.78-1,6.78,6.78,0,0,0,9.36,1.91,6.22,6.22,0,0,0,3.54,1.05c3.55,0,5.52-2.89,5.24-6.49a8.38,8.38,0,0,0-1.19-3.63A9.47,9.47,0,0,1,188.5,162c-.11,4.78-3.13,8.54-7.94,8.41a7.45,7.45,0,0,1-2.93-.64,8.18,8.18,0,0,1-5,1.46,8,8,0,0,1-5-1.88,6,6,0,0,1-3.75,1.15c-4-.1-7.11-3.1-7.11-7.9A7.3,7.3,0,0,1,164.25,155Z"/>
                  </g>
                </g>
                <g>
                  <path class="cls-4" d="M161.74,170.12a3.37,3.37,0,1,0,3.37-3.28A3.23,3.23,0,0,0,161.74,170.12Z"/>
                  <path class="cls-18" d="M164.28,166.93a2.25,2.25,0,0,0-1.54,2.28,2.68,2.68,0,0,0,2.72,2.58,2.4,2.4,0,0,0,2.82-2.43,1.94,1.94,0,0,0-.12-.7,3.51,3.51,0,0,1,.32,1.46,3.37,3.37,0,1,1-4.2-3.19Z"/>
                </g>
                <g>
                  <path class="cls-4" d="M167.5,181.4a5.21,5.21,0,1,0,5.21-5.07A4.95,4.95,0,0,0,167.5,181.4Z"/>
                  <path class="cls-18" d="M171.42,176.47A3.49,3.49,0,0,0,169,180c0,2.09,1.65,3.81,4.21,4a3.72,3.72,0,0,0,4.36-3.78,3.12,3.12,0,0,0-.18-1.09,5.26,5.26,0,0,1,.49,2.25,5.21,5.21,0,1,1-6.5-4.93Z"/>
                </g>
                <g>
                  <path class="cls-4" d="M158,182.55a4.68,4.68,0,0,1,5.5-4,5.13,5.13,0,0,1,1.31.36,5.4,5.4,0,0,1,3.16-.43,4.83,4.83,0,0,1,4.34,5.67,4.91,4.91,0,0,1-5.88,4.17,6,6,0,0,1-1.91-.62,5.13,5.13,0,0,1-2.47.19A4.57,4.57,0,0,1,158,182.55Z"/>
                  <path class="cls-18" d="M158,182.55a4.68,4.68,0,0,1,5.5-4,5.13,5.13,0,0,1,1.31.36l.09,0a.19.19,0,0,1-.09.05,3.52,3.52,0,0,0-1.22-.22,3.39,3.39,0,1,0,0,6.78,3.61,3.61,0,0,0,1.4-.29,4.37,4.37,0,0,0,2.26.62,4,4,0,0,0,4.15-3.81,3.72,3.72,0,0,0-1.41-2.85,4.79,4.79,0,0,1,2.32,5,4.91,4.91,0,0,1-5.88,4.17,6,6,0,0,1-1.91-.62,5.13,5.13,0,0,1-2.47.19A4.57,4.57,0,0,1,158,182.55Z"/>
                </g>
              </g>
              <g>
                <g>
                  <path class="cls-18" d="M170.58,212a6.19,6.19,0,0,1-2-4.49c0-3.75,3.61-6.8,8.06-6.8s8,3.05,8,6.8a6.19,6.19,0,0,1-2,4.49Z"/>
                  <path class="cls-18" d="M178.67,212a4.61,4.61,0,0,1-.53-2.14c0-2.87,2.76-5.2,6.18-5.2s6.18,2.33,6.18,5.2A4.5,4.5,0,0,1,190,212Z"/>
                  <path class="cls-18" d="M154.14,212c.22-2.33,2.52-4.15,5.32-4.15s5.1,1.82,5.32,4.15Z"/>
                  <path class="cls-18" d="M162.09,212a4.83,4.83,0,0,1-.81-2.64c0-3,2.89-5.46,6.48-5.46s6.46,2.44,6.46,5.46a4.82,4.82,0,0,1-.8,2.64Z"/>
                  <path class="cls-18" d="M189.37,212a3,3,0,0,1-.07-.6c0-1.76,1.71-3.18,3.79-3.18s3.78,1.42,3.78,3.18a3,3,0,0,1-.07.6Z"/>
                </g>
                <path class="cls-4" d="M188.15,210a3.36,3.36,0,0,0-2.17.76c0-.11,0-.22,0-.32,0-2.69-2.58-4.87-5.77-4.87a6.92,6.92,0,0,0-1.59.19,5.57,5.57,0,0,0-4.23-1.76c-2.51,0-4.6,1.42-5,3.28a6.17,6.17,0,0,0-3.34-.94c-2.94,0-4.7,1.92-4.75,4.31a5.1,5.1,0,0,0-2.64-.79,4.26,4.26,0,0,0-4,2.12h-.56c.22-2.33,2.52-4.15,5.32-4.15a6.09,6.09,0,0,1,2,.32c.64-2.44,3.22-4.27,6.32-4.27a7.6,7.6,0,0,1,1.87.23,8.42,8.42,0,0,1,7-3.42,8.24,8.24,0,0,1,7.3,3.95h.4c3.12,0,5.69,2,6.11,4.48a4.18,4.18,0,0,1,2.66-.92c2.09,0,3.78,1.42,3.78,3.18a3,3,0,0,1-.07.6h-5.05C191.43,210.87,189.59,210,188.15,210Z"/>
              </g>
            </g>
          </g>
        </g>
      </g>
    </g>
  </g>
</svg>
