<svg id="Layer_1" data-name="Layer 1" xmlns="http://www.w3.org/2000/svg" width="306.38" height="141.62" viewBox="0 0 306.38 141.62">
  <defs>
    <style>
      .cls-1, .cls-2, .cls-8 {
        fill: #fff;
      }

      .cls-1 {
        stroke: #000;
        opacity: 0.3;
      }

      .cls-1, .cls-2 {
        stroke-miterlimit: 10;
        stroke-width: 10px;
      }

      .cls-2 {
        stroke: #fff;
      }

      .cls-3 {
        fill: #f69757;
      }

      .cls-4 {
        fill: #a46032;
      }

      .cls-5 {
        fill: #de8b51;
      }

      .cls-6 {
        fill: #92562c;
      }

      .cls-7 {
        fill: #211f1f;
      }

      .cls-9 {
        fill: #60412e;
      }

      .cls-10 {
        fill: #785134;
      }
    </style>
  </defs>
  <g>
    <path class="cls-1" d="M296.64,39.69c-.14-1.74-1.92-2.23-2.64-2.36a20.11,20.11,0,0,0-5.75-6.14c-3.41-2.61-6.36-5.13-9.15-7.3-.4-.32-.8-.62-1.19-.91-1.28-1-2.53-1.84-3.77-2.63-5-3.2-9.89-4.84-16.13-3.85-2.57-1.38-5.35-2.24-6.75-1.49s-1.73,2.38-1.55,4.27a14.77,14.77,0,0,0-1.24.82,108.17,108.17,0,0,0-19.55,13c-4.5,3.89-7.58,5.12-11.23,4.3a26.33,26.33,0,0,1-7.27-3.32c-3.49-2.07-7.82-5-13.67-8.49-19-11.41-74.21-11.83-87.38,2.27-10.45,11.21-21.23,28-21.29,42.73v.17c0,.11,0,.22,0,.33-1.65,0-5.67-.59-5,2.1.23,1,3.09,3.55,2.35,4.3-.53.58-2.5.13-3.18.13-1.58,0-3.58-.43-5,.37a8.39,8.39,0,0,1-.07,3c-.56,1.49-2,1-3.32,1-1.51,0-3.07-.09-4.58,0-1.22,0-1.42.42-1.41,1.54s.47,2.21-.91,2.73a13.25,13.25,0,0,1-3.33.13q-3.28,0-6.57,0c-1.41,0-2.82,0-4.24,0a.91.91,0,0,0-1.14.53c-.74,1.19.23,2.46,1,3.24-.42,1-1.33,1.24-2.43,1.51a17.18,17.18,0,0,1-4.08.4c-1.76,0-3.54-.13-5.21-.06A27.8,27.8,0,0,0,34,93c-1.25.37-3.09.6-4.18,1.36.48.81,1.61.89,2.07,1.63a2,2,0,0,1-.33,2.09c-.48.39-1.24.13-1.83.42a14.27,14.27,0,0,0-2,1.28c-1.44,1.22-2.75,2.57-4.65,3a16.36,16.36,0,0,0-2.53.69c-1.93.64-4.35,1-5.91,2.35.37.77,1.84,1.75,1.38,2.79-.37.79-1.46.91-2,1.72-1,1.57.37,1.32.86,2.56a7.57,7.57,0,0,1,0,2.73c-.06.82-.69,1.93-.36,2.76.47,1.15,1.72.81,2.68,1.09a.39.39,0,0,1,.15.06,10.84,10.84,0,0,0,4.3,3.31c14.49,6.77,49.27,11.58,41.53,4.82-6.46-5.63-16.93-10-20.22-11.2l-.11,0c-.2-.08-.4-.13-.59-.21L42,116s-2.93-5.79,10.21-7.32a62.78,62.78,0,0,1,7.17-.37c10.63,0,21.18-5.22,29.08-10.47,1.9-1.25,3.64-2.5,5.2-3.68,3.26,7.34,8.92,13,17.64,13,11.21,0,16.08-.31,19.74-1s8,2.65,5.85,0l-.52-.61,1-.18c3.66-.72,8,2.64,5.85,0s-3.42-3.61-7.88-3.61-4.55-3.84-1.87-7.21c2.12-2.66,9.85-12.06,11.45-20.4,8.77-1.21,46.79,6.28,55.2,10.26a23.59,23.59,0,0,0,4.45,1.51,54.27,54.27,0,0,0,7.93,18.88c3.68,5.28,11.38,4.1,14.6,3.16a19.8,19.8,0,0,0,3.6-.2c1.82.29,3.21.87,3.06.12a4.89,4.89,0,0,0-.25-.73l.23-.06c3-1,6.6,1.18,6.36,0a6.27,6.27,0,0,0-5.55-4.56c-3.59-.17-7-6.92-4-11.88,1.53-2.52,3.56-6,5.18-8.73a16.41,16.41,0,0,0,4.79-4.82c6.5-10.36,12.87-18.57,20-25.16.34,0,.68,0,1,0,0,0,22.32,2,28.85-3.37,2.3-1.88,3.92-3.56,4.56-5.32C296.06,42.85,296.77,41.23,296.64,39.69Z"/>
    <path class="cls-2" d="M292.64,35.69c-.14-1.74-1.92-2.23-2.64-2.36a20.11,20.11,0,0,0-5.75-6.14c-3.41-2.61-6.36-5.13-9.15-7.3-.4-.32-.8-.62-1.19-.91-1.28-1-2.53-1.84-3.77-2.63-5-3.2-9.89-4.84-16.13-3.85-2.57-1.38-5.35-2.24-6.75-1.49s-1.73,2.38-1.55,4.27a14.77,14.77,0,0,0-1.24.82,108.17,108.17,0,0,0-19.55,13c-4.5,3.89-7.58,5.12-11.23,4.3a26.33,26.33,0,0,1-7.27-3.32c-3.49-2.07-7.82-5-13.67-8.49-19-11.41-74.21-11.83-87.38,2.27-10.45,11.21-21.23,28-21.29,42.73v.17c0,.11,0,.22,0,.33-1.65,0-5.67-.59-5,2.1.23,1,3.09,3.55,2.35,4.3-.53.58-2.5.13-3.18.13-1.58,0-3.58-.43-5,.37a8.39,8.39,0,0,1-.07,3c-.56,1.49-2,1-3.32,1-1.51,0-3.07-.09-4.58,0-1.22,0-1.42.42-1.41,1.54s.47,2.21-.91,2.73a13.25,13.25,0,0,1-3.33.13q-3.28,0-6.57,0c-1.41,0-2.82,0-4.24,0a.91.91,0,0,0-1.14.53c-.74,1.19.23,2.46,1,3.24-.42,1-1.33,1.24-2.43,1.51a17.18,17.18,0,0,1-4.08.4c-1.76,0-3.54-.13-5.21-.06A27.8,27.8,0,0,0,30,89c-1.25.37-3.09.6-4.18,1.36.48.81,1.61.89,2.07,1.63a2,2,0,0,1-.33,2.09c-.48.39-1.24.13-1.83.42a14.27,14.27,0,0,0-2,1.28c-1.44,1.22-2.75,2.57-4.65,3a16.36,16.36,0,0,0-2.53.69c-1.93.64-4.35,1-5.91,2.35.37.77,1.84,1.75,1.38,2.79-.37.79-1.46.91-2,1.72-1,1.57.37,1.32.86,2.56a7.57,7.57,0,0,1,0,2.73c-.06.82-.69,1.93-.36,2.76.47,1.15,1.72.81,2.68,1.09a.39.39,0,0,1,.15.06,10.84,10.84,0,0,0,4.3,3.31c14.49,6.77,49.27,11.58,41.53,4.82-6.46-5.63-16.93-10-20.22-11.2l-.11,0c-.2-.08-.4-.13-.59-.21L38,112s-2.93-5.79,10.21-7.32a62.78,62.78,0,0,1,7.17-.37c10.63,0,21.18-5.22,29.08-10.47,1.9-1.25,3.64-2.5,5.2-3.68,3.26,7.34,8.92,13,17.64,13,11.21,0,16.08-.31,19.74-1s8,2.65,5.85,0l-.52-.61,1-.18c3.66-.72,8,2.64,5.85,0s-3.42-3.61-7.88-3.61-4.55-3.84-1.87-7.21c2.12-2.66,9.85-12.06,11.45-20.4,8.77-1.21,46.79,6.28,55.2,10.26a23.59,23.59,0,0,0,4.45,1.51,54.27,54.27,0,0,0,7.93,18.88c3.68,5.28,11.38,4.1,14.6,3.16a19.8,19.8,0,0,0,3.6-.2c1.82.29,3.21.87,3.06.12a4.89,4.89,0,0,0-.25-.73l.23-.06c3-1,6.6,1.18,6.36,0a6.27,6.27,0,0,0-5.55-4.56c-3.59-.17-7-6.92-4-11.88,1.53-2.52,3.56-6,5.18-8.73a16.41,16.41,0,0,0,4.79-4.82c6.5-10.36,12.87-18.57,20-25.16.34,0,.68,0,1,0,0,0,22.32,2,28.85-3.37,2.3-1.88,3.92-3.56,4.56-5.32C292.06,38.85,292.77,37.23,292.64,35.69ZM123.41,54.75h0a2.54,2.54,0,0,1,.53-.31A2.54,2.54,0,0,0,123.41,54.75Zm30,7.69a13.83,13.83,0,0,0,2.12,1.1,13.83,13.83,0,0,1-2.12-1.1Zm93.38-18.36Z"/>
    <g>
      <path class="cls-3" d="M84.08,66.59c.12-3.72,11.33-40.89,33.48-47.71C140,12,184.46,19.93,195.43,27.1c3.6,2.35,7.25,4.69,10.68,6.6a47.68,47.68,0,0,0,6.71,3.2c4,1.48,7.21,1.6,8.93-.69C225.65,31.05,243.69,18,243.69,18c.6-.38,1.17-.76,1.72-1.12-.11-.36-.22-.71-.35-1.07A109.8,109.8,0,0,0,224.92,29.1c-4.5,3.89-7.58,5.12-11.23,4.3a26.33,26.33,0,0,1-7.27-3.32c-3.49-2.07-7.82-5-13.67-8.49-19-11.41-74.21-11.83-87.38,2.27C94.92,35.07,84.14,51.85,84.08,66.59Z"/>
      <path class="cls-3" d="M241.38,19c4-3.52,13.43-5.56,21.59-3a25.41,25.41,0,0,1,5.08,2.47c1.05.63,2.17,1.36,3.31,2.13,3.37,2.29,7,5.07,10.12,7.62a52.28,52.28,0,0,1,7.63,7.34,11.11,11.11,0,0,0,1.94.2c-.85-2.37-2.11-4.93-6.8-8.52-3.41-2.61-6.36-5.13-9.15-7.3-.4-.32-.8-.62-1.19-.91-1.28-1-2.53-1.84-3.77-2.63-6.37-4.06-12.51-5.64-21.52-2.46A17.34,17.34,0,0,0,241.38,19Z"/>
      <path class="cls-4" d="M48.22,104.71h0a62.78,62.78,0,0,1,7.17-.37c10.63,0,21.18-5.22,29.08-10.47a94.58,94.58,0,0,0,8.85-6.6c0-1.51,0-2.34,0-2.34l-1.68-9.1c-3,4.88-14,20.11-32.84,21.33a72.38,72.38,0,0,0-10.73,1.44c0,.46-.23,1-.48,2.19C47.25,102.23,46.93,103.68,48.22,104.71Z"/>
      <path class="cls-5" d="M42.18,87.94l.21.1c1.34.53,2.6.23,3.23,1.94a26.56,26.56,0,0,0,.46,4.53l1.14,1.88c.66,1.21.89,1.62.83,2.22a72.38,72.38,0,0,1,10.73-1.44C77.63,96,88.59,80.72,91.62,75.84l-1.54-8.28-.07,0L89.15,67a3.68,3.68,0,0,1-1,.25,34.12,34.12,0,0,1-3.88-.12c-1.52,0-5.89-.7-5.24,2.1.23,1,3.09,3.55,2.35,4.3-.53.58-2.5.13-3.18.13-1.58,0-3.58-.43-5,.36a8.44,8.44,0,0,1-.07,3c-.56,1.49-2,1-3.32,1-1.51,0-3.07-.09-4.58,0-1.22,0-1.42.42-1.41,1.54s.47,2.21-.91,2.73a13.25,13.25,0,0,1-3.33.13q-3.28,0-6.57,0c-1.41,0-2.82,0-4.24,0a.91.91,0,0,0-1.14.53c-.74,1.19.23,2.46,1,3.24-.42,1-1.33,1.24-2.43,1.51A17.18,17.18,0,0,1,42.18,87.94Z"/>
      <path class="cls-6" d="M206.3,76.09c.5,8.75,4.79,18.45,8.58,23.89s11.86,4,14.9,3.08,6.6,1.18,6.36,0a6.27,6.27,0,0,0-5.55-4.56c-3.59-.17-7-6.92-4-11.88s7.95-13.48,7.95-13.48c1.7-5.22,1.15-8.37-.71-10,0,0-1.7,16.31-14.7,19.67-10.08,2.61-11.61-5.88-10.65-11.31C207.06,73.11,206.22,74.71,206.3,76.09Z"/>
      <path class="cls-6" d="M93.79,82.8c2.5,10.29,8.67,19.57,19.88,19.57s16.08-.31,19.74-1,8,2.64,5.85,0-3.42-3.61-7.88-3.61-4.55-3.84-1.87-7.21S143.89,73,140.72,63.83c-1.64-4.75-5.86-7.61-9.54-9.27,0,0,13,12.35-3.13,26S92.32,85.93,95.31,69.47A22,22,0,0,0,93.79,82.8Z"/>
      <path class="cls-5" d="M84.08,66.59v.17a26.67,26.67,0,0,0,1.06,7.48C93.67,82.5,122,70.75,122,59c0-5.88,3.71-5.52,9.48-3.43,6.8-1,15.1,2.45,22,6.92,9.14,6,49.93,8.66,49.93,8.66s13.31,1.84,24.41-.35,18.85-26.41,18.85-26.41c4.72-6.61,9.6-9.65,13.89-9.74-2.78-8.32-10-18-11.65-20.11l-.32-.41s-1.32.61-3.44,1.71c.13.36.24.71.35,1.07-.55.36-1.12.74-1.72,1.12,0,0-18,13.07-21.94,18.23-1.72,2.29-4.93,2.17-8.93.69a47.68,47.68,0,0,1-6.71-3.2c-3.43-1.91-7.08-4.25-10.68-6.6-11-7.17-55.44-15.13-77.87-8.22C95.41,25.7,84.2,62.87,84.08,66.59Z"/>
      <path class="cls-4" d="M86.6,79l.85,4.59s0,.42,0,1.18c1.37-1.15,2.17-1.93,2.17-1.93,7.72,9.76,18.09,5.33,24,5.33,6.82,0,23.15-14,25.59-17.4s47.63,5.22,56.9,9.61,33.09,4.38,40.43-7.31,14.52-20.67,22.88-27.64c2.7-2.26,2.5-6.34,1-10.83-4.3.08-9.17,3.13-13.88,9.74,0,0-7.78,24.22-18.86,26.41s-24.41.35-24.41.35-40.79-2.71-49.93-8.66c-8.26-1-16.15-4.81-22-6.93a13.06,13.06,0,0,0-6.19,2.57C117.93,63.8,134,74.77,115,78.24s-28,0-28,0S86.89,78.52,86.6,79Z"/>
      <path class="cls-4" d="M131.43,55.52c5.81,2.1,13.7,5.95,22,6.92C146.53,58,138.23,54.54,131.43,55.52Z"/>
      <path class="cls-5" d="M85.82,74.82,86.6,79c.29-.48.44-.76.44-.76s8.95,3.48,28,0,2.93-14.44,10.24-20.16a13.06,13.06,0,0,1,6.19-2.57c-5.77-2.08-9.48-2.44-9.48,3.43C122,70.45,95.07,81.9,85.82,74.82Z"/>
      <path class="cls-4" d="M200,76.88c.5,8.75,4.79,18.45,8.58,23.89s11.86,4,14.89,3.08,6.61,1.18,6.37,0a6.28,6.28,0,0,0-5.55-4.56c-3.59-.17-7-6.91-4-11.88s7.95-13.48,7.95-13.48c1.7-5.22,1.15-8.37-.72-10,0,0-1.69,16.31-14.69,19.67-10.08,2.61-11.61-5.88-10.66-11.31C200.72,73.9,199.88,75.5,200,76.88Z"/>
      <path class="cls-4" d="M87.45,83.59c2.5,10.29,8.67,19.57,19.88,19.57s16.08-.31,19.74-1,8,2.65,5.85,0-3.42-3.61-7.88-3.61-4.55-3.84-1.87-7.21,14.38-17.55,11.21-26.69c-1.64-4.75-5.86-7.61-9.54-9.27,0,0,12.95,12.35-3.13,26S86,86.72,89,70.26A22,22,0,0,0,87.45,83.59Z"/>
      <path class="cls-5" d="M212.82,83.59c13-3.36,14.69-19.67,14.69-19.67-5-4.48-19.73,2.08-25.35,8.36C201.21,77.71,202.74,86.2,212.82,83.59Z"/>
      <path class="cls-5" d="M121.71,81.35c16.08-13.65,3.13-26,3.13-26a29,29,0,0,0-6.3-2c-16.8,0-25.9,8.29-29.57,16.94C86,86.72,105.62,95,121.71,81.35Z"/>
      <path class="cls-5" d="M240.57,42.41c3.18,1.61,11,2.55,19.28,2.69A106.91,106.91,0,0,0,276,44.28c11.7-1.65,12.68-6.38,12.68-6.38a8.13,8.13,0,0,1,2.58-1.51,6.45,6.45,0,0,0-.2-.68,11.11,11.11,0,0,1-1.94-.2,52.28,52.28,0,0,0-7.63-7.34c-3.16-2.55-6.75-5.33-10.12-7.62-1.14-.77-2.26-1.5-3.31-2.13A25.41,25.41,0,0,0,263,16c-8.16-2.56-17.58-.52-21.59,3h0l0,0C235.67,25.53,234.09,36,240.57,42.41Z"/>
      <path class="cls-5" d="M265,32.27c.78,8.78,9.46,3.91,11.65,0a10.48,10.48,0,0,1,4.88-4.1c-3.15-2.55-6.75-5.33-10.12-7.62C267.8,23.05,264.48,26.94,265,32.27Z"/>
      <path class="cls-4" d="M255.56,47.88c.68,0,1.38.06,2.1.06,0,0,22.32,2,28.85-3.37,3.5-2.85,5.43-5.26,4.74-8.18a8.28,8.28,0,0,0-2.58,1.5s-1,4.75-12.68,6.39a106.85,106.85,0,0,1-16.14.83,11.64,11.64,0,0,1-2.5,1.79Z"/>
      <path class="cls-4" d="M240.57,42.41c3.05,3,7.91,5.13,15,5.47l1.79-1a11.64,11.64,0,0,0,2.5-1.79C251.57,45,243.76,44,240.57,42.41Z"/>
      <path class="cls-5" d="M249.48,23.73c.32-.41.73-.9,1.22-1.42-3.56-2.22-3.89-10.56.79-9.09a10.25,10.25,0,0,1,5.75,4c.59-.31,1.21-.59,1.85-.85-2-2.68-9.25-6.78-11.83-5.39C243.66,13,246.93,21.44,249.48,23.73Z"/>
      <path class="cls-7" d="M289.69,33.29s2.77.21,2.95,2.4-1.33,4.57-2.95,3.29S285.09,32.71,289.69,33.29Z"/>
      <path class="cls-4" d="M250.7,22.31a23.8,23.8,0,0,1,6.54-5.06,10.25,10.25,0,0,0-5.75-4C246.81,11.75,247.14,20.09,250.7,22.31Z"/>
      <circle class="cls-7" cx="271.33" cy="30.18" r="5.22"/>
      <path class="cls-7" d="M268.33,30.78A3.62,3.62,0,1,0,272,27.15,3.62,3.62,0,0,0,268.33,30.78Z"/>
      <path class="cls-8" d="M269.1,27.58a1.28,1.28,0,1,1,1.28,1.28A1.28,1.28,0,0,1,269.1,27.58Z"/>
      <path class="cls-9" d="M38,112s-2.93-5.79,10.21-7.32h0c-1.29-1-1-2.48-.65-3.91.25-1.15.45-1.73.48-2.19C33.83,101.66,29.54,108.29,38,112Z"/>
      <path class="cls-10" d="M10.94,108.85a7.57,7.57,0,0,1,0,2.73c-.06.82-.69,1.93-.36,2.76.47,1.15,1.72.81,2.68,1.09a.39.39,0,0,1,.15.06,10.84,10.84,0,0,0,4.3,3.31c14.49,6.77,49.27,11.58,41.53,4.82-6.46-5.63-16.93-10-20.22-11.2l-.11,0c-.2-.08-.4-.13-.59-.21L38,112c-8.49-3.75-4.2-10.38,10-13.43.06-.6-.17-1-.83-2.22l-1.14-1.88A26.56,26.56,0,0,1,45.62,90C45,88.27,43.73,88.57,42.39,88l-.21-.1c-1.76,0-3.54-.13-5.21-.06A27.8,27.8,0,0,0,30,89c-1.25.37-3.09.6-4.18,1.36.48.81,1.61.89,2.07,1.63a2,2,0,0,1-.33,2.09c-.48.39-1.24.13-1.83.42a14.27,14.27,0,0,0-2,1.28c-1.44,1.22-2.75,2.57-4.65,3a17.57,17.57,0,0,0-2.53.69c-1.93.64-4.35,1-5.91,2.35.37.77,1.84,1.75,1.38,2.79-.37.79-1.46.91-2,1.72C9.09,107.86,10.45,107.61,10.94,108.85Z"/>
    </g>
  </g>
</svg>
