<svg id="Layer_1" data-name="Layer 1" xmlns="http://www.w3.org/2000/svg" xmlns:xlink="http://www.w3.org/1999/xlink" width="236.73" height="400.45" viewBox="0 0 236.73 400.45">
  <defs>
    <style>
      .cls-1, .cls-2, .cls-5 {
        fill: none;
      }

      .cls-1, .cls-5 {
        stroke: #ff0;
      }

      .cls-1, .cls-6, .cls-7 {
        stroke-linejoin: round;
      }

      .cls-1 {
        stroke-width: 10px;
      }

      .cls-3 {
        clip-path: url(#clip-path);
      }

      .cls-4 {
        clip-path: url(#clip-path-2);
      }

      .cls-5 {
        stroke-miterlimit: 10;
        stroke-width: 15px;
      }

      .cls-6, .cls-7 {
        fill: #fcd6c5;
        stroke: #231f20;
        stroke-linecap: round;
      }

      .cls-6 {
        stroke-width: 2px;
      }
    </style>
    <clipPath id="clip-path">
      <rect class="cls-1" x="-862.93" y="-653.98" width="333.64" height="310.61"/>
    </clipPath>
    <clipPath id="clip-path-2">
      <rect class="cls-2" x="-988.06" y="-716.04" width="746.33" height="419.81"/>
    </clipPath>
  </defs>
  <g>
    <g class="cls-3">
      <g class="cls-4">
        <rect class="cls-2" x="-492.19" y="-116.54" width="746.33" height="419.81"/>
      </g>
    </g>
    <rect class="cls-1" x="-862.93" y="-653.98" width="333.64" height="310.61"/>
  </g>
  <g>
    <path class="cls-5" d="M17.48,373.22a21.92,21.92,0,0,1,3.74-4.66c-2.4-1.69-3.74-4-3.2-4.94A20.3,20.3,0,0,1,23,358h0a20.35,20.35,0,0,1,8.75-11.55c4.33-2.87,5-3.8,12.69-7.42,1.74-1.82,3.59-3.69,5.57-5.63C66.82,317.11,80,245.92,84.41,233.1c9.19-26.83,19.39-49.41,20.72-67.1,1.53-20.25-10.07-87.42-20.62-132.81H176s-7.18,92.79,8,130.64c12.3,30.73,49.91,57.7,29.88,80.89-16.92,19.59-42.67,14.68-66.64,35.27-24.22,20.8-17,52.88-44,74.08A40.35,40.35,0,0,1,93,360.36a32,32,0,0,1-6.58,2.18,48,48,0,0,1-19.69.31c-6.77,4-7,12-20.65,18.29-12.85,5.95-20.83.93-24.21-3.24C18.93,376.51,16.93,374.22,17.48,373.22Z"/>
    <g>
      <path class="cls-6" d="M84.51,33.19C95.06,78.58,106.66,145.75,105.13,166c-1.33,17.69-11.53,40.27-20.72,67.1-4.39,12.82-17.59,84-34.32,100.33-3.37,3.29-6.4,6.42-9.05,9.35,0,0-25.8,32,25.73,20.07,7.88-1.83,18,5.64,36.42-8.78,27-21.2,19.76-53.28,44-74.08,24-20.59,49.72-15.68,66.64-35.27,20-23.19-17.58-50.16-29.88-80.89C168.77,126,176,33.19,176,33.19"/>
      <g>
        <g>
          <path class="cls-6" d="M49.39,336.82c-12.44,5.59-12.46,6.27-17.56,9.66A20.3,20.3,0,0,0,23,358.18l-5,5.44c-1,1.73,4.13,7.75,10.59,6.9s11.41-8.66,14-10.64,8.83-3.47,8.83-3.47"/>
          <path class="cls-7" d="M23,358s2-.32,1.21,2-1.92,3.75-3.5,4.22c-1.33.4-2.5.16-2.73-.61A20.3,20.3,0,0,1,23,358Z"/>
        </g>
        <g>
          <path class="cls-6" d="M49,339.64c-11.28,8.19-11.16,8.88-15.57,13.33s-9.62,11-10.91,14.65l-5.07,5.6c-1,1.77,6,7.53,12.28,5.34s10.61-10.81,12.75-13.33,8.12-5.3,8.12-5.3"/>
          <path class="cls-7" d="M22.57,367.47s2.05-.34,1.26,2-1.94,3.84-3.55,4.34c-1.36.41-2.56.19-2.8-.6A20.24,20.24,0,0,1,22.57,367.47Z"/>
        </g>
        <path class="cls-6" d="M65.76,340.21c-8.82,4.65-8.82,4.65-19.1,11.86s-7.91,8.22-11.35,12.23c-4.85,3.07-13.43,7.88-15,8.81a2.75,2.75,0,0,0-.16,1.62c.88,3.41,9.36,14.12,26,6.41,13.66-6.33,13.88-14.28,20.65-18.29,4.37.77,21.49,3.83,36.42-8.78"/>
        <path class="cls-7" d="M35.31,364.3c1.77-.61,4.26,1.35,3.42,2s-13.24,9.31-14.52,8.59a42.78,42.78,0,0,0-3.94-1.81S22.36,368.8,35.31,364.3Z"/>
      </g>
    </g>
  </g>
</svg>
