<svg xmlns="http://www.w3.org/2000/svg" width="259.15" height="201.7" viewBox="0 0 259.15 201.7">
  <defs>
    <style>
      .cls-1 {
        isolation: isolate;
      }

      .cls-17, .cls-2, .cls-6 {
        opacity: 0.5;
      }

      .cls-3 {
        fill: #353535;
      }

      .cls-4 {
        fill: #fff;
      }

      .cls-5 {
        fill: #b56823;
      }

      .cls-13, .cls-6, .cls-7 {
        fill: #dd9043;
      }

      .cls-12, .cls-13, .cls-16, .cls-18, .cls-6 {
        mix-blend-mode: multiply;
      }

      .cls-17, .cls-8, .cls-9 {
        fill: #c97d39;
      }

      .cls-8 {
        opacity: 0.8;
      }

      .cls-10 {
        fill: #a05d2b;
      }

      .cls-11, .cls-12 {
        fill: #7a4417;
      }

      .cls-12 {
        opacity: 0.4;
      }

      .cls-13, .cls-15 {
        opacity: 0.25;
      }

      .cls-14 {
        fill: #351c0a;
      }

      .cls-15 {
        fill: #efae59;
        mix-blend-mode: overlay;
      }

      .cls-16 {
        fill: #e58f48;
        opacity: 0.2;
      }

      .cls-18 {
        fill: #994507;
      }
    </style>
  </defs>
  <g class="cls-1">
    <g id="Layer_1" data-name="Layer 1">
      <g>
        <g class="cls-2">
          <path class="cls-3" d="M101.65,200.51a4.72,4.72,0,0,1-3.91-7.3c1.72-2.65,5.07-4.58,10-5.73a4.63,4.63,0,0,0,3.38-3.4c2.91-11.32,3.58-20.37,1.84-24.83-.26-.67-.49-1.31-.7-1.94,0-.14-.21-.65-.21-.65-.12-.39-.26-.8-.37-1.2,0-.16-.1-.33-.14-.5l-.07-.24c-.09-.33-.18-.67-.26-1L111,153c-.06-.31-.13-.62-.19-.93l-.12-.61c-.06-.38-.11-.67-.16-1s-.06-.44-.09-.65-.07-.54-.1-.8,0-.45-.06-.63,0-.51,0-.76,0-.35,0-.54,0-.46,0-.69c0,0,0-.37,0-.51s0-.43,0-.65v-.37c0-.28,0-.5,0-.71v-.24c0-.36.06-.64.09-.9,0,0,.07-.56.1-.73l0-.25s.13-.64.13-.67l.08-.33c0-.22.19-1.54.19-1.54,0-.19.15-1.55.15-1.55,0-.19.1-1.49.1-1.49l.06-1.42V133.7c0-.14,0-1.28,0-1.28l-.07-1.21L111,130l-.14-1.09-.16-1-.21-1-.23-.94c0-.12-.25-.9-.25-.9s-.24-.76-.28-.88-.25-.7-.29-.82l-.34-.84c0-.08-.27-.61-.32-.72l-.37-.78-.35-.68-.41-.74-.4-.68-.42-.68-.43-.65-.44-.66-.9-1.29-.78-1.07-1.1-1.54-.48-.68-.47-.7A75.07,75.07,0,0,1,96.71,102a64.93,64.93,0,0,1-11.52-2.43c-1.9-.57-3.8-1.25-5.65-2l-.15-.06L78.08,97l-.17-.08c-.48-.21-.94-.41-1.43-.64-1-.44-1.86-.88-2.73-1.33a3.47,3.47,0,0,1-.83-.44l-1.1-.6-.24-.14L70.29,93,70,92.84,68.64,92l-.14-.09c-1.1-.71-2.16-1.43-3.16-2.16l-.1-.08c-.45-.32-.93-.68-1.41-1.05l-.29-.23c-.41-.33-.83-.65-1.23-1L62,87.12,60.71,86l-.22-.2c-1.05-.94-2.07-1.9-3.05-2.88l-.16-.17c-.4-.41-.84-.86-1.28-1.33l-.35-.39-1-1.14-.4-.47c-.33-.38-.65-.76-1-1.15l-.42-.51c-.33-.41-.64-.82-1-1.23l-.37-.48c-.44-.58-.85-1.15-1.25-1.72L50,73.94c-.33-.48-.67-1-1-1.47l-.53-.83c-.22-.35-.45-.7-.67-1.06l-.52-.87,2.53-1.63L47.2,69.62l-.6-1-.58-1-.59-1.1-.54-1c-.14-.27-.28-.56-.42-.85l-.2-.41-.45-.92c-.12-.24-.47-1-.47-1-.35-.76-.69-1.53-1-2.32,0,0-.35-.83-.45-1.09s-.26-.66-.39-1l-.16-.42c-.13-.33-.26-.67-.38-1s-.31-.86-.46-1.29-.29-.83-.43-1.25l-.42-1.3c-.14-.44-.28-.9-.42-1.36l-.37-1.26c-.16-.54-.3-1.08-.45-1.62,0,0-.23-.87-.29-1.11-.24-.92-.47-1.85-.68-2.8a1.69,1.69,0,0,0-.2-.5,1.61,1.61,0,0,0-.24-.29,33.16,33.16,0,0,0-11.32-6.72,24.28,24.28,0,0,0-3.46-.93c-9.89-1.91-15.54-3.24-16-8.17a7.43,7.43,0,0,1,.66-4,5.69,5.69,0,0,1,.93-6.45c1.36-1.51,3.58-2.41,6.77-2.73A23.1,23.1,0,0,1,26.4,11.25a21.65,21.65,0,0,1,3.59.3c.36.06.72.11,1.09.15a8.59,8.59,0,0,1,2.53-1l.74-.13.14,0,.65-.06h1.07l.4,0h.13l.34,0,.47.07.37.07.69.16a22.2,22.2,0,0,1,5-.65,15.56,15.56,0,0,1,2.37.18c1.6-2.71,3.84-4.3,6.17-4.3s5,1.63,5.57,6.19a12.53,12.53,0,0,1-.32,4.9c3.52,4.68,5.13,11.77,8.26,25.61l.09.38q.63,2.75,1.33,5.85c1.71,7.45,8.08,13.8,16.23,16.18a20.73,20.73,0,0,0,5.86.88A12.4,12.4,0,0,0,98,62.85l.13-.12c2-2,4-4.29,6.1-6.66,7.63-8.68,16.24-18.5,29.77-18.92h1.5c1.75,0,3,0,3.76-.09a9.56,9.56,0,0,0,1.42-.32,4.89,4.89,0,0,1,.74-.29c2.84-1.22,4.35-3.76,6.25-7,2.81-4.72,6.3-10.61,15.2-10.92l1.48,0a23.89,23.89,0,0,1,12.75,3.14,25.63,25.63,0,0,1,6.47,5.89,2.61,2.61,0,0,1,.22.27l2.08,2.54.72.85.32.37.74.79.75.75c.17.17.35.32.52.48l.26.23.84.69c3.16,2.4,8.76,3.75,14.68,5.18,6.2,1.49,13.22,3.19,19.4,6.51.84.45,1.65.93,2.44,1.43l.31.13.76.36.88.43.9.49.8.45.81.5.79.53.71.5c.16.12.63.48.73.57l.64.52.65.58.64.62.54.56.56.63.53.66.46.62.45.65.42.68.43.75.33.65.29.65.3.7.27.75.25.77.17.6.17.74s.16.78.16.81.12.68.12.72l.08.62.07.73,0,.72,0,.73v1c.58,2,1.11,4.19,1.64,6.62a112.16,112.16,0,0,1,2.15,18.81c0,1.65.05,3.44,0,5.2,0,1.61-.06,3-.14,4.2l0,.73.06.11c0,.08.1.19.17.31s.19.39.26.57l.12.31c.07.19.13.35.18.52s.08.24.12.39.08.3.12.47l.08.34c0,.19.07.36.1.53l0,.29c.05.34.08.6.11.86l0,.28c0,.23,0,.45,0,.67,0,0,0,.74,0,.92v1.3l0,.92,0,.92c0,.21-.07.94-.07.94l-.1,1-.1.85-.12.9-.08.58c0,.25,0,.51,0,.76,3.27,10.73,7.83,18.44,9.92,20.3,5.19,4.61,2.51,8.9.73,11.74a22.35,22.35,0,0,0-3.52,8.3c-1.78,9.42.4,23.72,1.3,28a5.67,5.67,0,0,1-1,4.95c-1.75,2.17-4.55,2.17-5.47,2.17h-.08c0,.2.07.42.11.65a4.93,4.93,0,0,1-4.84,5.85H228a4.94,4.94,0,0,1-4.51-7c1-2.09,3.29-4.83,8.89-6.14.57-.13,2-1.11,3.6-3.91,2-3.51,7.81-16.89-.29-41.48a29.22,29.22,0,0,0-1.45-3.56l-.42-.11a6.89,6.89,0,0,1-1.07-.46c4.29,7.12,2.78,10.3-.2,15.13a46.64,46.64,0,0,0-4.48,8.92c-.36,1-.77,2-1.2,3.05-2.23,5.49-4.76,11.73-3.4,20.65a8.18,8.18,0,0,1,.09,1.46c-.09,3.5-2.36,5.62-6.75,6.29l-.06.33a11,11,0,0,0-.17,1.48,5.22,5.22,0,0,1-1,2.85,5.37,5.37,0,0,1-4.32,2.29l-16.05.2a5.08,5.08,0,0,1-3.93-1.82,4.93,4.93,0,0,1-1.09-4c.8-4.62,4.88-7,11.19-9.39l.24-.08c4.55-1.69,11.48-17.76,14.15-38.14.06-.46.11-.92.14-1.36s0-.86.06-1.29a19.52,19.52,0,0,0-.28-3.52c-.07-.38-.15-.74-.23-1.11a21.49,21.49,0,0,0-.85-2.71,63.77,63.77,0,0,0-4.39-8.59c-3.33-5.81-7.36-12.84-10.25-23.58-8.8,8.88-20.44,13.45-34.69,13.57H161.9l-2.3,0-.59,0-2.35-.1-.43,0c-.9,0-1.79-.1-2.67-.15l-2.89-.22c-.35,1.69-.69,3.3-1,4.85-.87,4.81-1,7.93-.25,9.27,4.55,8.73,6.76,13.54,7.37,27.48.42,9.72,4.74,18.16,7.32,23.19.65,1.29,1.17,2.3,1.54,3.16a5.49,5.49,0,0,1-.21,5.39,5.19,5.19,0,0,1-3,2.13l.1.45a5.63,5.63,0,0,1-5.47,6.85l-15.84.06H141l-.69,0a4.12,4.12,0,0,1-4.25-5,7.94,7.94,0,0,1,7.48-6.91,3.83,3.83,0,0,0,2.49-.84c1.15-1.54,0-7.17-1.05-12.61l-.26-1.33a20.54,20.54,0,0,0-4-9.43,21.85,21.85,0,0,1-4.44-10.19,64.33,64.33,0,0,0-3.62-13.28q-1.53-2.73-2.93-5.4c.84,8.08,1.39,16.83.17,22.64-1.56,7.47-2.72,21.89-1.84,28.06.4,2.77-.05,4.86-1.38,6.39a5.59,5.59,0,0,1-3.22,1.82,6.59,6.59,0,0,1-6.56,6.07Z"/>
        </g>
        <g>
          <path class="cls-4" d="M96.26,195.48a4.71,4.71,0,0,1-3.9-7.29c1.72-2.65,5.07-4.58,10-5.73a4.65,4.65,0,0,0,3.38-3.4c2.91-11.33,3.58-20.38,1.84-24.84-.26-.66-.49-1.3-.7-1.93l-.21-.65c-.13-.4-.26-.81-.37-1.2-.05-.16-.09-.33-.14-.5l-.07-.25c-.09-.33-.18-.67-.26-1l-.17-.73c-.06-.31-.13-.63-.2-.93l-.13-.71c-.05-.29-.1-.58-.14-.86l-.09-.64c0-.29-.07-.56-.1-.82l-.06-.61-.06-.76c0-.24,0-.4,0-.55s0-.46,0-.69v-.48c0-.26,0-.47,0-.68v-.38c0-.27,0-.48,0-.69v-.27c0-.35.06-.63.09-.89,0,0,.07-.57.1-.72,0,0,.14-.78.15-.81l.1-.45c0-.21.19-1.53.19-1.53,0-.19.15-1.56.15-1.56l.1-1.49.06-1.42c0-.15,0-1.35,0-1.35l0-1.29c0-.14-.07-1.21-.07-1.21s-.09-1-.11-1.16-.09-.74-.09-.74l0-.36-.16-1-.21-1-.23-1-.25-.89c0-.11-.24-.77-.28-.88s-.25-.71-.29-.83l-.34-.83-.32-.73L103,116l-.35-.68-.41-.74-.41-.68-.41-.67-.43-.66-.44-.65-.45-.65-1.23-1.72c-.36-.49-.71-1-1.1-1.54l-.48-.68-.48-.7A76.07,76.07,0,0,1,91.33,97a64.93,64.93,0,0,1-11.52-2.43c-1.9-.58-3.8-1.25-5.65-2L74,92.5c-.44-.17-.87-.36-1.31-.55l-.18-.07-1.42-.64c-1-.44-1.86-.88-2.73-1.34a3.11,3.11,0,0,1-.83-.43l-1.1-.61-.24-.14q-.65-.36-1.29-.75l-.27-.16c-.46-.27-.9-.55-1.38-.85l-.15-.1C62,86.16,61,85.43,60,84.71l-.09-.07c-.47-.34-.95-.7-1.42-1.07l-.29-.22c-.42-.33-.83-.66-1.23-1l-.32-.26c-.44-.37-.86-.72-1.28-1.09l-.22-.19c-1.06-.94-2.08-1.91-3-2.89l-.16-.16c-.41-.41-.84-.87-1.28-1.34L50.27,76l-1-1.15-.39-.46c-.34-.38-.65-.77-1-1.16l-.42-.5-1-1.24-.37-.47c-.44-.58-.85-1.15-1.25-1.72l-.29-.43c-.33-.47-.67-1-1-1.46l-.53-.84c-.22-.34-.45-.7-.67-1.06s-.35-.59-.53-.89l0-.08c-.2-.33-.39-.66-.59-1s-.39-.68-.58-1-.36-.66-.54-1l-.59-1.12c-.14-.27-.28-.56-.42-.85l-.2-.41-.45-.93c-.12-.23-.48-1-.48-1-.34-.75-.68-1.53-1-2.31l-.45-1.08c-.12-.3-.39-1-.39-1L36,52.36l-.38-1c-.16-.41-.31-.85-.46-1.29s-.29-.82-.43-1.24-.29-.87-.42-1.3-.28-.91-.42-1.37l-.37-1.25c-.16-.54-.3-1.08-.45-1.62l-.09-.36c-.07-.24-.14-.5-.21-.76-.23-.91-.46-1.85-.67-2.79a1.77,1.77,0,0,0-.21-.51,1.18,1.18,0,0,0-.23-.28,32.94,32.94,0,0,0-11.32-6.72,22.49,22.49,0,0,0-3.46-.93C6.94,29,1.29,27.66.8,22.73a7.43,7.43,0,0,1,.66-4,5.69,5.69,0,0,1,.93-6.45C3.75,10.79,6,9.89,9.16,9.57A23,23,0,0,1,21,6.23a21.77,21.77,0,0,1,3.6.3c.36.06.72.11,1.09.14a8.58,8.58,0,0,1,2.53-1c.25-.06.47-.09.73-.13l.14,0c.19,0,.39,0,.66-.06h1.07l.4,0h.13l.33,0,.49.08.34.06.71.17a22.27,22.27,0,0,1,5-.66,14.48,14.48,0,0,1,2.37.19c1.6-2.71,3.84-4.3,6.17-4.3s5,1.62,5.56,6.18a12.32,12.32,0,0,1-.31,4.9c3.52,4.69,5.13,11.77,8.26,25.62.44,1.94.91,4,1.42,6.23,1.71,7.45,8.08,13.8,16.23,16.18a21.1,21.1,0,0,0,5.86.88,12.45,12.45,0,0,0,8.9-3.22l.13-.12c2-2.05,4-4.3,6.1-6.67,7.62-8.68,16.24-18.49,29.77-18.91h.25l.71,0h.54c1.75,0,2.94,0,3.76-.09a11.4,11.4,0,0,0,1.42-.32,4.52,4.52,0,0,1,.74-.29c2.84-1.23,4.35-3.76,6.24-7,2.81-4.73,6.31-10.61,15.21-10.92l1.48,0a23.92,23.92,0,0,1,12.75,3.14,25.87,25.87,0,0,1,6.46,5.89,3,3,0,0,1,.23.27l2.08,2.54.72.85.32.36L182,27l.31.33.47.47s.2.21.28.28l.53.49.26.23c.28.24.56.47.85.69,3.15,2.4,8.75,3.75,14.67,5.18,6.2,1.49,13.22,3.18,19.4,6.51.84.45,1.66.93,2.43,1.42l.32.14.77.36.87.43L224,44l.81.46.8.5.79.52.72.51.74.57.63.52.65.58.63.61.55.57.56.63.54.67.45.6.45.65.47.77s.36.63.37.67l.34.65.29.64.3.71.27.74s.23.74.25.77l.19.71.15.64s.16.77.16.81.12.68.12.71l.08.63.07.73.05.72,0,.72v1c.58,2,1.11,4.19,1.64,6.62a112.41,112.41,0,0,1,2.15,18.82c0,1.64.05,3.44,0,5.19s-.06,3-.15,4.26c0,.21,0,.44,0,.67l.06.11.18.35q.13.26.24.51c0,.09.09.23.14.36s.12.32.17.49l.12.39c0,.12.07.27.1.42s.09.34.11.44.06.33.09.51l0,.28c.05.31.08.58.11.85l0,.29q0,.31.06.66l0,.9s0,.75,0,.93v.37l0,.93,0,.92c0,.21-.07,1-.07,1,0,.3-.11,1-.11,1s-.06.59-.09.83l-.12.91-.09.58v.76c3.27,10.73,7.83,18.44,9.92,20.3,5.19,4.61,2.51,8.9.73,11.74a22.35,22.35,0,0,0-3.52,8.3c-1.79,9.46.33,23.4,1.3,28a5.67,5.67,0,0,1-1,5c-1.75,2.16-4.55,2.16-5.48,2.16H242c0,.21.07.43.11.65a4.93,4.93,0,0,1-4.84,5.86H222.62a4.95,4.95,0,0,1-4.52-7c1-2.1,3.3-4.85,8.9-6.15.56-.13,2-1.11,3.6-3.91,2-3.51,7.81-16.89-.29-41.48a26.64,26.64,0,0,0-1.46-3.56,2.77,2.77,0,0,1-.41-.12,5.39,5.39,0,0,1-1.07-.46c4.29,7.13,2.77,10.3-.2,15.14a45.49,45.49,0,0,0-4.48,8.92c-.36,1-.76,2-1.18,3-2.25,5.54-4.79,11.77-3.42,20.7a8,8,0,0,1,.09,1.45c-.09,3.51-2.36,5.62-6.75,6.3l-.06.33a11.05,11.05,0,0,0-.17,1.47,5.36,5.36,0,0,1-5.26,5.15l-16.06.19a5.1,5.1,0,0,1-3.93-1.81,4.94,4.94,0,0,1-1.09-4c.8-4.61,4.88-7,11.19-9.38l.24-.09c4.55-1.68,11.48-17.76,14.15-38.13.06-.46.11-.92.14-1.37s0-.86.06-1.29a19.52,19.52,0,0,0-.28-3.52c-.07-.37-.15-.73-.23-1.1a24,24,0,0,0-.85-2.72,64.29,64.29,0,0,0-4.39-8.58c-3.33-5.82-7.36-12.85-10.25-23.58-8.8,8.88-20.45,13.44-34.69,13.57h-3.43l-2.3,0-.59,0c-.79,0-1.57,0-2.35-.09l-.43,0-2.67-.16c-1-.06-1.94-.14-2.89-.22-.35,1.64-.69,3.3-1,4.86-.87,4.81-1,7.92-.26,9.27,4.56,8.73,6.77,13.54,7.37,27.47.43,9.73,4.75,18.16,7.33,23.2.65,1.28,1.17,2.29,1.54,3.16a5.49,5.49,0,0,1-.21,5.39,5.24,5.24,0,0,1-3,2.13l.1.44a5.63,5.63,0,0,1-5.48,6.86l-15.83,0-.24,0-.69,0a4.11,4.11,0,0,1-4.25-5,7.94,7.94,0,0,1,7.48-6.92,3.84,3.84,0,0,0,2.49-.83c1.15-1.54,0-7.17-1-12.62l-.26-1.32a20.53,20.53,0,0,0-4-9.43,22,22,0,0,1-4.43-10.2A63.89,63.89,0,0,0,127.24,136c-1-1.82-2-3.63-2.93-5.4.84,8.07,1.39,16.83.17,22.63-1.56,7.48-2.72,21.9-1.84,28.07.4,2.77-.06,4.86-1.38,6.39a5.61,5.61,0,0,1-3.23,1.82,6.57,6.57,0,0,1-6.55,6.07Z"/>
          <g>
            <g>
              <path class="cls-5" d="M244.93,182.48c.86,4-4.58,2.34-6.2,2.61-.92.17-.55,3.54-.24,5.1a1.28,1.28,0,0,1-1.26,1.51H222.62a1.3,1.3,0,0,1-1.2-1.82c.63-1.36,2.25-3.13,6.41-4.1,6.43-1.48,15.89-19.89,5.94-50.08a31.45,31.45,0,0,0-14-17.32,46.31,46.31,0,0,1-5.5-3.74c-7.8-6.11-15.73-16.4-14.69-32.63.85-13.34,3.42-22.62,6.69-28.24,4.35-7.44,10-8.41,14.46-3.75,0,0,5.74,2.64,9.4,11.06,2.14,4.91,3.56,11.77,2.73,21.21a83.27,83.27,0,0,0,1.73,24.76c3.24,14.88,9.57,26.39,12.93,29.38,5.07,4.51-2,6.2-3.95,16.64S244.1,178.54,244.93,182.48Z"/>
              <path class="cls-5" d="M153.94,184.82a1,1,0,0,0-1.11,1.27l.77,3.38a2,2,0,0,1-1.92,2.4l-15.85.06c-.89,0-1.73.26-1.57-.64a4.32,4.32,0,0,1,4.23-3.94c8.39-.77,6.67-7.66,4.42-19.12s-6.77-10.15-8.46-19.56-3.95-14.28-3.95-14.28a168.53,168.53,0,0,1-11-23.17c-5-13.42-4.61-19.79-4.6-20.45.56-19.55,14.1-13.53,25.2-6,7.81,5.3,2.74,20.6.64,32.19-.88,4.85-1.23,9.06.1,11.61,4.51,8.65,6.4,13,7,25.94s7.47,23.69,9.16,27.64C158.1,184.81,155.64,185,153.94,184.82Z"/>
              <path class="cls-6" d="M140.73,117c-8,.68-14.3.4-21.24-5.73-5-13.42-4.61-19.79-4.6-20.45.56-19.55,14.1-13.53,25.2-6C147.9,90.06,142.83,105.36,140.73,117Z"/>
              <path class="cls-6" d="M234.64,107.05a99,99,0,0,1-20.32,7.59c-7.8-6.11-15.73-16.4-14.69-32.63.85-13.34,3.42-22.62,6.69-28.24a115.83,115.83,0,0,1,23.86,7.31c2.14,4.91,3.56,11.77,2.73,21.21A83.27,83.27,0,0,0,234.64,107.05Z"/>
              <path class="cls-7" d="M203,86.38a7.29,7.29,0,0,1-2.16.44c-2.53-.28-9.58,22.56-40.88,22.84a155.15,155.15,0,0,1-36.45-4c-1.31-.3-2.58-.62-3.82-1l-1.12-.31c-8.45-2.3-15.28-5-19.64-7.63a18.84,18.84,0,0,1-4.11-3.13s-.34,0-1,0c-.17,0-.38,0-.59-.06a62.84,62.84,0,0,1-40-19.68c-7.45-8-14-19.36-17.58-35.28A5.41,5.41,0,0,0,35,37a4.92,4.92,0,0,0-.87-1.06,36.78,36.78,0,0,0-12.63-7.51,26.9,26.9,0,0,0-3.95-1.06c-13.59-2.62-14.13-4-12.44-7.75a1.71,1.71,0,0,0,.07-.18,2.13,2.13,0,0,0,0-1.55h0A1.34,1.34,0,0,0,5,17.59a2.21,2.21,0,0,1,.09-2.82c.72-.8,2.28-1.46,5.25-1.64h0a19.2,19.2,0,0,1,13.63-3c9.06,1.53,12.26-3.95,20.58.43,7.24,3.8,8.19,11,13.54,34.26,2.19,9.53,10.26,16.37,18.76,18.86,6.76,2,13.79,1.19,18.33-3.23l.13-.12c9.71-9.72,18.13-24.07,33.41-24.55h.31c.58,0,1.19,0,1.81,0a15.43,15.43,0,0,0,6-.74l.52-.22c9.24-3.76,8.09-17.22,20.29-17.65,5.63-.2,9.37.86,12.2,2.59,5.26,3.19,7.39,8.66,12.61,12.64,7.37,5.61,22.77,5.65,34.57,12a27.38,27.38,0,0,1,11.68,11.4C237.42,72.21,211.08,84,203,86.38Z"/>
              <path class="cls-8" d="M201.56,81.94c-2.54-.29-9.59,22.55-40.89,22.84S101.45,95.19,95.53,88.7c0,0-46.81-.41-59.17-55A8.51,8.51,0,0,0,34.85,31c-9-5.93-30.54-6.73-29.71-11.61a2.38,2.38,0,0,1,0,.46c-1.69,3.71-1.18,4.85,12.41,7.47a26.9,26.9,0,0,1,3.95,1.06,36.78,36.78,0,0,1,12.63,7.51A4.92,4.92,0,0,1,35,37a5.41,5.41,0,0,1,.64,1.59C48,93.17,94.78,93.59,94.78,93.59c5.92,6.49,33.84,16.36,65.14,16.07s38.35-23.12,40.88-22.84c2.26.25,30.37-9.75,29.64-25C226,74.28,203.56,82.16,201.56,81.94Z"/>
              <path class="cls-9" d="M15,19.12A21.21,21.21,0,0,1,9.7,20.26a10,10,0,0,1-2.77-.16,5.24,5.24,0,0,1-1.79-.71,2.13,2.13,0,0,0,0-1.55s0,0,.09.08l0,.09,0,0a2.35,2.35,0,0,0,.75.71,4.38,4.38,0,0,0,1.12.51,9.17,9.17,0,0,0,2.52.42,18,18,0,0,0,2.64-.13C13.2,19.47,14.07,19.3,15,19.12Z"/>
              <path class="cls-7" d="M37.19,16.65a3.12,3.12,0,0,1-.86,1.13c-1.5,1.37-4.18,1.61-6.66.45A7.58,7.58,0,0,1,26.88,16a4.42,4.42,0,0,1-.8-4.61c1.08-2.32,4.45-3,7.52-1.59S38.28,14.33,37.19,16.65Z"/>
              <path class="cls-10" d="M37.19,16.65a3.12,3.12,0,0,1-.86,1.13c-1.5,1.37-4.18,1.61-6.66.45A7.58,7.58,0,0,1,26.88,16a4.42,4.42,0,0,1-.8-4.61c1.08-2.32,4.45-3,7.52-1.59S38.28,14.33,37.19,16.65Z"/>
              <path class="cls-9" d="M42.15,13.77a2,2,0,0,0,2.29,1.43c2.07-.63,4.84-2.57,4.24-7.52C47.88,1,41.79,6.7,42.15,13.77Z"/>
              <path class="cls-7" d="M46.2,13.08a1.92,1.92,0,0,1-2.28-1.42,12.06,12.06,0,0,1,1.47-6.43C43.66,6.5,42,9.93,42.15,13.77a2,2,0,0,0,2.29,1.43,5.88,5.88,0,0,0,3.67-3.06A6.5,6.5,0,0,1,46.2,13.08Z"/>
              <path class="cls-11" d="M35.42,16.37c0,1.62-3.67,1.39-5.17,1.39a2.83,2.83,0,0,1-2.73-2.93,2.83,2.83,0,0,1,2.73-2.92C31.75,11.91,35.42,14.76,35.42,16.37Z"/>
              <path class="cls-12" d="M36.83,16.7c0,1.62-3.67,1.39-5.17,1.39a2.83,2.83,0,0,1-2.73-2.93,2.83,2.83,0,0,1,2.73-2.92C33.16,12.24,36.83,15.09,36.83,16.7Z"/>
              <path class="cls-7" d="M235.67,93.65c0,1.36,0,2.72-.14,4.08-.1,3-.41,6.08-.79,9.09s-1,6-1.51,9c-.11.51-.23,1-.36,1.51-.58,2.45-1.24,4.89-2,7.29-.08-2.54,0-5,.11-7.54v-.3l0-1.23.08-4.49.08-2.24v-2.24c0-1.5,0-3,.07-4.47s0-3,0-4.46c0-1.25,0-2.5,0-3.74,0-1.73-.08-3.46-.1-5.17-.21-5.92-.52-11.84-1.08-17.77s-1.26-11.83-2.39-17.78a64,64,0,0,1,5.89,17.27,108.51,108.51,0,0,1,2.08,18.16C235.67,90.29,235.69,92,235.67,93.65Z"/>
              <path class="cls-7" d="M233,105.86c-3.93-.27-5.6,1.5-5.39,21.23a2.76,2.76,0,0,0,2.41,2.71l1.4.18a2.35,2.35,0,0,0,2.59-1.76C235.51,122.39,239.07,106,233,105.86Z"/>
              <path class="cls-7" d="M233,105.86c-3.93-.27-5.6,1.5-5.39,21.23a2.76,2.76,0,0,0,2.41,2.71l1.4.18a2.35,2.35,0,0,0,2.59-1.76C235.51,122.39,239.07,106,233,105.86Z"/>
              <path class="cls-13" d="M235.67,93.65c0,1.36,0,2.72-.14,4.08-.1,3-.41,6.08-.79,9.09s-1,6-1.51,9c-.11.51-.23,1-.36,1.51l-.28,0-1.41-.19a.58.58,0,0,1-.18,0v-.3l.25-22.87a3.63,3.63,0,0,1,2.92-.74A2.52,2.52,0,0,1,235.67,93.65Z"/>
              <path class="cls-7" d="M120.91,152.53c-1.69,8.08-2.82,22.75-1.88,29.32.61,4.24-1.66,4.42-3.34,4a1.21,1.21,0,0,0-1.47,1.32l.18,1.74a2.92,2.92,0,0,1-3,3l-15.14-.13a1.07,1.07,0,0,1-.88-1.66c1.44-2.24,4.86-3.5,7.74-4.18a8.31,8.31,0,0,0,6.08-6c1.85-7.21,4.44-20,1.7-27.06-4-10.15-2.06-16.16-2.06-16.16,2.62-19-4.4-25.2-9-32.15a65,65,0,0,1-6-11C84.29,70.5,105.49,67,105.49,67a10.46,10.46,0,0,1,8.63,4c5.71,7,5.89,21.83,5.53,33.65-.09,2.92-.22,5.65-.3,8a57.17,57.17,0,0,0,.05,7.13C120.53,129.6,122.6,144.44,120.91,152.53Z"/>
              <path class="cls-6" d="M37.23,14.17a3.73,3.73,0,0,1-.32,1.54,3.36,3.36,0,0,1-.86,1.13c-1.5,1.37-4.18,1.61-6.66.45a7.58,7.58,0,0,1-2.79-2.2,5.9,5.9,0,0,1-.86-1.54,5.11,5.11,0,0,0,1.14,3.09,7.47,7.47,0,0,0,2.79,2.2c2.48,1.16,5.16.92,6.66-.45a3.12,3.12,0,0,0,.86-1.13A4,4,0,0,0,37.23,14.17Z"/>
              <path class="cls-7" d="M37.23,13.56a3.73,3.73,0,0,1-.32,1.54,3.36,3.36,0,0,1-.86,1.13c-1.5,1.36-4.18,1.61-6.66.45a7.68,7.68,0,0,1-2.79-2.2,5.9,5.9,0,0,1-.86-1.54A5.11,5.11,0,0,0,26.88,16a7.58,7.58,0,0,0,2.79,2.2c2.48,1.16,5.16.92,6.66-.45a3.12,3.12,0,0,0,.86-1.13A4,4,0,0,0,37.23,13.56Z"/>
              <path class="cls-14" d="M31.14,14A1.08,1.08,0,1,1,29,14a1.08,1.08,0,1,1,2.14,0Z"/>
              <path class="cls-7" d="M37.2,16.64a3.3,3.3,0,0,1-.87,1.14c-1.85-.36-3.33-3.1-6.06-4.79l-.63-.35c-3.93-2.05-2.93,2.66-2.75,3.39a4.47,4.47,0,0,1-.82-4.61c1.07-2.29,4.37-3,7.4-1.65l.13.06C36.68,11.28,38.29,14.33,37.2,16.64Z"/>
              <path class="cls-9" d="M42.83,26.46C41.81,29,39.33,34.08,35,37a4.92,4.92,0,0,0-.87-1.06,36.78,36.78,0,0,0-12.63-7.51.18.18,0,0,0,0-.06c.29.15,13.5,6,20.9-2.14A.27.27,0,0,1,42.83,26.46Z"/>
              <path class="cls-9" d="M16.64,12.65c.09.26-1,.83-2.31,1.27s-2.53.58-2.61.33S12.67,13.42,14,13,16.56,12.39,16.64,12.65Z"/>
              <path class="cls-15" d="M12.74,16.63c-5.13.81-7-.66-7.67-1.86.72-.8,2.28-1.46,5.25-1.64-.75.66,1.44,2.07,2.53,2.51A.52.52,0,0,1,12.74,16.63Z"/>
              <path class="cls-15" d="M33.47,9.77A6.77,6.77,0,0,0,30.27,13l-.63-.35c-3.93-2.05-2.93,2.66-2.75,3.39a4.47,4.47,0,0,1-.82-4.61C27.14,9.13,30.44,8.41,33.47,9.77Z"/>
              <path class="cls-16" d="M93.22,93.5a62.84,62.84,0,0,1-40-19.68,103.91,103.91,0,0,0,23.7-10.15c6.76,2,13.79,1.19,18.33-3.23A59.88,59.88,0,0,0,93.22,93.5Z"/>
              <path class="cls-16" d="M213.58,56.56,206.82,76.3,203,86.38a7.29,7.29,0,0,1-2.16.44c-2.53-.28-9.58,22.56-40.88,22.84a155.15,155.15,0,0,1-36.45-4c-1.31-.3-2.58-.62-3.82-1l-1.12-.31c.85-.64-6.08-4.63-1.62-4,62.6,8.88,86-39.48,86-39.48Z"/>
              <path class="cls-7" d="M219.7,45.94S188,38.63,196.1,89.08c5.08,31.58,20.21,36.09,18,53.29s-8.88,38.26-16.5,41.08c-6.34,2.35-8.67,4.18-9.11,6.68a1.37,1.37,0,0,0,1.41,1.57l16-.19a1.7,1.7,0,0,0,1.68-1.64,15.29,15.29,0,0,1,.9-4.54c.47-1.32,6.74.38,6-4.32-1.79-11.71,2.49-19.32,4.79-25.52,4.94-13.26,10.58-12.27,4.38-21.86s-2-38.07,2.82-50.75S238.31,54.11,219.7,45.94Z"/>
              <path class="cls-17" d="M220,46.07a2.81,2.81,0,0,0-.68-.21,21.25,21.25,0,0,0-3.53-.29L217,44.4c-11.8-6.35-27.2-6.39-34.57-12-2.91-2.22-4.86-4.91-6.93-7.4a2.76,2.76,0,0,0-4.86,1.51c-.41,3.83-2.79,7-9,8.06-11.6,1.89-24.33.25-24.33.25-.17.08-.38.09-.52.22-.61.57-2.07.69-7.62.72h-.18a26,26,0,0,0-4,.44,2.77,2.77,0,0,0-2.3,2.5,164.73,164.73,0,0,1-3.65,23.8,7.27,7.27,0,0,1-9.49,5.06,12.27,12.27,0,0,0-3.87-.58,3,3,0,0,0-.59.06c-2.55.54-20.23,5.09-11.38,26.51a65,65,0,0,0,6,11c4.61,6.92,11.61,13.12,9.05,31.95a1.65,1.65,0,0,1-.06.32c-.24.92-1.51,6.74,2.1,16,2.74,7,.15,19.85-1.7,27.06a8.31,8.31,0,0,1-6.08,6c-2.88.68-6.3,1.94-7.74,4.18a1.07,1.07,0,0,0,.88,1.66l15.14.13a2.92,2.92,0,0,0,3-3l-.18-1.74a1.21,1.21,0,0,1,1.47-1.32c1.68.4,4,.22,3.34-4-.94-6.57.19-21.24,1.88-29.32s-.38-22.93-1.51-32.71a57.17,57.17,0,0,1-.05-7.13c.07-2.1.18-4.46.26-7a3.87,3.87,0,0,1,.38-1.21c.23-.52-.11-2.06-.24-3.26a2,2,0,0,1,0-.35c0-.28,0-.57,0-.85s.18-.37.41-.32l-.41-.43c0-3.66,0-7.43-.37-11a15.94,15.94,0,0,1,3.12-10.94,7,7,0,0,0,1.7-3.8c.19-11.19,4.5-14.79,8.74-17.3,13.26-7.85,32.58-7.36,51.7-.18a20.42,20.42,0,0,0,8.93,1.22,2.77,2.77,0,0,1,2.9,3.51c-1.91,6.43-2.43,15.52-.37,28.35,5.08,31.58,20.21,36.09,18,53.29s-8.88,38.26-16.5,41.08l-.23.09a4.16,4.16,0,0,0,1.54,8.05l7-.08a1.7,1.7,0,0,0,1.68-1.64,15.29,15.29,0,0,1,.9-4.54c.47-1.32,6.74.38,6-4.32-1.79-11.71,2.49-19.32,4.79-25.52,4.94-13.26,10.58-12.27,4.38-21.86s-2-38.07,2.82-50.75S238.23,54.29,220,46.07Z"/>
              <path class="cls-7" d="M233.61,99c-3.94-.27-5.61,1.5-5.39,21.23a2.75,2.75,0,0,0,2.4,2.71l1.41.19a2.36,2.36,0,0,0,2.58-1.77C236.07,115.48,239.63,99.1,233.61,99Z"/>
              <path class="cls-17" d="M235.44,99.71q.06-1,.09-2c.09-1.36.13-2.72.14-4.08,0-1.68,0-3.36,0-5a108.51,108.51,0,0,0-2.08-18.16,64,64,0,0,0-5.89-17.27c1.13,6,1.84,11.86,2.39,17.78s.87,11.85,1.08,17.77c0,1.71.06,3.44.1,5.17,0,1.24,0,2.49,0,3.74,0,.54,0,1.09,0,1.63-2.26,1.15-3.22,5.67-3.05,20.91a2.75,2.75,0,0,0,2.4,2.71l.24,0q0,.84,0,1.68c.16-.54.31-1.08.47-1.62l.67.09a2.36,2.36,0,0,0,2.58-1.77C235.89,116.21,238.78,103,235.44,99.71Z"/>
              <path class="cls-6" d="M234.61,121.31a2.36,2.36,0,0,1-2.58,1.77l-1.41-.19a2.75,2.75,0,0,1-2.4-2.71c0-3.51,0-6.44.07-8.91-.52,3.18-.72,8.13-.64,15.82a2.76,2.76,0,0,0,2.41,2.71l1.4.18a2.35,2.35,0,0,0,2.59-1.76c.86-3.44,2.45-10.54,2.38-15.83C235.9,115.89,235.13,119.26,234.61,121.31Z"/>
            </g>
            <path class="cls-18" d="M3.78,22.37c.19,2.38,3,3.54,13.61,5.59a26.17,26.17,0,0,1,3.86,1,36.51,36.51,0,0,1,12.41,7.37,4.79,4.79,0,0,1,.75.92A5.21,5.21,0,0,1,35,38.69c.2.91.42,1.82.65,2.72.06.24.13.47.19.71l.1.36c.14.53.28,1.05.43,1.56s.21.74.32,1.1l0,.13c.13.44.27.89.41,1.32s.27.84.41,1.26.27.8.41,1.2.29.84.44,1.26.25.65.37,1l.16.41c.13.33.25.65.38,1s.21.53.32.79l.11.26c.32.76.64,1.51,1,2.24l.15.33c.09.22.2.44.3.66s.28.59.43.88l.2.42c.14.27.27.54.4.81s.38.71.56,1.07.35.65.52,1l.57,1,.56,1,0,.08L45,64c.21.35.43.69.64,1l.14.22.37.57q.48.72,1,1.41l.27.4c.39.55.78,1.09,1.18,1.62l.37.48c.3.39.6.78.91,1.16l.41.51c.3.37.61.73.91,1.09l.4.45c.33.38.66.75,1,1.12l.19.22.12.12c.41.44.83.88,1.25,1.31l.12.12c.93.94,1.9,1.86,2.89,2.73l.23.21,1.21,1,.31.26L60,81l.28.22,1.36,1,.08,0c1,.7,2,1.39,3,2l.15.1,1.31.81.27.16,1.23.72.23.13,1.35.73.12.12h.1c.92.48,1.86,1,2.81,1.39l.07,0,1.34.6.19.08,1.25.52.14.06c1.77.72,3.59,1.36,5.4,1.91a59.62,59.62,0,0,0,12.68,2.48,67.78,67.78,0,0,0,6,10.78l.45.65c.16.24.31.45.46.66.38.54.73,1,1.09,1.52l.78,1.09.48.67.47.68.47.7.46.71.45.73.44.75.43.77.41.8.4.83c0,.1.33.76.38.86l.35.9c0,.09.3.83.34.93s.27.86.31,1l.09.33.19.68c0,.11.12.52.12.52l0,.14.09.39c0,.13.14.7.14.7s.06.27.08.41,0,.25.07.38.1.63.12.77l.06.41,0,.35.06.45,0,.62,0,.21c0,.14,0,.28,0,.43l0,.44,0,.37,0,.51c0,.15,0,.31,0,.46v.42c0,.17,0,.33,0,.5v1.44c0,.18,0,.36,0,.54l0,.38c0,.19,0,.39,0,.59s0,.35,0,.52l0,.47c0,.19,0,.38,0,.58l-.06.6-.1,1.05c0,.19,0,.38-.07.57,0,0-.11.89-.13,1.09a2.09,2.09,0,0,1-.05.21l-.08.34.62.24-.64-.14-.07.4,0,.22c0,.14,0,.3-.07.47v.14c0,.22,0,.46-.07.72l0,.27q0,.27,0,.57v.37c0,.19,0,.38,0,.59s0,.44,0,.44c0,.2,0,.41,0,.63l0,.49c0,.22,0,.45,0,.69s0,.36,0,.54l.09.74.09.59c0,.27.08.53.13.8l.12.64c0,.28.12.58.18.87l0,.12.12.54c.08.31.16.62.25.94l.07.24c0,.15.07.29.12.44.11.37.23.76.35,1.14l.19.58c.2.59.42,1.19.66,1.81,2.68,6.89.07,19.67-1.73,26.67a7.65,7.65,0,0,1-5.6,5.58c-2.83.66-6.53,2-8.13,4.45a1.69,1.69,0,0,0-.08,1.75,1.71,1.71,0,0,0,1.49.9l15.19.14a3.57,3.57,0,0,0,3.57-3.72l-.18-1.78a.55.55,0,0,1,.15-.46.51.51,0,0,1,.38-.18l.13,0a5.46,5.46,0,0,0,1.28.16,2.77,2.77,0,0,0,2.18-.9c.72-.83.94-2.14.68-4-1-6.63.25-21.35,1.87-29.1,1.54-7.35,0-20.27-1.12-29.71-.13-1.12-.26-2.19-.38-3.21a45.53,45.53,0,0,1-.08-5.53,179.33,179.33,0,0,0,10,20.5,64.77,64.77,0,0,1,3.88,14.07,19.28,19.28,0,0,0,3.93,9,23.36,23.36,0,0,1,4.53,10.58l.26,1.33c1.43,7.19,2.46,12.38.51,15-.87,1.16-2.38,1.83-4.61,2a4.94,4.94,0,0,0-4.81,4.45,1.26,1.26,0,0,0,.21,1.06,1.39,1.39,0,0,0,1.09.4l.48,0,.44,0,15.84,0a2.6,2.6,0,0,0,2-1,2.63,2.63,0,0,0,.52-2.21l-.77-3.38a.43.43,0,0,1,.08-.35.37.37,0,0,1,.28-.14c.35,0,.65,0,1,0a3.14,3.14,0,0,0,2.79-1.07,2.61,2.61,0,0,0,0-2.56c-.32-.77-.82-1.74-1.45-3-2.7-5.26-7.2-14.06-7.65-24.44-.58-13.32-2.58-17.66-7-26.21-1.37-2.61-.74-7.35,0-11.19.35-2,.78-4,1.24-6.13l.3-1.43c1.8.18,3.61.33,5.4.45h.07c.86.06,1.74.11,2.61.15l.44,0c.76,0,1.53.07,2.29.09l.58,0,2.27,0h3.35c22-.2,32.27-11.7,36.31-16.94l0,.11c2.77,13.56,7.47,21.76,11.24,28.35a64.57,64.57,0,0,1,4.59,9,23.21,23.21,0,0,1,1,3.09c.1.42.19.84.27,1.27a22.1,22.1,0,0,1,.33,4.08c0,.48,0,1-.07,1.47s-.09,1-.15,1.54c-2.35,17.88-9,37.93-16.08,40.55l-.23.09c-6.3,2.36-8.81,4.28-9.3,7.09a1.94,1.94,0,0,0,.44,1.59,2.06,2.06,0,0,0,1.59.74l16-.19a2.34,2.34,0,0,0,1.89-1,2.26,2.26,0,0,0,.42-1.26,14.06,14.06,0,0,1,.22-1.89,15.34,15.34,0,0,1,.64-2.41,6.08,6.08,0,0,1,1.46-.29c1.72-.21,4.58-.56,4.66-3.47a4.9,4.9,0,0,0-.06-.92c-1.49-9.74,1.33-16.67,3.59-22.24.42-1,.82-2,1.17-3a49.69,49.69,0,0,1,4.73-9.45c2.67-4.33,3.89-6.31-.42-13-1.73-2.68-2.75-7.24-3-13.23a30.28,30.28,0,0,1,5.76,5.08s0,1.41,0,2a3.4,3.4,0,0,0,2.35,3.21,3.15,3.15,0,0,0,.61.13l.84.11a30.84,30.84,0,0,1,2.35,5.35c8.49,25.76,2.19,40.11.05,43.89-1.68,3-3.69,4.94-5.53,5.36-4.43,1-6.16,3-6.84,4.46a1.94,1.94,0,0,0,.13,1.84,2,2,0,0,0,1.65.9h14.61a1.94,1.94,0,0,0,1.9-2.28,10.79,10.79,0,0,1-.19-4.36h.29c.32,0,.71,0,1.14.06s1.1.08,1.67.08a4,4,0,0,0,3.13-1,2.83,2.83,0,0,0,.39-2.45c-1-4.74-3.19-19.21-1.3-29.16a25.07,25.07,0,0,1,3.92-9.33c1.81-2.89,3.11-5-.18-7.91-2.86-2.55-7.66-11.17-10.94-22.14v-.44c0-.32,0-.63,0-.93l.11-.76.12-.89c0-.23.09-.79.09-.79l0-.17c0-.26.05-.53.08-.79,0,0,0-.7.06-.88l0-.86,0-.38c0-.16,0-.32,0-.47v-1.2c0-.16,0-.31,0-.47l0-.32c0-.2,0-.39,0-.58l0-.23-.09-.67,0-.27c0-.14,0-.28-.08-.42l-.07-.29-.09-.37-.09-.28L237,101c0-.09-.07-.18-.1-.26l-.15-.32-.12-.24c-.06-.1-.12-.2-.19-.3a1.76,1.76,0,0,0-.13-.2l-.17-.21c0-.58.06-1.15.08-1.73.08-1.19.12-2.5.14-4.1s0-3.4,0-5.05a107.7,107.7,0,0,0-2.09-18.28c-.54-2.55-1.11-4.79-1.71-6.87V62.14l0-.64,0-.63-.06-.62-.08-.63-.11-.62-.12-.62-.06-.24-.65.06.63-.15-.07-.27-.16-.61-.2-.6c0-.09-.18-.51-.22-.6l-.1-.24-.63.15.6-.24-.11-.26-.27-.58c0-.1-.29-.58-.29-.58l-.32-.57-.15-.23-.6.25.55-.34-.15-.24-.23-.33-.15-.22-.2-.27-.21-.28-.43-.53-.22-.26-.24-.27-.5-.52-.26-.25-.26-.26-.25-.22-.31-.27-.59-.49c-.09-.08-.51-.4-.62-.48l-.32-.23-.33-.24-.69-.45-.35-.22-.37-.22-.42-.25-.33-.19-.39-.21-.4-.21-.41-.2-.42-.21-.72-.34-.06,0-.29-.13-.07,0c-.79-.51-1.63-1-2.49-1.47-5.84-3.14-12.66-4.79-18.68-6.24-6.24-1.5-12.14-2.92-15.79-5.71-.34-.25-.66-.52-1-.79a1.54,1.54,0,0,1-.19-.17l-.12-.1c-.21-.18-.41-.37-.6-.55s-.34-.34-.34-.34c-.18-.17-.35-.34-.52-.52l-.34-.36-.47-.52-.33-.38c-.16-.17-.31-.35-.46-.53l-.32-.38-.9-1.09-1.25-1.53,0-.05,0,0a23.2,23.2,0,0,0-5.79-5.33c-3-1.82-6.64-2.7-11.19-2.7l-1.37,0c-7.27.25-10,4.93-12.74,9.45-2,3.44-4,6.69-7.78,8.25l-.12,0a1.5,1.5,0,0,0-.46.19,12.39,12.39,0,0,1-2.31.54c-.86.06-2.11.09-4.13.11H129l-.28,0c-12.22.37-20,9.27-27.59,17.87C99,55.44,97,57.74,94.88,59.86l-.06.06-.07.06a15.34,15.34,0,0,1-11,4.07,24,24,0,0,1-6.7-1c-9.18-2.68-16.36-9.9-18.31-18.39-.51-2.22-1-4.29-1.42-6.23C54,23.73,52.43,16.78,48.55,12.7c.05-.09.1-.19.14-.28a8.61,8.61,0,0,0,.64-4.82C49,4.52,47.55,4.06,46.74,4.06c-1.41,0-2.94,1.39-4,3.63l0,.07q-.12.26-.21.48l-.06.15c-.06.15-.12.29-.17.43v0a12.72,12.72,0,0,0-4-.67,22.49,22.49,0,0,0-5.05.75h0l-.52-.17-.35-.09L32,8.6l-.27,0-.15,0-.22,0-.21,0-.14,0H30l-.48,0-.08,0-.5.08a5.42,5.42,0,0,0-2.34,1.15,18.52,18.52,0,0,1-2.45-.26A18.88,18.88,0,0,0,21,9.23,20,20,0,0,0,10.15,12.5c-2.75.18-4.62.8-5.56,1.84a2.79,2.79,0,0,0-.15,3.6s0,.08.07.14l0,.12h0a1.51,1.51,0,0,1,0,1l0,.13A5.44,5.44,0,0,0,3.78,22.37Zm1.29-2.8a1.71,1.71,0,0,0,.07-.18,2.13,2.13,0,0,0,0-1.55h0A1.34,1.34,0,0,0,5,17.59a2.21,2.21,0,0,1,.09-2.82c.72-.8,2.28-1.46,5.25-1.64h0a19.2,19.2,0,0,1,13.63-3,19.27,19.27,0,0,0,2.81.27A4.51,4.51,0,0,1,29,9.23h0a3,3,0,0,1,.43-.08h.09l.39,0h.71l.31,0,.26,0,.27,0a2.84,2.84,0,0,1,.31.06l.24,0,.35.09.2.06.38.13.08,0c3.06-.69,5.79-1.37,9.59.08a.64.64,0,0,1,0-.07l.12-.38c0-.07.05-.13.07-.19l.15-.4.06-.15c.06-.15.13-.29.19-.43a.36.36,0,0,0,0-.09c1.73-3.6,4.83-4.92,5.38-.29a8,8,0,0,1-.57,4.46h0a5.6,5.6,0,0,1-.33.59l-.05.07c4.53,4.4,5.94,12.62,10.39,32,2.19,9.53,10.26,16.37,18.76,18.86,6.76,2,13.79,1.19,18.33-3.23l.13-.12c9.71-9.72,18.13-24.07,33.41-24.55h1.36c1.88,0,3.23,0,4.22-.11a14.08,14.08,0,0,0,2.52-.61c.14-.13.35-.14.52-.22,9.24-3.76,8.09-17.22,20.29-17.65,5.63-.2,9.37.86,12.2,2.59A22.61,22.61,0,0,1,175.54,25h0l.24.29.51.62c.21.27.43.53.64.79l.31.39.47.56L178,28l.46.54.34.38c.15.18.31.35.47.53l.36.37.52.53.35.35.62.56.31.29,1,.81c7.37,5.61,22.77,5.65,34.57,12,.87.47,1.72,1,2.54,1.51l.12,0c.09,0,.17.08.26.12h0l.27.13.42.2.4.2c.14.06.27.13.4.2l.4.2.37.21.38.21.36.21.36.22.34.21.35.23.32.22.32.22L225,49l.3.23.3.23.29.24.28.24.27.24.27.24c.08.08.17.16.25.25l.25.24.25.25.23.25.23.25c.07.09.15.17.22.25l.21.26c.07.09.14.17.2.26l.2.26.19.26.19.27.18.27.17.27.16.26.16.28.15.27a2.44,2.44,0,0,1,.14.28c0,.09.1.18.14.27s.09.19.13.28l.13.28.12.29c0,.09.07.18.11.28s.07.19.11.28.07.19.1.29.06.19.1.29.06.19.08.28l.09.3.08.29c0,.1,0,.2.07.3s0,.19.07.29,0,.2.06.3l.06.29c0,.1,0,.2.05.3s0,.2,0,.3,0,.2,0,.3l0,.3a3,3,0,0,1,0,.31l0,.3a3,3,0,0,1,0,.31c0,.1,0,.2,0,.3s0,.2,0,.31,0,.2,0,.3,0,.21,0,.31v.31c0,.1,0,.21,0,.32s0,.2,0,.3v.15c.67,2.28,1.23,4.59,1.73,6.91a108.51,108.51,0,0,1,2.08,18.16c0,1.68,0,3.36,0,5,0,1.36,0,2.72-.14,4.08q0,1-.09,2h0l.07.09a3.22,3.22,0,0,1,.24.28,1,1,0,0,1,.11.17c.06.08.11.17.17.26l.1.21a2.39,2.39,0,0,1,.13.28,2.44,2.44,0,0,1,.1.24c0,.1.07.2.1.31a2.41,2.41,0,0,1,.08.25l.09.35.06.27c0,.13.05.27.08.4s0,.17,0,.26.06.42.08.63a1.79,1.79,0,0,1,0,.23c0,.18,0,.37.05.56s0,.2,0,.31,0,.3,0,.46v1.16c0,.16,0,.31,0,.47s0,.24,0,.37l0,.48c0,.12,0,.24,0,.37s0,.35,0,.53l0,.33c0,.26-.05.52-.08.79a2.29,2.29,0,0,1,0,.25c0,.23-.05.46-.08.69s0,.24,0,.36,0,.35-.07.53,0,.25,0,.37l-.06.43c0,.31,0,.63,0,1v.15c0,.13,0,.26,0,.39,3.42,11.48,8.33,20,11.16,22.53,5.07,4.51-2,6.2-3.95,16.64s.48,25.47,1.31,29.41-4.58,2.34-6.2,2.61c-.92.17-.55,3.54-.24,5.1a1.28,1.28,0,0,1-1.26,1.51H222.62a1.3,1.3,0,0,1-1.2-1.82c.63-1.36,2.25-3.13,6.41-4.1,6.43-1.48,15.89-19.89,5.94-50.08a31.84,31.84,0,0,0-2.55-5.75l-1.16-.15a2.75,2.75,0,0,1-2.41-2.71h0c0-.56,0-1.09,0-1.62v-.58a31.23,31.23,0,0,0-7.09-6.06c.1,6.2,1,11.57,3.1,14.8,6.2,9.59.56,8.6-4.38,21.86-2.3,6.2-6.58,13.81-4.79,25.52a4.69,4.69,0,0,1,.06.81c-.1,3.69-5.64,2.27-6.08,3.51a16.38,16.38,0,0,0-.68,2.56,13.69,13.69,0,0,0-.22,2,1.72,1.72,0,0,1-1.68,1.64l-16,.19a1.37,1.37,0,0,1-1.41-1.57c.43-2.47,2.71-4.28,8.85-6.58h0l.23-.09c7.62-2.82,14.24-23.87,16.5-41.08.07-.53.12-1.06.16-1.57s.06-1,.06-1.51a22.71,22.71,0,0,0-.33-4.2c-.08-.44-.17-.88-.28-1.31a24.25,24.25,0,0,0-1-3.17c-3.47-9.12-11.71-17.24-15.81-37.26l-.3-1.52c-5,6.66-15,17.64-36.66,17.83q-1.41,0-2.79,0h-.56l-2.25,0-.57,0-2.29-.09-.44,0-2.6-.16h-.07q-3-.21-5.95-.52c-.59,2.8-1.2,5.57-1.67,8.15-.88,4.85-1.23,9.06.1,11.61,4.51,8.65,6.4,13,7,25.94s7.47,23.69,9.16,27.64c1.15,2.67-1.31,2.84-3,2.68a1,1,0,0,0-1.11,1.27l.77,3.38a2,2,0,0,1-1.92,2.4l-15.85.06c-.89,0-1.73.26-1.57-.64a4.32,4.32,0,0,1,4.23-3.94c8.39-.77,6.67-7.66,4.42-19.12s-6.77-10.15-8.46-19.56-3.95-14.28-3.95-14.28a168.53,168.53,0,0,1-11-23.17l-.08-.2c0,.57,0,1.13-.06,1.67a57.17,57.17,0,0,0,.05,7.13c1.13,9.78,3.2,24.62,1.51,32.71s-2.82,22.75-1.88,29.32c.61,4.24-1.66,4.42-3.34,4a1.21,1.21,0,0,0-1.47,1.32l.18,1.74a2.92,2.92,0,0,1-3,3l-15.14-.13a1.07,1.07,0,0,1-.88-1.66c1.44-2.24,4.86-3.5,7.74-4.18a8.31,8.31,0,0,0,6.08-6c1.85-7.21,4.44-20,1.7-27.06-.24-.61-.45-1.2-.65-1.78l-.18-.58c-.12-.38-.24-.75-.35-1.12l-.18-.64c-.08-.32-.17-.64-.25-.95s-.1-.44-.14-.65-.13-.58-.19-.86-.08-.41-.11-.62-.09-.53-.13-.78l-.09-.58c0-.25-.06-.49-.08-.72l-.06-.54c0-.23,0-.45,0-.67s0-.32,0-.48,0-.42,0-.62,0-.29,0-.42,0-.39,0-.58V140c0-.2,0-.38,0-.56a2.26,2.26,0,0,1,0-.26c0-.25,0-.48.07-.69a.51.51,0,0,1,0-.13c0-.17,0-.32.06-.46a1.3,1.3,0,0,1,0-.21c0-.09,0-.18,0-.25s0-.13,0-.18l0-.17a.93.93,0,0,0,0-.13v-.06a2.47,2.47,0,0,0,.06-.29c0-.28.07-.55.1-.82s.07-.57.1-.85.06-.57.09-.85,0-.55.07-.81,0-.54.06-.81,0-.53.05-.79,0-.52,0-.77,0-.51,0-.75,0-.5,0-.75,0-.48,0-.72,0-.47,0-.7,0-.47,0-.7,0-.45,0-.67l0-.67-.06-.65-.06-.63c0-.21,0-.42-.08-.62s0-.41-.08-.61l-.09-.59c0-.2-.06-.4-.1-.59s-.08-.38-.11-.57l-.12-.55c0-.19-.08-.37-.13-.55l-.12-.53-.15-.52c0-.18-.09-.35-.14-.52s-.11-.33-.16-.49-.1-.34-.16-.5l-.17-.48c-.06-.16-.11-.32-.17-.47s-.12-.31-.19-.46-.11-.31-.18-.46-.13-.29-.19-.44-.13-.29-.19-.44-.14-.27-.2-.41l-.21-.43c-.06-.14-.13-.26-.2-.39s-.15-.29-.22-.43l-.2-.37-.24-.42-.21-.36L105,112l-.21-.35c-.08-.13-.16-.27-.25-.4l-.2-.32-.26-.4c-.07-.09-.13-.19-.2-.29l-.28-.41-.18-.27-.29-.42-.19-.27-.29-.4-.14-.2c-.58-.8-1.15-1.58-1.7-2.36l0,0-.43-.62,0,0-.44-.65a65,65,0,0,1-6-11l-.25,0a58.28,58.28,0,0,1-12.64-2.44l0,0c-1.69-.51-3.48-1.14-5.35-1.89l-.14-.06-1.24-.51L74,88.52c-.43-.18-.86-.38-1.3-.58l-.1,0c-1-.45-1.94-.93-2.92-1.45h0c-.47-.25-.94-.5-1.41-.77L68,85.55c-.41-.23-.81-.46-1.22-.71l-.27-.16q-.63-.37-1.26-.78l-.18-.11c-1-.64-2-1.31-3-2L62,81.7c-.45-.33-.9-.66-1.35-1l-.28-.22-1.16-.93-.31-.26c-.4-.33-.8-.67-1.19-1l-.23-.2c-1-.85-1.92-1.75-2.86-2.7l-.12-.13c-.41-.42-.83-.85-1.24-1.29l-.11-.12L53,73.6q-.49-.54-1-1.11c-.13-.14-.26-.29-.38-.44L50.7,71l-.41-.5-.9-1.15L49,68.84c-.4-.53-.79-1.06-1.17-1.61l-.27-.39c-.32-.45-.64-.92-1-1.39l-.5-.79-.64-1L45,62.73l-.56-1-.56-1-.51-1c-.19-.36-.38-.71-.56-1.07l-.48-1c-.18-.37-.37-.74-.55-1.12s-.3-.65-.44-1c-.33-.73-.66-1.47-1-2.22-.15-.35-.29-.69-.43-1s-.32-.81-.48-1.22L39,50.08c-.15-.41-.3-.82-.44-1.24s-.28-.79-.41-1.19l-.41-1.25c-.13-.44-.27-.88-.4-1.32L37,43.87c-.15-.51-.29-1-.43-1.56-.09-.35-.19-.7-.28-1.06-.23-.89-.45-1.79-.66-2.71A5.41,5.41,0,0,0,35,37a5.23,5.23,0,0,0-.87-1.07,37,37,0,0,0-12.63-7.5,26.9,26.9,0,0,0-3.95-1.06c-10.06-1.94-13-3.07-13.08-5A4.82,4.82,0,0,1,5.07,19.57Z"/>
          </g>
        </g>
      </g>
    </g>
  </g>
</svg>
