<svg id="Layer_1" data-name="Layer 1" xmlns="http://www.w3.org/2000/svg" width="474.86" height="323.06" viewBox="0 0 474.86 323.06">
  <defs>
    <style>
      .cls-1, .cls-16, .cls-21 {
        fill: none;
      }

      .cls-1 {
        stroke: #ff0;
        stroke-linejoin: round;
        stroke-width: 10px;
      }

      .cls-18, .cls-2 {
        fill: #c9bcbc;
      }

      .cls-11, .cls-16, .cls-17, .cls-2, .cls-21, .cls-4, .cls-6, .cls-7, .cls-9 {
        stroke: #473535;
      }

      .cls-10, .cls-11, .cls-14, .cls-15, .cls-16, .cls-17, .cls-2, .cls-20, .cls-21, .cls-4, .cls-6, .cls-7, .cls-9 {
        stroke-miterlimit: 10;
      }

      .cls-11, .cls-16, .cls-17, .cls-2, .cls-4, .cls-6, .cls-7, .cls-9 {
        stroke-width: 0.75px;
      }

      .cls-3 {
        fill: #231919;
      }

      .cls-4 {
        fill: #edebeb;
      }

      .cls-5 {
        fill: #c9c0c0;
        opacity: 0.43;
      }

      .cls-6 {
        fill: #eddada;
      }

      .cls-7 {
        fill: #e0d3d3;
      }

      .cls-8 {
        fill: #635a58;
      }

      .cls-9 {
        fill: #e8d4d4;
      }

      .cls-10 {
        fill: #f2b955;
      }

      .cls-10, .cls-14, .cls-15, .cls-20 {
        stroke: #231919;
        stroke-width: 0.25px;
      }

      .cls-11 {
        fill: #d3c34f;
      }

      .cls-12 {
        fill: #f4eaea;
      }

      .cls-13 {
        fill: #5163a8;
      }

      .cls-14 {
        fill: #dd1b5c;
      }

      .cls-15 {
        fill: #eaad65;
      }

      .cls-17 {
        fill: #9e8b8b;
      }

      .cls-19 {
        fill: #473535;
      }

      .cls-20 {
        fill: #d30b3b;
      }

      .cls-22 {
        fill: #cc9e9e;
      }
    </style>
  </defs>
  <g>
    <path class="cls-1" d="M453.69,207.09c1.58-21.49-8.06-24.65-12.32-25a19,19,0,0,0-1.33-2.23c-8.15-11.42-11.06-36.18-12-46.57q.18-3.9.15-8.13c-.25-23.63-11.95-40.6-22.77-51.27v-.2s-26-34.79-91.36-44.54c0,0-42.23-6.46-56.34,1.29,0,0,.17,0,.45.08a22.22,22.22,0,0,0-5,2.51,51.74,51.74,0,0,0-13.67-2.28c.21-.45.32-.71.32-.71s-11.61,3.75-37.27-9.8c-1.24-.65-2.52-1.34-3.83-2.08a53.47,53.47,0,0,0-14.33-6.36l-.36-.16,0,0a44,44,0,0,0-13.31-1.6,83.28,83.28,0,0,0-12.29,3.11l-.25-.12-2.06.93A60.2,60.2,0,0,0,148,17.65a11.79,11.79,0,0,0-1.1-.79l.4-.75-.92.43A21.69,21.69,0,0,0,129.87,14a20.51,20.51,0,0,0-9.4,5.43,1.27,1.27,0,0,1-.11-.13l-3.38,4,.17.09c-.49.71-1,1.44-1.37,2.17-.09-.11-.19-.21-.28-.33l-3.38,4a15.11,15.11,0,0,0,1.61.7,25.63,25.63,0,0,0-1.31,4.64s-3.85,2.14-6.54,9.59c0,0-3.31,3.11-7.18,7.21a3.94,3.94,0,0,0-1.53.12,5.08,5.08,0,0,0-1.57.95c-2.57,2.06-4.75,4.89-5.14,8.16a6.87,6.87,0,0,0,0,1.11c-4,8.69-3.77,26-4.94,35.92a62.88,62.88,0,0,0-4.83,9.42,10,10,0,0,0-4.1,3.77,34.32,34.32,0,0,1-9.35,4.65,5.42,5.42,0,0,0-.59-.15l.15.27a15.25,15.25,0,0,1-3.75.55,39.39,39.39,0,0,1-5.38-.21l-.09,0,0,0c-6.85-.84-13.78-4.59-15.21-20.06C40.58,76.75,43.63,63.3,30,55.19a9,9,0,0,0-1.75-3s-3.4-4.21-8.38-3.1-.59,4.93-4.18,6.51S6.11,61.76,14.21,65c0,0,2.95,5.22,10.07,2.36.78,2.6,1.51,8.72-1.33,21.88-4.22,19.48-8.83,45.55,15.49,57.46,16.85,8.25,26.39,9.93,33.08,7.44a109.82,109.82,0,0,0-10.21,21.76c-.56,1.64-1.08,3.3-1.56,5,0,0-5.43,17.3-.31,23.12,0,0,2.75,2.63,4.71-8,.73-3.92,2.89-10.07,7.09-17.47A121.39,121.39,0,0,1,95.47,149c2.8-.82,5.8-1.76,9-2.84,0,0,3.8,10.68.85,20.2,0,0-1.68,11.26,11.26,2.06l1-.67A112,112,0,0,1,98.9,197.26c-6.07,6.81-11.8,11.26-15.76,13.49-10.76,6.07-6.47,7.53-6.47,7.53,9,2.36,25.4-9.55,25.4-9.55,1.64-1.13,3.22-2.27,4.75-3.44a118.72,118.72,0,0,0,39.07-52.51c.43-.06.86-.1,1.3-.14a45.92,45.92,0,0,0,1,12c-2.07,18.95-11.68,45.23-20.3,58-10.7,15.78-14.1,24.72-14.14,43.67s-8.14,24.07-8.14,24.07a21.06,21.06,0,0,0-3.64,3.13,14.74,14.74,0,0,0-3.43,5.7c-.6,2,1.94,4.32,6.52,6.1.4.16.81.31,1.23.46.69.23,1.42.46,2.18.67l1,.26c.43.11.85.22,1.29.31a2.27,2.27,0,0,0,.25.06c.66.15,1.34.27,2,.39l.22,0c.71.11,1.43.22,2.17.31l.59.07c.73.09,1.48.16,2.25.22l.31,0c.86.06,1.75.1,2.65.13H122c.71,0,1.43,0,2.16,0l.76,0c.94,0,1.88-.06,2.84-.13,1.91-.13,3.87-.34,5.87-.66s4-.74,6.08-1.27c8.63-2.25,12.47-5.08,13.93-7.7,2.33-4.13-1.27-7.74-1.27-7.74s2-17.48,5-32.38,5.53-13.68,5.53-13.68c10.65-7.4,31.22-27.13,39.67-35.36,2.31.77,4.65,1.51,7,2.21.5.83,1,1.65,1.58,2.46,9.73,14.18,9.76,21.82,8.48,35.36s7.07,26-1.68,43.23a23.58,23.58,0,0,0-2.71,2.57c-2.55,2.85-5.5,7.58-2,11.71,1.18,1.37,3.6,2.72,6.84,3.83h0a45.41,45.41,0,0,0,5.42,1.45h0a58,58,0,0,0,24.48-.22c1.09-.25,2.16-.55,3.23-.89a33.07,33.07,0,0,0,13.91-8.37s3-3.55-1.54-11c-.18-.31-.4-.64-.62-1a234.55,234.55,0,0,0,1.91-32.75c-.24-14.25,0-32.31.13-38.21a66.16,66.16,0,0,1,12.94-2.38c-.47.58-.24,1,.84,1.15,10.48,1.46,7.12,60.13.72,61.87a.11.11,0,0,0-.08,0c-6.45,1.31-5.48,6.23-5.48,6.23a13,13,0,0,0,.69,1.93c0,.09.07.17.11.25a13.54,13.54,0,0,0,.9,1.63l.2.29a12.6,12.6,0,0,0,1.12,1.41l.23.25a16.11,16.11,0,0,0,1.36,1.25l.19.14a14.39,14.39,0,0,0,1.56,1.08l.12.08a18.61,18.61,0,0,0,1.78.92l.29.14c.61.27,1.24.51,1.89.74l.33.11c.68.22,1.37.42,2.08.59l.08,0,.16,0c.72.17,1.45.32,2.2.44a41.47,41.47,0,0,0,6,.53,67.78,67.78,0,0,0,18.51-2.34c.79-.21,1.58-.42,2.34-.66,1.37-.4,2.7-.84,4-1.31,17.18-6.23,5.8-16,5.8-16s0-.08,0-.23c.23-1.36,1.39-9.1,2-28.76.48-14.9,9.77-25.65,15.64-31,4-.81,6.53-1.48,6.53-1.48,1.4,15.13,9.79,24.08,18.84,35.68,7.57,9.72,9.19,24.24,8,35.08a48.35,48.35,0,0,1-1,5.89c-1.81,7.5,7.88,9.24,14.07,9.62l.79,0c1.46.07,2.66.06,3.37,0l.69,0c11.11,0,19.31-2.88,25.28-7.06a32.35,32.35,0,0,0,3.92-3.22,34.75,34.75,0,0,0,10.46-22.75,19.33,19.33,0,0,0,0-2.66c-.8-10.21-9.15-8.59-9.15-8.59-1.56-10.23-8.23-25.54-13.12-49.08-3.42-16.44,5-29.56,10.23-51a73.77,73.77,0,0,0,11.64,25.89c.76,17.46-.11,22.77-.11,22.77,1.24,31.73,26.36,24.62,26.36,24.62S451.66,234.56,453.69,207.09Z"/>
    <g>
      <g>
        <path class="cls-2" d="M427.75,128.54s1.83,36.65,12.29,51.33c0,0,6.14,8.49-1.75,7.48a71.73,71.73,0,0,1-15.63-41.62C421.6,120.42,427.75,128.54,427.75,128.54Z"/>
        <path class="cls-3" d="M439.4,182.11s16.31-2.49,14.28,25,8.63,24.8,8.63,24.8S437.19,239,436,207.27c0,0,.94-5.63,0-24.52"/>
      </g>
      <g>
        <path class="cls-4" d="M105.1,305.25c.4.16.81.31,1.23.46a41.83,41.83,0,0,0,4.77,1.3,59.88,59.88,0,0,0,16.61,1.06c1.91-.13,3.87-.34,5.87-.66s4-.74,6.08-1.27c8.63-2.25,12.47-5.08,13.94-7.7,2.32-4.13-1.28-7.74-1.28-7.74s2-17.48,5-32.38,5.53-13.68,5.53-13.68c13.61-9.46,43.42-39,43.42-39,5.15-14.9-31.49-47.24-49-55-5.84-2.59-9.57-2.46-8.93,1.94,2.53,17.62-9.68,54.28-20.38,70.07s-14.1,24.72-14.14,43.67-8.14,24.07-8.14,24.07a21.06,21.06,0,0,0-3.64,3.13,14.74,14.74,0,0,0-3.43,5.7C98,301.16,100.52,303.47,105.1,305.25Z"/>
        <path class="cls-5" d="M105.1,305.25c.4.16.81.31,1.23.46a41.83,41.83,0,0,0,4.77,1.3,10.86,10.86,0,0,1-.32-2.65c.09-7.26,8.18-11.29,12.82-16.87,5.31-6.36,6.17-15.28,5.89-23.56s-1.46-16.72.6-24.74c2.54-9.83,9.6-17.74,14.74-26.5,10.82-18.47,12.94-40.52,12.41-62.12-5.84-2.59-9.57-2.46-8.93,1.94,2.53,17.62-9.68,54.28-20.38,70.07s-14.1,24.72-14.14,43.67-8.14,24.07-8.14,24.07a21.06,21.06,0,0,0-3.64,3.13,14.74,14.74,0,0,0-3.43,5.7C98,301.16,100.52,303.47,105.1,305.25Z"/>
        <g>
          <path class="cls-4" d="M275.9,286.58c1.6,5.91,6.52,9.3,12.93,10.84.76.18,1.55.34,2.36.47a41.47,41.47,0,0,0,6,.53,67.78,67.78,0,0,0,18.51-2.34c.79-.21,1.58-.42,2.34-.66,1.37-.4,2.7-.84,4-1.31,17.18-6.23,5.8-16,5.8-16s0-.08,0-.23c.23-1.36,1.39-9.1,2-28.76.71-21.85,20.36-34.79,20.36-34.79-7.36-16.57-45.75-7.84-62.64-1.14-6.52,2.6-9.83,4.88-6.9,5.3,10.48,1.46,7.12,60.13.72,61.87a.11.11,0,0,0-.08,0C274.93,281.66,275.9,286.58,275.9,286.58Z"/>
          <path class="cls-5" d="M275.9,286.58c1.6,5.91,6.52,9.3,12.93,10.84.57-3.14-1.55-7-2-10.51a11.25,11.25,0,0,1,6.39.47c5.51-8.64,5.2-19.64,4.5-29.87a146.78,146.78,0,0,0-3.33-24.62c-1.62-6.63-4.47-12.82-6.59-19.29,0-.15-.09-.28-.14-.43-6.52,2.6-9.83,4.88-6.9,5.3,10.48,1.46,7.12,60.13.72,61.87a.11.11,0,0,0-.08,0C274.93,281.66,275.9,286.58,275.9,286.58Z"/>
          <path class="cls-6" d="M318.06,295.42c1.37-.4,2.7-.84,4-1.31,17.18-6.23,5.8-16,5.8-16s0-.08,0-.23c-1.52-.13-3.26.42-5.2,2.13C317.85,284.3,317.63,291.2,318.06,295.42Z"/>
          <path class="cls-6" d="M297.21,298.42a67.78,67.78,0,0,0,18.51-2.34c-1.56-3.18-5-8.12-11.72-9.34C297.54,285.57,296.86,292.93,297.21,298.42Z"/>
          <path class="cls-6" d="M275.9,286.58c1.8,6.61,7.74,10.07,15.29,11.31.59-4.73.5-14.63-9.73-17.55a.11.11,0,0,0-.08,0C274.93,281.66,275.9,286.58,275.9,286.58Z"/>
        </g>
        <g>
          <path class="cls-4" d="M166.16,192.13c23.56,18.11,87.24,31.87,97.92,28.44s22.8-5.3,41.52-.92,46.49-3,46.49-3c1.4,15.13,9.79,24.08,18.84,35.68,7.57,9.72,9.19,24.24,8,35.08a48.35,48.35,0,0,1-1,5.89c-1.81,7.5,7.88,9.24,14.07,9.62l.79,0c1.46.07,2.66.06,3.37,0l.69,0c11.11,0,19.31-2.88,25.28-7.06a32.35,32.35,0,0,0,3.92-3.22,34.75,34.75,0,0,0,10.46-22.75,19.33,19.33,0,0,0,0-2.66c-.8-10.21-9.15-8.59-9.15-8.59-1.56-10.23-8.23-25.54-13.12-49.08s14.5-40.28,14.05-84.43-40.9-65.07-40.9-65.07S282.23,32.55,269.86,29.88a21.27,21.27,0,0,0-19.8,5.78l-56.87,9.1L148.71,146.3l-1.14,2.6S142.61,174,166.16,192.13Z"/>
          <path class="cls-6" d="M426,292.67a34.75,34.75,0,0,0,10.46-22.75C430.35,271.05,414,275.76,426,292.67Z"/>
          <path class="cls-6" d="M396.14,303l.69,0c11.11,0,19.31-2.88,25.28-7.06-1.27-1.83-5.17-5.3-16.59-5.11C397.73,290.9,396,297,396.14,303Z"/>
          <path class="cls-6" d="M392,302.9c-1.42-4.85-4.89-12.37-13.07-15.51a48.35,48.35,0,0,1-1,5.89C376.1,300.78,385.79,302.52,392,302.9Z"/>
          <path class="cls-5" d="M167,190.55c23.56,18.12,87.24,31.87,97.91,28.44s22.8-5.3,41.52-.91,46.49-3,46.49-3c1.41,15.13,9.79,24.08,18.84,35.69,7.57,9.71,9.19,24.23,8,35.08a46.8,46.8,0,0,1-1,5.89c-1.81,7.49,7.89,9.24,14.07,9.62l.79,0a33,33,0,0,1-.84-3.92c-2.29-15.21,5.14-32.5-3.49-45.22-4.07-6-11.07-9.64-14.7-15.92-4.84-8.37-3.33-20.7-11.41-26-5.16-3.41-11.93-2.19-18.08-1.4a103.15,103.15,0,0,1-30.88-.77c-9.71-1.71-19.17-4.76-29-6s-19.77-.55-29.68-.5c-22.94.11-46.48-3.34-66.42-14.69a80.12,80.12,0,0,1-23.43-20.12c-4.53-5.78-8.22-20.11-15.62-22l-.56-.12-1.14,2.59S143.46,172.43,167,190.55Z"/>
        </g>
        <path class="cls-7" d="M23.52,65.67s3.64,4.08-.57,23.56-8.83,45.55,15.49,57.46,33.43,10.13,40.68,1.88-25.69-22.14-25.69-22.14l-13.89-8L38.46,93.69s1.34-23.91-4.33-29.56S23,58.68,23,58.68Z"/>
      </g>
      <g>
        <g>
          <path class="cls-2" d="M28.2,52.15s-3.4-4.21-8.38-3.1-.59,4.93-4.18,6.51S6.11,61.76,14.21,65c0,0,3.07,5.48,10.54,2.18S31.48,55.79,28.2,52.15Z"/>
          <path class="cls-8" d="M24,56.4s.14,4.39-3.77,5S26.9,66.11,24,56.4Z"/>
          <path class="cls-8" d="M19,56.66s-.24,3-2,3.9S16,58.26,19,56.66Z"/>
        </g>
        <g>
          <g>
            <path class="cls-9" d="M59.44,204c-5.12-5.82.31-23.12.31-23.12.48-1.71,1-3.37,1.56-5,13-38.24,44.75-58.9,44.75-58.9,1.36,12.29,7.63,17.88,7.63,17.88-22.09,14.75-35.25,31-42.45,43.69C67,186,64.88,192.11,64.15,196,62.19,206.65,59.44,204,59.44,204Z"/>
            <path class="cls-10" d="M59.44,204c-5.12-5.82.31-23.12.31-23.12.48-1.71,1-3.37,1.56-5a19.33,19.33,0,0,1,9.93,2.67C67,186,64.88,192.11,64.15,196,62.19,206.65,59.44,204,59.44,204Z"/>
          </g>
          <path class="cls-4" d="M32,89c-4.95,24.74-2.91,48.94,27,63.87,0,0,11,5.07,45.48-6.64,0,0,3.8,10.68.85,20.2,0,0-1.68,11.26,11.26,2.06s23.56-17.15,35.78-15.81,35.62.59,43.91-22.34S239.87,30,239.87,30s-11.61,3.75-37.27-9.8c-1.24-.65-2.52-1.34-3.83-2.08,0,0-12.74-8.71-28-8.08,0,0-12.31,1.87-22.69,7.57A21.64,21.64,0,0,0,129.87,14c-10.65,2.67-16.29,13.81-17.45,20.56,0,0-3.85,2.14-6.54,9.59A167.57,167.57,0,0,0,92,59c-5.7,7.18-5.23,27.56-6.53,38.64a64.59,64.59,0,0,0-5.24,10.4s-.66.58-1.79,1.43c-3,2.3-9.52,6.6-15.44,6.68-8.12.12-18.85-.61-20.66-20.28S43.8,62.56,28.79,54.52l-1.56,7.12S37,64.22,32,89Z"/>
          <path class="cls-11" d="M78.45,109.49l.21.87.44,8.23c11,14.92,29.31-5.14,29.31-5.14s17.4-13.3,24.19-22S142.73,62.51,155.46,45c10-13.73,36.2-21.84,47.14-24.71-1.24-.65-2.52-1.34-3.83-2.08,0,0-12.74-8.71-28-8.08,0,0-12.31,1.87-22.69,7.57A21.64,21.64,0,0,0,129.87,14c-10.65,2.67-16.29,13.81-17.45,20.56,0,0-3.85,2.14-6.54,9.59A167.57,167.57,0,0,0,92,59c-5.7,7.18-5.23,27.56-6.53,38.64a64.59,64.59,0,0,0-5.24,10.4S79.58,108.64,78.45,109.49Z"/>
          <g>
            <g>
              <g>
                <g>
                  <path class="cls-12" d="M152,87.37c-.19,6,2.38,7,7.65,7.18s10.32-4.35,10.52-10.37S167.78,73,162.5,72.8,152.15,81.35,152,87.37Z"/>
                  <path class="cls-3" d="M152,87.37a10.7,10.7,0,0,0,.53,3.87,4.08,4.08,0,0,0,2.71,2.52,13.13,13.13,0,0,0,3.86.45,9.35,9.35,0,0,0,3.73-.66,10.25,10.25,0,0,0,5.32-5,10,10,0,0,0,1-3.49,15.67,15.67,0,0,0-.12-3.74,9.72,9.72,0,0,0-3-6.46,6.19,6.19,0,0,0-3.21-1.4,5.4,5.4,0,0,0-3.45.75,11.59,11.59,0,0,0-2.92,2.46,18.07,18.07,0,0,0-2.24,3.21A18.94,18.94,0,0,0,152,87.37Zm-.1,0a19,19,0,0,1,2.17-7.59,15.45,15.45,0,0,1,5.08-6,6,6,0,0,1,3.8-1,6.9,6.9,0,0,1,3.69,1.43,10.62,10.62,0,0,1,3.43,7,16.57,16.57,0,0,1,.06,4A11.06,11.06,0,0,1,168.92,89a10.82,10.82,0,0,1-5.91,5.1,9.88,9.88,0,0,1-3.93.52,13.82,13.82,0,0,1-3.92-.61,4.25,4.25,0,0,1-2.78-2.68A10.47,10.47,0,0,1,151.9,87.37Z"/>
                </g>
                <g>
                  <ellipse class="cls-3" cx="160.04" cy="85.69" rx="6.14" ry="5.51" transform="translate(22.91 204.65) rotate(-69.11)"/>
                  <ellipse class="cls-12" cx="159.08" cy="81.41" rx="1.7" ry="1.53" transform="translate(26.29 200.99) rotate(-69.11)"/>
                </g>
              </g>
              <path class="cls-3" d="M162.5,63.25s7.37-.81,9.76,6.51C172.26,69.76,175.69,57.8,162.5,63.25Z"/>
            </g>
            <path class="cls-3" d="M167.18,74.21s5.78,6.49,10.08,3.27c0,0-1,3.22-5.41,1.71a5,5,0,0,0,4.13,2h.43c3.25-.1-3,2.84-5.88-.08"/>
          </g>
          <g>
            <path class="cls-4" d="M197.34,39s35-14.9,59-4.88S286.19,55.88,273,85.44s-18.2,14.69-23.78,41.48-30.63,43-46.93,45.44l.4-.74s-10.5-13.36-9.43-29.16,1.79-14.28-1.45-25"/>
            <path class="cls-4" d="M266,66.54s1.76-19.37-21.07-25-34.67,4.72-38,14-1.57,13.34-1.57,13.34"/>
            <path class="cls-2" d="M227.7,85.67s14.8,3.12,21.81,13.91"/>
            <path class="cls-2" d="M212.69,100.65s20.89,7.47,23,17.91"/>
            <path class="cls-2" d="M210.74,114.54s9.83,10.88,6.6,29.07"/>
          </g>
          <path class="cls-13" d="M116.38,29.69a1,1,0,0,0,0-2,1,1,0,0,0,0,2Z"/>
          <g>
            <path class="cls-13" d="M117.71,57.73a7.49,7.49,0,0,1,4.53,5.3,9.15,9.15,0,0,1-1.5,7.27,12.79,12.79,0,0,1-6.54,4.79A19.11,19.11,0,0,1,110,76a11,11,0,0,1-4-.19c-2.73-.77-3.87-3.64-4-6.26a11.29,11.29,0,0,1,2-7.14,8.86,8.86,0,0,1,6.12-3.89,5.21,5.21,0,0,1,5.65,4c.79,2.72.24,6.36-2.45,7.82a3.64,3.64,0,0,1-3.84,0,2.94,2.94,0,0,1-1.07-3.47c.27-.58-.6-1.09-.87-.51a4,4,0,0,0,3.45,5.53c3.11.25,5.43-2.43,6-5.28s-.22-6.21-2.65-8-5.7-1.16-8.06.33a11.61,11.61,0,0,0-4.9,7,10.74,10.74,0,0,0,1.21,8.59c2,2.77,5.43,2.81,8.49,2.38a15.92,15.92,0,0,0,8.86-4,10.92,10.92,0,0,0,3.58-9.14,8.64,8.64,0,0,0-5.42-7c-.61-.22-.87.74-.27,1Z"/>
            <path class="cls-13" d="M114.56,55.25a7.6,7.6,0,0,1,1-9.39c2.32-2.29,6.64-3.29,9.09-.64a8.64,8.64,0,0,1,1.93,4.27,8.14,8.14,0,0,1-.33,4.61A4.91,4.91,0,0,1,122.53,57c-1.59.35-3.65.36-4.8-1s-1.31-4,0-5.23a2.07,2.07,0,0,1,2.45-.36,1.46,1.46,0,0,1,.42,2c-.4.5.3,1.21.7.71A2.47,2.47,0,0,0,120,49.19c-2-.5-3.68,1.09-4.06,2.92a5.05,5.05,0,0,0,2,5.35c1.76,1,4.24.81,6.07.07,4-1.63,4.28-6.6,3-10.17A6.82,6.82,0,0,0,123.08,43a7.83,7.83,0,0,0-6.1.6,8.6,8.6,0,0,0-3.28,12.15c.34.54,1.2,0,.86-.51Z"/>
            <path class="cls-13" d="M104.92,57.34a5.6,5.6,0,0,0-2.62-5.22c-1.7-1.12-4.27-1.79-6.12-.68a14.54,14.54,0,0,0-4.4,4.4,10.57,10.57,0,0,0-1.88,5.71c0,3.46,2.44,7.45,6.23,7.54,2.31.06,3.66-2.12,4.44-4,.71-1.73,1.35-4.35-.06-5.91a3,3,0,1,0-3.46,4.7c.58.27,1.09-.59.5-.86a2,2,0,1,1,2.5-2.75c.76,1.51,0,3.71-.7,5.11a7.25,7.25,0,0,1-1.48,2.11,2.8,2.8,0,0,1-2.81.43c-2.73-.83-4.23-3.89-4.15-6.6.09-3.3,2.3-6.19,4.74-8.23a4,4,0,0,1,2.64-1.2,6.61,6.61,0,0,1,2.91.77,4.72,4.72,0,0,1,2.72,4.7c-.08.64.92.63,1,0Z"/>
            <path class="cls-13" d="M129.61,52.7c.89-1,2-2.33,3.56-2a5.18,5.18,0,0,1,3.08,2.41,7,7,0,0,1,.22,7.11,8.47,8.47,0,0,1-6.09,4.15,4.36,4.36,0,0,1-3.71-.9c-1-1.05-1-2.77-.61-4.09a3.81,3.81,0,0,1,2.57-3,1.16,1.16,0,0,1,1.48,1.39,2,2,0,0,1-1.66,1.38c-.62.15-.36,1.12.27,1,1.52-.36,2.86-1.76,2.29-3.4s-2.65-1.63-3.9-.75c-2.54,1.79-3.35,6.83-.51,8.68s7,.18,9.17-1.94a8.13,8.13,0,0,0,1.94-9A6.9,6.9,0,0,0,134,49.91c-2.12-.85-3.81.57-5.14,2.08-.43.48.28,1.19.71.71Z"/>
            <path class="cls-13" d="M131.46,67.22a8.74,8.74,0,0,1,3.83,9.3c-.81,3.86-4.14,6.69-7.8,7.8-1.88.56-4.21.91-6.06.1C119.3,83.5,118.88,81,119,79a11.1,11.1,0,0,1,2.15-6.53,4.88,4.88,0,0,1,2.56-1.79,3.5,3.5,0,0,1,3.07,1.07,4.22,4.22,0,0,1,1.7,3.08,4.14,4.14,0,0,1-1.39,3,3.5,3.5,0,0,1-3.4.91,2.26,2.26,0,0,1-1.24-1.05,3.06,3.06,0,0,1,0-2.13c.13-.63-.83-.9-1-.27a3.68,3.68,0,0,0,.53,3.49,3.5,3.5,0,0,0,3.11,1.06,5.21,5.21,0,0,0,4.37-5A4.82,4.82,0,0,0,128,71.55a5.82,5.82,0,0,0-3.27-2c-2.61-.35-4.64,2.05-5.62,4.18a12.66,12.66,0,0,0-.94,8,5.41,5.41,0,0,0,1.76,3,6.07,6.07,0,0,0,3.44,1.15,13.06,13.06,0,0,0,12-6.55c2.28-4.36,1-10.42-3.37-12.94a.5.5,0,0,0-.51.86Z"/>
            <path class="cls-13" d="M111,80.15a7,7,0,0,1-1.81,9c-2.87,2.39-6.89,2.59-10.34,1.5a5.62,5.62,0,0,1-2.25-1.16,3.64,3.64,0,0,1-1-2.56,9.64,9.64,0,0,1,.82-5.51,6.59,6.59,0,0,1,3.65-2.84c1.47-.49,3.68-.93,4.82.42s1.62,4-.13,5.24a1.87,1.87,0,0,1-2.35,0,1.6,1.6,0,0,1-.37-2c.34-.55-.53-1-.87-.5a2.69,2.69,0,0,0,1.58,3.83c1.88.57,3.76-1,4.11-2.82s-.57-4.52-2.46-5.31-4.18-.12-5.82.71a7.05,7.05,0,0,0-3.76,4.66,12.76,12.76,0,0,0-.26,3.49,6.34,6.34,0,0,0,.72,3.24c1.16,1.8,3.77,2.39,5.75,2.65a11.76,11.76,0,0,0,6.67-.94,9.21,9.21,0,0,0,4.61-4.71,7.7,7.7,0,0,0-.5-6.87c-.34-.55-1.2-.05-.86.5Z"/>
            <path class="cls-13" d="M94.84,70c-1.5,0-3.28.06-4.24,1.4A3.21,3.21,0,0,0,91,75.24a3.88,3.88,0,0,0,4.36.7c1.42-.58,2.87-2,2.62-3.67a2.06,2.06,0,0,0-3.66-.83.5.5,0,1,0,.86.51,1.08,1.08,0,0,1,1-.32,1,1,0,0,1,.78.87c.1,1.17-1.08,2.15-2,2.53a2.89,2.89,0,0,1-3.17-.42,2.23,2.23,0,0,1-.45-2.6c.68-1.11,2.33-1.06,3.46-1a.5.5,0,0,0,0-1Z"/>
            <path class="cls-13" d="M118.9,87.19a5.91,5.91,0,0,1,.72,5.42,4.93,4.93,0,0,1-4.19,3.3,3.53,3.53,0,0,1-3.79-3.4,6.56,6.56,0,0,1,.7-3,3.24,3.24,0,0,1,1.83-1.85c.74-.2,1.85.07,2,.94a1.57,1.57,0,0,1-.56,1.34,1.9,1.9,0,0,1-.7.41c-.21,0-.8.1-.74-.27.11-.63-.86-.9-1-.27a1.3,1.3,0,0,0,.77,1.46,2.08,2.08,0,0,0,1.91-.29,2.51,2.51,0,0,0,1.08-3.1,2.61,2.61,0,0,0-2.71-1.25,3.89,3.89,0,0,0-2.71,2.25c-1.24,2.4-1.41,5.67,1.11,7.29a5.29,5.29,0,0,0,6.83-1.34,6.83,6.83,0,0,0,.28-8.14c-.37-.52-1.23,0-.86.51Z"/>
            <path class="cls-13" d="M109.33,54.61a.5.5,0,0,0,0-1,.5.5,0,0,0,0,1Z"/>
          </g>
          <path class="cls-14" d="M166.07,31.81S149.51,42.4,143.45,60.5s-17.13,40-35.36,49.59c0,0-8,14.08-20.19,11.8s-6.7-8.52-3.1-9c0,0-7.36,5.8,2.68,4.61s7.73-11.63-.18-11.88-13.77,5.77-11.14,11.89S95.91,136.86,108.5,115a50.63,50.63,0,0,0,27.34-23.07c9.62-17.8,12.7-43,40.38-58.86Z"/>
          <g>
            <path class="cls-15" d="M147.34,16.11s-21.84,10.47-27,3.23l-3.38,4s13.76,7.51,29.16-5Z"/>
            <path class="cls-15" d="M142.48,22s-21.84,10.47-27,3.23l-3.38,4s13.76,7.52,29.16-5Z"/>
            <g>
              <g>
                <path class="cls-15" d="M209,23.58l-9.28-4.64S183.27,30.86,165.63,28s-21.43-8-21.43-8l-5.64,5.29s8,9.31,27.58,10.13S209,23.58,209,23.58Z"/>
                <path class="cls-15" d="M195.42,16.54s-21.09,16.67-47.37,1.11l10.14-4.58s16.15,7.88,25.89-1.43l10.41,4.49"/>
              </g>
              <path class="cls-13" d="M167.21,34c3.22,0,3.23-5,0-5s-3.22,5,0,5Z"/>
              <path class="cls-13" d="M157,33.64c3.22,0,3.22-5,0-5s-3.22,5,0,5Z"/>
              <path class="cls-13" d="M147.82,30c3.22,0,3.23-5,0-5s-3.22,5,0,5Z"/>
              <path class="cls-13" d="M179.84,33c3.21,0,3.22-5,0-5s-3.23,5,0,5Z"/>
              <path class="cls-13" d="M190,29.9c3.22,0,3.22-5,0-5s-3.22,5,0,5Z"/>
              <path class="cls-13" d="M198,26.76c3.22,0,3.22-5,0-5s-3.22,5,0,5Z"/>
              <path class="cls-13" d="M185.93,19.44c3.22,0,3.23-5,0-5s-3.22,5,0,5Z"/>
              <path class="cls-13" d="M175.81,21.8c3.22,0,3.23-5,0-5s-3.22,5,0,5Z"/>
              <path class="cls-13" d="M166.18,22.19c3.22,0,3.22-5,0-5s-3.22,5,0,5Z"/>
              <path class="cls-13" d="M156.9,20.48c3.22,0,3.22-5,0-5s-3.22,5,0,5Z"/>
            </g>
            <path class="cls-13" d="M140,21.28a.5.5,0,0,0,0-1,.5.5,0,0,0,0,1Z"/>
            <path class="cls-13" d="M136.57,23.06a.5.5,0,0,0,0-1,.5.5,0,0,0,0,1Z"/>
            <path class="cls-13" d="M132.77,24.56a1,1,0,0,0,0-2,1,1,0,0,0,0,2Z"/>
            <path class="cls-13" d="M128,25.17a1,1,0,0,0,0-2,1,1,0,0,0,0,2Z"/>
            <path class="cls-13" d="M124.64,25.06a1,1,0,0,0,0-2,1,1,0,0,0,0,2Z"/>
            <path class="cls-13" d="M120.9,24.18a1,1,0,0,0,0-2,1,1,0,0,0,0,2Z"/>
            <path class="cls-13" d="M121.63,30.62a1,1,0,0,0,0-2,1,1,0,0,0,0,2Z"/>
            <path class="cls-13" d="M127.87,30.25a1,1,0,0,0,0-2,1,1,0,0,0,0,2Z"/>
            <path class="cls-13" d="M134.33,28.76a1,1,0,0,0,0-2,1,1,0,0,0,0,2Z"/>
          </g>
          <path class="cls-16" d="M163.15,128.09s-4,13.83-24.41,14.11-13.48-8.92-34.83,3.78"/>
          <path class="cls-17" d="M130.37,144.19s-8.62,15.95-15.59,15.53c0,0-3.74-1.06-2.09-11.19s.25-7.54.25-7.54,5.19-3,13-.14l5.42,1.3Z"/>
          <g>
            <path class="cls-9" d="M76.67,218.28c9,2.36,25.4-9.55,25.4-9.55,1.64-1.13,3.22-2.27,4.75-3.44,35.78-27.21,42.72-64.63,42.72-64.63-14.27,3.69-23.58.19-23.58.19C120.7,167,109.3,185.59,98.9,197.26c-6.07,6.81-11.8,11.26-15.76,13.49C72.38,216.82,76.67,218.28,76.67,218.28Z"/>
            <path class="cls-10" d="M76.67,218.28c9,2.36,25.4-9.55,25.4-9.55,1.64-1.13,3.22-2.27,4.75-3.44a21,21,0,0,0-7.92-8c-6.07,6.81-11.8,11.26-15.76,13.49C72.38,216.82,76.67,218.28,76.67,218.28Z"/>
          </g>
        </g>
        <g>
          <g>
            <path class="cls-18" d="M66.61,115.35s7.89,1.1,8,15"/>
            <path class="cls-19" d="M66.62,115.31a6.1,6.1,0,0,1,2.28.58,9.47,9.47,0,0,1,2,1.33,11.38,11.38,0,0,1,2.73,3.9,17.52,17.52,0,0,1,1.15,4.57c0,.78.09,1.55.09,2.32s-.1,1.55-.21,2.31h-.07L74.47,128c-.07-.75-.19-1.51-.28-2.26a19.29,19.29,0,0,0-1.26-4.36,11.55,11.55,0,0,0-2.45-3.79,8.12,8.12,0,0,0-3.87-2.24Z"/>
          </g>
          <g>
            <path class="cls-18" d="M57.54,115.91s5,3,3.57,12.28"/>
            <path class="cls-19" d="M57.56,115.87a6.11,6.11,0,0,1,2.66,2.25,9.41,9.41,0,0,1,1.41,3.23,11.7,11.7,0,0,1,.26,3.48c0,.58-.15,1.15-.24,1.71s-.3,1.12-.51,1.65h-.07l.19-1.67c0-.55.05-1.11,0-1.67a14.76,14.76,0,0,0-.4-3.31,11.18,11.18,0,0,0-1.19-3.11,7.67,7.67,0,0,0-2.19-2.48Z"/>
          </g>
        </g>
        <g>
          <g>
            <path class="cls-20" d="M282.52,70.28c-2.86,35.84-6.24,44.22-6.74,68.25-.31,15.19-1.38,36.47-2.14,50.07-.43,7.9-.75,13.21-.75,13.21S282,199,295.6,199.42s10,5.43,10,5.43a115.29,115.29,0,0,0,38.24-1.6c15.79-3.41,22.53-1.74,23.44,1.1a3.08,3.08,0,0,1-.65,2.75s9.64-.54,16.92,1.68c6.42,1.95,5.8,4.12,5.57,4.6a39.14,39.14,0,0,0,2.82-8c3.76-13.66,10.25-48.46,13.53-131.7,0,0-26-34.79-91.36-44.54,0,0-42.23-6.46-56.34,1.29C257.78,30.44,285.37,34.44,282.52,70.28Z"/>
            <path class="cls-11" d="M272.89,201.81S282,199,295.6,199.42s10,5.43,10,5.43a115.29,115.29,0,0,0,38.24-1.6c15.79-3.41,22.53-1.74,23.44,1.1a3.08,3.08,0,0,1-.65,2.75s9.64-.54,16.92,1.68c6.42,1.95,5.8,4.12,5.57,4.6a39.14,39.14,0,0,0,2.82-8c-2.62-2.45-7.57-5.27-16.32-5.07,0,0-7.09.61-8.16-1.4l-.12-5.09s-8.91-4.25-28.58.2-29,4.72-30.78-1.56c0,0,1.9-6.44-8.59-5.65-8.94.67-18.4,5-25.76,1.78C273.21,196.5,272.89,201.81,272.89,201.81Z"/>
            <path class="cls-21" d="M305.61,204.84s4.13-14,3.79-47.4"/>
            <path class="cls-20" d="M367.28,204.86l1.11-34.2"/>
          </g>
          <path class="cls-22" d="M379.64,98.29c5.8,0,5.81-9,0-9s-5.8,9,0,9Z"/>
          <path class="cls-22" d="M332.35,91.1c5.79,0,5.8-9,0-9s-5.8,9,0,9Z"/>
          <path class="cls-22" d="M334.9,134.75c5.79,0,5.8-9,0-9s-5.8,9,0,9Z"/>
          <path class="cls-22" d="M354.92,110.51c5.79,0,5.8-9,0-9s-5.8,9,0,9Z"/>
          <path class="cls-22" d="M377.52,146.32c5.8,0,5.81-9,0-9s-5.8,9,0,9Z"/>
          <path class="cls-22" d="M321.89,169.41c5.79,0,5.8-9,0-9s-5.8,9,0,9Z"/>
          <path class="cls-22" d="M357.12,182.44c5.79,0,5.8-9,0-9s-5.8,9,0,9Z"/>
          <path class="cls-22" d="M386.53,182.82c5.79,0,5.8-9,0-9s-5.8,9,0,9Z"/>
          <path class="cls-22" d="M297.77,145.44c5.79,0,5.8-9,0-9s-5.8,9,0,9Z"/>
          <path class="cls-22" d="M298.45,107c5.79,0,5.8-9,0-9s-5.8,9,0,9Z"/>
          <path class="cls-22" d="M299.13,68.53c5.79,0,5.8-9,0-9s-5.8,9,0,9Z"/>
          <path class="cls-22" d="M358,69.3c5.79,0,5.8-9,0-9s-5.8,9,0,9Z"/>
          <path class="cls-22" d="M300.63,39.72c5.79,0,5.8-9,0-9s-5.8,9,0,9Z"/>
          <path class="cls-22" d="M325,56.35c5.79,0,5.8-9,0-9s-5.81,9,0,9Z"/>
          <path class="cls-22" d="M378.22,72.22c5.8,0,5.81-9,0-9s-5.8,9,0,9Z"/>
          <path class="cls-22" d="M290,176.87c5.79,0,5.8-9,0-9s-5.81,9,0,9Z"/>
        </g>
        <g>
          <path class="cls-4" d="M199.44,181s1.94,18.73,11.66,32.91,9.76,21.82,8.48,35.36,7.07,26-1.68,43.23a23.58,23.58,0,0,0-2.71,2.57c-2.55,2.85-5.5,7.58-2,11.71,1.18,1.37,3.6,2.72,6.84,3.83h0a45.41,45.41,0,0,0,5.42,1.45h0a58,58,0,0,0,24.48-.22c1.09-.25,2.16-.55,3.23-.89a33.07,33.07,0,0,0,13.91-8.37s3-3.55-1.54-11c-.18-.31-.4-.64-.62-1a234.55,234.55,0,0,0,1.91-32.75c-.29-17.27.16-40.17.16-40.17S279,205.4,285,193.42"/>
          <path class="cls-16" d="M255.54,232.09c-1.25,3.24-1.61,6.73-2.44,10.1s-2.25,6.77-5,8.87a62.84,62.84,0,0,1,11.12-10.31,120.88,120.88,0,0,1-5.1,11.53c-.83,1.57-1.9,3.25-3.62,3.71"/>
          <path class="cls-16" d="M221.66,263.55l12.92,1.58a1.18,1.18,0,0,1,1.68-.5c-2.38.68-4.56,1.92-6.89,2.76s-5,1.25-7.23.26a44.4,44.4,0,0,0,19.88,5"/>
          <path class="cls-6" d="M213.19,306.82c1.18,1.37,3.6,2.72,6.84,3.83h0c6.33-11.74-.27-14.78-4.85-15.54C212.64,298,209.69,302.69,213.19,306.82Z"/>
          <path class="cls-6" d="M225.46,312.1a58,58,0,0,0,24.48-.22c0-.18-.07-.38-.11-.59-.63-3.28-3-9.82-12.13-9.91C232.09,301.33,228.11,306.51,225.46,312.1Z"/>
          <path class="cls-6" d="M253.17,311a33.07,33.07,0,0,0,13.91-8.37s3-3.55-1.54-11c-1.36-.94-3.16-.89-5.5,1.13C254.35,297.7,250.65,305.52,253.17,311Z"/>
        </g>
        <path class="cls-16" d="M352.09,216.63s1.46,1.55,15.72-7.79"/>
        <path class="cls-6" d="M133.58,307.41q3-.48,6.08-1.27c8.63-2.25,12.47-5.08,13.94-7.7C149.59,296.07,137.29,290.38,133.58,307.41Z"/>
        <path class="cls-6" d="M106.33,305.71a56.12,56.12,0,0,0,21.38,2.36c-.34-3.82-2.29-9.5-10.68-10.87C110.49,296.13,107.59,300.81,106.33,305.71Z"/>
        <path class="cls-6" d="M105.1,305.25c.93-2.85,2.25-9.16-3.09-11.8a14.74,14.74,0,0,0-3.43,5.7C98,301.16,100.52,303.47,105.1,305.25Z"/>
        <path class="cls-16" d="M128.05,253.73,116,251.91c.31-.28.78,0,1.08.28l9.81,8.9a13.56,13.56,0,0,0-6.67-1.72c-.7,0-1.56.2-1.71.88a1.55,1.55,0,0,0,.63,1.33,14.17,14.17,0,0,0,3.25,2.4"/>
      </g>
    </g>
  </g>
</svg>
