<svg xmlns="http://www.w3.org/2000/svg" width="277.41" height="255.17" viewBox="0 0 277.41 255.17">
  <defs>
    <style>
      .cls-1 {
        isolation: isolate;
      }

      .cls-2 {
        fill: none;
        stroke: #ff0;
        stroke-linejoin: round;
        stroke-width: 15px;
      }

      .cls-3 {
        fill: #a4a7a7;
      }

      .cls-3, .cls-6, .cls-7 {
        stroke: #49463e;
        stroke-miterlimit: 10;
      }

      .cls-4 {
        fill: #fff;
        opacity: 0.3;
      }

      .cls-5 {
        fill: #c5c7c9;
        mix-blend-mode: multiply;
      }

      .cls-6 {
        fill: #b26024;
      }

      .cls-7 {
        fill: #284d5e;
      }
    </style>
  </defs>
  <g class="cls-1">
    <g id="Layer_1" data-name="Layer 1">
      <g>
        <path class="cls-2" d="M259.57,73.07c6.3-7.81,10.75-15.53,7.43-19h0a8.09,8.09,0,0,0-.62-.58l-.05,0a4.73,4.73,0,0,0-.59-.4l-.07,0a5.25,5.25,0,0,0-.55-.25l-.09,0a3.18,3.18,0,0,0-.51-.13l-.1,0a2.77,2.77,0,0,0-.49,0h-.11l-.46,0-.14,0-.41.07-.21.05-.19,0c-1.53.39-3,1-4.69-.3h0a5.07,5.07,0,0,1-.5-.45c-2.45-2.46-.38-8.22-5.53-13.22l-12.5-12.5c-5-5.16-10.76-3.09-13.23-5.54-3.53-3.49,1.93-5.91-2.11-9.79-5-4.83-19.09,6.79-29.31,16.6L186,36h0L162.44,59.59,168,65.14,9.28,223.83l11.33,21.51h0l.06.11c1.86-.42,3,1,5.15-.18,2.5-1.33,1.38-3.45,3.89-4.78s3.63.78,6.14-.56,1.38-3.45,3.89-4.79,3.64.79,6.15-.55,1.38-3.45,3.89-4.78,3.63.78,6.14-.56,1.38-3.45,3.89-4.79,3.64.79,6.15-.55,1.38-3.45,3.89-4.79,3.64.79,6.15-.55,1.38-3.45,3.89-4.79,3.63.79,6.14-.55,1.38-3.45,3.89-4.79,3.64.78,6.15-.55,1.38-3.45,3.89-4.79,3.64.78,6.15-.55,1.38-3.46,3.89-4.79,3.63.78,6.14-.55,1.39-3.46,3.9-4.79,3.63.78,6.14-.56,1.39-3.45,3.89-4.79,3.64.79,6.15-.55,1.38-3.45,3.89-4.79,3.64.79,6.15-.55,1.38-3.45,3.89-4.78,3.63.78,6.14-.56,1.38-3.45,3.89-4.79,3.64.79,6.15-.55,1.38-3.45,3.89-4.79,3.63.79,6.14-.55,1.39-3.45,3.9-4.79,3.63.78,6.14-.55,1.39-3.46,3.9-4.79,3.63.78,6.14-.55,1.38-3.46,3.9-4.8,3.64.79,6.14-.55,1.39-3.45,3.9-4.79,3.63.79,6.15-.55,1.38-3.45,3.89-4.79,3.63.78,6.15-.55,1.38-3.46,3.89-4.79,3.64.78,6.15-.56,1.5-3.22,3.5-4.55L235.5,98.29h0l14.9-14.9.93-1c2.75-2.9,5.6-6.07,8.15-9.23Z"/>
        <g id="saw">
          <path class="cls-3" d="M9.28,223.83l11.39,21.62c1.86-.42,3,1,5.15-.18,2.5-1.33,1.38-3.45,3.89-4.78s3.63.78,6.14-.56,1.38-3.45,3.89-4.79,3.64.79,6.15-.55,1.38-3.45,3.89-4.78,3.63.78,6.14-.56,1.38-3.45,3.89-4.79,3.64.79,6.15-.55,1.38-3.45,3.89-4.79,3.64.79,6.15-.55,1.38-3.45,3.89-4.79,3.63.79,6.14-.55,1.38-3.45,3.89-4.79,3.64.78,6.15-.55,1.38-3.45,3.89-4.79,3.64.78,6.15-.55,1.38-3.46,3.89-4.79,3.63.78,6.14-.55,1.39-3.46,3.9-4.79,3.63.78,6.14-.56,1.39-3.45,3.89-4.79,3.64.79,6.15-.55,1.38-3.45,3.89-4.79,3.64.79,6.15-.55,1.38-3.45,3.89-4.78,3.63.78,6.14-.56,1.38-3.45,3.89-4.79,3.64.79,6.15-.55,1.38-3.45,3.89-4.79,3.63.79,6.14-.55,1.39-3.45,3.9-4.79,3.63.78,6.14-.55,1.39-3.46,3.9-4.79,3.63.78,6.14-.55,1.38-3.46,3.9-4.8,3.64.79,6.14-.55,1.39-3.45,3.9-4.79,3.63.79,6.15-.55,1.38-3.45,3.89-4.79,3.63.78,6.15-.55,1.38-3.46,3.89-4.79,3.64.78,6.15-.56,1.5-3.22,3.5-4.55L235.5,98.29,185.16,48Z"/>
          <path class="cls-4" d="M182.43,50.69l42.66,42.66-2.22,20L20,237.1c-1.53.82-2.54.32-3.67.15l4.32,8.2c1.86-.42,3,1,5.15-.18,2.5-1.33,1.38-3.45,3.89-4.78s3.63.78,6.14-.56,1.38-3.45,3.89-4.79,3.64.79,6.15-.55,1.38-3.45,3.89-4.78,3.63.78,6.14-.56,1.38-3.45,3.89-4.79,3.64.79,6.15-.55,1.38-3.45,3.89-4.79,3.64.79,6.15-.55,1.38-3.45,3.89-4.79,3.63.79,6.14-.55,1.38-3.45,3.89-4.79,3.64.78,6.15-.55,1.38-3.45,3.89-4.79,3.64.78,6.15-.55,1.38-3.46,3.89-4.79,3.63.78,6.14-.55,1.39-3.46,3.9-4.79,3.63.78,6.14-.56,1.39-3.45,3.89-4.79,3.64.79,6.15-.55,1.38-3.45,3.89-4.79,3.64.79,6.15-.55,1.38-3.45,3.89-4.78,3.63.78,6.14-.56,1.38-3.45,3.89-4.79,3.64.79,6.15-.55,1.38-3.45,3.89-4.79,3.63.79,6.14-.55,1.39-3.45,3.9-4.79,3.63.78,6.14-.55,1.39-3.46,3.9-4.79,3.63.78,6.14-.55,1.38-3.46,3.9-4.8,3.64.79,6.14-.55,1.39-3.45,3.9-4.79,3.63.79,6.15-.55,1.38-3.45,3.89-4.79,3.63.78,6.15-.55,1.38-3.46,3.89-4.79,3.64.78,6.15-.56,1.5-3.22,3.5-4.55L235.5,98.29,185.16,48Z"/>
          <path class="cls-5" d="M168.75,64.36,9.28,223.83l11.33,21.51C29,213.8,172.37,68,172.37,68Z"/>
          <g>
            <path class="cls-6" d="M239.17,26.24c-5-5.16-10.76-3.09-13.23-5.54-3.53-3.49,1.93-5.91-2.11-9.79-5-4.83-19.09,6.79-29.31,16.6L162.44,59.59l34.18,34.18c21.69,21.7,36.52,6.88,36.52,6.88L250.4,83.38c9.81-10.21,21.43-24.27,16.6-29.31-3.88-4-6.3,1.43-9.8-2.11-2.45-2.46-.38-8.22-5.53-13.22ZM247,58.89a7.9,7.9,0,1,1-11.17,11.17l-28-28A7.9,7.9,0,0,1,219,30.87Z"/>
            <path class="cls-7" d="M239.17,26.24c-5-5.16-10.76-3.09-13.23-5.54-3.53-3.49,1.93-5.91-2.11-9.79-5-4.83-19.09,6.79-29.31,16.6L186,36s23.51,42,38.17,49.1c10.08,4.87,29-.59,42.84-31.06-3.88-4-6.3,1.43-9.8-2.11-2.45-2.46-.38-8.22-5.53-13.22ZM247,58.89a7.9,7.9,0,1,1-11.17,11.17l-28-28A7.9,7.9,0,0,1,219,30.87Z"/>
            <path class="cls-5" d="M257.7,52.41l-9,9A7.9,7.9,0,0,1,247,70.06c-2.35,2.35-5.56,1.55-8.68,1.68-9.75,26-41.74,22-41.74,22,21.69,21.7,36.52,6.87,36.52,6.87L250.4,83.38c9.81-10.21,21.43-24.27,16.6-29.31C263.31,50.23,260.94,55,257.7,52.41Z"/>
          </g>
        </g>
      </g>
    </g>
  </g>
</svg>
