<svg id="Layer_1" data-name="Layer 1" xmlns="http://www.w3.org/2000/svg" width="326.18" height="249.64" viewBox="0 0 326.18 249.64">
  <defs>
    <style>
      .cls-1, .cls-17, .cls-2, .cls-22 {
        fill: none;
      }

      .cls-1 {
        stroke: #000;
        opacity: 0.32;
      }

      .cls-1, .cls-10, .cls-11, .cls-12, .cls-15, .cls-16, .cls-17, .cls-18, .cls-21, .cls-22, .cls-3, .cls-6, .cls-7, .cls-8 {
        stroke-miterlimit: 10;
      }

      .cls-1, .cls-2 {
        stroke-width: 10px;
      }

      .cls-2 {
        stroke: #fff;
        stroke-linejoin: round;
      }

      .cls-3 {
        fill: #edebeb;
      }

      .cls-10, .cls-12, .cls-17, .cls-18, .cls-22, .cls-3, .cls-6, .cls-7, .cls-8 {
        stroke: #473535;
      }

      .cls-10, .cls-12, .cls-17, .cls-18, .cls-3, .cls-6, .cls-7, .cls-8 {
        stroke-width: 0.75px;
      }

      .cls-4 {
        fill: #231919;
      }

      .cls-5 {
        fill: #c9c0c0;
        opacity: 0.43;
      }

      .cls-6 {
        fill: #eddada;
      }

      .cls-7 {
        fill: #e0d3d3;
      }

      .cls-19, .cls-8 {
        fill: #c9bcbc;
      }

      .cls-9 {
        fill: #635a58;
      }

      .cls-10 {
        fill: #e8d4d4;
      }

      .cls-11 {
        fill: #f2b955;
      }

      .cls-11, .cls-15, .cls-16, .cls-21 {
        stroke: #231919;
        stroke-width: 0.25px;
      }

      .cls-12 {
        fill: #d3c34f;
      }

      .cls-13 {
        fill: #f4eaea;
      }

      .cls-14 {
        fill: #5163a8;
      }

      .cls-15 {
        fill: #dd1b5c;
      }

      .cls-16 {
        fill: #eaad65;
      }

      .cls-18 {
        fill: #9e8b8b;
      }

      .cls-20 {
        fill: #473535;
      }

      .cls-21 {
        fill: #d30b3b;
      }

      .cls-23 {
        fill: #cc9e9e;
      }
    </style>
  </defs>
  <g>
    <path class="cls-1" d="M307.85,161.64c1-14.21-5.32-16.3-8.15-16.53a12.27,12.27,0,0,0-.87-1.48c-5.39-7.55-7.32-23.92-7.91-30.8.08-1.72.12-3.51.1-5.37-.16-15.63-7.9-26.85-15.06-33.91v-.13s-17.22-23-60.42-29.46c0,0-27.92-4.27-37.25.85l.29.06a14.55,14.55,0,0,0-3.31,1.66,34.22,34.22,0,0,0-9-1.51l.21-.47S158.77,47,141.8,38.07c-.82-.43-1.66-.89-2.53-1.38a35.4,35.4,0,0,0-9.48-4.2l-.24-.1,0,0a29.21,29.21,0,0,0-8.79-1.06,54.3,54.3,0,0,0-8.13,2.06l-.17-.08-1.36.61a41.38,41.38,0,0,0-5.35,2.41,8.87,8.87,0,0,0-.73-.51l.27-.5-.61.28A14.39,14.39,0,0,0,93.7,34a13.63,13.63,0,0,0-6.22,3.59l-.07-.08-2.23,2.64.11.06c-.32.47-.63,1-.9,1.44l-.19-.22L82,44A10.42,10.42,0,0,0,83,44.5a16.64,16.64,0,0,0-.87,3.07S79.62,49,77.84,53.91c0,0-2.19,2.05-4.75,4.76a2.45,2.45,0,0,0-1,.09,3.34,3.34,0,0,0-1,.62,8.59,8.59,0,0,0-3.4,5.4,4.54,4.54,0,0,0,0,.74c-2.65,5.74-2.49,17.2-3.26,23.75a41.34,41.34,0,0,0-3.2,6.23A6.59,6.59,0,0,0,58.44,98a22.86,22.86,0,0,1-6.18,3.07,2.36,2.36,0,0,0-.39-.1l.09.18a10.61,10.61,0,0,1-2.48.36,25.26,25.26,0,0,1-3.55-.14l-.06,0v0c-4.53-.56-9.11-3-10.06-13.27-1.17-12.66.85-21.55-8.19-26.92a6.2,6.2,0,0,0-1.16-2s-2.25-2.78-5.55-2.05-.39,3.26-2.76,4.31-6.3,4.1-.95,6.24c0,0,2,3.45,6.66,1.56.52,1.71,1,5.76-.88,14.46-2.78,12.89-5.84,30.13,10.25,38,11.14,5.45,17.45,6.56,21.88,4.92A72.14,72.14,0,0,0,48.36,141c-.37,1.08-.71,2.18-1,3.31,0,0-3.59,11.44-.21,15.29,0,0,1.82,1.74,3.12-5.29a40.25,40.25,0,0,1,4.69-11.55,80.49,80.49,0,0,1,16-19.53c1.86-.54,3.84-1.16,6-1.88,0,0,2.51,7.07.56,13.36,0,0-1.12,7.45,7.44,1.37l.63-.45a73.94,73.94,0,0,1-12.32,19.5,44.15,44.15,0,0,1-10.42,8.92c-7.11,4-4.28,5-4.28,5,5.94,1.56,16.8-6.32,16.8-6.32,1.08-.74,2.13-1.5,3.14-2.27a78.5,78.5,0,0,0,25.84-34.72c.28,0,.57-.07.86-.1a29.79,29.79,0,0,0,.69,7.92c-1.37,12.53-7.73,29.92-13.43,38.33-7.07,10.44-9.32,16.35-9.35,28.89s-5.38,15.91-5.38,15.91a14,14,0,0,0-2.41,2.07A9.66,9.66,0,0,0,73,222.52c-.4,1.33,1.28,2.86,4.31,4l.82.3c.45.15.93.3,1.44.44l.69.17c.28.07.56.15.86.21l.16,0c.43.1.89.18,1.35.26l.15,0c.46.08.94.15,1.43.21l.39,0,1.49.14.2,0c.57,0,1.16.07,1.75.09H90.4c.62,0,1.24,0,1.87-.09,1.27-.08,2.56-.23,3.89-.44s2.66-.49,4-.84c5.71-1.48,8.26-3.35,9.22-5.09,1.54-2.73-.84-5.12-.84-5.12s1.31-11.55,3.31-21.41,3.66-9.05,3.66-9.05c7-4.89,20.65-17.94,26.23-23.38,1.53.5,3.08,1,4.63,1.46.33.55.68,1.09,1,1.63,6.44,9.37,6.46,14.43,5.61,23.38s4.68,17.18-1.11,28.59a14.71,14.71,0,0,0-1.79,1.7c-1.69,1.89-3.64,5-1.32,7.74a10.75,10.75,0,0,0,4.52,2.54h0a30.88,30.88,0,0,0,3.59,1h0a38.49,38.49,0,0,0,16.19-.15c.72-.17,1.43-.36,2.14-.59a21.83,21.83,0,0,0,9.19-5.53s2-2.35-1-7.26c-.12-.21-.26-.43-.4-.65a155.68,155.68,0,0,0,1.26-21.66c-.16-9.42,0-21.37.08-25.27a44.41,44.41,0,0,1,8.57-1.58c-.32.39-.17.66.55.77,6.93,1,4.71,39.76.47,40.91h0c-4.27.86-3.62,4.12-3.62,4.12a10.16,10.16,0,0,0,.45,1.28,1.11,1.11,0,0,1,.07.16,9.36,9.36,0,0,0,.6,1.08,2.14,2.14,0,0,1,.13.19,8.39,8.39,0,0,0,.74.93l.16.17a8.76,8.76,0,0,0,.9.82l.12.1a12.51,12.51,0,0,0,1,.71l.08,0a11.94,11.94,0,0,0,1.18.61l.19.1c.4.17.82.33,1.25.48l.22.08c.45.14.9.27,1.37.39h.06l.1,0c.48.11,1,.21,1.46.29a28.19,28.19,0,0,0,4,.35,44.88,44.88,0,0,0,12.24-1.55c.52-.14,1-.28,1.55-.44.91-.26,1.78-.55,2.64-.86,11.36-4.12,3.83-10.6,3.83-10.6l0-.15c.15-.9.92-6,1.34-19,.32-9.85,6.46-17,10.34-20.49,2.66-.54,4.33-1,4.33-1,.92,10,6.47,15.92,12.45,23.6,5,6.42,6.08,16,5.28,23.2a31.44,31.44,0,0,1-.66,3.89c-1.2,5,5.21,6.11,9.3,6.36l.53,0c1,0,1.75,0,2.22,0l.46,0c7.35,0,12.77-1.9,16.72-4.66a22.16,22.16,0,0,0,2.59-2.14,23,23,0,0,0,6.92-15,14.48,14.48,0,0,0,0-1.76c-.53-6.75-6-5.68-6-5.68-1-6.77-5.44-16.89-8.68-32.46-2.26-10.87,3.3-19.54,6.77-33.71a48.62,48.62,0,0,0,7.7,17.12c.5,11.55-.08,15.06-.08,15.06.82,21,17.44,16.28,17.44,16.28S306.51,179.81,307.85,161.64Z"/>
    <path class="cls-2" d="M304,157.51c1-14.21-5.32-16.3-8.14-16.53a12.4,12.4,0,0,0-.88-1.47c-5.39-7.56-7.32-23.93-7.9-30.8.08-1.73.11-3.51.09-5.38-.16-15.63-7.9-26.85-15-33.91v-.13s-17.22-23-60.42-29.45c0,0-27.92-4.28-37.25.85l.3.05a14.43,14.43,0,0,0-3.32,1.66,34.21,34.21,0,0,0-9-1.5l.21-.47S154.91,42.9,137.93,34c-.82-.43-1.66-.9-2.53-1.38a35.6,35.6,0,0,0-9.48-4.21l-.24-.1,0,0a29,29,0,0,0-8.8-1.05,53.45,53.45,0,0,0-8.13,2.05l-.17-.08-1.36.62a40.07,40.07,0,0,0-5.35,2.41,7.41,7.41,0,0,0-.73-.52l.27-.5-.61.28a14.35,14.35,0,0,0-11-1.64,13.53,13.53,0,0,0-6.21,3.58l-.07-.08L81.31,36l.11.06c-.32.47-.63,1-.9,1.44-.06-.07-.13-.14-.19-.22L78.1,39.91a8.4,8.4,0,0,0,1.06.46,17.71,17.71,0,0,0-.87,3.07S75.75,44.85,74,49.78c0,0-2.19,2.06-4.75,4.77a2.65,2.65,0,0,0-1,.08,3.37,3.37,0,0,0-1,.63,8.54,8.54,0,0,0-3.4,5.39,6.11,6.11,0,0,0,0,.74c-2.65,5.75-2.49,17.2-3.26,23.76a40.85,40.85,0,0,0-3.2,6.22,6.59,6.59,0,0,0-2.71,2.5,22.58,22.58,0,0,1-6.18,3.07l-.39-.1.1.18a10.2,10.2,0,0,1-2.48.37,28.78,28.78,0,0,1-3.56-.14l-.06,0v0C37.49,96.68,32.9,94.2,32,84c-1.16-12.66.85-21.55-8.19-26.92a6,6,0,0,0-1.16-2s-2.25-2.79-5.55-2-.38,3.26-2.76,4.3-6.3,4.1-.95,6.24c0,0,2,3.45,6.66,1.56.52,1.72,1,5.77-.88,14.47-2.78,12.88-5.84,30.12,10.25,38,11.14,5.46,17.45,6.57,21.88,4.92a72.7,72.7,0,0,0-6.76,14.39c-.37,1.08-.71,2.18-1,3.31,0,0-3.59,11.45-.2,15.29,0,0,1.81,1.74,3.12-5.28a40,40,0,0,1,4.68-11.55,80.52,80.52,0,0,1,16-19.54c1.86-.53,3.84-1.16,6-1.87,0,0,2.51,7.06.56,13.36,0,0-1.11,7.45,7.44,1.36l.63-.45A73.94,73.94,0,0,1,69.35,151a44.25,44.25,0,0,1-10.42,8.93c-7.11,4-4.28,5-4.28,5,5.94,1.56,16.8-6.31,16.8-6.31,1.08-.75,2.13-1.5,3.14-2.28a78.45,78.45,0,0,0,25.84-34.72l.86-.1a30.32,30.32,0,0,0,.69,7.93c-1.37,12.53-7.72,29.91-13.43,38.32-7.07,10.44-9.32,16.35-9.35,28.89s-5.38,15.91-5.38,15.91a14.36,14.36,0,0,0-2.41,2.08,9.82,9.82,0,0,0-2.27,3.76c-.39,1.33,1.29,2.86,4.32,4q.39.16.81.3c.45.16.93.3,1.44.44l.69.18.86.21.16,0,1.35.25.15,0c.46.08.94.15,1.43.21l.39,0c.49.06,1,.11,1.49.14l.2,0c.57,0,1.16.07,1.75.09h.42c.47,0,.94,0,1.43,0h.5c.62,0,1.24,0,1.87-.08,1.27-.09,2.57-.23,3.89-.45a40.57,40.57,0,0,0,4-.84c5.71-1.48,8.25-3.35,9.21-5.08,1.54-2.74-.84-5.13-.84-5.13S106,201.25,108,191.39s3.66-9,3.66-9c7-4.9,20.65-17.95,26.23-23.39q2.31.76,4.63,1.46c.33.55.68,1.1,1,1.63,6.44,9.38,6.46,14.43,5.61,23.38s4.68,17.18-1.11,28.59a15.62,15.62,0,0,0-1.79,1.7c-1.69,1.89-3.64,5-1.32,7.74a10.82,10.82,0,0,0,4.52,2.54h0a30.88,30.88,0,0,0,3.59,1h0a38.48,38.48,0,0,0,16.19-.14c.72-.17,1.43-.37,2.14-.6a21.83,21.83,0,0,0,9.19-5.53s2-2.35-1-7.26c-.12-.21-.27-.43-.41-.65a155.68,155.68,0,0,0,1.26-21.66c-.16-9.42,0-21.37.08-25.27a44.43,44.43,0,0,1,8.57-1.57c-.32.38-.17.66.55.76,6.93,1,4.71,39.77.47,40.91H190c-4.26.86-3.62,4.12-3.62,4.12a8.82,8.82,0,0,0,.46,1.28,1.11,1.11,0,0,0,.07.16,7.09,7.09,0,0,0,.6,1.08l.12.19a9.74,9.74,0,0,0,.74.93l.16.17a10.17,10.17,0,0,0,.9.83l.12.09a10.45,10.45,0,0,0,1,.71l.08.06c.38.22.77.42,1.18.61l.19.09c.4.18.82.34,1.25.49l.22.07c.45.15.9.28,1.37.39l.06,0,.11,0c.47.11,1,.21,1.45.29a26.78,26.78,0,0,0,4,.35,44.83,44.83,0,0,0,12.24-1.55c.53-.13,1-.27,1.55-.43q1.36-.41,2.64-.87c11.36-4.12,3.84-10.6,3.84-10.6a.84.84,0,0,1,0-.14c.15-.91.92-6,1.34-19,.32-9.86,6.47-17,10.34-20.5,2.66-.54,4.33-1,4.33-1,.92,10,6.47,15.93,12.45,23.6,5,6.42,6.08,16,5.28,23.2a31.12,31.12,0,0,1-.66,3.89c-1.2,5,5.21,6.12,9.3,6.36l.53,0c1,0,1.76,0,2.22,0l.46,0c7.35,0,12.77-1.9,16.72-4.66a21.15,21.15,0,0,0,2.59-2.13,23,23,0,0,0,6.92-15.05,14.51,14.51,0,0,0,0-1.76c-.53-6.75-6-5.68-6-5.68-1-6.76-5.44-16.89-8.68-32.46-2.26-10.86,3.3-19.54,6.77-33.71a48.62,48.62,0,0,0,7.7,17.12c.5,11.55-.08,15.06-.08,15.06.82,21,17.44,16.28,17.44,16.28S302.65,175.68,304,157.51Z"/>
    <g>
      <g>
        <path class="cls-3" d="M286.83,105.57S288,129.8,295,139.51c0,0,4.06,5.62-1.16,5a47.42,47.42,0,0,1-10.33-27.53C282.76,100.2,286.83,105.57,286.83,105.57Z"/>
        <path class="cls-4" d="M294.54,141s10.78-1.65,9.44,16.52,5.71,16.4,5.71,16.4-16.62,4.7-17.44-16.28c0,0,.62-3.72,0-16.21"/>
      </g>
      <g>
        <path class="cls-3" d="M73.46,222.43q.39.16.81.3a27.29,27.29,0,0,0,3.15.87,40.33,40.33,0,0,0,11,.7c1.27-.09,2.57-.23,3.89-.45a40.57,40.57,0,0,0,4-.84c5.71-1.48,8.25-3.35,9.21-5.08,1.54-2.74-.84-5.13-.84-5.13S106,201.25,108,191.39s3.66-9,3.66-9c9-6.26,28.72-25.83,28.72-25.83,3.4-9.85-20.83-31.24-32.43-36.38-3.87-1.72-6.33-1.64-5.91,1.28,1.68,11.65-6.4,35.9-13.48,46.33s-9.32,16.35-9.35,28.89-5.38,15.91-5.38,15.91a14.36,14.36,0,0,0-2.41,2.08,9.82,9.82,0,0,0-2.27,3.76C68.75,219.72,70.42,221.25,73.46,222.43Z"/>
        <path class="cls-5" d="M73.46,222.43q.39.16.81.3a27.29,27.29,0,0,0,3.15.87,7.56,7.56,0,0,1-.21-1.76c.06-4.8,5.41-7.46,8.48-11.16,3.51-4.2,4.08-10.1,3.9-15.58s-1-11,.39-16.36c1.68-6.5,6.35-11.73,9.75-17.53,7.16-12.21,8.55-26.79,8.21-41.07-3.87-1.72-6.33-1.64-5.91,1.28,1.68,11.65-6.4,35.9-13.48,46.33s-9.32,16.35-9.35,28.89-5.38,15.91-5.38,15.91a14.36,14.36,0,0,0-2.41,2.08,9.82,9.82,0,0,0-2.27,3.76C68.75,219.72,70.42,221.25,73.46,222.43Z"/>
        <g>
          <path class="cls-3" d="M186.41,210.08c1.06,3.91,4.31,6.15,8.55,7.17.5.12,1,.23,1.56.31a26.78,26.78,0,0,0,4,.35,44.83,44.83,0,0,0,12.24-1.55c.53-.13,1-.27,1.55-.43q1.36-.41,2.64-.87c11.36-4.12,3.84-10.6,3.84-10.6a.84.84,0,0,1,0-.14c.15-.91.92-6,1.34-19,.47-14.45,13.47-23,13.47-23-4.87-11-30.26-5.19-41.42-.76-4.32,1.72-6.51,3.23-4.57,3.51,6.93,1,4.71,39.77.47,40.91H190C185.77,206.82,186.41,210.08,186.41,210.08Z"/>
          <path class="cls-5" d="M186.41,210.08c1.06,3.91,4.31,6.15,8.55,7.17.37-2.08-1-4.64-1.34-6.95a7.45,7.45,0,0,1,4.23.31c3.64-5.72,3.44-13,3-19.75a96.84,96.84,0,0,0-2.19-16.28c-1.08-4.39-3-8.48-4.36-12.76,0-.1-.07-.19-.09-.29-4.32,1.72-6.51,3.23-4.57,3.51,6.93,1,4.71,39.77.47,40.91H190C185.77,206.82,186.41,210.08,186.41,210.08Z"/>
          <path class="cls-6" d="M214.29,215.93q1.36-.41,2.64-.87c11.36-4.12,3.84-10.6,3.84-10.6a.84.84,0,0,1,0-.14,4.58,4.58,0,0,0-3.44,1.41C214.15,208.57,214,213.13,214.29,215.93Z"/>
          <path class="cls-6" d="M200.5,217.91a44.83,44.83,0,0,0,12.24-1.55,10.8,10.8,0,0,0-7.75-6.17C200.72,209.41,200.27,214.28,200.5,217.91Z"/>
          <path class="cls-6" d="M186.41,210.08c1.19,4.37,5.12,6.66,10.11,7.48.39-3.13.33-9.67-6.44-11.61H190C185.77,206.82,186.41,210.08,186.41,210.08Z"/>
        </g>
        <g>
          <path class="cls-3" d="M113.84,147.62c15.58,12,57.69,21.07,64.75,18.81s15.08-3.51,27.46-.61,30.75-2,30.75-2c.92,10,6.47,15.93,12.45,23.6,5,6.42,6.08,16,5.28,23.2a31.12,31.12,0,0,1-.66,3.89c-1.2,5,5.21,6.12,9.3,6.36l.53,0c1,0,1.76,0,2.22,0l.46,0c7.35,0,12.77-1.9,16.72-4.66a21.15,21.15,0,0,0,2.59-2.13,23,23,0,0,0,6.92-15.05,14.51,14.51,0,0,0,0-1.76c-.53-6.75-6-5.68-6-5.68-1-6.76-5.44-16.89-8.68-32.46s9.59-26.63,9.29-55.83-27-43-27-43-69.51-18.21-77.68-20a14.08,14.08,0,0,0-13.1,3.82l-37.61,6-29.42,67.15-.75,1.72S98.26,135.64,113.84,147.62Z"/>
          <path class="cls-6" d="M285.69,214.11a23,23,0,0,0,6.92-15.05C288.55,199.81,277.71,202.93,285.69,214.11Z"/>
          <path class="cls-6" d="M265.92,220.92l.46,0c7.35,0,12.77-1.9,16.72-4.66-.84-1.21-3.42-3.5-11-3.38C267,212.94,265.81,217,265.92,220.92Z"/>
          <path class="cls-6" d="M263.17,220.87c-.94-3.21-3.23-8.17-8.64-10.25a31.12,31.12,0,0,1-.66,3.89C252.67,219.47,259.08,220.63,263.17,220.87Z"/>
          <path class="cls-5" d="M114.4,146.57c15.58,12,57.69,21.08,64.75,18.81s15.08-3.5,27.46-.6,30.75-2,30.75-2c.93,10,6.47,15.92,12.46,23.6,5,6.42,6.07,16,5.27,23.2a31.44,31.44,0,0,1-.66,3.89c-1.19,5,5.22,6.11,9.31,6.36l.52,0a20.58,20.58,0,0,1-.56-2.59c-1.51-10.06,3.4-21.49-2.3-29.9-2.7-4-7.33-6.38-9.73-10.53-3.19-5.53-2.2-13.69-7.54-17.21-3.41-2.25-7.89-1.44-11.95-.92a68.27,68.27,0,0,1-20.43-.52c-6.42-1.13-12.68-3.14-19.15-3.94s-13.07-.36-19.62-.33c-15.17.07-30.74-2.21-43.93-9.72a52.89,52.89,0,0,1-15.49-13.3c-3-3.83-5.44-13.3-10.34-14.54l-.36-.08-.75,1.72S98.82,134.59,114.4,146.57Z"/>
        </g>
        <path class="cls-7" d="M19.5,64s2.41,2.7-.38,15.58-5.84,30.12,10.25,38,22.11,6.7,26.9,1.24-17-14.64-17-14.64L30.1,98.88l-.72-16.36S30.27,66.71,26.52,63s-7.37-3.61-7.37-3.61Z"/>
      </g>
      <g>
        <g>
          <path class="cls-8" d="M22.6,55.05s-2.25-2.79-5.55-2-.38,3.26-2.76,4.3-6.3,4.1-.95,6.24c0,0,2,3.62,7,1.44A6.24,6.24,0,0,0,22.6,55.05Z"/>
          <path class="cls-9" d="M19.8,57.86s.09,2.9-2.5,3.33S21.74,64.28,19.8,57.86Z"/>
          <path class="cls-9" d="M16.52,58s-.16,2-1.3,2.58S14.52,59.09,16.52,58Z"/>
        </g>
        <g>
          <g>
            <path class="cls-10" d="M43.26,155.48c-3.39-3.84.2-15.29.2-15.29.32-1.13.66-2.23,1-3.31,8.58-25.29,29.6-39,29.6-39,.9,8.14,5,11.83,5,11.83-14.6,9.76-23.31,20.52-28.07,28.9a40,40,0,0,0-4.68,11.55C45.07,157.22,43.26,155.48,43.26,155.48Z"/>
            <path class="cls-11" d="M43.26,155.48c-3.39-3.84.2-15.29.2-15.29.32-1.13.66-2.23,1-3.31a12.74,12.74,0,0,1,6.57,1.77,40,40,0,0,0-4.68,11.55C45.07,157.22,43.26,155.48,43.26,155.48Z"/>
          </g>
          <path class="cls-3" d="M25.12,79.39C21.85,95.75,23.19,111.75,43,121.63c0,0,7.25,3.35,30.08-4.39,0,0,2.51,7.06.56,13.36,0,0-1.11,7.45,7.44,1.36s15.58-11.34,23.67-10.46,23.56.39,29-14.77,28.83-66.3,28.83-66.3S154.91,42.9,137.94,34c-.83-.43-1.67-.9-2.54-1.38,0,0-8.42-5.76-18.54-5.34a51.68,51.68,0,0,0-15,5,14.27,14.27,0,0,0-12-2.38c-7,1.76-10.77,9.13-11.54,13.59,0,0-2.54,1.41-4.32,6.34a110.48,110.48,0,0,0-9.17,9.81C61,64.34,61.34,77.82,60.48,85.15A42.31,42.31,0,0,0,57,92s-.43.38-1.18,1c-2,1.52-6.29,4.36-10.21,4.42C40.25,97.46,33.16,97,32,84s1-22-9-27.35l-1,4.7S28.39,63,25.12,79.39Z"/>
          <path class="cls-12" d="M55.83,93l.14.57L56.26,99c7.26,9.87,19.38-3.39,19.38-3.39s11.51-8.8,16-14.55,6.7-19.14,15.12-30.76C113.35,41.2,130.7,35.84,137.94,34c-.83-.43-1.67-.9-2.54-1.38,0,0-8.42-5.76-18.54-5.34a51.68,51.68,0,0,0-15,5,14.27,14.27,0,0,0-12-2.38c-7,1.76-10.77,9.13-11.54,13.59,0,0-2.54,1.41-4.32,6.34a110.48,110.48,0,0,0-9.17,9.81C61,64.34,61.34,77.82,60.48,85.15A42.31,42.31,0,0,0,57,92S56.58,92.4,55.83,93Z"/>
          <g>
            <g>
              <g>
                <g>
                  <path class="cls-13" d="M104.44,78.34c-.13,4,1.57,4.63,5,4.74a7,7,0,0,0,7-6.85c.13-4-1.55-7.41-5-7.53S104.57,74.35,104.44,78.34Z"/>
                  <path class="cls-4" d="M104.49,78.34a6.9,6.9,0,0,0,.34,2.56,2.62,2.62,0,0,0,1.8,1.61,8.6,8.6,0,0,0,2.54.24,5.9,5.9,0,0,0,2.41-.48A6.52,6.52,0,0,0,114.91,79a7.78,7.78,0,0,0,.55-4.62,6.5,6.5,0,0,0-1.83-4.1,3.87,3.87,0,0,0-2-.92,3.3,3.3,0,0,0-2.18.42A9.7,9.7,0,0,0,106,73.41,11.31,11.31,0,0,0,104.49,78.34Zm-.1,0a12.66,12.66,0,0,1,1.43-5,10.16,10.16,0,0,1,3.36-4,4.27,4.27,0,0,1,5,.28,7.1,7.1,0,0,1,2.29,4.66,11.09,11.09,0,0,1,0,2.64,7.25,7.25,0,0,1-.81,2.51,7.16,7.16,0,0,1-3.92,3.38,6.6,6.6,0,0,1-2.61.35,9.23,9.23,0,0,1-2.6-.41,2.87,2.87,0,0,1-1.85-1.79A6.94,6.94,0,0,1,104.39,78.34Z"/>
                </g>
                <g>
                  <ellipse class="cls-4" cx="109.79" cy="77.23" rx="4.06" ry="3.64" transform="translate(-1.51 152.25) rotate(-69.11)"/>
                  <ellipse class="cls-13" cx="109.15" cy="74.39" rx="1.12" ry="1.01" transform="translate(0.72 149.84) rotate(-69.11)"/>
                </g>
              </g>
              <path class="cls-4" d="M111.41,62.39a6.19,6.19,0,0,1,6.46,4.3S120.14,58.78,111.41,62.39Z"/>
            </g>
            <path class="cls-4" d="M114.51,69.64s3.82,4.29,6.67,2.16c0,0-.7,2.13-3.58,1.13a3.28,3.28,0,0,0,2.73,1.35h.28c2.15-.07-2,1.88-3.89-.06"/>
          </g>
          <g>
            <path class="cls-3" d="M134.45,46.38s23.15-9.85,39-3.23,19.74,14.36,11,33.91-12,9.71-15.73,27.43-20.25,28.41-31,30.05l.27-.49s-6.95-8.83-6.24-19.28,1.18-9.44-1-16.5"/>
            <path class="cls-3" d="M179.89,64.56S181.05,51.75,166,48,143,51.15,140.83,57.31s-1,8.82-1,8.82"/>
            <path class="cls-8" d="M154.53,77.21s9.79,2.07,14.42,9.2"/>
            <path class="cls-8" d="M144.61,87.12S158.42,92.06,159.82,99"/>
            <path class="cls-8" d="M143.31,96.31s6.51,7.19,4.37,19.22"/>
          </g>
          <path class="cls-14" d="M80.91,40.53a1,1,0,0,0,0-2,1,1,0,0,0,0,2Z"/>
          <g>
            <path class="cls-14" d="M81.75,58.9a4.79,4.79,0,0,1,2.87,3.37,5.89,5.89,0,0,1-.93,4.64A8.24,8.24,0,0,1,79.53,70a10.09,10.09,0,0,1-5.24.56c-3.6-.81-3.18-6-1.68-8.36a5.89,5.89,0,0,1,3.8-2.75,3.23,3.23,0,0,1,3.8,2.17c.6,1.68.38,4.06-1.22,5.12a2.34,2.34,0,0,1-2.55.15,1.79,1.79,0,0,1-.7-2.1c.26-.59-.6-1.1-.86-.51a2.82,2.82,0,0,0,2.2,3.89,4,4,0,0,0,4.27-3.36,5.67,5.67,0,0,0-1.49-5.47,4.85,4.85,0,0,0-5.49-.2c-3.46,1.91-5.1,7.12-2.93,10.55,1.25,2,3.52,2.14,5.64,1.88A10.85,10.85,0,0,0,83.21,69a7.43,7.43,0,0,0,2.53-6.14A5.91,5.91,0,0,0,82,57.94c-.61-.23-.87.74-.27,1Z"/>
            <path class="cls-14" d="M79.86,57a4.85,4.85,0,0,1,.56-5.93c1.4-1.43,4.07-2.19,5.68-.66a5.83,5.83,0,0,1,1.25,5.68A3,3,0,0,1,85.11,58a3.37,3.37,0,0,1-3-.4,2.56,2.56,0,0,1-.21-3.33,1.22,1.22,0,0,1,1.45-.3.81.81,0,0,1,.28,1.07c-.4.5.31,1.21.7.7A1.79,1.79,0,0,0,83.44,53a2.44,2.44,0,0,0-3,2,3.52,3.52,0,0,0,1.34,3.75,4.85,4.85,0,0,0,4.16.13c2.8-1.09,3-4.49,2.12-7a4.7,4.7,0,0,0-2.79-3,5.42,5.42,0,0,0-4.15.47A5.86,5.86,0,0,0,79,57.52c.34.54,1.21,0,.87-.51Z"/>
            <path class="cls-14" d="M73.5,58.48a3.89,3.89,0,0,0-1.85-3.63,4.19,4.19,0,0,0-4.16-.43,9.66,9.66,0,0,0-3,3.06,6.91,6.91,0,0,0-1.21,3.94c.08,2.4,2,5.33,4.7,5,1.47-.19,2.32-1.76,2.79-3s.76-3-.34-3.95a2.22,2.22,0,0,0-3.24.37A2.24,2.24,0,0,0,68,62.94c.58.27,1.09-.59.51-.87a1.22,1.22,0,0,1-.45-1.88,1.2,1.2,0,0,1,2,.57,4.69,4.69,0,0,1-.69,3.17,3.45,3.45,0,0,1-1,1.28,1.91,1.91,0,0,1-1.68,0A4.31,4.31,0,0,1,64.24,61a7.7,7.7,0,0,1,3-5.12A2.63,2.63,0,0,1,69,55a4.19,4.19,0,0,1,1.7.43,3,3,0,0,1,1.83,3c-.07.64.93.63,1,0Z"/>
            <path class="cls-14" d="M89.78,55.53c.56-.64,1.29-1.49,2.24-1.28a3.24,3.24,0,0,1,1.85,1.44,4.51,4.51,0,0,1,.25,4.48,5.46,5.46,0,0,1-3.85,2.76,2.86,2.86,0,0,1-2.41-.5A2.58,2.58,0,0,1,87.44,60a2.52,2.52,0,0,1,1.5-2c.48-.14,1,.07.9.65s-.57.72-1,.83c-.62.15-.36,1.11.27,1a2,2,0,0,0,1.65-2.41c-.38-1.24-1.85-1.29-2.79-.68-1.79,1.18-2.39,4.63-.51,6s4.82.27,6.35-1.19A5.56,5.56,0,0,0,95.16,56a4.73,4.73,0,0,0-2.58-2.63c-1.45-.54-2.6.42-3.51,1.44-.42.48.28,1.19.71.71Z"/>
            <path class="cls-14" d="M90.8,65.16A5.6,5.6,0,0,1,93.27,71a7,7,0,0,1-4.9,5.08,6.47,6.47,0,0,1-3.72.24c-1.37-.41-1.83-1.72-1.87-3a7.66,7.66,0,0,1,1-4.24c.73-1.2,2.06-2.2,3.41-1.29s2,2.43.89,3.79A2.35,2.35,0,0,1,86,72.5c-1.06-.17-1.18-1.08-1-2,.14-.63-.83-.89-1-.26a2.64,2.64,0,0,0,.32,2.38,2.48,2.48,0,0,0,2.17.85,3.63,3.63,0,0,0,3.14-3.32,4,4,0,0,0-2.79-3.66c-1.75-.57-3.34.88-4.11,2.31-1.48,2.71-1.87,8,2.12,8.61a8.79,8.79,0,0,0,8.56-4.15,6.73,6.73,0,0,0-2.18-9,.5.5,0,0,0-.51.86Z"/>
            <path class="cls-14" d="M77.2,73.65a4.48,4.48,0,0,1-1.15,5.73,7,7,0,0,1-6.55,1,4.43,4.43,0,0,1-1.35-.6,2,2,0,0,1-.77-1.55,6.85,6.85,0,0,1,.33-3.42,4,4,0,0,1,2.07-2c.84-.37,2.31-.78,3.14-.21A2.37,2.37,0,0,1,73.37,76a1.2,1.2,0,0,1-1.38.3A.92.92,0,0,1,71.6,75a.5.5,0,0,0-.86-.5,2,2,0,0,0,1.11,2.77,2.44,2.44,0,0,0,2.92-1.85,3.54,3.54,0,0,0-1.51-3.76c-1.2-.62-2.9-.2-4.06.34a4.84,4.84,0,0,0-2.62,3,7.63,7.63,0,0,0-.25,2.38,5.35,5.35,0,0,0,.4,2.21c.66,1.32,2.42,1.79,3.75,2a8.27,8.27,0,0,0,4.64-.52c3-1.33,4.77-5,2.94-8-.33-.54-1.2,0-.86.51Z"/>
            <path class="cls-14" d="M66.67,66.67a3.26,3.26,0,0,0-3,1A2.27,2.27,0,0,0,64,70.43a2.71,2.71,0,0,0,3,.52,2.68,2.68,0,0,0,1.86-2.62,1.45,1.45,0,0,0-1.15-1.21,1.55,1.55,0,0,0-1.59.6.5.5,0,0,0,.18.68.52.52,0,0,0,.69-.17c-.06.07,0,0,.05,0s-.08,0,0,0l.1-.06c.07,0-.1,0,0,0l.09,0c.13,0-.07,0,.06,0h.09c.11,0,0,0,.06,0l.14,0s-.07,0,0,0,.12.08.07,0,.06.06,0,0,0,0,0,0,.08.15,0,.08a.59.59,0,0,1,0,.19.93.93,0,0,1-.09.47,1.66,1.66,0,0,1-.26.41,2.3,2.3,0,0,1-.88.63,2.19,2.19,0,0,1-1.09.16,1.74,1.74,0,0,1-.46-.13,1,1,0,0,1-.38-.27l-.09-.09c-.06-.08,0,0,0,0a2.53,2.53,0,0,1-.13-.22,1.26,1.26,0,0,1-.15-.44.29.29,0,1,0,0,0,.34.34,0,0,1,0-.1,2.09,2.09,0,0,1,0-.25c0,.09,0,0,0,0l0-.12s0-.14,0-.08.06-.09.07-.11a1,1,0,0,1,.33-.32,1.65,1.65,0,0,1,.51-.2,5.06,5.06,0,0,1,1.3-.08.5.5,0,0,0,0-1Z"/>
            <path class="cls-14" d="M82.43,78.3a3.78,3.78,0,0,1,.46,3.46,3.1,3.1,0,0,1-2.61,2.06A2.17,2.17,0,0,1,78,81.73a4.08,4.08,0,0,1,.44-1.9,2,2,0,0,1,1.11-1.14c.39-.12,1,0,1.1.5a.83.83,0,0,1-.32.72,1.12,1.12,0,0,1-.39.23.65.65,0,0,1-.19,0c-.11,0-.07-.12-.09,0a.52.52,0,0,0-.35-.62.52.52,0,0,0-.62.35,1,1,0,0,0,.59,1.16,1.55,1.55,0,0,0,1.44-.2,1.82,1.82,0,0,0,.77-2.28,1.88,1.88,0,0,0-2-.9,2.76,2.76,0,0,0-1.9,1.56c-.86,1.68-1,3.94.8,5.06a3.67,3.67,0,0,0,4.72-.92,4.67,4.67,0,0,0,.22-5.58c-.37-.52-1.24,0-.87.5Z"/>
            <path class="cls-14" d="M76.25,56.85a.5.5,0,0,0,0-1,.5.5,0,0,0,0,1Z"/>
          </g>
          <path class="cls-15" d="M113.78,41.59s-11,7-15,19S87.48,87,75.43,93.36c0,0-5.29,9.31-13.35,7.8s-4.43-5.63-2-5.92c0,0-4.87,3.83,1.77,3.05s5.11-7.7-.12-7.87-9.1,3.83-7.36,7.87,13.05,12.77,21.38-1.67A33.47,33.47,0,0,0,93.78,81.36c6.37-11.77,8.4-28.42,26.7-38.93Z"/>
          <g>
            <path class="cls-16" d="M101.39,31.21S87,38.14,83.55,33.35L81.31,36s9.1,5,19.28-3.3Z"/>
            <path class="cls-16" d="M98.18,35.13s-14.45,6.93-17.85,2.14L78.1,39.91s9.1,5,19.28-3.31Z"/>
            <g>
              <g>
                <path class="cls-16" d="M142.14,36.15,136,33.08s-10.85,7.88-22.52,6-14.17-5.32-14.17-5.32l-3.73,3.49s5.29,6.16,18.24,6.71S142.14,36.15,142.14,36.15Z"/>
                <path class="cls-16" d="M133.19,31.49s-14,11-31.33.74l6.7-3s10.69,5.21,17.12-.94l6.89,3"/>
              </g>
              <path class="cls-14" d="M114.53,43.87c3.22,0,3.22-5,0-5s-3.22,5,0,5Z"/>
              <path class="cls-14" d="M107.8,43.65c3.22,0,3.23-5,0-5s-3.22,5,0,5Z"/>
              <path class="cls-14" d="M101.71,41.21c3.22,0,3.22-5,0-5s-3.22,5,0,5Z"/>
              <path class="cls-14" d="M122.88,43.2c3.22,0,3.22-5,0-5s-3.22,5,0,5Z"/>
              <path class="cls-14" d="M129.59,41.18c3.21,0,3.22-5,0-5s-3.23,5,0,5Z"/>
              <path class="cls-14" d="M134.89,39.1c3.22,0,3.23-5,0-5s-3.22,5,0,5Z"/>
              <path class="cls-14" d="M126.91,34.26c3.22,0,3.22-5,0-5s-3.22,5,0,5Z"/>
              <path class="cls-14" d="M120.22,35.82c3.22,0,3.22-5,0-5s-3.22,5,0,5Z"/>
              <path class="cls-14" d="M113.85,36.08c3.22,0,3.22-5,0-5s-3.22,5,0,5Z"/>
              <path class="cls-14" d="M107.71,35c3.22,0,3.22-5,0-5s-3.22,5,0,5Z"/>
            </g>
            <path class="cls-14" d="M96.55,34.8a.5.5,0,0,0,0-1,.5.5,0,0,0,0,1Z"/>
            <path class="cls-14" d="M94.27,36a.5.5,0,0,0,0-1,.5.5,0,0,0,0,1Z"/>
            <path class="cls-14" d="M91.75,37.14a1,1,0,0,0,0-2,1,1,0,0,0,0,2Z"/>
            <path class="cls-14" d="M88.62,37.54a1,1,0,0,0,0-2,1,1,0,0,0,0,2Z"/>
            <path class="cls-14" d="M86.38,37.47a1,1,0,0,0,0-2,1,1,0,0,0,0,2Z"/>
            <path class="cls-14" d="M83.9,36.89a1,1,0,0,0,0-2,1,1,0,0,0,0,2Z"/>
            <path class="cls-14" d="M84.39,41.14a1,1,0,0,0,0-2,1,1,0,0,0,0,2Z"/>
            <path class="cls-14" d="M88.51,40.9a1,1,0,0,0,0-2,1,1,0,0,0,0,2Z"/>
            <path class="cls-14" d="M92.78,39.92a1,1,0,0,0,0-2,1,1,0,0,0,0,2Z"/>
          </g>
          <path class="cls-17" d="M111.84,105.27s-2.67,9.14-16.14,9.33-8.92-5.9-23,2.5"/>
          <path class="cls-18" d="M90.17,115.92s-5.71,10.54-10.31,10.27c0,0-2.48-.71-1.39-7.41s.17-5,.17-5,3.43-2,8.61-.1l3.58.87Z"/>
          <g>
            <path class="cls-10" d="M54.65,164.91c5.94,1.56,16.8-6.31,16.8-6.31,1.08-.75,2.13-1.5,3.14-2.28,23.66-18,28.25-42.74,28.25-42.74-9.43,2.44-15.59.12-15.59.12-3.48,17.3-11,29.59-17.9,37.31a44.25,44.25,0,0,1-10.42,8.93C51.82,164,54.65,164.91,54.65,164.91Z"/>
            <path class="cls-11" d="M54.65,164.91c5.94,1.56,16.8-6.31,16.8-6.31,1.08-.75,2.13-1.5,3.14-2.28A13.85,13.85,0,0,0,69.35,151a44.25,44.25,0,0,1-10.42,8.93C51.82,164,54.65,164.91,54.65,164.91Z"/>
          </g>
        </g>
        <g>
          <g>
            <path class="cls-19" d="M48,96.84s5.22.73,5.29,9.9"/>
            <path class="cls-20" d="M48,96.8a4.51,4.51,0,0,1,3,1.14,6.92,6.92,0,0,1,1.89,2.63,10.35,10.35,0,0,1,.49,1.52,14,14,0,0,1,.24,1.56c0,.52,0,1,0,1.56s-.12,1-.24,1.53h-.07l-.08-1.5c0-.5-.12-1-.18-1.5a13.52,13.52,0,0,0-.84-2.87,8,8,0,0,0-1.61-2.51A5.41,5.41,0,0,0,48,96.88Z"/>
          </g>
          <g>
            <path class="cls-19" d="M42,97.21s3.31,2,2.36,8.12"/>
            <path class="cls-20" d="M42,97.18a3.76,3.76,0,0,1,1.91,1.4,6.17,6.17,0,0,1,1,2.18,7.18,7.18,0,0,1,.13,2.35,10.44,10.44,0,0,1-.22,1.14c-.15.37-.26.74-.44,1.09l-.08,0,.12-1.1c0-.37,0-.73,0-1.1a10,10,0,0,0-.27-2.19,7.61,7.61,0,0,0-.78-2.05A5.16,5.16,0,0,0,42,97.24Z"/>
          </g>
        </g>
        <g>
          <g>
            <path class="cls-21" d="M190.79,67c-1.89,23.7-4.13,29.24-4.46,45.13-.21,10-.92,24.12-1.41,33.11-.29,5.23-.5,8.74-.5,8.74a50.17,50.17,0,0,1,15-1.58c9,.29,6.61,3.59,6.61,3.59a76.48,76.48,0,0,0,25.3-1.05c10.44-2.26,14.9-1.16,15.5.72a2.05,2.05,0,0,1-.43,1.82,38.29,38.29,0,0,1,11.19,1.11c4.24,1.29,3.83,2.73,3.68,3a26.1,26.1,0,0,0,1.87-5.28c2.48-9,6.77-32,8.94-87.1,0,0-17.22-23-60.42-29.45,0,0-27.92-4.28-37.25.85C174.43,40.69,192.67,43.33,190.79,67Z"/>
            <path class="cls-12" d="M184.42,154a50.17,50.17,0,0,1,15-1.58c9,.29,6.61,3.59,6.61,3.59a76.48,76.48,0,0,0,25.3-1.05c10.44-2.26,14.9-1.16,15.5.72a2.05,2.05,0,0,1-.43,1.82,38.29,38.29,0,0,1,11.19,1.11c4.24,1.29,3.83,2.73,3.68,3a26.1,26.1,0,0,0,1.87-5.28c-1.74-1.62-5-3.49-10.8-3.35,0,0-4.69.4-5.39-.93l-.08-3.37s-5.89-2.81-18.9.14-19.19,3.12-20.36-1c0,0,1.26-4.27-5.68-3.74-5.91.44-12.17,3.32-17,1.17C184.63,150.51,184.42,154,184.42,154Z"/>
            <path class="cls-22" d="M206.05,156s2.74-9.27,2.52-31.35"/>
            <path class="cls-21" d="M246.84,156l.73-22.62"/>
          </g>
          <path class="cls-23" d="M255,87.09c5.79,0,5.8-9,0-9s-5.8,9,0,9Z"/>
          <path class="cls-23" d="M223.74,82.33c5.79,0,5.8-9,0-9s-5.8,9,0,9Z"/>
          <path class="cls-23" d="M225.42,111.2c5.8,0,5.81-9,0-9s-5.8,9,0,9Z"/>
          <path class="cls-23" d="M238.67,95.16c5.79,0,5.8-9,0-9s-5.8,9,0,9Z"/>
          <path class="cls-23" d="M253.62,118.85c5.79,0,5.8-9,0-9s-5.81,9,0,9Z"/>
          <path class="cls-23" d="M216.82,134.12c5.8,0,5.81-9,0-9s-5.8,9,0,9Z"/>
          <path class="cls-23" d="M240.12,142.73c5.79,0,5.8-9,0-9s-5.8,9,0,9Z"/>
          <path class="cls-23" d="M259.57,143c5.79,0,5.8-9,0-9s-5.8,9,0,9Z"/>
          <path class="cls-23" d="M200.87,118.26c5.79,0,5.8-9,0-9s-5.8,9,0,9Z"/>
          <path class="cls-23" d="M201.32,92.83c5.79,0,5.8-9,0-9s-5.8,9,0,9Z"/>
          <path class="cls-23" d="M201.77,67.4c5.79,0,5.8-9,0-9s-5.8,9,0,9Z"/>
          <path class="cls-23" d="M240.67,67.91c5.79,0,5.8-9,0-9s-5.8,9,0,9Z"/>
          <path class="cls-23" d="M202.76,48.35c5.79,0,5.8-9,0-9s-5.8,9,0,9Z"/>
          <path class="cls-23" d="M218.87,59.35c5.79,0,5.8-9,0-9s-5.8,9,0,9Z"/>
          <path class="cls-23" d="M254.08,69.84c5.79,0,5.8-9,0-9s-5.8,9,0,9Z"/>
          <path class="cls-23" d="M195.71,139.05c5.79,0,5.8-9,0-9s-5.8,9,0,9Z"/>
        </g>
        <g>
          <path class="cls-3" d="M135.84,140.28s1.29,12.39,7.71,21.77,6.46,14.43,5.61,23.38,4.68,17.18-1.11,28.59a15.62,15.62,0,0,0-1.79,1.7c-1.69,1.89-3.64,5-1.32,7.74a10.82,10.82,0,0,0,4.52,2.54h0a30.88,30.88,0,0,0,3.59,1h0a38.48,38.48,0,0,0,16.19-.14c.72-.17,1.43-.37,2.14-.6a21.83,21.83,0,0,0,9.19-5.53s2-2.35-1-7.26c-.12-.21-.27-.43-.41-.65a155.68,155.68,0,0,0,1.26-21.66c-.19-11.42.11-26.57.11-26.57s7.94-8.16,11.93-16.08"/>
          <path class="cls-17" d="M172.94,174.05a55.86,55.86,0,0,0-1.61,6.67,10.22,10.22,0,0,1-3.31,5.87,41.33,41.33,0,0,1,7.35-6.82,78.37,78.37,0,0,1-3.37,7.62,4.34,4.34,0,0,1-2.4,2.46"/>
          <path class="cls-17" d="M150.54,194.85l8.55,1.05a.75.75,0,0,1,1.1-.33c-1.57.45-3,1.27-4.55,1.82a6.62,6.62,0,0,1-4.79.17A29.39,29.39,0,0,0,164,200.85"/>
          <path class="cls-6" d="M144.94,223.46a10.82,10.82,0,0,0,4.52,2.54h0c4.19-7.77-.17-9.78-3.2-10.28C144.57,217.61,142.62,220.74,144.94,223.46Z"/>
          <path class="cls-6" d="M153.05,227a38.48,38.48,0,0,0,16.19-.14c0-.13-.05-.26-.08-.4-.41-2.16-2-6.49-8-6.55C157.43,219.84,154.81,223.26,153.05,227Z"/>
          <path class="cls-6" d="M171.38,226.22a21.83,21.83,0,0,0,9.19-5.53s2-2.35-1-7.26c-.91-.62-2.09-.59-3.64.75C172.16,217.44,169.71,222.61,171.38,226.22Z"/>
        </g>
        <path class="cls-17" d="M236.8,163.82s1,1,10.39-5.15"/>
        <path class="cls-6" d="M92.29,223.85a40.57,40.57,0,0,0,4-.84c5.71-1.48,8.25-3.35,9.21-5.08C102.88,216.36,94.74,212.59,92.29,223.85Z"/>
        <path class="cls-6" d="M74.27,222.73A37,37,0,0,0,88.4,224.3c-.22-2.54-1.51-6.29-7.06-7.2C77,216.39,75.1,219.49,74.27,222.73Z"/>
        <path class="cls-6" d="M73.46,222.43c.61-1.89,1.48-6.06-2-7.8a9.82,9.82,0,0,0-2.27,3.76C68.75,219.72,70.42,221.25,73.46,222.43Z"/>
        <path class="cls-17" d="M88.63,188.35l-8-1.2c.2-.18.51,0,.71.19l6.49,5.89a9,9,0,0,0-4.42-1.15c-.45,0-1,.14-1.12.59s.17.64.41.88a9.58,9.58,0,0,0,2.15,1.59"/>
      </g>
    </g>
  </g>
</svg>
